<?xml version="1.0" encoding="UTF-8"?>
<svg id="Layer_2" data-name="Layer 2" xmlns="http://www.w3.org/2000/svg" viewBox="0 0 205.86 22">
  <defs>
    <style>
      .cls-1 {
        fill: #163b51;
      }

      .cls-2 {
        fill: #f4e3d7;
      }

      .cls-3 {
        fill: #855e42;
      }
    </style>
  </defs>
  <g id="Layer_1-2" data-name="Layer 1">
    <g>
      <g>
        <rect class="cls-1" x=".85" y=".85" width="204.17" height="20.31" rx="5.31" ry="5.31"/>
        <path class="cls-3" d="M199.34,22H6.52c-3.6,0-6.52-2.93-6.52-6.52V6.52C0,2.93,2.93,0,6.52,0h192.81c3.6,0,6.52,2.93,6.52,6.52v8.95c0,3.6-2.93,6.52-6.52,6.52ZM6.52,1.69C3.86,1.69,1.69,3.86,1.69,6.52v8.95c0,2.66,2.17,4.83,4.83,4.83h192.81c2.66,0,4.83-2.17,4.83-4.83V6.52c0-2.66-2.17-4.83-4.83-4.83H6.52Z"/>
      </g>
      <g>
        <path class="cls-2" d="M17.74,14.68c-.05.15-.14.28-.27.39-.13.11-.27.2-.43.26-.16.06-.28.06-.38,0-.13-.08-.25-.1-.36-.09-.11.02-.22.04-.31.07-.1.03-.19.06-.29.08-.1.02-.19,0-.29-.05l-1.98-.29c-.12,0-.26.03-.44.09-.17.06-.35.11-.52.16s-.35.08-.51.09c-.16.01-.28-.03-.37-.13-.17-.01-.33-.03-.47-.06-.14-.03-.29-.06-.45-.09-.12-.02-.29-.02-.52,0s-.47.04-.73.06c-.26.03-.51.05-.77.08-.25.03-.46.04-.64.04-.45,0-.91.03-1.36.08-.46.05-.92.09-1.39.11-.22.01-.4,0-.56-.04-.16-.04-.27-.09-.33-.15s-.08-.15-.05-.24c.03-.1.13-.2.31-.31.12-.08.28-.16.49-.26.21-.1.41-.19.6-.27.19-.09.35-.15.48-.2.12-.05.16-.06.12-.04.15-.08.31-.28.48-.6.17-.33.35-.73.55-1.2.19-.47.39-.98.59-1.53.2-.55.4-1.08.6-1.6.2-.52.39-.98.58-1.4.19-.42.36-.73.52-.93.03-.24.07-.49.12-.77.05-.28.11-.56.18-.84.07-.28.15-.55.25-.81.1-.26.21-.49.34-.69.12-.18.26-.3.41-.35.16-.05.31-.06.47,0,.16.05.3.14.43.27.13.13.23.28.29.47.05.16.12.31.21.46.09.14.17.29.26.43.09.14.16.28.23.43.07.15.12.29.14.44.04.26.08.52.1.79.02.27.05.54.08.81.03.27.08.53.14.79.06.26.17.51.31.74.08.14.16.36.26.65.1.3.2.63.31,1,.11.37.23.75.35,1.14.12.39.24.76.36,1.1.12.34.25.62.39.85.13.23.27.35.39.39s.29.04.48.03c.19-.01.39-.02.58-.02s.37.02.54.05c.17.03.3.1.39.21.11.13.13.27.08.42ZM12.58,12.06c-.09-.2-.21-.35-.38-.46-.17-.11-.37-.17-.6-.2-.24-.03-.51-.04-.81-.04-.14,0-.23.04-.28.11-.05.08-.13.11-.23.11-.08,0-.14-.02-.19-.05-.05-.03-.12-.05-.19-.05-.23-.01-.43.05-.61.19-.18.14-.33.31-.44.52-.11.21-.18.44-.21.68-.03.24,0,.46.06.65.04.1.16.21.35.33.19.12.39.25.62.39.23.13.44.28.64.43.2.15.32.3.38.45.04.13.08.16.1.08.02-.08.05-.19.07-.33.03-.14.06-.29.11-.44.05-.14.12-.22.2-.23.29-.03.54-.05.74-.04.2,0,.37-.02.48-.07.12-.05.2-.17.26-.34.05-.17.08-.46.08-.87,0-.35-.04-.63-.13-.83ZM11.42,9.53c.04-.18.03-.37-.02-.56-.05-.2-.12-.4-.2-.6-.09-.2-.14-.39-.16-.57-.19-.24-.35-.36-.46-.37-.11-.01-.21.04-.29.14-.08.1-.15.23-.21.39-.06.16-.13.28-.22.38,0,.01-.01.07-.03.18-.02.11-.05.23-.08.35-.03.13-.07.3-.11.52-.05.11-.1.2-.13.29-.03.09-.05.16-.04.23,0,.06.04.12.1.17.06.05.17.09.32.12.03,0,.11.01.23.03.12.02.19.03.21.03.1-.01.22-.04.36-.1.15-.05.26-.11.35-.16.21-.13.34-.28.38-.46Z"/>
        <path class="cls-2" d="M26.49,15.45c-.25-.03-.49-.04-.71-.02-.22.02-.44.04-.64.06s-.43-.03-.67-.14c-.16-.08-.21-.18-.14-.31.07-.13.18-.3.32-.49.14-.19.28-.41.39-.66.12-.25.14-.52.08-.81-.01-.08-.02-.22-.04-.43-.02-.21-.03-.46-.04-.75-.01-.29-.02-.6-.02-.93,0-.33-.01-.66-.02-.98-.01-.32-.02-.62-.04-.89-.02-.27-.03-.49-.04-.66-.03-.26-.16-.43-.37-.51-.22-.08-.46-.11-.73-.09-.27.02-.55.08-.81.17-.27.09-.47.18-.6.27.01.14,0,.33-.03.57s-.08.5-.14.77c-.06.27-.12.55-.19.84-.06.28-.12.55-.18.79-.05.24-.1.45-.13.63s-.04.29-.02.33c.05.17.08.34.09.52,0,.17,0,.34,0,.52s0,.34,0,.51c0,.17.03.33.09.49.05.16.12.27.19.34.08.06.15.12.22.15.07.04.13.08.19.12.05.04.09.12.1.23.02.18-.03.3-.16.35-.13.05-.26.07-.4.07-.1,0-.17-.04-.22-.11s-.15-.12-.3-.15c-.03,0-.12.03-.27.09-.14.06-.31.13-.5.2-.19.08-.39.14-.6.19-.21.05-.4.08-.57.07-.17,0-.31-.06-.41-.17-.1-.11-.14-.28-.12-.53.02-.21.09-.36.22-.44.12-.08.26-.16.39-.24.14-.08.27-.19.39-.33.12-.14.18-.38.19-.73.01-.15,0-.29-.06-.42-.05-.13-.07-.27-.07-.42,0-.19.02-.43.06-.71.04-.28.09-.57.13-.89.04-.31.08-.63.1-.94.03-.32.02-.62-.02-.89-.04-.28-.12-.52-.23-.73-.12-.21-.3-.36-.55-.46-.32-.12-.48-.24-.47-.37.01-.13.1-.24.26-.35.16-.1.36-.19.6-.25.24-.06.42-.1.55-.1.17,0,.33.03.48.09.15.06.28.14.4.23.12.1.24.2.36.31.12.11.24.22.37.33.52-.34.98-.61,1.39-.79.41-.18.79-.26,1.14-.23.35.03.68.19.99.46.31.27.64.7.98,1.27.04.06.07.21.09.43.02.22.02.48.02.78s0,.63,0,.98c0,.35-.02.69-.03,1.01-.02.32-.03.61-.04.86-.01.25-.02.44-.03.56-.01.1.03.23.14.39.1.17.22.35.35.56.13.2.26.41.38.61.12.2.21.39.27.56.05.17.05.31-.02.42-.06.11-.22.16-.45.15-.31-.2-.59-.32-.85-.35Z"/>
        <path class="cls-2" d="M45.49,8.37c.06.55.04,1.12-.05,1.71-.09.59-.25,1.17-.47,1.75-.22.58-.49,1.12-.82,1.62-.33.5-.7.93-1.13,1.31-.42.37-.88.65-1.36.83-.48.18-.99.24-1.53.19-.54-.06-1.09-.27-1.64-.64-.4,0-.7-.02-.91-.06-.21-.04-.38-.12-.52-.23-.14-.11-.27-.26-.38-.44-.11-.18-.27-.41-.48-.69-.1-.13-.21-.24-.33-.32-.12-.09-.23-.19-.33-.31-.18-.2-.31-.44-.38-.69-.07-.26-.12-.52-.15-.79-.03-.27-.05-.54-.06-.81-.02-.27-.06-.53-.14-.77-.12-.38-.13-.81-.05-1.29.09-.48.24-.98.48-1.48.23-.5.52-1,.86-1.49.34-.49.72-.92,1.12-1.31.4-.38.82-.69,1.24-.92.42-.23.84-.35,1.23-.35.15,0,.34.02.56.05.23.03.46.08.69.13.24.05.46.12.67.19.21.08.37.16.49.24.57.45,1.11.91,1.64,1.39.52.47.95,1.04,1.3,1.69.24.45.38.95.44,1.51ZM43.08,9.93c-.08-.31-.13-.62-.16-.93-.03-.27-.06-.61-.09-1.03-.03-.42-.07-.84-.14-1.27-.06-.43-.16-.83-.27-1.2-.12-.37-.29-.64-.52-.81-.06-.04-.14-.1-.23-.18-.09-.08-.19-.14-.29-.21-.1-.06-.2-.12-.3-.16-.1-.04-.18-.06-.26-.05-.15.03-.33.06-.55.07-.22.02-.43.04-.64.08-.21.04-.41.09-.59.16-.18.07-.32.17-.42.31-.12.17-.23.4-.34.67-.11.27-.21.56-.3.86-.09.3-.17.6-.24.89-.07.29-.12.54-.15.76-.04.27-.08.61-.1,1.02-.02.41-.02.85,0,1.31.02.47.06.94.13,1.43.06.48.16.94.29,1.36.13.42.29.8.48,1.12.19.32.43.55.71.69.24.12.46.15.69.1.22-.05.45-.09.7-.11.23-.01.44-.01.64,0,.2.01.39,0,.56-.03.17-.03.33-.11.47-.23.14-.12.26-.31.35-.58.1-.24.17-.49.21-.75.04-.26.08-.53.11-.79.03-.26.06-.53.09-.8.03-.27.07-.53.14-.77.08-.31.08-.62,0-.93Z"/>
        <path class="cls-2" d="M49.96,15.19c-.1.13-.28.23-.53.29-.25.06-.56.09-.91.08-.35,0-.69-.03-1.02-.06-.32-.04-.6-.08-.85-.13-.24-.05-.37-.09-.39-.12-.13-.14-.14-.26-.03-.37s.25-.23.44-.35c.18-.13.36-.28.53-.45.17-.17.26-.4.26-.68,0-.14-.02-.27-.06-.4-.04-.13-.06-.26-.07-.4-.01-.21.02-.42.08-.62.06-.2.1-.41.1-.62,0-.2,0-.49,0-.85,0-.36,0-.75,0-1.17s0-.87-.02-1.32c-.01-.45-.04-.88-.08-1.28-.04-.4-.1-.76-.18-1.07-.08-.31-.18-.54-.31-.69-.06-.08-.16-.15-.27-.23-.12-.08-.23-.15-.33-.23-.1-.08-.19-.17-.25-.27-.06-.1-.08-.21-.03-.34,0-.01.12-.06.35-.15.24-.09.51-.17.83-.25.32-.08.64-.11.97-.1.33,0,.59.1.78.3.1.1.15.28.15.55,0,.27,0,.56-.04.88-.03.32-.07.62-.11.92-.04.3-.06.52-.06.67,0,.11,0,.33.02.66.01.33.03.72.05,1.15.02.44.04.89.06,1.37.02.48.03.92.06,1.32.02.4.04.74.06,1.02.02.27.03.42.04.43.06.1.1.17.1.23s0,.1-.02.15c-.02.05-.04.1-.06.15-.03.05-.04.13-.04.23,0,.25.08.46.24.65.16.19.31.37.44.56.18.25.22.44.12.57Z"/>
        <path class="cls-2" d="M59.34,15.09c0,.13-.03.26-.08.37-.05.11-.12.21-.22.29-.1.08-.22.12-.35.12-.18,0-.42-.04-.72-.12-.3-.08-.58-.17-.86-.27-.28-.1-.52-.19-.73-.27-.21-.08-.32-.12-.33-.12-.39.01-.71.07-.98.18-.26.11-.53.19-.81.23s-.59.02-.93-.08c-.35-.1-.8-.36-1.35-.78-.27-.2-.48-.53-.64-.98-.16-.45-.27-.95-.31-1.5-.05-.55-.04-1.13.03-1.72.07-.59.2-1.13.4-1.62.2-.49.46-.9.78-1.23.32-.33.71-.5,1.16-.52.23-.01.45.01.67.06.22.05.43.11.64.18.2.06.41.12.6.18.2.05.39.08.59.06.14-.14.24-.28.31-.42.06-.14.1-.28.12-.43.02-.15.02-.3,0-.45-.02-.16-.03-.32-.04-.51-.06-.06-.15-.15-.24-.24s-.2-.2-.31-.3c-.11-.1-.21-.19-.31-.27-.1-.08-.18-.14-.26-.17-.19-.1-.34-.21-.44-.35-.1-.14-.14-.27-.13-.4.01-.13.07-.24.18-.33.11-.09.26-.14.45-.14h.97c.34,0,.67.03.98.08.27.04.47.22.6.52.13.3.22.67.27,1.12.04.45.06.93.04,1.47-.02.53-.04,1.05-.07,1.56-.03.51-.05.98-.06,1.4-.01.42.01.76.06.99.06.25.09.49.09.73,0,.24-.02.48-.03.73s-.03.49-.04.73c-.01.25,0,.49.03.73.04.28.12.47.23.57.11.1.23.17.36.2.13.03.25.06.36.1.11.03.2.11.25.24.04.11.06.23.06.36ZM55.56,8.5c-.11-.3-.22-.5-.34-.61-.12-.11-.25-.17-.39-.19-.15-.02-.31,0-.49.03-.18.04-.39.05-.61.04-.05.12-.12.26-.21.44-.09.17-.17.35-.25.53-.08.18-.15.36-.22.53-.06.17-.1.31-.11.42-.05.54-.08,1.09-.07,1.64,0,.56.03,1.11.09,1.64.03.27.07.53.12.77.05.25.13.46.23.64.11.18.26.33.46.44.2.11.46.17.78.17.13,0,.25-.03.36-.1.11-.06.22-.13.31-.19.1-.06.19-.12.28-.17.09-.05.18-.06.27-.02.11-.05.19-.21.26-.47.06-.26.11-.57.14-.93.03-.36.04-.75.04-1.17s-.01-.84-.04-1.22c-.03-.38-.07-.72-.12-1.02-.05-.3-.11-.5-.18-.6-.13-.21-.23-.42-.31-.63Z"/>
        <path class="cls-2" d="M63.42,15.81c-.07.18-.16.38-.27.6-.11.23-.23.46-.37.7-.14.24-.28.45-.42.64-.14.18-.28.32-.41.42-.13.1-.25.11-.35.05-.12-.08-.18-.17-.19-.27,0-.11.02-.23.07-.36.05-.13.13-.28.22-.44.09-.16.17-.31.25-.48.08-.16.13-.33.17-.49.04-.17.03-.33,0-.49-.06-.19-.17-.34-.31-.44-.14-.1-.27-.21-.38-.34-.11-.13-.18-.31-.19-.53-.02-.23.07-.56.27-1.02.02-.05.07-.11.14-.17.07-.06.15-.11.23-.16.08-.05.16-.09.25-.12.09-.03.16-.04.21-.03.3.05.54.17.71.35.17.18.3.4.37.64.08.24.12.5.12.78,0,.28,0,.54,0,.79,0,.06-.03.19-.1.36Z"/>
        <path class="cls-2" d="M82.03,8.37c.06.55.04,1.12-.05,1.71-.09.59-.25,1.17-.47,1.75-.22.58-.49,1.12-.82,1.62-.33.5-.7.93-1.13,1.31-.42.37-.88.65-1.36.83-.48.18-.99.24-1.53.19-.54-.06-1.09-.27-1.64-.64-.4,0-.7-.02-.91-.06-.21-.04-.38-.12-.52-.23-.14-.11-.27-.26-.38-.44-.11-.18-.27-.41-.48-.69-.1-.13-.21-.24-.33-.32-.12-.09-.23-.19-.33-.31-.18-.2-.31-.44-.38-.69-.07-.26-.12-.52-.15-.79-.03-.27-.05-.54-.06-.81-.02-.27-.06-.53-.14-.77-.12-.38-.13-.81-.05-1.29.09-.48.24-.98.48-1.48.23-.5.52-1,.86-1.49.34-.49.72-.92,1.12-1.31.4-.38.82-.69,1.24-.92.42-.23.84-.35,1.23-.35.15,0,.34.02.56.05.23.03.46.08.69.13.24.05.46.12.67.19.21.08.37.16.49.24.57.45,1.11.91,1.64,1.39.52.47.95,1.04,1.3,1.69.24.45.38.95.44,1.51ZM79.62,9.93c-.08-.31-.13-.62-.16-.93-.03-.27-.06-.61-.09-1.03-.03-.42-.07-.84-.14-1.27-.06-.43-.16-.83-.27-1.2-.12-.37-.29-.64-.52-.81-.06-.04-.14-.1-.23-.18-.09-.08-.19-.14-.29-.21-.1-.06-.2-.12-.3-.16-.1-.04-.18-.06-.26-.05-.15.03-.33.06-.55.07-.22.02-.43.04-.64.08-.21.04-.41.09-.59.16-.18.07-.32.17-.42.31-.12.17-.23.4-.34.67-.11.27-.21.56-.3.86-.09.3-.17.6-.24.89-.07.29-.12.54-.15.76-.04.27-.08.61-.1,1.02-.02.41-.02.85,0,1.31.02.47.06.94.13,1.43.06.48.16.94.29,1.36.13.42.29.8.48,1.12.19.32.43.55.71.69.24.12.46.15.69.1.22-.05.45-.09.7-.11.23-.01.44-.01.64,0,.2.01.39,0,.56-.03.17-.03.33-.11.47-.23.14-.12.26-.31.35-.58.1-.24.17-.49.21-.75.04-.26.08-.53.11-.79.03-.26.06-.53.09-.8.03-.27.07-.53.14-.77.08-.31.08-.62,0-.93Z"/>
        <path class="cls-2" d="M86.5,15.19c-.1.13-.28.23-.53.29-.25.06-.56.09-.91.08-.35,0-.69-.03-1.02-.06-.32-.04-.6-.08-.85-.13-.24-.05-.37-.09-.39-.12-.13-.14-.14-.26-.03-.37s.25-.23.44-.35c.18-.13.36-.28.53-.45.17-.17.26-.4.26-.68,0-.14-.02-.27-.06-.4-.04-.13-.06-.26-.07-.4-.01-.21.02-.42.08-.62.06-.2.1-.41.1-.62,0-.2,0-.49,0-.85,0-.36,0-.75,0-1.17s0-.87-.02-1.32c-.01-.45-.04-.88-.08-1.28-.04-.4-.1-.76-.18-1.07-.08-.31-.18-.54-.31-.69-.06-.08-.16-.15-.27-.23-.12-.08-.23-.15-.33-.23-.1-.08-.19-.17-.25-.27-.06-.1-.08-.21-.03-.34,0-.01.12-.06.35-.15.24-.09.51-.17.83-.25.32-.08.64-.11.97-.1.33,0,.59.1.78.3.1.1.15.28.15.55,0,.27,0,.56-.04.88-.03.32-.07.62-.11.92-.04.3-.06.52-.06.67,0,.11,0,.33.02.66.01.33.03.72.05,1.15.02.44.04.89.06,1.37.02.48.03.92.06,1.32.02.4.04.74.06,1.02.02.27.03.42.04.43.06.1.1.17.1.23s0,.1-.02.15c-.02.05-.04.1-.06.15-.03.05-.04.13-.04.23,0,.25.08.46.24.65.16.19.31.37.44.56.18.25.22.44.12.57Z"/>
        <path class="cls-2" d="M95.88,15.09c0,.13-.03.26-.08.37-.05.11-.12.21-.22.29-.1.08-.22.12-.35.12-.18,0-.42-.04-.72-.12-.3-.08-.58-.17-.86-.27-.28-.1-.52-.19-.73-.27-.21-.08-.32-.12-.33-.12-.39.01-.71.07-.98.18-.26.11-.53.19-.81.23s-.59.02-.93-.08c-.35-.1-.8-.36-1.35-.78-.27-.2-.48-.53-.64-.98-.16-.45-.27-.95-.31-1.5-.05-.55-.04-1.13.03-1.72.07-.59.2-1.13.4-1.62.2-.49.46-.9.78-1.23.32-.33.71-.5,1.16-.52.23-.01.45.01.67.06.22.05.43.11.64.18.2.06.41.12.6.18.2.05.39.08.59.06.14-.14.24-.28.31-.42.06-.14.1-.28.12-.43.02-.15.02-.3,0-.45-.02-.16-.03-.32-.04-.51-.06-.06-.15-.15-.24-.24s-.2-.2-.31-.3c-.11-.1-.21-.19-.31-.27-.1-.08-.18-.14-.26-.17-.19-.1-.34-.21-.44-.35-.1-.14-.14-.27-.13-.4.01-.13.07-.24.18-.33.11-.09.26-.14.45-.14h.97c.34,0,.67.03.98.08.27.04.47.22.6.52.13.3.22.67.27,1.12.04.45.06.93.04,1.47-.02.53-.04,1.05-.07,1.56-.03.51-.05.98-.06,1.4-.01.42.01.76.06.99.06.25.09.49.09.73,0,.24-.02.48-.03.73s-.03.49-.04.73c-.01.25,0,.49.03.73.04.28.12.47.23.57.11.1.23.17.36.2.13.03.25.06.36.1.11.03.2.11.25.24.04.11.06.23.06.36ZM92.1,8.5c-.11-.3-.22-.5-.34-.61-.12-.11-.25-.17-.39-.19-.15-.02-.31,0-.49.03-.18.04-.39.05-.61.04-.05.12-.12.26-.21.44-.09.17-.17.35-.25.53-.08.18-.15.36-.22.53-.06.17-.1.31-.11.42-.05.54-.08,1.09-.07,1.64,0,.56.03,1.11.09,1.64.03.27.07.53.12.77.05.25.13.46.23.64.11.18.26.33.46.44.2.11.46.17.78.17.13,0,.25-.03.36-.1.11-.06.22-.13.31-.19.1-.06.19-.12.28-.17.09-.05.18-.06.27-.02.11-.05.19-.21.26-.47.06-.26.11-.57.14-.93.03-.36.04-.75.04-1.17s-.01-.84-.04-1.22c-.03-.38-.07-.72-.12-1.02-.05-.3-.11-.5-.18-.6-.13-.21-.23-.42-.31-.63Z"/>
        <path class="cls-2" d="M117.97,4.06c.01.19-.03.39-.13.58-.1.19-.22.36-.36.5-.15.14-.26.2-.33.18l-.48.11c-.32.38-.58.77-.77,1.18-.19.41-.43.82-.72,1.23-.01.01-.05.2-.13.56-.08.37-.17.81-.3,1.35-.12.53-.26,1.11-.4,1.74-.15.63-.3,1.22-.45,1.77-.16.55-.31,1.03-.45,1.43-.15.4-.27.63-.38.69-.17.11-.35.04-.53-.21-.18-.25-.36-.59-.54-1.04-.18-.45-.35-.95-.51-1.5-.16-.55-.31-1.09-.44-1.61-.13-.52-.25-.98-.35-1.39-.1-.4-.18-.67-.23-.8-.09.22-.2.42-.34.63-.14.2-.31.38-.5.52,0,.27-.04.53-.13.78-.09.25-.18.5-.27.75-.08.17-.13.36-.15.56-.03.2-.05.4-.06.6-.02.2-.04.4-.07.59-.03.19-.09.35-.18.49-.05.11-.11.26-.18.47-.06.2-.13.41-.21.62-.08.21-.16.39-.25.54-.09.15-.19.22-.3.21-.15-.01-.24-.09-.26-.24-.02-.15-.04-.28-.05-.39-.09-.46-.21-.92-.38-1.37-.17-.45-.34-.91-.52-1.36-.18-.46-.34-.92-.49-1.39-.15-.47-.25-.95-.31-1.44-.02-.18-.07-.42-.15-.71-.08-.29-.18-.6-.31-.93-.12-.33-.27-.66-.44-.99-.17-.33-.35-.64-.54-.91-.19-.27-.4-.5-.6-.69-.21-.18-.42-.29-.62-.32-.12-.02-.22-.05-.3-.07-.08-.03-.16-.08-.25-.17-.05-.3,0-.53.18-.7.17-.17.41-.28.73-.35.31-.07.67-.1,1.06-.1.4,0,.79.02,1.18.05.39.03.75.05,1.08.07.33.02.59.02.76,0l.81,1.34c-.01-.42.08-.74.27-.95.19-.21.44-.36.74-.44.31-.08.65-.09,1.03-.05.38.04.76.12,1.13.23.37.11.72.23,1.04.37.32.14.57.27.76.4.17-.37.43-.63.78-.8.35-.17.73-.27,1.14-.31.41-.04.82-.03,1.23.03.41.06.78.15,1.09.24.24.08.36.21.37.4ZM109.96,7.34c-.06-.34-.15-.68-.26-1.02-.11-.34-.24-.64-.39-.92-.15-.27-.32-.44-.5-.51-.04-.01-.14-.02-.28-.04-.15-.02-.3-.03-.46-.03-.16,0-.31,0-.45,0-.14,0-.23.02-.26.04-.13.08-.21.25-.24.53-.03.28-.04.6,0,.98.03.37.08.77.15,1.2.08.43.16.84.27,1.22.1.38.21.71.32,1,.11.28.22.48.31.57.09.09.19.1.31.03.12-.06.23-.16.35-.28.11-.12.22-.26.31-.39.1-.14.18-.24.24-.31l.06.03c.08-.06.15-.15.23-.27.08-.11.15-.23.21-.35.06-.12.12-.25.15-.37.04-.12.05-.24.04-.35-.01-.17-.05-.43-.11-.77ZM114.5,5.26c-.19-.21-.56-.31-1.1-.31-.11,0-.22-.01-.32-.04-.11-.03-.22-.04-.32-.04-.19,0-.34.07-.45.21-.11.14-.19.31-.23.5-.05.19-.08.39-.08.6,0,.2,0,.38.02.52.02.22.08.42.18.6.1.19.18.38.24.59.05.18.1.38.13.6.03.22.06.43.1.65.03.22.08.43.14.64.06.2.14.38.23.52.06.1.14.13.23.11.09-.02.18-.07.27-.15.09-.08.16-.17.23-.27.07-.1.12-.18.15-.23.11-.19.21-.44.31-.73.1-.29.18-.59.26-.91.08-.32.14-.63.19-.93.05-.31.08-.57.09-.78.02-.54-.06-.91-.25-1.12Z"/>
        <path class="cls-2" d="M124.24,12.43c-.12.36-.28.71-.48,1.06-.2.35-.42.68-.66.98-.24.31-.48.57-.7.8-.1.1-.19.16-.29.19-.1.03-.19.04-.29.04s-.2,0-.31-.02c-.11-.02-.22-.01-.34,0-.16.03-.32.08-.47.15-.15.07-.3.12-.44.14-.15.03-.28.01-.42-.05-.13-.06-.27-.2-.4-.43-.45-.1-.85-.27-1.18-.51-.34-.24-.62-.53-.85-.87-.23-.34-.39-.71-.51-1.12-.11-.41-.17-.84-.17-1.29,0-.14-.01-.28-.03-.41-.02-.13-.04-.27-.05-.4-.01-.13-.01-.27,0-.4,0-.13.03-.27.09-.41.14-.35.32-.72.55-1.09s.49-.7.79-1c.3-.3.64-.54,1.01-.73.37-.19.77-.29,1.18-.29.13,0,.24.01.34.04.1.03.19.06.29.09.1.03.2.06.31.08.11.02.25.03.41.02.11-.01.24.03.39.13.15.1.3.21.45.35.15.13.29.27.42.41.13.14.23.25.29.34.1.13.21.24.35.33.13.09.25.2.35.33.13.17.21.38.26.62.04.24.08.46.1.67.02.2.06.41.12.6.06.2.09.4.09.6,0,.33-.06.68-.19,1.04ZM122.2,10.49c0-.26-.02-.52-.06-.77-.04-.26-.11-.51-.19-.74-.09-.24-.2-.44-.35-.61-.12-.13-.26-.22-.42-.28-.16-.06-.32-.13-.47-.22-.1-.05-.18-.08-.26-.06-.08.01-.17.03-.27.06-.08.02-.18.1-.31.23-.13.13-.26.29-.4.46-.14.17-.27.34-.39.49-.12.16-.21.27-.25.35-.08.12-.13.28-.16.48-.03.2-.05.42-.06.64,0,.22-.01.44-.02.66,0,.22-.01.41-.02.56-.04.28-.08.54-.1.78-.02.24.05.49.23.73.06.11.1.23.12.35s.06.24.14.34c.09.11.17.2.27.27.09.08.17.17.25.29.12.18.22.29.3.31.08.03.16.02.23,0,.08-.03.16-.07.25-.11.09-.04.21-.04.36,0,.14.04.27.05.39.02.12-.03.23-.09.33-.17.1-.08.19-.17.27-.28.08-.11.14-.22.19-.34.14-.29.23-.54.28-.75.05-.21.08-.41.08-.61,0-.2,0-.4,0-.61-.01-.21,0-.46.03-.75.02-.21.03-.45.03-.71Z"/>
        <path class="cls-2" d="M133.44,12.43c-.12.36-.28.71-.48,1.06-.2.35-.42.68-.66.98-.24.31-.48.57-.7.8-.1.1-.19.16-.29.19-.1.03-.19.04-.29.04s-.2,0-.31-.02c-.11-.02-.22-.01-.34,0-.16.03-.32.08-.47.15-.15.07-.3.12-.44.14-.15.03-.28.01-.42-.05-.13-.06-.27-.2-.4-.43-.45-.1-.85-.27-1.18-.51-.34-.24-.62-.53-.85-.87-.23-.34-.39-.71-.51-1.12-.11-.41-.17-.84-.17-1.29,0-.14-.01-.28-.03-.41-.02-.13-.04-.27-.05-.4-.01-.13-.01-.27,0-.4,0-.13.03-.27.09-.41.14-.35.32-.72.55-1.09s.49-.7.79-1c.3-.3.64-.54,1.01-.73.37-.19.77-.29,1.18-.29.13,0,.24.01.34.04.1.03.19.06.29.09.1.03.2.06.31.08.11.02.25.03.41.02.11-.01.24.03.39.13.15.1.3.21.45.35.15.13.29.27.42.41.13.14.23.25.29.34.1.13.21.24.35.33.13.09.25.2.35.33.13.17.21.38.26.62.04.24.08.46.1.67.02.2.06.41.12.6.06.2.09.4.09.6,0,.33-.06.68-.19,1.04ZM131.4,10.49c0-.26-.02-.52-.06-.77-.04-.26-.11-.51-.19-.74-.09-.24-.2-.44-.35-.61-.12-.13-.26-.22-.42-.28-.16-.06-.32-.13-.47-.22-.1-.05-.18-.08-.26-.06-.08.01-.17.03-.27.06-.08.02-.18.1-.31.23-.13.13-.26.29-.4.46-.14.17-.27.34-.39.49-.12.16-.21.27-.25.35-.08.12-.13.28-.16.48-.03.2-.05.42-.06.64,0,.22-.01.44-.02.66,0,.22-.01.41-.02.56-.04.28-.08.54-.1.78-.02.24.05.49.23.73.06.11.1.23.12.35s.06.24.14.34c.09.11.17.2.27.27.09.08.17.17.25.29.12.18.22.29.3.31.08.03.16.02.23,0,.08-.03.16-.07.25-.11.09-.04.21-.04.36,0,.14.04.27.05.39.02.12-.03.23-.09.33-.17.1-.08.19-.17.27-.28.08-.11.14-.22.19-.34.14-.29.23-.54.28-.75.05-.21.08-.41.08-.61,0-.2,0-.4,0-.61-.01-.21,0-.46.03-.75.02-.21.03-.45.03-.71Z"/>
        <path class="cls-2" d="M143.72,15.09c0,.13-.03.26-.08.37-.05.11-.12.21-.22.29-.1.08-.22.12-.35.12-.18,0-.42-.04-.72-.12-.3-.08-.58-.17-.86-.27-.28-.1-.52-.19-.73-.27-.21-.08-.32-.12-.33-.12-.39.01-.71.07-.98.18-.26.11-.53.19-.81.23s-.59.02-.93-.08c-.35-.1-.8-.36-1.35-.78-.27-.2-.48-.53-.64-.98-.16-.45-.27-.95-.31-1.5-.05-.55-.04-1.13.03-1.72.07-.59.2-1.13.4-1.62.2-.49.46-.9.78-1.23.32-.33.71-.5,1.16-.52.23-.01.45.01.67.06.22.05.43.11.64.18.2.06.41.12.6.18.2.05.39.08.59.06.14-.14.24-.28.31-.42.06-.14.1-.28.12-.43.02-.15.02-.3,0-.45-.02-.16-.03-.32-.04-.51-.06-.06-.15-.15-.24-.24s-.2-.2-.31-.3c-.11-.1-.21-.19-.31-.27-.1-.08-.18-.14-.26-.17-.19-.1-.34-.21-.44-.35-.1-.14-.14-.27-.13-.4.01-.13.07-.24.18-.33.11-.09.26-.14.45-.14h.97c.34,0,.67.03.98.08.27.04.47.22.6.52.13.3.22.67.27,1.12.04.45.06.93.04,1.47-.02.53-.04,1.05-.07,1.56-.03.51-.05.98-.06,1.4-.01.42.01.76.06.99.06.25.09.49.09.73,0,.24-.02.48-.03.73s-.03.49-.04.73c-.01.25,0,.49.03.73.04.28.12.47.23.57.11.1.23.17.36.2.13.03.25.06.36.1.11.03.2.11.25.24.04.11.06.23.06.36ZM139.94,8.5c-.11-.3-.22-.5-.34-.61-.12-.11-.25-.17-.39-.19-.15-.02-.31,0-.49.03-.18.04-.39.05-.61.04-.05.12-.12.26-.21.44-.09.17-.17.35-.25.53-.08.18-.15.36-.22.53-.06.17-.1.31-.11.42-.05.54-.08,1.09-.07,1.64,0,.56.03,1.11.09,1.64.03.27.07.53.12.77.05.25.13.46.23.64.11.18.26.33.46.44.2.11.46.17.78.17.13,0,.25-.03.36-.1.11-.06.22-.13.31-.19.1-.06.19-.12.28-.17.09-.05.18-.06.27-.02.11-.05.19-.21.26-.47.06-.26.11-.57.14-.93.03-.36.04-.75.04-1.17s-.01-.84-.04-1.22c-.03-.38-.07-.72-.12-1.02-.05-.3-.11-.5-.18-.6-.13-.21-.23-.42-.31-.63Z"/>
        <path class="cls-2" d="M151.78,13.46c-.1.21-.22.42-.35.64-.14.22-.28.43-.43.63-.15.2-.26.34-.33.43-.29.33-.55.54-.77.61-.23.08-.44.09-.63.05-.19-.04-.38-.11-.56-.2-.18-.09-.35-.14-.52-.14-.54,0-.99-.09-1.35-.26-.36-.17-.66-.4-.89-.69-.23-.29-.41-.64-.53-1.04-.12-.4-.22-.84-.28-1.31-.02-.16-.06-.3-.11-.4-.05-.11-.1-.21-.15-.31-.04-.1-.07-.2-.08-.32-.01-.12.02-.27.08-.47.15-.41.3-.79.46-1.14.16-.35.32-.72.49-1.1.21-.49.56-.86,1.03-1.11.47-.25.97-.39,1.49-.42.52-.03,1.02.03,1.48.19s.81.39,1.04.69c.09.13.14.27.17.42.03.15.1.28.22.4.19.2.33.43.41.69.08.25.12.52.1.8-.01.55-.07.91-.18,1.1-.11.18-.26.28-.44.29-.19.01-.42-.02-.69-.09-.27-.07-.56-.09-.89-.07-.13.01-.24.04-.33.1-.09.05-.2.09-.31.11-.22.02-.45.03-.69.02-.25,0-.48,0-.69,0-.24.15-.38.4-.44.74-.06.34-.06.69,0,1.05.06.35.17.67.32.95.16.28.33.43.52.45.48.05.89.04,1.21-.05.32-.09.59-.21.79-.36.2-.16.37-.33.48-.53.12-.2.22-.39.31-.56.09-.18.17-.32.25-.44.08-.12.19-.18.31-.19.15-.12.28-.12.39,0,.11.11.18.24.2.39.01.11-.03.27-.13.48ZM149.66,8.96c-.1-.27-.23-.5-.41-.71-.18-.2-.38-.35-.62-.44-.24-.09-.47-.06-.71.08-.13.09-.25.23-.37.44-.12.2-.22.38-.29.52-.09.17-.15.36-.19.57-.04.21-.05.4,0,.58.04.18.12.33.25.45.13.12.33.18.6.17.15-.01.29-.05.42-.11.13-.06.27-.1.42-.1.24,0,.46-.06.66-.17.2-.11.32-.3.35-.56.03-.21,0-.46-.1-.73Z"/>
        <path class="cls-2" d="M160.44,15.45c-.25-.03-.49-.04-.71-.02-.22.02-.44.04-.64.06s-.43-.03-.67-.14c-.16-.08-.21-.18-.14-.31.07-.13.18-.3.32-.49.14-.19.28-.41.39-.66.12-.25.14-.52.08-.81-.01-.08-.02-.22-.04-.43-.02-.21-.03-.46-.04-.75-.01-.29-.02-.6-.02-.93,0-.33-.01-.66-.02-.98-.01-.32-.02-.62-.04-.89-.02-.27-.03-.49-.04-.66-.03-.26-.16-.43-.37-.51-.22-.08-.46-.11-.73-.09-.27.02-.55.08-.81.17-.27.09-.47.18-.6.27.01.14,0,.33-.03.57s-.08.5-.14.77c-.06.27-.12.55-.19.84-.06.28-.12.55-.18.79-.05.24-.1.45-.13.63s-.04.29-.02.33c.05.17.08.34.09.52,0,.17,0,.34,0,.52s0,.34,0,.51c0,.17.03.33.09.49.05.16.12.27.19.34.08.06.15.12.22.15.07.04.13.08.19.12.05.04.09.12.1.23.02.18-.03.3-.16.35-.13.05-.26.07-.4.07-.1,0-.17-.04-.22-.11s-.15-.12-.3-.15c-.03,0-.12.03-.27.09-.14.06-.31.13-.5.2-.19.08-.39.14-.6.19-.21.05-.4.08-.57.07-.17,0-.31-.06-.41-.17-.1-.11-.14-.28-.12-.53.02-.21.09-.36.22-.44.12-.08.26-.16.39-.24.14-.08.27-.19.39-.33.12-.14.18-.38.19-.73.01-.15,0-.29-.06-.42-.05-.13-.07-.27-.07-.42,0-.19.02-.43.06-.71.04-.28.09-.57.13-.89.04-.31.08-.63.1-.94.03-.32.02-.62-.02-.89-.04-.28-.12-.52-.23-.73-.12-.21-.3-.36-.55-.46-.32-.12-.48-.24-.47-.37.01-.13.1-.24.26-.35.16-.1.36-.19.6-.25.24-.06.42-.1.55-.1.17,0,.33.03.48.09.15.06.28.14.4.23.12.1.24.2.36.31.12.11.24.22.37.33.52-.34.98-.61,1.39-.79.41-.18.79-.26,1.14-.23.35.03.68.19.99.46.31.27.64.7.98,1.27.04.06.07.21.09.43.02.22.02.48.02.78s0,.63,0,.98c0,.35-.02.69-.03,1.01-.02.32-.03.61-.04.86-.01.25-.02.44-.03.56-.01.1.03.23.14.39.1.17.22.35.35.56.13.2.26.41.38.61.12.2.21.39.27.56.05.17.05.31-.02.42-.06.11-.22.16-.45.15-.31-.2-.59-.32-.85-.35Z"/>
        <path class="cls-2" d="M176.79,11.86c-.08.32-.18.63-.31.93-.13.3-.26.58-.4.83-.13.25-.21.45-.23.59-.14.13-.32.28-.54.44-.22.17-.46.32-.72.47-.26.15-.53.27-.81.37-.28.1-.55.16-.82.16-.27,0-.52-.05-.75-.16-.23-.11-.43-.31-.59-.6-.34-.13-.64-.17-.89-.11-.25.05-.47.14-.66.26-.19.12-.35.24-.5.36-.14.12-.28.19-.39.19-.04,0-.09-.01-.13-.04-.04-.03-.07-.06-.08-.1l-.08-.27c-.03-.1-.06-.28-.07-.56s-.02-.59-.02-.93c0-.35.02-.72.05-1.1.03-.39.06-.74.11-1.07.05-.33.11-.61.18-.84.07-.23.15-.37.25-.41.15-.06.28-.06.38.02.1.08.19.19.25.33.06.14.12.29.16.45.04.16.08.29.11.39.2.61.46,1.15.77,1.6.31.46.67.79,1.07,1.01.4.22.85.29,1.35.23.5-.06,1.05-.31,1.65-.74.24-.46.35-.86.34-1.21-.01-.34-.1-.64-.28-.89-.18-.25-.42-.47-.73-.64-.31-.18-.65-.33-1.02-.47-.37-.13-.74-.26-1.12-.36-.38-.11-.74-.21-1.07-.32-.26.1-.5.11-.73.04-.23-.07-.45-.19-.64-.37-.2-.18-.38-.39-.54-.64-.16-.25-.3-.52-.4-.79-.11-.27-.19-.54-.25-.8-.06-.26-.08-.48-.07-.68,0-.02.02-.1.07-.24.05-.14.1-.29.16-.46.06-.17.11-.32.16-.47.05-.15.08-.24.1-.3.1-.28.31-.55.64-.8.33-.25.7-.46,1.11-.64.41-.17.82-.29,1.24-.36.42-.07.76-.06,1.02.02.09.03.15.09.2.16.05.08.09.16.14.24.04.09.09.17.14.25.05.08.12.14.22.17.2.08.39.09.56.05.17-.04.32-.11.48-.19.15-.09.3-.17.44-.26.14-.09.3-.13.48-.13.1.08.17.24.21.48.04.25.07.53.07.86,0,.33,0,.67-.04,1.04-.03.37-.08.7-.15,1-.07.3-.16.55-.26.75-.1.2-.21.3-.33.3-.15,0-.23-.03-.23-.08,0-.05-.02-.14-.04-.26-.09-.48-.18-.86-.27-1.12-.1-.26-.22-.48-.37-.66-.15-.18-.34-.34-.56-.5-.23-.16-.51-.37-.85-.65-.35,0-.71.01-1.07.04-.36.03-.67.11-.92.25-.25.14-.41.35-.48.64-.07.28.02.67.27,1.17.09.19.18.32.27.37.1.05.2.08.3.09.1,0,.2,0,.31,0,.1,0,.21.02.33.07.11.05.18.13.23.23.04.1.11.18.19.24.05.04.12.08.21.1.09.02.18.04.28.06.1.02.2.04.31.06.1.02.19.05.27.1.18.1.35.16.51.19.16.03.3.04.43.04h.35c.11,0,.2.02.27.06l1.18,1.1c.04.28.13.54.27.77.14.24.25.49.34.76.09.29.09.6.02.92Z"/>
        <path class="cls-2" d="M185.79,15.44c-.17.02-.37.03-.59.03-.22,0-.45,0-.69-.02-.24-.02-.45-.06-.64-.11-.19-.05-.33-.13-.44-.24-.1-.11-.13-.25-.07-.44.15-.14.28-.4.38-.77.1-.38.17-.81.22-1.29.04-.48.05-.99.03-1.51-.02-.52-.08-1-.17-1.44-.09-.44-.23-.81-.4-1.1-.18-.29-.4-.45-.65-.47-.17-.01-.37.05-.58.19-.21.13-.42.3-.61.5-.19.2-.36.41-.51.63-.15.22-.24.41-.28.56-.1.32-.13.67-.1,1.06.03.38.08.77.17,1.16.09.39.19.78.3,1.15.11.38.21.72.29,1.03.08.31.12.58.13.8,0,.22-.05.37-.17.46-.1.06-.2.1-.31.1-.11,0-.23,0-.35-.03-.12-.03-.23-.06-.34-.11-.11-.05-.2-.1-.29-.15-.1.1-.24.17-.44.23-.19.05-.38.07-.56.06-.18-.02-.33-.07-.45-.17-.12-.1-.15-.25-.1-.47.08-.08.16-.27.24-.58.09-.31.17-.7.24-1.17.08-.47.14-.99.2-1.56.06-.57.1-1.16.11-1.76.02-.6,0-1.18-.02-1.75-.03-.57-.1-1.09-.2-1.56-.1-.47-.24-.85-.43-1.16-.18-.31-.41-.5-.69-.57-.18-.17-.27-.33-.27-.47,0-.14.07-.26.2-.36.13-.1.3-.19.51-.27.21-.08.43-.13.65-.18.23-.04.44-.07.63-.09.19-.02.34-.02.44-.02.23.01.4.09.52.23.12.14.21.33.27.56.06.23.09.49.1.77.01.28.01.57,0,.85-.01.28-.02.55-.02.81,0,.25,0,.46.02.63.02.17.06.28.13.33.07.05.17.02.31-.1.18-.15.35-.27.5-.36.15-.09.3-.17.46-.23.16-.06.32-.12.49-.16.17-.04.37-.09.58-.15.23.09.46.14.71.17.25.03.48.1.69.23.17.11.31.33.42.65.11.33.19.71.25,1.15.06.44.1.92.11,1.43.02.51.03,1.01.04,1.48.01.48.02.92.02,1.31s.02.7.05.92c.01.11.06.22.15.32.09.11.16.22.23.32.07.11.11.22.11.33,0,.11-.06.22-.2.33-.05,0-.17,0-.34.02Z"/>
        <path class="cls-2" d="M191.32,15.47c-.18.08-.38.1-.61.09-.23-.02-.46-.05-.68-.09-.22-.04-.38-.04-.49.02-.1.05-.23.1-.39.13-.16.03-.32.04-.48.02-.16-.02-.3-.06-.43-.13-.12-.07-.2-.18-.22-.33-.02-.13.02-.23.11-.3.1-.07.19-.14.27-.22.14-.12.24-.28.3-.5.06-.21.12-.41.17-.58-.02-.08-.02-.16,0-.27.02-.1.04-.21.07-.32.03-.11.06-.22.1-.33.03-.11.05-.2.06-.29,0-.04,0-.15,0-.32,0-.17-.01-.38-.02-.62,0-.24-.02-.5-.03-.77-.02-.27-.03-.52-.04-.75-.01-.23-.02-.43-.03-.59-.01-.16-.02-.26-.03-.29-.04-.14-.13-.3-.26-.47-.13-.17-.26-.33-.4-.48-.13-.15-.26-.27-.36-.37-.11-.1-.16-.16-.16-.17,0-.16.04-.27.11-.33.08-.06.17-.09.27-.09.12,0,.24.01.37.03.13.02.24.03.34.02.19-.02.38-.06.57-.1.19-.05.38-.06.59-.04.16.01.28.06.36.14.08.08.14.18.17.29.03.11.05.23.05.36v.37c0,.15.03.29.1.41.06.12.1.26.11.41,0,.16-.02.32-.06.48-.04.16-.06.32-.06.48-.01.15,0,.29.04.43.04.13.06.28.06.43-.01.16-.04.32-.09.47-.05.15-.08.31-.09.47,0,.22.04.43.12.64.08.21.12.42.12.64,0,.37.04.64.12.81.08.18.17.31.27.41.1.1.18.19.26.27.08.08.11.21.11.38-.01.29-.1.47-.28.55ZM190.7,4.98c-.13.31-.3.54-.5.7-.2.16-.43.21-.67.14-.24-.06-.47-.32-.67-.76-.17-.39-.21-.73-.1-1.02.1-.29.26-.51.48-.67.21-.16.45-.23.71-.23s.45.1.58.31c.06.11.13.2.2.29.07.09.11.19.12.32.03.3-.02.6-.15.91Z"/>
        <path class="cls-2" d="M201.51,10.44c.05.25.05.49,0,.74-.05.25-.14.49-.25.73-.11.24-.23.48-.36.71-.13.23-.25.45-.35.66s-.18.4-.21.57c-.03.16-.1.34-.2.54-.1.2-.23.38-.38.56-.15.17-.31.32-.49.44-.18.12-.36.19-.54.2-.06,0-.17,0-.31,0-.15,0-.29,0-.44-.02-.15-.02-.29-.05-.4-.09-.12-.04-.18-.1-.19-.18-.16-.06-.32-.13-.48-.21-.16-.08-.3-.16-.44-.26-.32.1-.51.27-.56.51-.05.24-.02.51.07.81.1.3.23.61.4.94.17.32.31.61.42.87.11.26.17.47.16.64,0,.17-.14.24-.4.23-.09,0-.23,0-.44.02-.2.01-.44.02-.69.03-.26.01-.53.02-.81.02s-.52-.02-.74-.05c-.23-.03-.41-.09-.55-.16-.14-.08-.2-.18-.19-.32.01-.08.08-.15.2-.22.12-.07.26-.16.42-.27.16-.11.3-.26.44-.44.13-.18.21-.43.23-.74.03-.39.04-.78.03-1.18-.01-.4-.04-.8-.07-1.2-.04-.4-.08-.79-.12-1.18-.04-.39-.08-.78-.1-1.17-.02-.29-.02-.55,0-.78.03-.23.05-.46.08-.69.03-.23.03-.47.02-.72-.01-.25-.05-.53-.13-.84-.03-.13-.12-.24-.27-.32-.15-.09-.3-.17-.48-.25-.17-.08-.34-.16-.5-.24-.16-.08-.27-.18-.34-.3-.1-.16-.12-.29-.08-.39.04-.1.12-.18.24-.24.12-.06.26-.1.44-.13.17-.03.35-.04.52-.05.18,0,.34-.01.48-.02.15,0,.26-.02.33-.04.28.13.56.26.84.4.28.14.55.3.81.47.32-.38.6-.63.83-.77.23-.14.46-.21.68-.22.22,0,.46.04.71.13.25.09.57.17.94.25.19.04.38.17.55.38s.33.45.48.71c.15.26.29.53.43.79.13.26.27.47.4.62.19.24.31.48.36.73ZM197.28,7.91c-.41.05-.77.3-1.08.74.03.25.03.48-.02.7-.04.22-.08.45-.11.69-.03.2-.05.47-.04.81,0,.33.03.68.07,1.03.04.35.1.7.18,1.02.08.33.17.58.29.75.17.26.4.45.67.56.27.12.55.17.83.14.41-.03.73-.2.95-.49.23-.3.38-.66.47-1.08.09-.42.11-.89.08-1.39-.03-.5-.1-.97-.19-1.4-.1-.44-.22-.81-.35-1.14-.14-.32-.28-.53-.42-.61-.47-.28-.91-.39-1.32-.34Z"/>
      </g>
    </g>
  </g>
</svg>