<?xml version="1.0" encoding="UTF-8"?>
<svg id="Layer_2" data-name="Layer 2" xmlns="http://www.w3.org/2000/svg" viewBox="0 0 162.56 22">
  <defs>
    <style>
      .cls-1 {
        fill: #a00;
      }

      .cls-2 {
        fill: #d4aa00;
      }

      .cls-3 {
        fill: #e9ddaf;
      }
    </style>
  </defs>
  <g id="Layer_1-2" data-name="Layer 1">
    <g>
      <g>
        <path d="M1.85.88h158.85c.53,0,.97.43.97.97v16.36c0,1.6-1.3,2.9-2.9,2.9H1.85c-.53,0-.97-.43-.97-.97V1.85c0-.53.43-.97.97-.97Z"/>
        <path class="cls-1" d="M160.82,22H1.17c-.64,0-1.17-.52-1.17-1.17V1.17C0,.52.52,0,1.17,0h160.22c.64,0,1.17.52,1.17,1.17v19.09c0,.96-.78,1.74-1.74,1.74ZM1.77,20.23h159.02V1.77H1.77v18.46Z"/>
      </g>
      <g>
        <path class="cls-3" d="M13.54,3.67c2.51,0,4.19,1.06,5.05,3.19l.09.22c.05.14.16.25.32.31,0,.19-.17.58-.51,1.18-.34.6-.72,1-1.14,1.2-.42.2-.72.29-.88.29v.21c.59.38,1.02.75,1.28,1.11.26.35.58.98.94,1.88l.46.84c-.47.89-.71,1.46-.71,1.7-.6.99-1.04,1.49-1.31,1.49l-.05.05c-.07,0-.1.05-.1.16h-.31c0,.21-.07.31-.21.31-.68.14-1.59.22-2.73.22l-3.1-.37c-.6,0-1.41.17-2.43.52,0,.07-.1.1-.31.1v-.05l-.1-.32c0-.43.38-.72,1.13-.88.66-.42.99-.8.99-1.15v-4.82h.21v-.05l-.05-.06v-.05c.15-.07.24-.14.26-.21v-.15c-.1,0-.15-.03-.15-.1.08,0,.13-.09.15-.27h-.05l-.36.05v-1.78c0-1.08-.19-1.63-.58-1.63l-.21-.1c.05-.35.11-.52.15-.52.76.25,1.38.37,1.86.37l2.16-.15-.1.63h-.1c-.65,0-.98.35-.98,1.05v5.92c0,1.43.19,2.14.57,2.14.34.21.78.32,1.3.32.91,0,1.67-.38,2.26-1.15.14-.47.28-.87.44-1.21l-.24-.31c0-.91-.46-1.76-1.39-2.56-.89-.52-1.56-.78-2.02-.78h-.1v-.11c.22-.77.5-1.15.83-1.15.44.21.76.32.98.32.61,0,1.02-.64,1.23-1.93l.17-.33c-.12-.9-.79-1.61-2.03-2.14-.8-.19-1.77-.27-2.93-.25-1.16.03-2.66.34-4.5.94-.29.1-.51.15-.63.15s-.39-.03-.79-.1c-.4-.07-.6-.17-.6-.32l-.72-1.68h.1c.78.42,1.81.63,3.1.63.65,0,1.74-.14,3.27-.41,1.53-.27,2.56-.4,3.08-.38Z"/>
        <path class="cls-3" d="M19.79,9.27c0-.1.01-.17.04-.2.03-.03.1-.05.23-.05h.13c.6.14,1.19.17,1.75.11.57-.06.92-.1,1.05-.11h.13c.12,0,.19.06.19.17,0,.15-.02.24-.05.28s-.12.05-.25.06c-.21.02-.37.06-.46.12-.1.06-.16.18-.2.36-.01.09-.03.3-.04.64-.01.34-.02.84-.02,1.49,0,.78,0,1.42.01,1.94,0,.52.01.86.02,1.03,0,.15.02.27.03.35.01.08.04.14.09.18s.11.06.19.07c.08.01.2.02.36.02.4,0,.75-.02,1.04-.05.3-.03.51-.08.63-.14.11-.05.47-.42,1.09-1.1.03-.14.09-.22.2-.22.27,0,.4.08.4.23,0,.06-.11.23-.32.51-.21.28-.33.5-.37.66-.03.16-.06.31-.1.44-.02.09-.04.16-.05.22-.01.05-.03.1-.05.12-.02.03-.05.04-.09.05-.04,0-.08,0-.12,0h-.17s-.45-.02-1.19-.07c-.75-.04-1.42-.07-2.02-.07-.3,0-.54.02-.73.06s-.39.06-.63.06c-.24,0-.44,0-.6.02h-.06c-.1,0-.15-.01-.17-.04-.02-.03-.03-.1-.03-.23,0-.09.01-.15.04-.17.03-.03.11-.05.26-.06.14-.01.26-.04.33-.08.08-.04.14-.11.2-.21.05-.1.1-.32.14-.66v-2.26s.04-.35.04-.35l.34.03.04-.34-.26-.2.12-.32-.25-.59c-.02-.62-.05-1.01-.08-1.15-.03-.14-.09-.23-.15-.25-.07-.02-.18-.04-.33-.05-.14,0-.22-.02-.26-.03-.04-.01-.06-.05-.06-.11v-.12Z"/>
        <path class="cls-3" d="M34.41,9.09v.4h-.57l-.16.13c-.11.1-.18.26-.21.48l-.04.35-.09.04-.12-.13-.06.23-.09.05.06.19.04.3.09.06c.04.12.04.21,0,.26l-.06.06-.07.07-.06.07.09.08.06.19h.12s.09.08.09.08v.93l-.06.49.06.43-.06.6.06.54.13.31c.08.21.22.38.4.51l.27.22h.29l-.05.19-.05.19-1.67.02h-.84s-.83.02-.83.02l.12-.09-.12-.1v-.19h.1s.09-.02.09-.02h.1c.08.04.17.06.28.04v-.19l.09-.06c.06-.04.1-.1.11-.16l.02-.11.02-.1.02-.1v-.51s-.02-.52-.02-.52v-.51s-.02-.51-.02-.51l-.63-.15-.64-.15-.63-.15-.64-.15-.02.22-.14.16-.05.31.02.23v.3s-.12.34-.12.34l-.02.33-.08.34-.25.31-.21.28-.28.35c-.16.21-.33.39-.49.55l-.24.23-.25.24c-.16.16-.33.27-.49.35l-.24.12-.25.11c-.16.08-.41.12-.73.12h-.48l.25-.29.23-.02.22-.02.23-.02c.14-.01.28-.09.42-.24l.21-.22.21-.21c.14-.14.26-.36.38-.64l.16-.42.17-.41c.11-.28.18-.61.21-.99l.05-.57.13-.49-.05-.63v-.09s-.22-.14-.22-.14l-.1-.12c-.08-.08-.11-.15-.09-.24l.02-.11.02-.12c.01-.08.07-.11.17-.1h.15s.15.02.15.02h.15s.1-.16.1-.16l.1-.12.09-.24c.15-.1.26-.24.33-.43l.22-.26.23-.25c.14-.17.29-.27.44-.3l.24-.29.23-.16c.15-.11.3-.16.44-.16h.42l.3.09.72-.09.73.09.91-.09h.81ZM30.65,9.94l-.3.09-.11.26c-.14.12-.24.24-.32.38l-.11.21-.11.21c-.08.14-.09.24-.05.31l.06.09.06.1.06.1.22.05.12.21.22.02c.21-.05.4-.04.58.01l.27.08.26.09.27.08v-.6l.09-.6-.09-.59v-.6l-.23-.02-.22-.03-.23-.02c-.15-.01-.3.04-.43.15Z"/>
        <path class="cls-3" d="M34.15,13.08l.19-.37c0-.25.07-.61.21-1.08.13-.47.37-.9.71-1.29.34-.38.74-.69,1.2-.93.47-.23.8-.34.99-.32l.52.06.22.08c.14-.05.28-.08.4-.1.14-.02.24.02.28.13.12.02.22,0,.3-.08.09.02.15.03.17.03h.08s.05,0,.12-.02c.07-.01.14-.03.22-.05.06-.02.12-.04.17-.06.06-.01.1-.02.11-.02h.04s.06.01.1.04c.03.03.05.07.05.11v.08s0,.05-.01.08c-.01.04-.07.13-.16.28.1.1.13.2.09.3l-.07.14.05.1.04.11.06.35c.03.23.06.37.07.42,0,.05.01.1.01.13v.05l-.07.09c-.04.05-.12.1-.23.13l-.16.05h-.05c-.05,0-.1-.04-.12-.11-.02-.05-.05-.15-.09-.28-.04-.12-.09-.26-.14-.4-.05-.14-.14-.26-.27-.37-.14-.12-.32-.22-.54-.3-.22-.08-.43-.15-.63-.22l-.54-.03-.33.12c-.29,0-.59.2-.91.59-.33.41-.49.85-.49,1.32v.71l-.09.49c.06.3.15.63.27,1.02.12.4.27.73.47,1.01.21.28.44.48.71.6.25.11.48.13.7.06l.34-.1h.27c.15,0,.36-.06.62-.17.25-.11.47-.24.66-.38.19-.14.44-.32.75-.54l.6-.4-.24.49c-.13.26-.34.52-.64.79-.3.28-.58.51-.85.68-.29.19-.55.29-.77.32-.21.03-.39.09-.57.2-.2.12-.36.19-.48.19h-.48c-.23,0-.54-.09-.93-.27-.39-.16-.66-.33-.8-.5l-.22-.24.04-.23.04-.22-.07-.23-.07-.2-.22.02-.32.04-.16-.54c-.1-.35-.12-.67-.06-.97l-.09-.44Z"/>
        <path class="cls-3" d="M43.95,13.2v1.11c0,.19,0,.36.01.51,0,.16-.03.26-.1.29.07.16.11.31.12.42.01.12.04.21.08.27s.09.1.16.13.16.04.27.05c.15,0,.24.02.26.04.02.02.07.08.13.19-.06.1-.1.17-.11.21-.01.03-.05.05-.13.05-.75-.03-1.7-.03-2.85,0h-.06c-.08,0-.13-.02-.15-.05-.02-.03-.03-.11-.03-.23,0-.08,0-.13.03-.15.02-.02.06-.04.13-.07.13-.01.23-.04.31-.07.08-.03.16-.09.24-.16.08-.07.13-.17.15-.29.02-.12.03-.28.03-.47v-.28c.16.02.23-.19.2-.64l-.07-.22.2-.31-.09-.19-.21-.27v-2.41l-.03-.64-.11-.32-.2-.1-.2-.02-.19-.04-.03-.02-.02-.03v-.33l.08-.08h.39s.31.01.31.01h.87s.2.01.2.01h.76s.17-.02.17-.02h.3v.39l-.07.11-.21.02-.26.03-.22.21-.02.28-.03.21-.03,1.13v.71c.08.19.28.18.63-.02l.12-.12.19-.2.41-.44.39-.43.1-.13.11-.12.26-.31.17-.27v-.3h-.44s-.16.01-.16.01l-.09-.1v-.31l.06-.1h.16l.28.02h.57s.47.01.47.01h.41c.14,0,.25-.01.33-.02.08,0,.17,0,.3-.02h.11c.08,0,.12.02.14.05.02.03.03.1.03.2,0,.1-.01.17-.04.19-.02.02-.1.06-.24.1-.08.03-.16.06-.23.08s-.18.09-.34.2l-.32.27-.52.47-.54.48-.44.68.4.6.39.6c.17.34.35.61.54.82.17.28.35.52.52.73.21.25.49.58.83.97l.42.6c.27.32.47.51.62.58l.23.11.22.1c.14.07.28.1.42.1h.44c.14,0,.23-.01.29-.03l.09-.04.11-.03.12-.04.12.07.13.07.1.06c.08.05.09.1.01.16l-.09.08-.11.1-.09.09-.19.06-.17.05-.16.06c-.12.03-.31.06-.56.06h-.73c-.25.02-.44-.01-.57-.07l-.17-.09-.16-.17c-.13,0-.28-.05-.44-.16l-.26-.17-.25-.28c-.17-.05-.37-.2-.6-.46l-.35-.4-.34-.38-.34-.39-.12-.29-.12-.09-.13-.29-.12-.08-.11-.19-.12-.19-.11-.17c-.08-.12-.17-.26-.28-.41-.1-.15-.19-.33-.25-.52l-.04-.2h-.08c-.1-.05-.14-.09-.14-.09l-.67.34Z"/>
        <path class="cls-3" d="M49.65,9.15h.96s.45.1.45.1l.51-.08h.96s.47.01.47.01l.45.16.24-.15h.22c.27,0,.53.15.77.44.23.3.4.58.51.86.11.29.16.55.14.77-.01.23-.09.43-.22.58-.13.15-.27.25-.43.3l-.24.08v.12s-.03.12-.03.12l.27.16c.18.11.36.31.55.59.19.29.3.62.35.99s-.02.66-.2.86c-.06.36-.18.63-.35.79-.18.17-.4.32-.67.44-.27.13-.61.19-1.03.17l-.64-.02-.67-.07c-.45-.05-.96-.06-1.51-.04l-.84.04-.07-.13-.07-.13.21-.08c.13-.05.22-.11.27-.17.05-.06.09-.37.11-.93l.03-.82-.02-.5-.02-.49.11-.04.11-.03.04-.19.03-.17-.07-.02-.08-.02-.1-.06-.11-.05.06-.13.05-.13-.02-1.06-.02-1.06-.07-.2c-.05-.12-.11-.21-.17-.27l-.11-.07-.2-.02-.21-.02.15-.22.14-.21ZM51.66,10.34l-.02,1.25-.11,1.37.07,1.12-.02,1.24.13.1.13.1.13.11c.09.07.25.12.47.16l.34-.06h.31c.21.02.4-.05.58-.22.18-.16.31-.33.39-.5.08-.17.16-.34.26-.51l.02-.31-.16-.31c-.03-.21-.15-.4-.36-.6-.22-.19-.41-.38-.57-.57-.33-.1-.57-.16-.73-.17l-.25-.02.02-.2c.01-.12.07-.23.16-.32l.13-.13.29.07c.19.05.36.06.49.02.13-.03.27-.14.42-.33.14-.18.21-.34.2-.48l-.02-.21.09-.33c-.11-.14-.28-.28-.5-.42-.23-.14-.44-.25-.63-.32-.14.02-.31.02-.48-.01-.18-.03-.35.04-.52.21l-.27.26Z"/>
        <path class="cls-3" d="M56.43,9.16l.48.12.54-.11h.51s.79,0,.79,0h.78s1.57-.02,1.57-.02l-.07.56.11.56.11.59.1.59-.1.03-.11.03-.14-.22-.15-.22-.17-.35-.19-.35-.29-.29-.29-.29-.21-.08h-.4s-.38-.03-.38-.03h-.39s-.15.04-.15.04l-.16.06-.05.12-.06.12v2.44l.51-.02h.51s.28-.04.28-.04c.18-.02.32-.06.41-.11.1-.05.16-.15.19-.29l.04-.2.04-.12.03-.11.19.09.17.1v2.28h-.2s-.21.03-.21.03l-.05-.32c-.04-.21-.19-.36-.44-.46-.26-.1-.49-.17-.69-.21l-.31-.05h-.48v2.64h.61s.6.07.6.07l.43-.05.42.05.54.11.52.12.42.15.6-.03.28.09.52.04.44-.02c.29,0,.5-.04.62-.09l.16-.08.12.19h.11s.17.14.17.14l.16.14-.29.03c-.19.03-.43.05-.71.07l-.43.03-.66-.05-.66-.05-1.19-.05-1.19-.05-1.02.03c-.69.03-1.36.06-2.02.1l-.99.07.02-.26.02-.25.09-.02.09-.02.23-.13c.14-.08.23-.15.25-.2l.03-.06.13-.07-.06-.06v-1.2l-.03-1.11.13-.06.16-.27-.05-.2-.05-.19.12-.19.11-.19-.19-.06-.19-.06v-.23s-.03-.23-.03-.23v-.67c0-.44-.02-.75-.05-.93-.04-.18-.13-.28-.26-.3l-.21-.03-.2-.02h-.21s.08-.14.08-.14l.09-.12.08-.13.08-.12h.51Z"/>
        <path class="cls-3" d="M69.74,9.09v.4h-.57l-.16.13c-.11.1-.18.26-.21.48l-.04.35-.09.04-.12-.13-.06.23-.09.05.06.19.04.3.09.06c.04.12.04.21,0,.26l-.06.06-.07.07-.06.07.09.08.06.19h.12s.09.08.09.08v.93l-.06.49.06.43-.06.6.06.54.13.31c.08.21.22.38.4.51l.27.22h.29l-.05.19-.05.19-1.67.02h-.84s-.83.02-.83.02l.12-.09-.12-.1v-.19h.1s.09-.02.09-.02h.1c.08.04.17.06.28.04v-.19l.09-.06c.06-.04.1-.1.11-.16l.02-.11.02-.1.02-.1v-.51s-.02-.52-.02-.52v-.51s-.02-.51-.02-.51l-.63-.15-.64-.15-.63-.15-.64-.15-.02.22-.14.16-.05.31.02.23v.3s-.12.34-.12.34l-.02.33-.08.34-.25.31-.21.28-.28.35c-.16.21-.33.39-.49.55l-.24.23-.25.24c-.16.16-.33.27-.49.35l-.24.12-.25.11c-.16.08-.41.12-.73.12h-.48l.25-.29.23-.02.22-.02.23-.02c.14-.01.28-.09.42-.24l.21-.22.21-.21c.14-.14.26-.36.38-.64l.16-.42.17-.41c.11-.28.18-.61.21-.99l.05-.57.13-.49-.05-.63v-.09s-.22-.14-.22-.14l-.1-.12c-.08-.08-.11-.15-.09-.24l.02-.11.02-.12c.01-.08.07-.11.17-.1h.15s.15.02.15.02h.15s.1-.16.1-.16l.1-.12.09-.24c.15-.1.26-.24.33-.43l.22-.26.23-.25c.14-.17.29-.27.44-.3l.24-.29.23-.16c.15-.11.3-.16.44-.16h.42l.3.09.72-.09.73.09.91-.09h.81ZM65.98,9.94l-.3.09-.11.26c-.14.12-.24.24-.32.38l-.11.21-.11.21c-.08.14-.09.24-.05.31l.06.09.06.1.06.1.22.05.12.21.22.02c.21-.05.4-.04.58.01l.27.08.26.09.27.08v-.6l.09-.6-.09-.59v-.6l-.23-.02-.22-.03-.23-.02c-.15-.01-.3.04-.43.15Z"/>
        <path class="cls-3" d="M73.5,9.16c.87.03,1.48.09,1.82.18.34.09.59.2.75.33l.24.2.24.21c.16.13.26.26.32.4l.08.2.08.21c.05.14.06.28.02.43l-.05.23-.06.23c-.04.15-.11.3-.21.44l-.14.22-.15.22c-.1.14-.2.24-.3.3l-.15.07-.15.08-.15.08v.15l.19.11c.12.08.38.27.76.58.38.3.7.62.96.96.25.34.56.72.95,1.14.38.42.74.71,1.08.86.34.16.64.24.91.24s.48-.02.65-.07l.25-.06.38-.12c.25-.08.39-.07.41.03l.02.16v.15c.02.11-.05.17-.2.2l-.23.03-.09.04c-.06.03-.26.09-.59.15-.34.07-.74.09-1.2.06-.47-.02-.85-.08-1.15-.17-.3-.09-.81-.39-1.52-.92-.71-.52-1.27-1-1.67-1.45-.4-.45-.78-.87-1.15-1.27-.37-.39-.66-.67-.85-.84l-.31-.25v-.4l1.06.09c.3-.03.51-.09.62-.2.11-.11.19-.31.25-.61.05-.3.05-.64-.02-1.02-.07-.38-.22-.65-.45-.8-.24-.15-.56-.25-.97-.27-.54.05-.87.26-.98.64l.04,4.89c.1.34.23.55.38.63.15.08.35.17.6.27v.32l-3.37.07-.03-.55c.27,0,.45-.07.53-.2.08-.13.14-.27.18-.41s.06-1.15.06-3l.31-.12-.34-.31-.04-.7-.05-.71c-.02-.42-.23-.69-.62-.82l.09-.59c1.15.1,2.15.13,3,.07Z"/>
        <path class="cls-3" d="M79.34,10.62v-.27c0-.18-.05-.34-.15-.49-.1-.15-.22-.23-.35-.25-.09-.01-.17-.02-.24-.02s-.11-.04-.11-.12c0-.02.02-.05.05-.09.03-.04.06-.08.1-.11.03-.04.07-.07.11-.1.04-.03.08-.04.1-.04.02,0,.05,0,.08.01.03,0,.08.01.16.02s.18.01.31.02c.13.01.32.02.56.02.2,0,.37,0,.5-.01.14,0,.26-.01.37-.02.11,0,.2,0,.27-.02.07,0,.14-.01.21-.02.14-.02.29-.04.45-.05.16-.01.37.02.62.08l.26-.09h.17c.12,0,.36.07.74.2l.26.1c.19.08.38.27.56.59l.3.15c.13.14.27.42.41.83l.1.32c.07.21.1.45.1.72v.9l-.09.21c.06.18,0,.52-.19,1.03l-.14.39c-.1.25-.31.56-.64.93l-.26.29c-.16.19-.47.38-.93.58l-.34.14c-.23.11-.48.16-.75.16h-.38c-.15,0-.29,0-.43-.03-.13-.02-.27-.03-.41-.05-.14-.01-.28-.03-.43-.04-.15-.01-.31-.02-.49-.02-.16,0-.3,0-.4.02-.1.01-.18.02-.25.02-.07,0-.13,0-.17.02-.05,0-.1.01-.15.01-.13,0-.2-.04-.2-.12,0-.05.03-.12.08-.21s.11-.13.17-.15c.08-.01.14-.04.2-.09s.1-.12.14-.22c.04-.09.07-.22.09-.38l.11-.25-.09-.2.06-.35v-.63s.07-.79.07-.79l.21-.07.15-.07.03-.29.07-.29-.16-.22-.23-.21-.1-.69-.1-.69ZM81.03,14.7l.07.36c0,.25.05.4.16.45.14.07.28.12.42.14.13.03.28.04.44.04.54,0,.93-.25,1.19-.75l.2-.39c.14-.25.21-.64.21-1.16l.11-.35-.11-.42v-.55c0-.12-.03-.35-.09-.71l-.09-.23c-.04-.16-.14-.36-.3-.58l-.11-.15c-.08-.1-.23-.21-.44-.31l-.16-.07c-.11-.04-.23-.06-.35-.06h-.21c-.16,0-.32.01-.46.03-.14.02-.25.04-.31.05h-.08v1.16l-.02.43.02.73v.58l-.07.68.07.48-.07.59Z"/>
        <path class="cls-3" d="M88.62,6.88c-.39,1.44-1.13,3.26-1.61,4.05l-.96.12c.38-1.01.82-2.79,1.01-4.02l1.56-.15Z"/>
        <path class="cls-3" d="M94.98,8.59c.08.69.28,1.44.62,2.26l-.58.03c-.13-.33-.38-.61-.75-.84-.37-.23-.73-.4-1.09-.5-.36-.1-.7-.12-1.03-.06-.33.07-.58.22-.75.46-.17.24-.17.48-.02.7.15.23.44.47.86.71.42.24.92.48,1.5.71s1.04.54,1.4.94c.36.4.59.82.71,1.27.12.45.11.84,0,1.17-.12.34-.34.66-.65.96-.32.31-.72.56-1.2.76-.49.2-.95.32-1.4.34-.45.03-.84,0-1.19-.06-.35-.07-.72-.24-1.13-.52-.41-.28-.68-.56-.8-.84-.13-.28-.13-.57-.02-.86.11-.29.3-.55.57-.77.27-.22.53-.36.79-.42.26-.07.52-.08.78-.06-.03.36-.05.69-.06.99-.3-.08-.56-.09-.78-.03-.22.05-.36.21-.44.46-.08.25-.04.52.12.79.16.27.37.46.64.56.27.1.57.17.92.21.35.04.69.02,1.02-.06.33-.08.64-.24.92-.48s.46-.5.54-.78c.08-.28.05-.58-.06-.9-.12-.32-.3-.55-.55-.68l-.17-.29v-.28s-.2-.3-.2-.3c-.22.13-.3.28-.23.45l-.52-.15c-1.05-.41-1.75-.75-2.09-1.02-.34-.27-.58-.54-.73-.82-.14-.28-.17-.59-.08-.92s.23-.63.41-.9c.19-.27.42-.49.69-.67.27-.18.53-.3.78-.34.24-.05.56-.07.96-.07s.73.01,1.01.04c.28.02.72-.04,1.31-.19Z"/>
      </g>
      <g>
        <path class="cls-2" d="M113.18,1.93c.28-.01.51-.02.68-.02.82,0,1.44.1,1.89.31.53.24.97.69,1.33,1.35.29.56.44,1.1.44,1.62,0,1.58-.79,3.25-2.36,5-1.24,1.38-2.62,2.58-4.13,3.59-1.9,1.26-3.58,1.9-5.04,1.9-.66,0-1.19-.19-1.6-.58s-.61-.91-.61-1.56c0-.4.06-.8.17-1.19l-2.38,2.61c-.18.2-.36.3-.53.3-.3,0-.45-.13-.45-.4,0-.1.04-.23.12-.39.22-.48,1.77-2.27,4.63-5.38l5.3-5.75c-1.3.23-2.39.52-3.28.87-.88.34-1.44.51-1.68.51-.32,0-.48-.1-.48-.31,0-.19.64-.52,1.93-1.02,1.29-.49,2.87-.91,4.76-1.25l.6-.55c.3-.27.49-.4.59-.4.19,0,.28.12.28.36,0,.08-.06.22-.18.4ZM112.43,3.04l-6.8,7.39c-.55.61-.9,1.04-1.06,1.3-.26.45-.39.98-.39,1.61,0,.93.5,1.4,1.5,1.4,1.17,0,2.67-.59,4.48-1.78,1.75-1.15,3.26-2.5,4.54-4.03,1.39-1.66,2.08-3.09,2.08-4.28s-.75-1.8-2.25-1.8c-.66,0-1.36.07-2.1.21Z"/>
        <path class="cls-2" d="M116.1,13.57c-.35.08-.99.4-1.95.95-.84.48-1.48.73-1.92.73-.08,0-.12-.05-.12-.14,0-.13.09-.21.27-.23.42-.07,1.02-.33,1.78-.77.84-.48,1.53-.78,2.06-.91.32-.77.97-1.57,1.97-2.41,1.06-.9,1.96-1.36,2.7-1.36.55,0,.83.23.83.7,0,.61-.58,1.28-1.75,2.01-.86.54-1.73.96-2.63,1.26-.1.22-.15.45-.15.69,0,.36.13.59.38.7.13.05.36.08.71.09.25,0,.38.07.38.18,0,.18-.43.27-1.28.27-.9,0-1.35-.39-1.35-1.17,0-.18.02-.38.07-.59ZM117.47,12.99c.64-.31,1.31-.73,2.01-1.26.94-.7,1.41-1.25,1.41-1.66,0-.17-.08-.25-.23-.25-.45,0-1.06.41-1.83,1.24-.69.75-1.14,1.4-1.36,1.93Z"/>
        <path class="cls-2" d="M124.09,11.9l-2.56,1.93c-1.38.95-2.39,1.42-3.04,1.42-.08,0-.12-.04-.12-.12,0-.13.13-.21.38-.25.29-.04.63-.17,1.01-.37.46-.24,1.23-.77,2.33-1.59.8-.58,1.65-1.22,2.54-1.93,1.03-1.54,2.45-3.21,4.25-5.02,2-2,3.35-3.01,4.03-3.01.32,0,.48.17.48.51,0,.87-1.02,2.26-3.06,4.18-1.29,1.2-2.69,2.37-4.21,3.49-.35.26-.79.82-1.31,1.67-.55.87-.82,1.49-.82,1.85,0,.17.19.26.57.26.09,0,.13.05.13.16,0,.13-.18.2-.54.2-.57,0-.86-.29-.86-.87s.27-1.4.81-2.51ZM132.84,3.28c-.27,0-1.34,1.05-3.2,3.16-1.77,2.02-2.9,3.41-3.38,4.16,4.51-3.67,6.77-6.06,6.77-7.16,0-.11-.06-.17-.19-.17Z"/>
        <path class="cls-2" d="M129.4,14.61c0,.19.2.28.61.28.09,0,.14.06.14.17,0,.13-.23.2-.69.2-.52,0-.78-.25-.78-.75,0-.58.77-1.79,2.31-3.64l-2.83,2.31c-1.67,1.37-2.88,2.05-3.64,2.05-.08,0-.12-.05-.12-.14,0-.13.07-.21.21-.23.44-.08.83-.22,1.19-.42.45-.25,1.4-.95,2.86-2.1l3.17-2.66c.14-.05.32-.07.56-.07s.35.13.35.4c0,.29-.56,1.07-1.67,2.34-1.11,1.27-1.67,2.02-1.67,2.25ZM133.98,7.44c-.33,0-.5-.17-.5-.51,0-.28.17-.54.51-.77.3-.21.61-.31.91-.31.36,0,.54.2.54.59,0,.28-.18.52-.54.73-.31.18-.62.27-.92.27Z"/>
        <path class="cls-2" d="M133.99,12.91c-.97.76-1.6,1.23-1.88,1.41-.91.61-1.62.92-2.12.92-.09,0-.13-.04-.13-.13,0-.12.08-.2.25-.25.73-.17,1.64-.68,2.73-1.52l2.9-2.31c1.4-1.02,2.45-1.53,3.16-1.53.59,0,.87.33.86.98.32-.37.56-.56.69-.56.2,0,.3.11.3.34,0,.21-1.16,1.76-3.48,4.64.04,0,.12,0,.24-.02.1-.01.17-.02.23-.02.09,0,.13.06.13.17,0,.12-.13.19-.4.22l-.54.03c-3.36,4.17-5.84,6.26-7.42,6.26-.65,0-.97-.27-.97-.82,0-.87.65-1.89,1.94-3.07,1.29-1.18,3.09-2.04,5.4-2.59.59-.66,1.07-1.27,1.44-1.81-.7.61-1.15.99-1.34,1.13-.62.46-1.15.68-1.57.68-.5,0-.76-.3-.76-.91,0-.39.12-.81.35-1.27ZM135.49,15.61c-1.54.37-3.03,1.15-4.46,2.33-1.43,1.18-2.14,2.11-2.14,2.79,0,.29.13.44.38.44.58,0,1.66-.77,3.24-2.32,1.18-1.15,2.17-2.23,2.97-3.23ZM139.36,10.33c0-.25-.11-.37-.34-.37-.44,0-1.29.6-2.55,1.81-1.26,1.21-1.89,2.06-1.89,2.54,0,.17.07.26.2.26.39,0,1.24-.58,2.56-1.75,1.35-1.2,2.03-2.03,2.03-2.49Z"/>
        <path class="cls-2" d="M143.84,12.87c2.5-2.22,4.17-3.34,5.01-3.34.37,0,.56.2.56.59,0,.42-.59,1.22-1.78,2.4s-1.78,1.88-1.78,2.08c0,.19.19.29.57.29.1,0,.15.06.15.17,0,.13-.17.2-.51.2-.6,0-.9-.25-.9-.76,0-.58.46-1.34,1.39-2.29,1.13-1.16,1.74-1.82,1.83-1.98,0-.08-.03-.12-.12-.12-.38,0-1.35.66-2.9,1.98-1.16.98-2.09,1.82-2.8,2.53-.28.28-.51.49-.69.62-.1,0-.2-.07-.3-.2-.09-.13-.14-.25-.14-.36,0-.16.47-.84,1.42-2.04l1.65-2.07c-.67.63-1.51,1.34-2.51,2.12l-1.99,1.52c-1,.68-1.77,1.03-2.31,1.03-.08,0-.12-.04-.12-.13,0-.13.07-.21.21-.25.57-.14,1.08-.35,1.51-.62.81-.5,2.02-1.43,3.64-2.79l2.09-1.77c.44-.37,1.67-1.74,3.68-4.09,1.81-2.12,2.8-3.18,2.97-3.18.25,0,.37.16.37.47,0,.21-.69,1.14-2.08,2.78l-6.12,7.21Z"/>
        <path class="cls-2" d="M154.7,8.48l-3.73.15c-.21,0-.31-.06-.31-.17,0-.09.17-.16.51-.21.48-.08,1.15-.14,2.01-.2.96-.06,1.63-.11,2.02-.16l1.48-1.77c.79-.94,1.27-1.41,1.44-1.41.21,0,.31.13.31.39,0,.28-.63,1.21-1.89,2.79.73-.05,1.33-.07,1.8-.07.32,0,.48.06.48.19,0,.14-.38.23-1.15.28l-1.57.05-2.31,2.89c-1.46,1.9-2.19,3.03-2.19,3.39,0,.17.12.26.35.26.23,0,.35.06.35.18,0,.13-.15.2-.46.2-.61,0-.92-.25-.92-.75,0-.39.2-.96.6-1.69l.9-1.51-3.07,2.41c-1.28,1.01-2.26,1.51-2.95,1.51-.08,0-.12-.05-.12-.14,0-.12.07-.2.21-.23.23-.05.59-.17,1.07-.36.46-.24,1.49-.99,3.09-2.23,1.18-.92,1.92-1.51,2.23-1.79.55-.5,1.15-1.17,1.82-2.01Z"/>
      </g>
    </g>
  </g>
</svg>