<?xml version="1.0" encoding="UTF-8"?>
<svg id="Layer_2" data-name="Layer 2" xmlns="http://www.w3.org/2000/svg" viewBox="0 0 126.22 22">
  <defs>
    <style>
      .cls-1 {
        fill: #ff9f24;
      }

      .cls-2 {
        fill: #699cc6;
      }
    </style>
  </defs>
  <g id="Layer_1-2" data-name="Layer 1">
    <g>
      <g>
        <path class="cls-1" d="M9.62,12.72c0,1.39-.23,3.11-1.19,4.07-.96.96-2.13,1.44-3.51,1.44s-2.55-.48-3.51-1.44C.46,15.83.06,13.49.06,12.1l4.28,2.08,5.27-1.46Z"/>
        <path class="cls-1" d="M9.3,12.35s.79.49.91.52,3.82,1.61,3.82,1.61l5.21-.37,1.15-3.19v4.98c0,.66-.22,1.2-.67,1.64-.44.43-.99.65-1.64.65s-1.18-.21-1.61-.62c-.44.42-.99.62-1.64.62-1.57,0-2.89-.53-3.95-1.6-1.06-1.07-1.59-2.38-1.59-3.95"/>
        <path class="cls-1" d="M24.43,11.98v3.93c0,.66-.22,1.2-.65,1.64s-.98.65-1.64.65-1.21-.22-1.64-.65c-.44-.43-.66-.98-.66-1.64v-5.67l1.17,3.73,2.33-.16,1.09-1.83ZM29.57,13.4v2.5c0,.66-.22,1.2-.66,1.64-.44.43-.99.65-1.64.65s-1.2-.22-1.64-.65c-.43-.43-.65-.98-.65-1.64l.09-2.28M37.05,17.98c0,.3.1-.28,0,0,.1.27,0,1.42,0,1.73,0,.66-.22,1.2-.66,1.64-.44.43-.99.65-1.64.65-1.39,0-2.55-.46-3.51-1.39-.95-.93-1.36-3.55-1.36-4.94l2.7,2.58,4.47-.26Z"/>
        <path class="cls-1" d="M42.6,13.16c.35.42.59.45.59,1.03,0,.3-.05.59-.16.87.1.28.16.57.16.87,0,.66-.22,1.21-.65,1.65-.43.44-.98.66-1.64.66h-1.54c-1.56,0-2.12-.84-3.19-1.9"/>
        <path class="cls-1" d="M50.11,13.03c-.18.68-.62,3.25-1.19,3.83-.88.88-1.94,1.32-3.2,1.32-.66,0-1.2-.22-1.64-.65s-.62-2.62-.62-3.28"/>
        <path class="cls-1" d="M71.44,12.57c0,1.36-.34,3.27-1.28,4.21-.94.94-2.09,1.41-3.45,1.41-.88,0-1.68-.21-2.41-.64-.73.43-1.53.64-2.41.64-1.37,0-2.53-.47-3.46-1.4-.93-.94-1.32-3.17-1.32-4.55l2.65,1.86s3.63.28,3.77.28,5.03.23,5.4,0,2.51-1.81,2.51-1.81Z"/>
        <path class="cls-1" d="M80.22,15.05c.1.28.16.57.16.87,0,.66-.22,1.21-.65,1.65-.43.44-.98.66-1.64.66h-1.54c-1.56,0-2.87-.53-3.94-1.6-1.07-1.07-1.6-2.39-1.6-3.96"/>
        <path class="cls-1" d="M84.28,14.1l3.16-2.54c-.01.29-.02.65-.02,1.09v.33c0,.87-.06,1.53-.19,1.99-.18.68-.56,1.31-1.13,1.89-.88.88-1.94,1.32-3.2,1.32-.66,0-1.2-.22-1.64-.65-.43-.43-.65-.98-.65-1.64,0-.3.05-.59.16-.87l3.51-.92Z"/>
        <path class="cls-1" d="M98.68,13.17v.16s-.5,2.54-1.4,3.45c-.93.94-2.08,1.41-3.45,1.41s-2.53-.47-3.46-1.4c-.93-.93-1.2-2.71-1.2-4.08l3.35,1.68,6.16-1.21Z"/>
        <path class="cls-1" d="M107.22,11.5c0,.66.36,1.8-.07,2.24s-.98.65-1.64.65h-2.91v1.52c0,.66-.22,1.2-.66,1.64-.44.43-.99.65-1.64.65s-1.2-.22-1.64-.65c-.43-.43-1.08-3.29-1.08-3.95l2.89.7,2.09-2.23,4.65-.56Z"/>
        <path class="cls-1" d="M118.17,15.9c0,.66-.22,1.2-.67,1.64-.44.43-.99.65-1.64.65s-1.18-.21-1.61-.62c-.44.42-.99.62-1.64.62-1.57,0-2.89-.53-3.95-1.6-1.06-1.07-1.59-2.38-1.59-3.95,0-.29.02-.58.07-.86"/>
        <path class="cls-1" d="M122.3,14.99c0,.66-.32,2.12-.77,2.55-.44.43-.99.65-1.64.65s-1.2-.22-1.64-.65c-.43-.43-.85-2.08-.85-2.74"/>
        <path class="cls-1" d="M126.21,14.57c0,.66-.23,2.54-.68,2.97-.44.43-.99.65-1.64.65s-1.2-.22-1.64-.65c-.43-.43-.89-1.52-.89-2.18M122.74,14.18c0,.35.11.63.32.84.21.21.49.32.84.32s.63-.11.85-.32c.22-.21.33-.49.33-.84"/>
      </g>
      <g>
        <path class="cls-2" d="M9.89,11.44c0,1.39-.48,2.56-1.44,3.52-.96.96-2.13,1.44-3.51,1.44s-2.55-.48-3.51-1.44c-.95-.96-1.43-2.13-1.43-3.51,0-.24.03-.48.1-.71-.07-.33-.1-.68-.1-1.02,0-.66.22-1.2.66-1.64.44-.43.99-.65,1.64-.65s1.2.22,1.64.65c.43.43.65.98.65,1.64,0,.24.12.36.35.36s.36-.12.36-.36V2.29c0-.66.22-1.21.65-1.64.43-.43.98-.65,1.64-.65s1.21.22,1.64.65c.44.43.66.98.66,1.64v9.15ZM8.76,9.71V2.29c0-.35-.11-.63-.33-.84-.22-.21-.5-.32-.85-.32s-.63.11-.84.32c-.21.21-.32.49-.32.84v7.42c0,.42-.14.77-.43,1.06-.29.29-.64.43-1.06.43s-.76-.14-1.05-.43c-.28-.29-.42-.64-.42-1.06,0-.35-.11-.63-.32-.84-.21-.21-.49-.32-.84-.32s-.63.11-.85.32c-.22.21-.33.49-.33.84,0,1.09.36,1.99,1.09,2.73.73.73,1.63,1.1,2.72,1.1s1.99-.37,2.73-1.1c.73-.73,1.1-1.64,1.1-2.73Z"/>
        <path class="cls-2" d="M20.41,14.07c0,.66-.22,1.2-.67,1.64-.44.43-.99.65-1.64.65s-1.18-.21-1.61-.62c-.44.42-.99.62-1.64.62-1.57,0-2.89-.53-3.95-1.6-1.06-1.07-1.59-2.38-1.59-3.95,0-.29.02-.58.07-.86-.05-.29-.07-.58-.07-.86,0-1.57.53-2.88,1.59-3.94,1.06-1.06,2.38-1.59,3.95-1.59s2.89.53,3.96,1.6c1.07,1.07,1.6,2.38,1.6,3.94v4.98ZM19.29,12.34v-3.24c0-1.26-.42-2.31-1.27-3.16-.85-.84-1.9-1.27-3.16-1.27s-2.31.42-3.15,1.26c-.84.84-1.26,1.89-1.26,3.14s.42,2.31,1.26,3.15c.84.85,1.89,1.27,3.15,1.27.35,0,.63-.11.85-.33.22-.22.33-.5.33-.84s-.11-.62-.33-.83c-.22-.21-.5-.32-.85-.32-.58,0-1.07-.2-1.47-.61-.4-.41-.61-.9-.61-1.47s.2-1.06.61-1.46c.4-.4.89-.6,1.47-.6s1.07.2,1.48.61c.41.4.61.89.61,1.47v3.24c0,.35.11.63.32.84.21.21.49.32.84.32s.63-.11.85-.32c.22-.21.33-.49.33-.84ZM15.56,10.18c-.2-.2-.43-.29-.71-.29-.15,0-.29.03-.42.09.12.06.29.1.54.12.29.02.48.05.59.09Z"/>
        <path class="cls-2" d="M37.06,17.88c0,.66-.22,1.2-.66,1.64-.44.43-.99.65-1.64.65-1.39,0-2.55-.46-3.51-1.39-.95-.93-1.43-2.09-1.43-3.47v-5.16c0-.17-.08-.26-.24-.26v4.19c0,.66-.22,1.2-.66,1.64-.44.43-.99.65-1.64.65s-1.2-.22-1.64-.65c-.43-.43-.65-.98-.65-1.64v-3.93c0-.17-.09-.26-.28-.26s-.28.09-.28.26v3.93c0,.66-.22,1.2-.65,1.64s-.98.65-1.64.65-1.21-.22-1.64-.65c-.44-.43-.66-.98-.66-1.64v-5.67c0-1.36.47-2.51,1.41-3.45.94-.94,2.09-1.4,3.45-1.4.88,0,1.68.22,2.42.66.73-.44,1.53-.66,2.42-.66,1.36,0,2.51.47,3.45,1.4.93.94,1.4,2.09,1.4,3.45v5.17c0,.19.09.28.28.28.68,0,1.25.22,1.7.65.45.43.68.98.68,1.65,0,.3-.05.59-.16.87.1.27.16.55.16.87ZM35.94,16.15c0-.35-.11-.63-.33-.85s-.5-.33-.85-.33h-.07c-.39,0-.72-.14-1-.41-.27-.27-.41-.6-.41-1v-5.17c0-1.06-.35-1.95-1.06-2.66-.71-.71-1.6-1.07-2.66-1.07-.92,0-1.73.3-2.42.9-.7-.6-1.51-.9-2.42-.9-1.06,0-1.95.36-2.67,1.07-.72.71-1.07,1.6-1.07,2.66v3.94c0,.35.11.63.33.84.22.21.5.32.85.32s.63-.11.84-.32c.21-.21.32-.49.32-.84v-3.93c0-.39.14-.72.41-.99.27-.27.6-.4,1-.4s.71.14.99.41c.28.27.42.6.42.98v3.93c0,.35.11.63.32.84.21.21.49.32.84.32s.63-.11.85-.32c.22-.21.33-.49.33-.84v-4.78c.28-.36.65-.54,1.11-.54.38,0,.71.14.98.41.27.27.41.6.41.98v5.16c0,1.06.36,1.95,1.07,2.67.72.72,1.6,1.07,2.67,1.07h.07c.35,0,.63-.11.85-.32.22-.21.33-.49.33-.84Z"/>
        <path class="cls-2" d="M44.06,8.56c0,.73-.29,1.33-.88,1.8-.09.09-.25.26-.48.5.35.42.52.91.52,1.49,0,.3-.05.59-.16.87.1.28.16.57.16.87,0,.66-.22,1.21-.65,1.65-.43.44-.98.66-1.64.66h-1.54c-1.56,0-2.87-.53-3.94-1.6-1.07-1.07-1.6-2.39-1.6-3.96,0-.29.02-.58.07-.87-.05-.29-.07-.58-.07-.87,0-1.57.53-2.89,1.59-3.95,1.06-1.06,2.38-1.59,3.95-1.59,1.03,0,2.03.28,2.99.85,1.12.65,1.68,1.46,1.68,2.43,0,.31-.06.6-.17.87.12.28.17.57.17.87ZM42.93,6.83c0-.29-.12-.56-.35-.8-.88-.9-1.94-1.35-3.2-1.35s-2.31.42-3.15,1.27c-.84.84-1.26,1.9-1.26,3.16s.42,2.32,1.26,3.17c.84.85,1.89,1.27,3.15,1.27h1.54c.35,0,.63-.11.84-.33.21-.22.32-.5.32-.85s-.11-.63-.32-.84c-.21-.21-.49-.32-.84-.32h-1.54c-.58,0-1.07-.2-1.47-.61-.4-.41-.61-.9-.61-1.48s.2-1.07.61-1.47.89-.61,1.47-.61c.15,0,.3.01.45.03l-1.25,1.23c-.25.25-.38.53-.38.81,0,.32.12.61.35.85.24.24.52.36.84.36.29,0,.56-.12.81-.36l2.22-2.17c.33-.25.5-.57.5-.96Z"/>
        <path class="cls-2" d="M52.51,7.58c0,.62-.2,1.15-.61,1.58-.41.43-.93.67-1.55.71,0-.01-.01-.03-.03-.07-.02-.03-.03-.06-.03-.07-.01.29-.02.65-.02,1.09v.33c0,.87-.06,1.53-.19,1.99-.18.68-.56,1.31-1.13,1.89-.88.88-1.94,1.32-3.2,1.32-.66,0-1.2-.22-1.64-.65-.43-.43-.65-.98-.65-1.64,0-.3.05-.59.16-.87-.1-.28-.16-.57-.16-.87,0-.65.21-1.19.63-1.63.42-.44.95-.66,1.6-.68v-1.94c0-1.27.44-2.34,1.31-3.22.87-.87,1.94-1.31,3.21-1.31.66,0,1.21.22,1.64.65.44.43.66.98.66,1.64,0,.31-.05.6-.16.87.1.27.16.56.16.87ZM51.38,5.84c0-.35-.11-.63-.33-.84-.22-.21-.5-.32-.85-.32-.96,0-1.76.33-2.41.98-.65.65-.98,1.46-.98,2.42v2.01c0,.3-.1.55-.31.75-.2.2-.46.3-.76.3-.35,0-.63.11-.85.33-.22.22-.32.5-.32.85s.11.63.32.84c.21.21.5.32.84.32.95,0,1.75-.33,2.41-.99.65-.66.99-1.46,1-2.41v-2.01c0-.17.01-.3.04-.39.03-.09.12-.21.27-.36.15-.15.41-.26.79-.32.37-.06.66-.19.85-.38.19-.19.29-.45.29-.79Z"/>
        <path class="cls-2" d="M71.58,11.49c0,1.36-.47,2.52-1.41,3.46-.94.94-2.09,1.41-3.45,1.41-.88,0-1.68-.21-2.41-.64-.73.43-1.53.64-2.41.64-1.37,0-2.53-.47-3.46-1.4-.93-.94-1.4-2.09-1.4-3.47V2.29c0-.66.22-1.2.66-1.64.44-.43.99-.65,1.64-.65s1.2.22,1.64.65c.43.43.65.98.65,1.64v7.47c0,.16.07.25.23.28V2.29c0-.66.22-1.21.66-1.64.44-.43.99-.65,1.64-.65s1.2.22,1.64.65c.43.43.65.98.65,1.64v7.47c0,.19.09.28.28.28s.28-.09.28-.28V2.29c0-.66.22-1.21.65-1.64.43-.43.98-.65,1.64-.65s1.21.22,1.64.65c.44.43.66.98.66,1.64v9.2ZM70.46,9.76V2.29c0-.35-.11-.63-.33-.84-.22-.21-.5-.32-.85-.32s-.63.11-.84.32c-.21.21-.32.49-.32.84v7.47c0,.39-.14.73-.41,1-.27.27-.6.41-1,.41s-.72-.14-1-.41c-.27-.27-.41-.6-.41-1V2.29c0-.35-.11-.63-.32-.84-.21-.21-.49-.32-.84-.32s-.63.11-.85.32c-.22.21-.33.49-.33.84v8.38c-.28.34-.63.5-1.07.5-.39,0-.72-.14-1-.41-.27-.27-.41-.6-.41-1V2.29c0-.35-.11-.63-.32-.84-.21-.21-.49-.32-.84-.32s-.63.11-.85.32c-.22.21-.33.49-.33.84v7.47c0,1.07.35,1.97,1.06,2.68s1.6,1.07,2.67,1.07c.91,0,1.71-.29,2.41-.88.69.59,1.49.88,2.41.88,1.06,0,1.95-.36,2.67-1.07.72-.72,1.07-1.61,1.07-2.67Z"/>
        <path class="cls-2" d="M81.24,8.56c0,.73-.29,1.33-.88,1.8-.09.09-.25.26-.48.5.35.42.52.91.52,1.49,0,.3-.05.59-.16.87.1.28.16.57.16.87,0,.66-.22,1.21-.65,1.65-.43.44-.98.66-1.64.66h-1.54c-1.56,0-2.87-.53-3.94-1.6-1.07-1.07-1.6-2.39-1.6-3.96,0-.29.02-.58.07-.87-.05-.29-.07-.58-.07-.87,0-1.57.53-2.89,1.59-3.95,1.06-1.06,2.38-1.59,3.95-1.59,1.03,0,2.03.28,2.99.85,1.12.65,1.68,1.46,1.68,2.43,0,.31-.06.6-.17.87.12.28.17.57.17.87ZM80.12,6.83c0-.29-.12-.56-.35-.8-.88-.9-1.94-1.35-3.2-1.35s-2.31.42-3.15,1.27c-.84.84-1.26,1.9-1.26,3.16s.42,2.32,1.26,3.17c.84.85,1.89,1.27,3.15,1.27h1.54c.35,0,.63-.11.84-.33.21-.22.32-.5.32-.85s-.11-.63-.32-.84c-.21-.21-.49-.32-.84-.32h-1.54c-.58,0-1.07-.2-1.47-.61-.4-.41-.61-.9-.61-1.48s.2-1.07.61-1.47.89-.61,1.47-.61c.15,0,.3.01.45.03l-1.25,1.23c-.25.25-.38.53-.38.81,0,.32.12.61.35.85.24.24.52.36.84.36.29,0,.56-.12.81-.36l2.22-2.17c.33-.25.5-.57.5-.96Z"/>
        <path class="cls-2" d="M89.69,7.58c0,.62-.2,1.15-.61,1.58-.41.43-.93.67-1.55.71,0-.01-.01-.03-.03-.07-.02-.03-.03-.06-.03-.07-.01.29-.02.65-.02,1.09v.33c0,.87-.06,1.53-.19,1.99-.18.68-.56,1.31-1.13,1.89-.88.88-1.94,1.32-3.2,1.32-.66,0-1.2-.22-1.64-.65-.43-.43-.65-.98-.65-1.64,0-.3.05-.59.16-.87-.1-.28-.16-.57-.16-.87,0-.65.21-1.19.63-1.63.42-.44.95-.66,1.6-.68v-1.94c0-1.27.44-2.34,1.31-3.22.87-.87,1.94-1.31,3.21-1.31.66,0,1.21.22,1.64.65.44.43.66.98.66,1.64,0,.31-.05.6-.16.87.1.27.16.56.16.87ZM88.57,5.84c0-.35-.11-.63-.33-.84-.22-.21-.5-.32-.85-.32-.96,0-1.76.33-2.41.98-.65.65-.98,1.46-.98,2.42v2.01c0,.3-.1.55-.31.75-.2.2-.46.3-.76.3-.35,0-.63.11-.85.33-.22.22-.32.5-.32.85s.11.63.32.84c.21.21.5.32.84.32.95,0,1.75-.33,2.41-.99.65-.66.99-1.46,1-2.41v-2.01c0-.17.01-.3.04-.39.03-.09.12-.21.27-.36.15-.15.41-.26.79-.32.37-.06.66-.19.85-.38.19-.19.29-.45.29-.79Z"/>
        <path class="cls-2" d="M98.69,11.5c0,1.36-.47,2.51-1.4,3.45-.93.94-2.08,1.41-3.45,1.41s-2.53-.47-3.46-1.4c-.93-.93-1.4-2.09-1.4-3.46V3.81c0-.66.22-1.21.65-1.64.43-.44.98-.66,1.64-.66.61,0,1.13.2,1.57.59.43.39.68.89.74,1.51h2.84c.66,0,1.2.22,1.64.65.43.43.65.98.65,1.64,0,.32-.05.62-.14.9.09.27.14.54.14.83,0,.38-.06.73-.19,1.04.13.3.19.62.19.95v.16c0,.32-.03.63-.09.93.06.21.09.42.09.64v.16ZM97.57,9.76v-.16c0-.33-.11-.61-.33-.83-.22-.22-.5-.33-.83-.33s-.61.11-.84.33c-.23.22-.34.5-.34.83v.16c0,.39-.13.72-.4,1-.27.27-.59.41-.99.41s-.72-.14-1-.41c-.27-.27-.41-.6-.41-1v-2.7h3.96c.77,0,1.16-.39,1.16-1.18,0-.35-.11-.63-.32-.84-.21-.21-.49-.32-.84-.32h-3.96v-.92c0-.35-.11-.63-.33-.85-.22-.22-.5-.33-.85-.33s-.63.11-.84.33c-.21.22-.32.5-.32.85v5.96c0,1.07.35,1.96,1.06,2.67.71.71,1.6,1.06,2.67,1.06s1.95-.36,2.66-1.07c.71-.72,1.06-1.6,1.06-2.67ZM94.07,9.92h-.47c.06.08.14.12.24.12s.18-.04.23-.12Z"/>
        <path class="cls-2" d="M107.82,10.26c0,.66-.22,1.21-.65,1.64s-.98.65-1.64.65h-2.91v1.52c0,.66-.22,1.2-.66,1.64-.44.43-.99.65-1.64.65s-1.2-.22-1.64-.65c-.43-.43-.65-.98-.65-1.64V4.87c0-1.37.47-2.53,1.4-3.47s2.09-1.4,3.46-1.4,2.51.47,3.45,1.41c.93.94,1.4,2.09,1.4,3.46v.12c0,.23-.03.45-.09.66.06.31.09.63.09.95v.12c0,.29-.05.56-.14.81.14.3.21.63.21.99,0,.31-.05.6-.16.87.1.28.16.57.16.87ZM106.69,8.53c0-.35-.11-.63-.32-.85-.21-.22-.49-.33-.84-.33h-4.03v-2.48c0-.39.14-.72.41-1,.27-.27.6-.41,1-.41s.72.14.99.41c.27.27.4.6.4,1v.12c0,.33.11.61.34.84s.5.34.84.34.63-.11.84-.33c.21-.22.32-.5.32-.85v-.12c0-1.07-.35-1.96-1.06-2.68-.71-.72-1.6-1.08-2.66-1.08s-1.96.36-2.67,1.07c-.71.71-1.06,1.6-1.06,2.68v7.47c0,.35.11.63.32.84.21.21.49.32.84.32s.63-.11.85-.32c.22-.21.33-.49.33-.84v-2.65h4.03c.35,0,.63-.11.84-.32s.32-.49.32-.84Z"/>
        <path class="cls-2" d="M118.19,14.07c0,.66-.22,1.2-.67,1.64-.44.43-.99.65-1.64.65s-1.18-.21-1.61-.62c-.44.42-.99.62-1.64.62-1.57,0-2.89-.53-3.95-1.6-1.06-1.07-1.59-2.38-1.59-3.95,0-.29.02-.58.07-.86-.05-.29-.07-.58-.07-.86,0-1.57.53-2.88,1.59-3.94,1.06-1.06,2.38-1.59,3.95-1.59s2.89.53,3.96,1.6c1.07,1.07,1.6,2.38,1.6,3.94v4.98ZM117.06,12.34v-3.24c0-1.26-.42-2.31-1.27-3.16-.85-.84-1.9-1.27-3.16-1.27s-2.31.42-3.15,1.26c-.84.84-1.26,1.89-1.26,3.14s.42,2.31,1.26,3.15c.84.85,1.89,1.27,3.15,1.27.35,0,.63-.11.85-.33.22-.22.33-.5.33-.84s-.11-.62-.33-.83c-.22-.21-.5-.32-.85-.32-.58,0-1.07-.2-1.47-.61-.4-.41-.61-.9-.61-1.47s.2-1.06.61-1.46c.4-.4.89-.6,1.47-.6s1.07.2,1.48.61c.41.4.61.89.61,1.47v3.24c0,.35.11.63.32.84.21.21.49.32.84.32s.63-.11.85-.32c.22-.21.33-.49.33-.84ZM113.34,10.18c-.2-.2-.43-.29-.71-.29-.15,0-.29.03-.42.09.12.06.29.1.54.12.29.02.48.05.59.09Z"/>
        <path class="cls-2" d="M122.22,14.07c0,.66-.22,1.2-.67,1.64-.44.43-.99.65-1.64.65s-1.2-.22-1.64-.65c-.43-.43-.65-.98-.65-1.64V2.34c0-.66.22-1.2.65-1.64.43-.43.98-.65,1.64-.65.7,0,1.26.2,1.68.61.42.41.62.97.62,1.67v11.74ZM121.1,12.34V2.34c0-.77-.39-1.16-1.18-1.16-.35,0-.63.11-.84.32-.21.21-.32.49-.32.84v10.01c0,.35.11.63.32.84.21.21.49.32.84.32s.63-.11.85-.32c.22-.21.33-.49.33-.84Z"/>
        <path class="cls-2" d="M126.22,14.07c0,.66-.22,1.2-.67,1.64-.44.43-.99.65-1.64.65s-1.2-.22-1.64-.65c-.43-.43-.65-.98-.65-1.64V2.34c0-.66.22-1.2.65-1.64.43-.43.98-.65,1.64-.65.7,0,1.26.2,1.68.61.42.41.62.97.62,1.67v11.74ZM125.09,12.34V2.34c0-.77-.39-1.16-1.18-1.16-.35,0-.63.11-.84.32-.21.21-.32.49-.32.84v10.01c0,.35.11.63.32.84.21.21.49.32.84.32s.63-.11.85-.32c.22-.21.33-.49.33-.84Z"/>
      </g>
    </g>
  </g>
</svg>