<?xml version="1.0" encoding="UTF-8"?>
<svg id="Layer_2" data-name="Layer 2" xmlns="http://www.w3.org/2000/svg" viewBox="0 0 165.74 22">
  <defs>
    <style>
      .cls-1 {
        fill: #fff;
      }

      .cls-2 {
        fill: #00ff1c;
      }
    </style>
  </defs>
  <g id="Layer_1-2" data-name="Layer 1">
    <g>
      <g>
        <rect x=".61" y=".61" width="164.53" height="20.79"/>
        <path class="cls-2" d="M165.74,22H0V0h165.74v22ZM1.21,20.79h163.32V1.21H1.21v19.57Z"/>
      </g>
      <g>
        <path class="cls-1" d="M4.64,18.8c0,.1-.15.19-.23.19h-.54s-.79.04-.79.04l.2-3.11-.19-3.97v-.04s.04-.07.11-.07l.66.02c.07.01.04-.07.05-.12l-.04-.6h-.01s-.58-.02-.58-.02c-.14,0-.21.13-.21.13-.05-.1-.06-.22-.06-.38l.85-.05.58.02c.15,0,.21-.13.21-.13.04.08.06.17.06.31l2.92.22.6-.02c1.81-.12,2.01-.91,2.22-.41l.2.5c.14.34.2.44.35.71-.88.28-1.52.33-2.37.33-.13,0-.26,0-.4,0h-.6c-1.22-.01-1.99.02-3.03.11l-.24,3.47c0,1.15.26,2.59.26,2.88ZM4.64,9.91c0,.1-.15.19-.23.19h-.54s-.79.04-.79.04l.2-3.11-.19-3.97v-.04s.04-.07.11-.07l.66.02h.07s0-.14,0-.14l2.85.2,1.78-.03c.12,0,.24,0,.37,0,.67,0,1.56.11,1.9.24.03.01.06.07.03.14l-.27.61-.26.74-1.78-.51-1.78-.09c-.93,0-1.48.12-2.23.22l-.19,2.7c0,1.15.26,2.59.26,2.88ZM11.48,3.51c.11,0,.23.06.37.15-.14.27-.23.43-.44.73l-.34.47c-.08.12-.04.22-.05.22-.05,0-.09,0-.24-.09l.4-.75.32-.49c.08-.12-.01-.25-.01-.25ZM12.02,11.45c-.05.1-.15.18-.29.27-.19-.24-.29-.39-.48-.7l-.28-.51c-.07-.12-.19-.13-.19-.13.04-.08.09-.13.19-.19l.51.68.31.49c.08.12.23.09.23.09ZM12.54,11s-.08.02-.13-.03l-.45-.49-.57-.54c.87-.52,1-1.31,1.13-2.11l-.02-.58c-.25-1.77-1.42-1.63-.99-2.08l.38-.38c.26-.27.33-.35.51-.6.79.96.97,1.59,1.18,2.93l.04.7c-.04,2.07-.97,3.06-1.08,3.18Z"/>
        <path class="cls-1" d="M25.69,12.08l.62-.24c.34-.15.43-.21.7-.37,0,0,.84,2.62,1.55,4.24.57,1.3,1.32,2.35,1.51,2.78.04.1-.05.25-.13.28l-.49.21c-.34.15-.43.21-.7.37l-1.19-3.2-1.22-2.49-3.29-.17-4.47.17-.73,1.48-1.51,4.06c-.02.06-.05.11-.15.07l-.6-.28c-.34-.14-.45-.17-.75-.25,0,0,1.32-2.4,2-4.02.92-2.19.74-3.31,1.27-3.09l.49.22c.34.14.45.17.75.25l-.04.09,3.74.22c1.07,0,1.76-.1,2.57-.18-.02-.04.01-.1.07-.13ZM19.81,10.98c0,.11-.03.24-.1.4-.3-.08-.46-.14-.81-.28l-.53-.25c-.13-.06-.25.05-.25.05,0-.12.03-.23.1-.4.3.08.46.14.81.28l.53.25c.13.06.25-.05.25-.05ZM23.1,2.55l1.55,4.24c.57,1.3,1.32,2.35,1.51,2.78.04.1-.05.25-.13.28l-.49.21c-.34.15-.43.21-.7.37l-1.19-3.2-1.27-2.59-.77,1.57-1.51,4.06c-.02.06-.05.11-.15.07l-.6-.28c-.34-.14-.45-.17-.75-.25l2-4.02c.92-2.19.74-3.31,1.27-3.09l.51.23c.3-.12.58-.29.72-.37ZM25.31,11.54c-.09-.08-.15-.19-.22-.35.27-.16.42-.24.76-.39l.54-.21c.13-.06.13-.22.13-.22.09.08.15.18.22.35-.27.16-.42.24-.76.39l-.54.21c-.13.06-.13.22-.13.22Z"/>
        <path class="cls-1" d="M33.78,10.68c.05.1.06.22.06.38l-.85.05-.58-.02c-.15,0-.21.13-.21.13-.05-.09-.06-.2-.06-.38l.85-.05.58.02c.14,0,.21-.13.21-.13ZM32.22,3.1c0-.1.15-.19.23-.19h.53s.61-.03.61-.03c.21-.15.3-.23.5-.41l1.94,3.22,2.83,3.87c.05.06.07.12-.02.18l-.56.35c-.31.21-.39.29-.62.49l-2.54-4.27c-.55-.81-.98-1.31-1.45-1.87l-.1,1.56.18,3.98v.04s-.04.07-.11.07l-.66-.02-.79.05s.28-2.51.28-4.13c0-1.16-.27-2.6-.27-2.89ZM32.22,12.01c0-.1.15-.19.23-.19h.53s.79-.04.79-.04l-.2,3.12.18,3.98v.04s-.04.07-.11.07l-.66-.02-.79.05s.28-2.51.28-4.13c0-1.16-.27-2.6-.27-2.89ZM39.36,10.26c.11.07.2.18.31.34-.23.21-.36.32-.67.53l-.5.3c-.12.08-.08.25-.08.25-.11-.07-.19-.17-.31-.34.23-.21.36-.32.67-.53l.5-.3c.12-.08.08-.25.08-.25ZM43.66,11.81l.66.02.79-.05-.28,4.13c0,2.16.56,3.08.03,3.08h-.54s-.04,0-.04,0c-.3.21-.38.28-.61.49,0,0-1.45-2.66-2.54-4.28-.97-1.43-2.19-2.63-2.19-2.84,0-.09.05-.18.09-.21l.45-.29c.31-.21.39-.29.62-.49l1.94,3.22,1.64,2.24.06-.92-.19-3.98v-.04s.04-.07.11-.07ZM43.54,11.22c-.05-.1-.06-.22-.06-.38l.85-.05.58.02c.15,0,.21-.13.21-.13.05.1.06.2.06.38l-.85.05-.58-.02c-.14,0-.21.13-.21.13ZM43.66,2.9l.66.02.79-.05-.28,4.13c0,2.16.56,3.08.03,3.08h-.54s-.79.04-.79.04l.2-3.12-.19-3.98v-.04s.04-.07.11-.07Z"/>
        <path class="cls-1" d="M48.37,11.22c-.05-.1-.06-.22-.06-.38l.85-.05.58.02c.15,0,.21-.13.21-.13.05.1.06.2.06.38l-.85.05-.58-.02c-.14,0-.21.13-.21.13ZM49.92,9.89c0,.1-.15.19-.23.19h-.53s-.79.04-.79.04l.2-3.12-.18-3.98v-.04s.04-.07.11-.07l.66.02h0s0-.14,0-.14l3.02.26,1.23.07c.65.05,2.65.13,3.26.33.1.03.14.2.11.28l-.18.5-.21.76c-1.01-.42-1.62-.67-3.05-.78l-1.15-.03-2.33.14-.19,2.69c0,1.16.27,2.6.27,2.89ZM49.46,19.01s-.05-.01-.07-.03h-.23s-.79.05-.79.05l.2-3.12-.18-3.98v-.04s.04-.07.11-.07l.66.02.79-.05-.28,4.13c0,.64.05,1.11.11,1.58l2.47.16h.05c3.31,0,3.57-.9,3.68-.51l.16.64c.1.36.15.46.26.74l-4.15.21c-1.11,0-2.49.27-2.77.27ZM56.41,16.88c.06-.07.15-.12.28-.17l.35.78.19.55c.05.14.2.14.2.14-.07.08-.17.13-.33.19-.14-.28-.21-.43-.34-.78l-.18-.55c-.05-.13-.18-.16-.18-.16ZM57.25,5.35c-.09,0-.19-.02-.31-.08l.3-.8.25-.52c.06-.13-.04-.24-.04-.24.01,0,.02,0,.03,0,.1,0,.2.03.35.1-.1.29-.16.46-.32.79l-.27.52c-.06.13,0,.23,0,.23ZM60.58,11.83l.66.08c.19.02.31.02.42.02s.22,0,.37-.01c.08.08-.72,2.91-1.85,3.97-.3.35-1.37,1.59-2.04,1.93-.09.05-.23-.05-.27-.13l-.23-.48-.38-.69c.91-.37,1.4-.57,2.09-1.34.78-1,1.06-1.74,1.11-3.26v-.04s.05-.07.12-.07ZM57.73,5.46l.35-.56c.19-.32.23-.42.36-.7.06-.04,1.88,1.56,2.47,2.94,1.21,2.42,1.19,2.81.85,2.84l-.53.05-.78.13c-.04-1.07-.07-1.61-.51-2.5-1.14-2.02-2.39-1.87-2.21-2.18ZM60.49,11.19c-.05-.12-.06-.21-.06-.37l.85-.07h.58c.15,0,.2-.14.2-.14.05.1.07.22.07.42l-.85.04-.58-.02c-.14,0-.21.14-.21.14Z"/>
        <path class="cls-1" d="M74.26,12.08l.62-.24c.34-.15.43-.21.7-.37,0,0,.84,2.62,1.55,4.24.57,1.3,1.32,2.35,1.51,2.78.04.1-.05.25-.13.28l-.49.21c-.34.15-.43.21-.7.37l-1.19-3.2-1.22-2.49-3.29-.17-4.47.17-.73,1.48-1.51,4.06c-.02.06-.05.11-.15.07l-.6-.28c-.34-.14-.45-.17-.75-.25,0,0,1.32-2.4,2-4.02.92-2.19.74-3.31,1.27-3.09l.49.22c.34.14.45.17.75.25l-.04.09,3.74.22c1.07,0,1.76-.1,2.57-.18-.02-.04.01-.1.07-.13ZM68.39,10.98c0,.11-.03.24-.1.4-.3-.08-.46-.14-.81-.28l-.53-.25c-.13-.06-.25.05-.25.05,0-.12.03-.23.1-.4.3.08.46.14.81.28l.53.25c.13.06.25-.05.25-.05ZM71.68,2.55l1.55,4.24c.57,1.3,1.32,2.35,1.51,2.78.04.1-.05.25-.13.28l-.49.21c-.34.15-.43.21-.7.37l-1.19-3.2-1.27-2.59-.77,1.57-1.51,4.06c-.02.06-.05.11-.15.07l-.6-.28c-.34-.14-.45-.17-.75-.25l2-4.02c.92-2.19.74-3.31,1.27-3.09l.51.23c.3-.12.58-.29.72-.37ZM73.89,11.54c-.09-.08-.15-.19-.22-.35.27-.16.42-.24.76-.39l.54-.21c.13-.06.13-.22.13-.22.09.08.15.18.22.35-.27.16-.42.24-.76.39l-.54.21c-.13.06-.13.22-.13.22Z"/>
        <path class="cls-1" d="M85.55,3.08l.64-.16c.36-.1.46-.15.74-.27,0,0,.45,2.59.92,4.21.62,2.16,1.45,2.92.92,3.07l-.52.14c-.36.1-.46.15-.74.27l-.71-3.18-1.33-3.93c-.02-.06-.02-.12.07-.14ZM87.84,11.44c-.08-.08-.12-.2-.17-.36.28-.12.45-.18.8-.29l.57-.14c.14-.04.16-.19.16-.19.08.08.12.19.17.36-.28.12-.45.18-.8.29l-.57.14c-.14.04-.16.19-.16.19ZM90.1,19.25l-.71-3.18-1.33-3.93c-.02-.06-.02-.12.07-.14l.64-.16c.36-.1.46-.15.74-.27l.92,4.21c.19.65.37,1.12.57,1.57,1.47-4.02,1.13-4.57,1.39-5.54.03-.1.19-.15.28-.13l.51.15c.36.1.47.11.77.16l-1.05,3.07-.92,4.03c-.01.07-.06.11-.14.08l-.63-.2c-.07-.02-.14-.04-.19-.05-.47.13-.57.17-.93.32ZM94.27,10.89c.02.11,0,.24-.04.39l-.84-.18-.56-.18c-.14-.04-.24.08-.24.08-.02-.11,0-.22.04-.39l.84.18.56.18c.14.04.24-.08.24-.08ZM96.42,2.66l.88,4.2c.6,2.16,1.42,2.92.89,3.07l-.52.14c-.36.1-.46.15-.74.26l-.68-3.17-.59-1.82-.28.81-.92,4.03c-.01.07-.06.11-.14.08l-.63-.2c-.36-.1-.47-.11-.77-.16l1.41-4.05c.6-2.19.29-3.23.82-3.09l.51.15h.01c.31-.07.61-.2.76-.26ZM97.22,11.43c-.07-.08-.12-.2-.17-.36.29-.12.45-.18.81-.28l.57-.13c.14-.04.16-.19.16-.19.07.08.12.19.16.36-.29.12-.45.18-.81.28l-.57.13c-.14.04-.16.19-.16.19ZM99.4,19.24l-.68-3.17-1.29-3.93c-.02-.06-.02-.12.08-.14l.65-.16c.36-.1.46-.15.74-.26l.88,4.2c.17.61.34,1.06.52,1.49l.53-1.52.95-4.03c.01-.07.06-.11.14-.08l.63.2c.36.1.47.11.77.16,0,0-.98,2.43-1.44,4.05-.62,2.19-.32,3.24-.84,3.09l-.51-.15c-.07-.02-.13-.04-.19-.05-.48.12-.57.16-.94.31ZM101.97,11.01c-.02-.11,0-.24.05-.39l.83.18.55.18c.14.04.24-.08.24-.08.02.11,0,.22-.05.39l-.83-.18-.55-.18c-.14-.04-.24.08-.24.08ZM104.45,2.72l.63.2c.36.1.47.11.77.16,0,0-.98,2.43-1.44,4.05-.62,2.19-.32,3.24-.84,3.09l-.51-.15c-.36-.1-.47-.11-.77-.16l1.07-3.07.95-4.03c.01-.07.06-.11.14-.08Z"/>
        <path class="cls-1" d="M117.45,12.08l.62-.24c.34-.15.43-.21.7-.37,0,0,.84,2.62,1.55,4.24.57,1.3,1.32,2.35,1.51,2.78.04.1-.05.25-.13.28l-.49.21c-.34.15-.43.21-.7.37l-1.19-3.2-1.22-2.49-3.29-.17-4.47.17-.73,1.48-1.51,4.06c-.02.06-.05.11-.15.07l-.6-.28c-.34-.14-.45-.17-.75-.25,0,0,1.32-2.4,2-4.02.92-2.19.74-3.31,1.27-3.09l.49.22c.34.14.45.17.75.25l-.04.09,3.74.22c1.07,0,1.76-.1,2.57-.18-.02-.04.01-.1.07-.13ZM111.57,10.98c0,.11-.03.24-.1.4-.3-.08-.46-.14-.81-.28l-.53-.25c-.13-.06-.25.05-.25.05,0-.12.03-.23.1-.4.3.08.46.14.81.28l.53.25c.13.06.25-.05.25-.05ZM114.86,2.55l1.55,4.24c.57,1.3,1.32,2.35,1.51,2.78.04.1-.05.25-.13.28l-.49.21c-.34.15-.43.21-.7.37l-1.19-3.2-1.27-2.59-.77,1.57-1.51,4.06c-.02.06-.05.11-.15.07l-.6-.28c-.34-.14-.45-.17-.75-.25l2-4.02c.92-2.19.74-3.31,1.27-3.09l.51.23c.3-.12.58-.29.72-.37ZM117.07,11.54c-.09-.08-.15-.19-.22-.35.27-.16.42-.24.76-.39l.54-.21c.13-.06.13-.22.13-.22.09.08.15.18.22.35-.27.16-.42.24-.76.39l-.54.21c-.13.06-.13.22-.13.22Z"/>
        <path class="cls-1" d="M126.16,2.95s.04-.07.12-.07l.66.02.79-.05-.02.26c2.33-.02,3.59-.55,3.59-.03v.54c-.01.37.01.48.05.79l-3.72-.19-.19,2.77c0,1.16.27,2.61.27,2.89,0,.1-.15.19-.23.19h-.54s-.79.04-.79.04l.2-3.13-.13-2.73-3.54.13h-.05s-.09-.04-.09-.11l.03-.66c0-.37-.02-.48-.06-.79,0,0,1.89.18,3.66.25v-.12ZM126.15,11.21c-.05-.1-.06-.22-.06-.38l.85-.05.58.02c.14,0,.21-.13.21-.13.05.1.06.2.06.38l-.85.05-.58-.02c-.14,0-.21.13-.21.13ZM127.71,18.8c0,.1-.15.19-.23.19h-.54s-.79.04-.79.04l.2-3.13-.19-3.99v-.04s.04-.07.11-.07l.66.02.79-.05-.28,4.13c0,1.16.27,2.61.27,2.89Z"/>
        <path class="cls-1" d="M132.79,10.55c0-1.58.44-2.97.46-3.03.01-.03.07-.05.13-.02l.6.28.74.28c-.81,1.02-.82,2.07-.82,3.37.2,1.89,1.25,2.28.72,2.54l-.49.23c-.33.16-.43.22-.69.39-.56-1.5-.67-3-.67-4.03ZM133.53,6.93c0-.11.05-.22.13-.35.28.13.44.2.76.39l.49.32c.12.07.23.02.23.02,0,.09-.03.17-.1.28l-.77-.37-.5-.3c-.13-.07-.24.01-.24.01ZM134.01,15.53c-.09-.05-.17-.15-.25-.28.24-.19.39-.29.71-.48l.51-.28c.12-.07.12-.2.12-.2.04,0,.14.12.21.23l-.69.49-.5.3c-.12.08-.1.22-.1.22ZM140.27,2.63s.08.04.09.11l.03.66.11.78c-.15-.02-.3-.02-.45-.02-1.15,0-2.08.45-3.04.86-1.04.68-1.32,1.46-1.55,1.76-.05.06-.21.03-.28-.02l-.43-.32c-.3-.22-.4-.27-.66-.42,2.46-2.78,5.99-3.36,6.16-3.38ZM134.45,15.93l.54-.39.6-.51c.54,1.14,1.49,1.74,2.45,2.32.91.4,1.5.38,2.38.38h.1c.09,0,.16.16.15.24l-.04.53c-.01.16-.01.27-.01.37,0,.13,0,.25.02.42-1.29-.2-1.9-.46-3.05-.96-1.4-.69-2.09-1.21-3.15-2.25-.04-.04-.06-.1.02-.16ZM141,2.58c.1-.05.19-.06.34-.06.02,0,.04,0,.06,0,.02.23.03.38.03.59,0,.08,0,.16,0,.26l-.04.58c0,.14.11.21.11.21-.08.05-.21.05-.33.05l-.05-.85.02-.58c0-.14-.15-.21-.15-.21ZM141.84,19.29c-.1.06-.24.08-.42.09-.05-.3-.07-.48-.08-.85v-.58c0-.14-.12-.21-.12-.21.09-.05.18-.06.33-.07l.1.85.02.58c0,.14.16.2.16.2ZM147.94,6.65l-.56.35c-.31.21-.39.28-.63.48-1.51-3.47-4.28-3.22-4.54-3.26-.08-.01-.14-.17-.13-.25l.08-.53c.05-.37.05-.48.05-.79,2.95.66,4.76,2.7,5.76,3.84.04.04.05.1-.03.16ZM142.46,19.08l-.09-.66-.18-.77c1.09-.04,2.18-.61,3.27-1.25.92-.81,1.1-1.61,1.28-1.93.02-.03.06-.04.12-.04.06,0,.12.01.16.04l.46.27c.32.18.43.22.71.34-.64.93-1.1,1.34-2.02,2.16-1.21.97-2,1.43-3.56,1.93-.07.02-.12,0-.14-.09Z"/>
        <path class="cls-1" d="M152.61,9.89s0,.04-.02.06l4.9.24c1.5,0,2.35-.14,3.59-.24l.19-2.95-.19-3.98v-.04s.04-.07.11-.07l.66.02.79-.05-.28,4.13c0,2.16.56,3.08.03,3.08h-.54s-.13,0-.13,0c.02.03.02.06.02.08v.53s-.01.08-.01.11h.11s.58.02.58.02c.14,0,.21-.13.21-.13.05.1.06.2.06.38l-.85.05h-.1c.01.11.03.21.05.36l-4.33-.2-5.52.19h-.05s-.1-.04-.1-.11v-.24s-.56-.02-.56-.02c-.14,0-.21.13-.21.13-.05-.1-.06-.22-.06-.38l.85-.05v-.11c0-.3-.01-.43-.04-.62l-.75.05.2-3.12-.19-3.98v-.04s.04-.07.11-.07l.66.02.79-.05-.28,4.13c0,1.16.27,2.6.27,2.89ZM152.61,18.8c0,.1-.15.19-.23.19h-.53s-.79.04-.79.04l.2-3.12-.19-3.98v-.04s.04-.07.11-.07l.66.02.79-.05-.28,4.13c0,1.16.27,2.6.27,2.89ZM161.2,11.81l.66.02.79-.05-.28,4.13c0,2.16.56,3.08.03,3.08h-.54s-.79.04-.79.04l.2-3.12-.19-3.98v-.04s.04-.07.11-.07Z"/>
      </g>
    </g>
  </g>
</svg>