<?xml version="1.0" encoding="UTF-8"?>
<svg id="Layer_2" data-name="Layer 2" xmlns="http://www.w3.org/2000/svg" viewBox="0 0 111.51 22">
  <defs>
    <style>
      .cls-1, .cls-2 {
        fill: #785630;
      }

      .cls-2 {
        font-family: turds, turds;
        font-size: 17.22px;
      }

      .cls-2, .cls-3 {
        isolation: isolate;
      }

      .cls-4 {
        fill: #593001;
      }
    </style>
  </defs>
  <g id="Layer_1-2" data-name="Layer 1">
    <g>
      <g id="text819" class="cls-3">
        <text class="cls-2" transform="translate(2.06 16.49)"><tspan x="0" y="0">Poop Mouth</tspan></text>
      </g>
      <path id="text827" class="cls-4" d="M89.07,0c-.09,0-.25,0-.42.03-.13.02-.34.07-.55.16-.33.1-.66.25-.99.43-.5-.34-1.09-.57-1.76-.57-.24,0-.4.03-.51.04,0,0,0,0,0,0-.18.02-.36.06-.53.13-.58.22-1.18.57-1.66,1.13-.2.24-.34.5-.46.77-.21-.42-.48-.84-.89-1.19-.61-.51-1.35-.75-2.1-.75-.52,0-.97.13-1.34.28-.16.06-.31.14-.45.24,0,0,0,0,0,0-.13.09-.22.15-.24.16-.56.22-1.15.55-1.6,1.11-.05.06-.07.13-.12.2-.42-.31-.91-.52-1.48-.6-.61-.82-1.54-1.51-2.74-1.51-.39,0-.73.08-1.03.19-.19.03-.39.05-.64.12-.19.05-.45.17-.72.34-.36.19-.63.44-.83.69-.49.26-.9.58-1.2.94,0,0,0,0,0,0,0,0,0,0,0,0-.04.02-.04.03-.11.06,0,0,0,0,0,0,0,0,0,0,0,0-.17.02-.35.05-.51.12-.32.12-.64.3-.95.52-.22-.51-.53-1.03-1.04-1.45-.61-.49-1.33-.72-2.06-.72-.34,0-.65.07-.93.16-.48.05-.97.16-1.44.41-.21.11-.4.25-.56.42h0c-.08.09-.12.12-.17.17-.3.15-.58.35-.86.61-.08-.04-.16-.06-.25-.09-.52-.41-1.19-.82-2.07-.82-1.28,0-2.34.72-2.97,1.69,0,0,0,0,0,0-.02.03-.03.07-.04.1-.86.6-1.53,1.53-1.53,2.72,0,.46.11.85.2,1.14h0c.04.13.11.25.17.37-.05.19-.09.38-.11.6h0c0,.06,0,.11,0,.17,0,.21.03.32.06.46-.05.24-.11.51-.11.87,0,.24.04.46.08.67-.06.23-.11.49-.11.77,0,.1.02.11.03.2-.26.43-.48.94-.48,1.57,0,.31.05.58.12.83-.06.2-.1.41-.12.64h0c0,.06,0,.11,0,.17,0,.58.18,1.05.39,1.46,0,0,0,.01,0,.02-.03.13-.07.23-.07.49v.15c0,.33.05.63.12.89h0c.02.08.05.16.07.23.49,1.27,1.65,2.33,3.19,2.33.78,0,1.47-.27,2.04-.67h0c.12-.08.22-.18.32-.28,0,0,0,0,0,0,.15-.16.27-.28.33-.34,0,0,0,0,0,0,.92-.59,1.65-1.56,1.65-2.8,0-.29-.05-.57-.12-.83.09.02.19.02.29.03.06.19.13.37.22.56-.05.2-.09.43-.09.67,0,.66.23,1.18.49,1.63.04.33.11.63.19.85,0,0,0,0,0,0,.04.1.08.2.13.29.55,1.01,1.58,1.95,2.99,1.95h0s.07,0,.1,0h0c.38-.02.74-.03,1.15-.14.11-.03.21-.06.32-.11.59-.25,1.15-.65,1.56-1.18.41.31.91.55,1.48.66.09.09.15.2.25.29.61.51,1.35.75,2.1.75.46,0,.86-.11,1.14-.2h0c.24-.07.46-.19.66-.33h0c.14-.11.24-.14.2-.13.1-.03.2-.07.29-.12,0,0,0,0,0,0,.62-.31,1-.78,1.29-1.26.1-.02.24-.02.32-.04.06-.02.12-.03.19-.05,0,0,0,0,0,0,.61-.21,1.12-.58,1.52-1.04.54.93,1.48,1.75,2.75,1.82.42.37.95.65,1.54.77.56.46,1.27.82,2.12.82.45,0,.83-.1,1.09-.18,0,0,0,0,0,0,.19-.05.35-.16.52-.26.99-.01,1.81-.46,2.45-1.04,0,0,0,0,0,0,.26-.2.48-.38.67-.55.08-.08.2-.18.32-.32h0c.17-.19.17-.2.04-.05l-.17.16c.59-.48.78-1.25.8-1.33.07-.25.09-.47.12-.69,0,0,.01-.02.02-.03.33-.43.61-.97.72-1.6.06-.06.12-.11.18-.17.03.33.1.63.2.88-.02.13-.05.23-.05.37h0c-.06.21-.11.45-.12.73,0,0,0,0,0,0,0,.02,0,.05,0,.07h0c0,.93.4,1.74.99,2.36.61.96,1.62,1.78,2.95,1.78.74,0,1.43-.24,2-.65h0c.1-.07.19-.15.27-.23.66-.66,1.33-1.6,1.33-2.8,0-.45-.11-.83-.25-1.17.2-.27.35-.57.46-.9-.07.24-.12.49-.12.77,0,.77.29,1.45.71,1.99,0,.03,0,.08,0,.1.02.18.07.36.13.53,0,0,0,0,0,0,.51,1.28,1.68,2.36,3.23,2.36,1.23,0,2.25-.69,2.86-1.64.25-.27.51-.6.71-.99.08.11.17.21.26.3.62.86,1.6,1.63,2.88,1.63s2.22-.68,2.84-1.59c.63-.59,1.2-1.44,1.2-2.52,0-.45-.11-.83-.24-1.19,0-.02.02-.03.02-.04.17-.64.28-1,.33-1.46.01-.08.02-.17.02-.25h0c0-.43-.11-.8-.25-1.13.05-.2.07-.42.07-.65,0-.41-.09-.73-.13-.93,0,0,0,0,0,0-.01-.04-.03-.08-.04-.12,0,0,0,0,0-.01,0-.01-.02-.11-.03-.18.02-.13.04-.29.08-.52h0c.02-.11.03-.23.03-.34h0c0-.47-.11-.85-.21-1.16,0-.09,0-.19,0-.28h0c-.03-.19-.06-.33-.09-.48,0-.02,0-.03,0-.06h0c0-.06,0-.12,0-.18,0-.12,0-.1-.02-.2.14-.35.25-.73.25-1.18,0-.01,0,0,0-.01.11-.28.21-.58.24-.95,0-.06,0-.12,0-.18h0c0-.57-.16-1.05-.31-1.4h0c-.08-.19-.21-.35-.33-.51,0-.03,0-.05,0-.08,0-.93-.37-1.83-1.1-2.49-.67-.59-1.47-.85-2.2-.97-.12-.02-.23-.03-.35-.03h0c-.24,0-.4.03-.51.04,0,0,0,0,0,0-.17.02-.33.06-.49.11-.57.2-1.18.53-1.66,1.09-.35.4-.56.86-.68,1.35-.59-1.01-1.61-1.77-2.89-1.77-.6,0-1.14.17-1.63.43-.31-.19-.63-.32-.93-.39-.48-.31-1.06-.6-1.8-.6-.23,0-.39.03-.51.06-.09-.02-.24-.06-.47-.06-.26,0-.44.04-.57.07-.08,0-.16-.02-.24-.02h0c-.13,0-.11.01-.2.02-.05-.01-.09-.03-.15-.05-.35-.08-.7-.12-1.09-.15-.06,0-.12,0-.17,0h0c-.29,0-.47.04-.6.08-.03,0-.05,0-.08,0h0c-.14,0-.23.03-.36.05-.31-.12-.67-.23-1.1-.23-.24,0-.46.03-.66.08-.36-.16-.77-.3-1.26-.3h0ZM20.14.05c-.39,0-.73.08-1.03.19-.19.03-.39.05-.64.12-.19.05-.45.17-.72.34-.36.19-.63.44-.83.69-.49.26-.9.58-1.2.94,0,0,0,0,0,0,0,0,0,0,0,0-.04.02-.04.03-.11.06,0,0,0,0,0,0,0,0,0,0,0,0-.17.02-.35.05-.51.12-.48.18-.97.49-1.4.92-.31-.31-.69-.55-1.1-.74-.18-.24-.4-.47-.65-.67-.47-.49-1.08-.92-1.83-1.1-.42-.24-.96-.48-1.63-.48h0s-.04,0-.06,0c-.26,0-.62.05-.98.18l.33-.07c-.15.01-.3.07-.45.09-.34-.15-.73-.28-1.19-.28-.56,0-1.01.17-1.4.37-.41.02-.76.1-1.02.18-.17.05-.32.12-.47.21h0c-.59.35-1.19.89-1.53,1.67-.45.52-.78,1.19-.85,1.97-.13.32-.24.66-.27,1.07,0,.03,0,.07,0,.1-.11.3-.21.65-.21,1.07,0,.08.01.04.02.11-.18.37-.34.8-.34,1.33,0,.48.13.91.32,1.31-.15.36-.26.75-.26,1.18,0,.05,0,.1,0,.15-.04.16-.08.37-.08.61,0,.84.33,1.55.76,2.14-.09.28-.16.59-.16.93v.18c0,.25.04.49.13.72,0,0,0,0,0,0,.08.21.12.34.17.48,0,.06-.02.12-.02.19h0s0,0,0,0c0,.31.06.59.13.85-.1.29-.18.61-.18.97,0,.24.03.4.04.51,0,0,0,0,0,0,.02.17.06.34.12.5.21.58.56,1.19,1.13,1.67.61.51,1.35.75,2.1.75.34,0,.63-.06.85-.11h0c.07-.02.15-.04.22-.07,0,0,0,0,0,0,.99-.36,1.73-1.13,2.11-2.09.55-.56,1-1.32,1.03-2.26.06-.02.15-.04.17-.05.03-.01.05-.01-.01,0l-.16.03s0,0,0,0c.56-.05,1.18-.18,1.75-.53.05,0,.1,0,.15,0,.85,0,1.57-.34,2.15-.84,0,.07-.02.14-.02.21,0,1.09.56,1.99,1.29,2.61.09.13.17.28.25.37.17.19.36.31.54.45,0,0,0,0,.01.01.51.52,1.23,1.06,2.14,1.23.09.09.15.2.25.29.61.51,1.35.75,2.1.75.46,0,.86-.11,1.14-.2h0c.24-.07.46-.19.66-.33h0c.14-.11.24-.14.2-.13.1-.03.2-.07.29-.12h0c.62-.31,1-.78,1.29-1.26.1-.02.24-.02.32-.04.06-.02.12-.03.19-.05,0,0,0,0,0,0,.67-.23,1.21-.66,1.62-1.2.08.08.17.16.26.24.09.13.17.28.25.37.17.19.36.31.54.45,0,0,0,0,.01.01.51.52,1.23,1.06,2.14,1.23.09.09.15.2.25.29.61.51,1.35.75,2.1.75.46,0,.86-.11,1.14-.2h0c.24-.07.46-.19.66-.33h0c.14-.11.24-.14.2-.13.1-.03.2-.07.29-.12h0c.62-.31,1-.78,1.29-1.26.1-.02.24-.02.32-.04.06-.02.12-.03.19-.05,0,0,0,0,0,0,.45-.16.83-.42,1.17-.73.02.15.05.3.1.44.21.58.56,1.19,1.13,1.67.61.51,1.35.75,2.1.75.34,0,.63-.06.85-.11h0c.07-.02.15-.04.22-.07,0,0,0,0,0,0,.99-.36,1.73-1.13,2.11-2.09.55-.56,1-1.32,1.03-2.26.06-.02.15-.04.17-.05.03-.01.05-.01-.01,0l-.16.03s0,0,0,0c.56-.05,1.18-.18,1.75-.53.05,0,.1,0,.15,0,1.48,0,2.63-.97,3.17-2.18,0,0,0,0,0,0,.03-.06.03-.13.05-.19.02,0,.03,0,.05-.01h0c.07-.03.13-.06.2-.09.74-.4,1.42-1.06,1.72-1.99.27-.42.54-.97.54-1.67v-.35c0-.21-.02-.34-.05-.44.02-.13.05-.15.05-.29,0-.57-.18-1.04-.39-1.45-.03-.75-.31-1.42-.73-1.96-.08-.39-.2-.76-.33-1.06-.38-.95-1.1-1.72-2.03-2.14-.18-.24-.4-.47-.66-.67-.47-.49-1.07-.92-1.83-1.1-.42-.24-.96-.48-1.63-.48h0s-.04,0-.06,0c-.26,0-.62.05-.98.18l.33-.07c-.15.01-.3.07-.45.09-.34-.15-.73-.28-1.19-.28-.56,0-1.01.17-1.4.37-.41.02-.76.1-1.02.18-.17.05-.32.12-.47.21,0,0,0,0,0,0-.59.35-1.19.89-1.53,1.67,0,0-.02.02-.02.03-.52-.64-1.26-1.17-2.19-1.3-.61-.82-1.54-1.51-2.74-1.51-.39,0-.73.08-1.03.19-.19.03-.39.05-.64.12-.18.05-.45.17-.72.34-.36.19-.63.44-.83.69-.49.26-.9.58-1.2.94,0,0,0,0,0,0,0,0,0,0,0,0-.04.02-.04.03-.11.06,0,0,0,0,0,0,0,0,0,0,0,0-.17.02-.35.05-.51.12-.35.13-.71.35-1.04.6,0,0-.02-.01-.02-.02-.53-.75-1.34-1.41-2.39-1.56-.61-.82-1.54-1.51-2.74-1.51h0ZM46.59,2.05s.1.08.14.12l-.2-.18s.03.04.06.06ZM11.92,2.05s.1.07.14.12l-.19-.18s.03.04.06.06ZM16,2.18s-.01,0-.01,0c0,0,0,0,0,0,0,0,0,0,0,0h0ZM27.27,2.18s-.01,0-.01,0c0,0,0,0,0,0,0,0,0,0,0,0h0ZM.81,5.11c0,.07.01.16.02.17,0,.02-.01-.08-.02-.17h0ZM35.49,5.17h0s0,.1,0,.11c0,.01,0-.06-.01-.11h0ZM89,10.54s.11.07.12.07c0,.01,0,.02,0,.04-.04-.04-.11-.11-.11-.11h0ZM26.09,14.68s.02.12.03.21h0c-.01-.09-.03-.21-.03-.21h0ZM96.79,15.85s0,.02.01.03c0,.02-.02.03-.02.04,0-.02,0-.05,0-.08ZM6.79,17.08s.01,0,.02,0h-.01c.08.01-.02,0,0,0h0ZM41.47,17.08s.01,0,.02,0h-.01c.08.01-.02,0,0,0h0ZM89.08,17.43s0,.03.01.04c0,0,0-.01,0-.01,0-.02,0-.01,0-.03h0ZM59.84,17.61s-.03.19-.03.27h0c0-.06.04-.31.03-.27h0Z"/>
      <g id="text823" class="cls-3">
        <g class="cls-3">
          <path class="cls-1" d="M6.11,2.54c.29,0,.6.14.93.43h.05c.26-.18.58-.28.96-.28.07-.04.21-.07.4-.08.23,0,.52.12.88.35.43,0,.84.24,1.21.71.26.16.47.44.63.83.65,0,1.13.39,1.44,1.16.18.43.28.73.28.91-.02.12-.03.21-.03.28.44.31.66.69.66,1.14-.03.2-.05.32-.05.35.29.32.43.65.43.98,0,.05-.03.18-.08.38.05.11.08.23.08.35v.35c0,.23-.12.49-.35.78,0,.38-.26.7-.78.98-.16.07-.34.1-.53.1l-.1-.03s-.17.18-.38.55c-.11,0-.19.23-.23.68-.27.61-.67.91-1.21.91l-.61-.08c-.24,0-.39.08-.45.23-.26.29-.68.43-1.26.43,0,.02-.05.03-.15.03-.03,0-.13-.02-.3-.05l-.3.03c-.16-.03-.28-.05-.38-.05-.27.13-.54.24-.78.33-.05.17-.12.32-.2.45.06.29.17.56.33.83.05.18.08.33.08.45,0,.42-.25.81-.76,1.16,0,.6-.33,1.02-.98,1.26-.13.03-.24.05-.33.05-.56,0-.96-.34-1.21-1.01-.02-.15-.03-.24-.03-.28,0-.28.13-.58.4-.91-.24-.31-.35-.61-.35-.91.03-.19.05-.33.05-.43,0-.03-.11-.35-.33-.96v-.18c0-.22.11-.5.33-.86l.03-.13c-.02-.15-.03-.24-.03-.28l.03-.3c-.64-.51-.96-1.01-.96-1.51,0-.08.03-.23.1-.45l-.03-.3c0-.47.28-.84.83-1.14.02,0,.05-.03.08-.08-.64-.3-.96-.73-.96-1.29,0-.29.14-.6.43-.93v-.03c-.07-.22-.1-.38-.1-.48,0-.2.08-.44.23-.73,0-.03,0-.13-.03-.28.02-.3.11-.56.28-.78-.02-.1-.03-.16-.03-.2,0-.4.2-.76.61-1.08,0-.34.25-.66.76-.96.22-.07.39-.1.5-.1.02,0,.13.02.33.05.31-.27.63-.4.96-.4ZM6.16,6.55c.07.22.1.39.1.5,0,.33-.16.65-.48.98.39.66.58,1.1.58,1.34.13.17.2.39.2.66,0,.15-.08.4-.23.73,0,.23-.12.52-.35.88.03.15.05.23.08.23.01,0,.15-.02.4-.05.08,0,.26.04.53.13.08,0,.18-.18.3-.53.3-.42.67-.63,1.11-.63.29.03.53.11.71.25h.08c0-.31.19-.64.58-.98.12-.08.33-.16.63-.25l.03-.05c-.13-.24-.34-.52-.63-.83-.1-.26-.15-.47-.15-.63l.1-.73c-.24-.13-.46-.39-.68-.76-.04-.07-.28-.15-.71-.23,0-.08-.29-.15-.88-.2-.14-.03-.33-.16-.58-.38h-.05c-.26.29-.48.47-.68.53v.03Z"/>
          <path class="cls-1" d="M20.15,2.2c.54,0,.97.34,1.29,1.01.07,0,.27.14.61.43l.13.03.3-.03c.48,0,.89.32,1.24.96.52.31.78.71.78,1.21,0,.09-.05.29-.15.61.37.29.55.65.55,1.08,0,.05-.03.18-.08.38.22.31.33.59.33.86,0,.44-.27.86-.81,1.26.02.12.03.18.03.2,0,.01,0,.12-.03.33.34.35.5.7.5,1.06,0,.22-.11.58-.33,1.06-.03,0-.05.12-.05.35.08.26.13.45.13.58,0,.42-.21.8-.63,1.14.03.13.05.24.05.33,0,.38-.21.74-.63,1.08v.08c0,.62-.32,1.04-.96,1.26-.13.03-.24.05-.33.05-.06,0-.22-.03-.48-.1-.25,0-.38.08-.38.23-.23.69-.52,1.12-.86,1.29-.26.08-.54.24-.83.45-.22.07-.39.1-.5.1-.56,0-.96-.34-1.21-1.01v-.05h-.03c-.29.07-.47.1-.55.1-.35,0-.73-.22-1.16-.66-.44-.29-.66-.53-.66-.73-.55-.28-.83-.68-.83-1.21,0-.31.18-.66.53-1.03-.2-.31-.3-.62-.3-.93-.25-.24-.38-.53-.38-.88,0-.11.05-.31.15-.58-.27-.31-.4-.63-.4-.96,0-.08.04-.26.13-.53-.29-.32-.43-.66-.43-1.01,0-.26.16-.68.48-1.26-.03-.19-.05-.33-.05-.4,0-.34.19-.69.58-1.06v-.05c0-.25.06-.52.18-.81-.13-.22-.2-.45-.2-.68,0-.55.32-.94.96-1.19.39-.03.63-.1.71-.2.55-.27.83-.48.83-.63.31-.37.61-.55.91-.55.2-.34.38-.54.55-.61.06-.1.32-.17.78-.23.17-.08.35-.13.53-.13ZM17.4,9.03c.32.36.48.7.48,1.03,0,.18-.06.39-.18.63.02.09.03.14.03.15-.02.2-.03.34-.03.43.34.41.5.79.5,1.14,0,.31-.17.65-.5,1.01.1.31.15.59.15.86.32.29.48.64.48,1.03v.13h.03c.42-.08.71-.22.86-.4.26-.1.47-.15.63-.15.19.03.33.05.4.05.16-.11.3-.18.43-.2l-.03-.35s0-.12.03-.33c-.15-.41-.23-.71-.23-.88,0-.45.24-.84.73-1.16l.2-.73c-.34-.45-.5-.82-.5-1.08-.02-.09-.03-.18-.03-.28.03-.19.05-.32.05-.4-.1-.22-.15-.41-.15-.58,0-.36.17-.7.5-1.01v-.05c-.34-.31-.5-.66-.5-1.03.02-.21.08-.43.18-.66-.29-.07-.49-.15-.61-.25-.03,0-.2.08-.5.25-.14,0-.38.14-.71.43-.25.05-.38.17-.38.35-.17.39-.42.73-.76,1.01-.05,0-.18.18-.38.53-.06,0-.13.18-.2.53Z"/>
          <path class="cls-1" d="M31.41,2.2c.54,0,.97.34,1.29,1.01.07,0,.27.14.61.43l.13.03.3-.03c.48,0,.89.32,1.24.96.52.31.78.71.78,1.21,0,.09-.05.29-.15.61.37.29.55.65.55,1.08,0,.05-.03.18-.08.38.22.31.33.59.33.86,0,.44-.27.86-.81,1.26.02.12.03.18.03.2,0,.01,0,.12-.03.33.34.35.5.7.5,1.06,0,.22-.11.58-.33,1.06-.03,0-.05.12-.05.35.08.26.13.45.13.58,0,.42-.21.8-.63,1.14.03.13.05.24.05.33,0,.38-.21.74-.63,1.08v.08c0,.62-.32,1.04-.96,1.26-.13.03-.24.05-.33.05-.06,0-.22-.03-.48-.1-.25,0-.38.08-.38.23-.23.69-.52,1.12-.86,1.29-.26.08-.54.24-.83.45-.22.07-.39.1-.5.1-.56,0-.96-.34-1.21-1.01v-.05h-.03c-.29.07-.47.1-.55.1-.35,0-.73-.22-1.16-.66-.44-.29-.66-.53-.66-.73-.55-.28-.83-.68-.83-1.21,0-.31.18-.66.53-1.03-.2-.31-.3-.62-.3-.93-.25-.24-.38-.53-.38-.88,0-.11.05-.31.15-.58-.27-.31-.4-.63-.4-.96,0-.08.04-.26.13-.53-.29-.32-.43-.66-.43-1.01,0-.26.16-.68.48-1.26-.03-.19-.05-.33-.05-.4,0-.34.19-.69.58-1.06v-.05c0-.25.06-.52.18-.81-.13-.22-.2-.45-.2-.68,0-.55.32-.94.96-1.19.39-.03.63-.1.71-.2.55-.27.83-.48.83-.63.31-.37.61-.55.91-.55.2-.34.38-.54.55-.61.06-.1.32-.17.78-.23.17-.08.35-.13.53-.13ZM28.66,9.03c.32.36.48.7.48,1.03,0,.18-.06.39-.18.63.02.09.03.14.03.15-.02.2-.03.34-.03.43.34.41.5.79.5,1.14,0,.31-.17.65-.5,1.01.1.31.15.59.15.86.32.29.48.64.48,1.03v.13h.03c.42-.08.71-.22.86-.4.26-.1.47-.15.63-.15.19.03.33.05.4.05.16-.11.3-.18.43-.2l-.03-.35s0-.12.03-.33c-.15-.41-.23-.71-.23-.88,0-.45.24-.84.73-1.16l.2-.73c-.34-.45-.5-.82-.5-1.08-.02-.09-.03-.18-.03-.28.03-.19.05-.32.05-.4-.1-.22-.15-.41-.15-.58,0-.36.17-.7.5-1.01v-.05c-.34-.31-.5-.66-.5-1.03.02-.21.08-.43.18-.66-.29-.07-.49-.15-.61-.25-.03,0-.2.08-.5.25-.14,0-.38.14-.71.43-.25.05-.38.17-.38.35-.17.39-.42.73-.76,1.01-.05,0-.18.18-.38.53-.06,0-.13.18-.2.53Z"/>
          <path class="cls-1" d="M40.77,2.54c.29,0,.6.14.93.43h.05c.26-.18.58-.28.96-.28.07-.04.21-.07.4-.08.23,0,.52.12.88.35.43,0,.84.24,1.21.71.26.16.47.44.63.83.65,0,1.13.39,1.44,1.16.18.43.28.73.28.91-.02.12-.03.21-.03.28.44.31.66.69.66,1.14-.03.2-.05.32-.05.35.29.32.43.65.43.98,0,.05-.03.18-.08.38.05.11.08.23.08.35v.35c0,.23-.12.49-.35.78,0,.38-.26.7-.78.98-.16.07-.34.1-.53.1l-.1-.03s-.17.18-.38.55c-.11,0-.19.23-.23.68-.27.61-.67.91-1.21.91l-.61-.08c-.24,0-.39.08-.45.23-.26.29-.68.43-1.26.43,0,.02-.05.03-.15.03-.03,0-.13-.02-.3-.05l-.3.03c-.16-.03-.28-.05-.38-.05-.27.13-.54.24-.78.33-.05.17-.12.32-.2.45.06.29.17.56.33.83.05.18.08.33.08.45,0,.42-.25.81-.76,1.16,0,.6-.33,1.02-.98,1.26-.13.03-.24.05-.33.05-.56,0-.96-.34-1.21-1.01-.02-.15-.03-.24-.03-.28,0-.28.13-.58.4-.91-.24-.31-.35-.61-.35-.91.03-.19.05-.33.05-.43,0-.03-.11-.35-.33-.96v-.18c0-.22.11-.5.33-.86l.03-.13c-.02-.15-.03-.24-.03-.28l.03-.3c-.64-.51-.96-1.01-.96-1.51,0-.08.03-.23.1-.45l-.03-.3c0-.47.28-.84.83-1.14.02,0,.05-.03.08-.08-.64-.3-.96-.73-.96-1.29,0-.29.14-.6.43-.93v-.03c-.07-.22-.1-.38-.1-.48,0-.2.08-.44.23-.73,0-.03,0-.13-.03-.28.02-.3.11-.56.28-.78-.02-.1-.03-.16-.03-.2,0-.4.2-.76.61-1.08,0-.34.25-.66.76-.96.22-.07.39-.1.5-.1.02,0,.13.02.33.05.31-.27.63-.4.96-.4ZM40.82,6.55c.07.22.1.39.1.5,0,.33-.16.65-.48.98.39.66.58,1.1.58,1.34.13.17.2.39.2.66,0,.15-.08.4-.23.73,0,.23-.12.52-.35.88.03.15.05.23.08.23.01,0,.15-.02.4-.05.08,0,.26.04.53.13.08,0,.18-.18.3-.53.3-.42.67-.63,1.11-.63.29.03.53.11.71.25h.08c0-.31.19-.64.58-.98.12-.08.33-.16.63-.25l.03-.05c-.13-.24-.34-.52-.63-.83-.1-.26-.15-.47-.15-.63l.1-.73c-.24-.13-.46-.39-.68-.76-.04-.07-.28-.15-.71-.23,0-.08-.29-.15-.88-.2-.14-.03-.33-.16-.58-.38h-.05c-.26.29-.48.47-.68.53v.03Z"/>
          <path class="cls-1" d="M62.1,3.04c.55,0,.94.32,1.19.96.15.36.23.63.23.81,0,.04-.03.17-.08.4.52.31.78.71.78,1.21-.02.12-.03.18-.03.2.15.25.23.49.23.73,0,.11-.04.28-.13.5.22.31.33.61.33.88,0,.05-.04.24-.13.58.18.27.28.54.28.81,0,.11-.05.31-.15.58.07.18.13.5.2.96,0,.19-.08.46-.25.81,0,.14-.08.33-.25.55.37.37.55.74.55,1.11v.1c.17.24.25.49.25.76,0,.31-.18.66-.53,1.03,0,.17.08.44.23.81.03.13.05.24.05.33,0,.03-.03.17-.08.43,0,.04,0,.17.03.38,0,.51-.31.9-.93,1.16-.13.03-.38.06-.73.08-.44,0-.81-.28-1.11-.83-.07-.18-.1-.34-.1-.45,0-.02,0-.11.03-.25-.32-.34-.48-.69-.48-1.03,0-.2.08-.42.23-.68-.05-.16-.09-.36-.13-.61-.3-.25-.45-.8-.45-1.66-.08,0-.15-.23-.23-.68,0-.29.13-.59.38-.91v-.03c-.15-.12-.3-.29-.45-.5h-.1l-.28.53c-.33.34-.68.73-1.06,1.18-.26,0-.56-.13-.88-.38-.58,0-1-.34-1.24-1.01,0-.23-.09-.4-.28-.5-.06-.1-.1-.15-.13-.15-.05.12-.08.23-.08.33.1.22.15.42.15.61,0,.28-.13.58-.4.91v.03c.03.2.05.32.05.38,0,.34-.18.67-.53,1.01,0,.22.15.47.45.73.25.36.38.69.38.98,0,.52-.29.91-.88,1.16-.02,0-.18.17-.5.5-.26.18-.53.28-.81.28-.54,0-.94-.32-1.19-.96-.03-.13-.05-.25-.05-.35v-.15c0-.12.03-.27.08-.45,0-.02,0-.08-.03-.2l.03-.35c-.27-.31-.4-.63-.4-.96.02-.29.11-.54.28-.76v-.03c-.18-.35-.28-.63-.28-.86,0-.31.17-.65.5-1.01.02-.21.03-.32.03-.33-.05-.18-.08-.33-.08-.43,0-.16.08-.42.25-.78-.15-.27-.23-.49-.23-.66,0-.29.04-.56.13-.83-.05-.27-.08-.44-.08-.5.02-.29.12-.55.3-.78v-.03c-.21-.49-.36-.81-.45-.96-.07-.22-.1-.39-.1-.5,0-.52.29-.91.88-1.16.18,0,.3-.17.35-.5.3-.47.69-.71,1.16-.71.34,0,.71.2,1.11.61.34,0,.66.27.96.81.07.17.1.34.1.5v.13c.34.3.54.55.58.76.03,0,.16-.15.38-.45.29-.17.43-.34.43-.5v-.1c-.08-.32-.13-.54-.13-.63,0-.55.32-.94.96-1.19.04,0,.21-.15.5-.45.29-.15.6-.23.93-.23.13-.07.28-.1.45-.1Z"/>
          <path class="cls-1" d="M71.22,2.2c.54,0,.97.34,1.29,1.01.07,0,.27.14.61.43l.13.03.3-.03c.48,0,.89.32,1.24.96.52.31.78.71.78,1.21,0,.09-.05.29-.15.61.37.29.55.65.55,1.08,0,.05-.03.18-.08.38.22.31.33.59.33.86,0,.44-.27.86-.81,1.26.02.12.03.18.03.2,0,.01,0,.12-.03.33.34.35.5.7.5,1.06,0,.22-.11.58-.33,1.06-.03,0-.05.12-.05.35.08.26.13.45.13.58,0,.42-.21.8-.63,1.14.03.13.05.24.05.33,0,.38-.21.74-.63,1.08v.08c0,.62-.32,1.04-.96,1.26-.13.03-.24.05-.33.05-.06,0-.22-.03-.48-.1-.25,0-.38.08-.38.23-.23.69-.52,1.12-.86,1.29-.26.08-.54.24-.83.45-.22.07-.39.1-.5.1-.56,0-.96-.34-1.21-1.01v-.05h-.03c-.29.07-.47.1-.55.1-.35,0-.73-.22-1.16-.66-.44-.29-.66-.53-.66-.73-.55-.28-.83-.68-.83-1.21,0-.31.18-.66.53-1.03-.2-.31-.3-.62-.3-.93-.25-.24-.38-.53-.38-.88,0-.11.05-.31.15-.58-.27-.31-.4-.63-.4-.96,0-.08.04-.26.13-.53-.29-.32-.43-.66-.43-1.01,0-.26.16-.68.48-1.26-.03-.19-.05-.33-.05-.4,0-.34.19-.69.58-1.06v-.05c0-.25.06-.52.18-.81-.13-.22-.2-.45-.2-.68,0-.55.32-.94.96-1.19.39-.03.63-.1.71-.2.55-.27.83-.48.83-.63.31-.37.61-.55.91-.55.2-.34.38-.54.55-.61.06-.1.32-.17.78-.23.17-.08.35-.13.53-.13ZM68.47,9.03c.32.36.48.7.48,1.03,0,.18-.06.39-.18.63.02.09.03.14.03.15-.02.2-.03.34-.03.43.34.41.5.79.5,1.14,0,.31-.17.65-.5,1.01.1.31.15.59.15.86.32.29.48.64.48,1.03v.13h.03c.42-.08.71-.22.86-.4.26-.1.47-.15.63-.15.19.03.33.05.4.05.16-.11.3-.18.43-.2l-.03-.35s0-.12.03-.33c-.15-.41-.23-.71-.23-.88,0-.45.24-.84.73-1.16l.2-.73c-.34-.45-.5-.82-.5-1.08-.02-.09-.03-.18-.03-.28.03-.19.05-.32.05-.4-.1-.22-.15-.41-.15-.58,0-.36.17-.7.5-1.01v-.05c-.34-.31-.5-.66-.5-1.03.02-.21.08-.43.18-.66-.29-.07-.49-.15-.61-.25-.03,0-.2.08-.5.25-.14,0-.38.14-.71.43-.25.05-.38.17-.38.35-.17.39-.42.73-.76,1.01-.05,0-.18.18-.38.53-.06,0-.13.18-.2.53Z"/>
          <path class="cls-1" d="M85.33,2.2c.54,0,.94.32,1.19.96.18.35.36.53.53.53.44.31.66.69.66,1.14,0,.28-.13.58-.4.91,0,.2-.08.44-.25.73.24.31.35.61.35.91-.04.61-.11,1.01-.2,1.21-.06.06-.17.31-.33.76,0,.1.17.24.5.43.29.29.43.61.43.96,0,.17-.09.44-.28.81,0,.05.02.16.05.33-.02.21-.03.33-.03.35.02.17.03.27.03.3-.02.11-.03.22-.03.33.13.18.2.4.2.66,0,.52-.34.94-1.01,1.26-.15.1-.23.16-.23.2.07.22.1.39.1.5,0,.3-.15.62-.45.96-.17.31-.25.49-.25.53-.07.64-.17.99-.3,1.06,0,.06-.24.28-.73.66-.38.4-.78.61-1.19.61-.19-.03-.33-.05-.4-.05h-.08s-.23.13-.55.38c-.25.07-.42.1-.53.1-.42,0-.81-.25-1.16-.76-.02,0-.14,0-.35.03-.47,0-.86-.29-1.19-.88l-.18.03h-.05c-.16,0-.36,0-.58.03-.45,0-.83-.29-1.14-.88-.05-.18-.08-.33-.08-.43l.08-.45c-.12-.24-.29-.5-.5-.81-.18-.55-.28-.9-.28-1.06v-.05c0-.1,0-.21.03-.35-.22-.31-.33-.6-.33-.86,0-.06.04-.26.13-.61-.05-.22-.08-.37-.08-.45,0-.23.12-.52.35-.88,0-.17.09-.44.28-.81-.16-.22-.25-.47-.25-.76,0-.15.06-.34.15-.55-.22-.31-.33-.6-.33-.88,0-.04.03-.21.1-.5-.18-.27-.28-.55-.28-.83,0-.22.09-.49.28-.81-.27-.31-.4-.63-.4-.96,0-.34.2-.72.61-1.14,0-.58.34-.99,1.01-1.24.08,0,.3-.13.66-.38.21-.08.4-.13.55-.13.56,0,.96.34,1.21,1.01.02.15.03.24.03.28,0,.4-.22.76-.66,1.08l-.03.05c0,.14.13.39.38.76.05.16.08.32.1.48,0,.24-.08.48-.25.73v.03c.42.37.63.76.63,1.16,0,.23-.12.52-.35.88,0,.31-.07.61-.2.91l-.05.48c.12.24.18.46.18.66,0,.15-.06.34-.15.55l.03.3c0,.08-.05.34-.15.78.22.31.33.6.33.88,0,.24-.13.55-.38.93v.03c.13.16.23.38.3.66.12,0,.34.23.68.68.17,0,.39.03.66.1.22-.07.39-.1.5-.1.09,0,.29.05.61.15.02-.21.15-.45.38-.73,0-.33.11-.64.33-.93,0-.01,0-.12-.03-.33,0-.42.25-.81.76-1.16l.08-.13c-.12-.31-.18-.55-.18-.71,0-.18.07-.4.2-.63,0-.03-.09-.19-.28-.48-.07-.22-.1-.38-.1-.48,0-.11.09-.44.28-.98.03-.07.06-.2.08-.38-.08-.4-.17-.61-.28-.61-.39-.27-.58-.62-.58-1.06,0-.36.17-.71.5-1.06v-.03c-.05-.23-.08-.36-.08-.4l.03-.35c-.1-.22-.15-.41-.15-.58,0-.33.17-.68.5-1.03-.02-.15-.03-.24-.03-.28,0-.56.34-.97,1.03-1.24.15-.02.24-.03.28-.03Z"/>
          <path class="cls-1" d="M89.04,2.15c.26,0,.57.13.93.4.13.03.22.05.25.05.25-.15.49-.23.73-.23.18,0,.47.1.86.3h.05c.21-.08.4-.13.55-.13.12.02.18.03.2.03.17-.07.33-.1.48-.1.69.06,1.07.14,1.14.25h.03c.22-.05.37-.08.45-.08.2.03.31.05.33.05.17-.07.33-.1.48-.1.06,0,.22.03.48.1.17-.07.34-.1.5-.1.32,0,.65.15.98.45.55,0,.94.32,1.19.96.03.13.05.24.05.3,0,.47-.26.88-.78,1.24-.26.39-.63.58-1.08.58h-.13c-.27.2-.55.3-.83.3-.52,0-.93-.33-1.24-.98h-.28c-.03.16-.05.28-.05.38.2.26.3.55.3.86,0,.24-.1.52-.3.83-.03.18-.09.34-.18.48.24.31.35.61.35.91-.02.27-.13.55-.33.83.08.21.13.4.13.55,0,.04-.02.13-.05.28,0,.26.08.44.25.53.25.28.38.57.38.88-.08.52-.2.87-.35,1.06-.15.12-.23.21-.23.25,0,.07.08.39.23.96v.03c-.02.17-.03.27-.03.3.12.24.18.45.18.63,0,.5-.29.92-.88,1.24.08.22.13.39.13.5-.02.23-.03.37-.03.43.25.31.38.62.38.93,0,.39-.24.82-.71,1.29-.24.17-.49.25-.76.25-.53,0-.96-.33-1.29-.98-.34-.27-.5-.61-.5-1.01,0-.15.06-.34.15-.55,0-.02,0-.11-.03-.25,0-.11.05-.32.15-.63-.22-.31-.33-.59-.33-.83,0-.03,0-.13.03-.28-.02-.15-.03-.24-.03-.28,0-.12.1-.44.3-.96l-.03-.23s.02-.16.05-.43c-.35-.29-.53-.62-.53-.98,0-.22.08-.49.25-.81,0-.18.08-.45.23-.81.06-.69.14-1.07.25-1.14v-.13c-.13-.21-.21-.51-.25-.88,0-.03.03-.22.1-.55-.1-.22-.15-.42-.15-.61,0-.2.08-.42.23-.68,0-.18-.09-.31-.28-.38-.22-.22-.38-.45-.48-.68-.11,0-.33-.14-.66-.43h-.05c-.1.13-.37.24-.81.33-.27.34-.61.5-1.03.5-.58,0-.99-.34-1.24-1.01-.02-.15-.03-.24-.03-.28,0-.38.2-.73.61-1.06l-.03-.3c0-.66.47-1.11,1.41-1.36.02-.02.08-.03.18-.03Z"/>
          <path class="cls-1" d="M107.1,2.33c1.01.17,1.51.61,1.51,1.34,0,.08-.05.28-.15.58v.03c.13.22.34.48.63.78.1.25.15.45.15.61-.02.26-.12.52-.3.77.03.12.05.25.05.37,0,.33-.11.63-.33.9.07.29.1.45.1.49-.02.2-.03.32-.03.36.05.2.09.41.13.66l-.03.29c.15.44.23.72.23.85-.08.53-.13.83-.13.9.07.47.12.73.15.77.05.21.08.36.08.44,0,.25-.11.51-.33.78.34.34.5.67.5.99-.02.14-.11.53-.28,1.17-.12.16-.27.33-.45.51v.07c.1.17.25.37.45.61.1.21.15.41.15.58,0,.38-.22.74-.66,1.09-.26.58-.68.87-1.24.87-.46,0-.87-.28-1.24-.85-.3-.24-.45-.55-.45-.92,0-.08.05-.28.15-.58-.07-.25-.1-.4-.1-.46,0-.03,0-.12.03-.27-.25-.3-.38-.67-.38-1.12-.04-.07-.07-.2-.08-.39.03-.3.11-.53.25-.71-.08-.22-.16-.48-.23-.77-.09-.08-.17-.13-.23-.13-.22.09-.4.14-.55.14l-.25-.02c-.12.01-.21.02-.28.02-.76-.21-1.15-.31-1.16-.31-.25.08-.45.12-.61.12h-.13v.08c0,.35-.14.67-.43.98v.03s.12.2.35.5c.08.21.13.38.13.51-.02.14-.03.22-.03.24.22.29.33.58.33.87,0,.33-.15.63-.45.92.27.33.4.64.4.94,0,.31-.18.66-.55,1.03-.24.57-.64.85-1.21.85s-.97-.33-1.24-1c-.02-.14-.03-.23-.03-.26.05-.26.08-.41.08-.46-.5-.25-.76-.63-.76-1.12,0-.34.2-.69.61-1.04v-.03c0-.07-.13-.25-.38-.54-.08-.25-.19-.51-.33-.8-.03-.18-.05-.29-.05-.34,0-.23.1-.48.3-.75-.08-.31-.13-.53-.13-.66l.15-.98c.13-.22.2-.34.2-.36,0-.17-.12-.31-.35-.4-.34-.3-.5-.63-.5-.99s.21-.71.63-1.04v-.05c-.3-.35-.45-.68-.45-1,0-.18.07-.38.2-.61v-.03c-.1-.29-.15-.5-.15-.63,0-.4.25-.79.76-1.17v-.24c.06-.54.3-1.14.71-1.77.29-.29.62-.44.98-.44.55,0,.94.31,1.19.92.03.14.05.26.05.36,0,.05-.03.17-.08.37.29.31.43.63.43.95s-.19.67-.58,1.02c.42.33.63.69.63,1.07,0,.29-.13.59-.4.92,0,.13,0,.28-.03.46.11.34.18.54.23.61l.13.03c.26-.05.4-.08.43-.08.01,0,.12,0,.33.03.18-.04.33-.07.43-.07l.53.09c.27-.16.53-.24.78-.24.08.02.2.03.35.03,0-.2.18-.49.55-.87l.1-.41c-.2-.25-.3-.64-.3-1.17-.03-.22-.12-.43-.25-.61-.07-.21-.1-.37-.1-.49,0-.17.09-.43.28-.77,0-.36.16-.71.48-1.05v-.03c-.15-.24-.23-.47-.23-.7,0-.54.34-.93,1.01-1.17.15-.02.24-.03.28-.03Z"/>
        </g>
      </g>
    </g>
  </g>
</svg>