<?xml version="1.0" encoding="UTF-8"?>
<svg id="Layer_2" xmlns="http://www.w3.org/2000/svg" version="1.1" viewBox="0 0 541.5 169">
  <!-- Generator: Adobe Illustrator 29.7.1, SVG Export Plug-In . SVG Version: 2.1.1 Build 8)  -->
  <defs>
    <style>
      .st0 {
        stroke: #2b368d;
        stroke-miterlimit: 12.7;
        stroke-width: 13.3px;
      }

      .st0, .st1 {
        fill: #323092;
      }

      .st2 {
        fill: #fff;
      }

      .st3 {
        fill: #d0021b;
      }

      .st4 {
        fill: #fee700;
      }
    </style>
  </defs>
  <g id="Layer_2-2">
    <polygon class="st3" points="421.8 147.4 114.9 147.4 88.6 88.9 421.8 88.9 421.8 147.4"/>
    <rect class="st1" y="15.1" width="421.8" height="73.7"/>
    <circle id="circle2186" class="st4" cx="457" cy="84.5" r="80.2"/>
    <path class="st1" d="M457,169c-46.6,0-84.5-37.9-84.5-84.5S410.4,0,457,0s84.5,37.9,84.5,84.5-37.9,84.5-84.5,84.5h0ZM457,8.5c-41.9,0-76,34.1-76,76s34.1,76,76,76,76-34.1,76-76S498.9,8.5,457,8.5Z"/>
    <path id="path2188" class="st0" d="M456.2,122.9h-61.4v-22.6c19.5-27.3,60.3-82.4,60.3-82.4h26.4v81.3h21.2l-12.1,23.7h-9.2v19.1h-25.7v-19.1h.5,0Z"/>
    <path id="path2190" class="st2" d="M456.2,122.9h-61.4v-22.6c19.5-27.3,40.5-55.4,60.3-82.4h24.2l-53.7,81.3h27.6v-36.5l28.2-42.4v78.9h21.2l-12.1,23.7h-9.2v19.1h-25.7v-19.1h.5,0ZM402.8,115.1v-14.8l53.3-70-.6-.4-53.4,70.4v15.5h85.8v-.6h-85c0,0,0,0,0,0ZM456,23.2l-.6-.5-57.6,77.6v20.5h57.9v-.9h-57v-19.6l57.2-77.1h0Z"/>
    <g>
      <path class="st2" d="M16,52.1c0-18.4,11.5-29.4,25.8-29.4s12.7,3.4,16.2,7.1l-5.3,6.4c-2.9-2.9-6.3-4.9-10.7-4.9-9.2,0-15.7,7.7-15.7,20.4s6.1,20.6,15.5,20.6,8.8-2.3,12-5.8l5.3,6.3c-4.6,5.3-10.4,8.2-17.7,8.2-14.1,0-25.4-10.4-25.4-29Z"/>
      <path class="st2" d="M68.5,23.8h10v22.6h22.8v-22.6h10v56.3h-10v-25h-22.8v25h-10s0-56.3,0-56.3Z"/>
      <path class="st2" d="M136.6,23.8h11.7l18.3,56.3h-10.6l-8.6-29.9c-1.8-6-3.4-12.4-5.1-18.6h-.3c-1.5,6.2-3.2,12.6-5,18.6l-8.6,29.9h-10.2l18.3-56.3h0ZM129.1,57h26.5v7.8h-26.5s0-7.8,0-7.8Z"/>
      <path class="st2" d="M173,23.8h10.3l17.5,31.6,5.8,12h.3c-.5-5.8-1.3-12.9-1.3-19.2v-24.4h9.5v56.3h-10.3l-17.5-31.7-5.8-12h-.3c.5,6,1.3,12.7,1.3,19v24.6h-9.5V23.8Z"/>
      <path class="st2" d="M229.5,23.8h10.3l17.5,31.6,5.8,12h.3c-.5-5.8-1.3-12.9-1.3-19.2v-24.4h9.5v56.3h-10.3l-17.5-31.7-5.8-12h-.3c.5,6,1.3,12.7,1.3,19v24.6h-9.5V23.8h0Z"/>
      <path class="st2" d="M285.9,23.8h33.9v8.4h-23.9v14.4h20.2v8.4h-20.2v16.7h24.7v8.4h-34.7V23.8h0Z"/>
      <path class="st2" d="M332.2,23.8h10v47.9h23.4v8.4h-33.3V23.8Z"/>
    </g>
    <g>
      <path class="st2" d="M132.8,100.4h20.2l-1,4.9h-14.5l-1.9,9.5h12.3l-1,4.9h-12.2l-2.3,11.1h14.9l-1,4.9h-20.8l7.1-35.4h0Z"/>
      <path class="st2" d="M163.2,117.5l-5.6-17.1h6.4l2.4,8.2c.4,1.6.8,3.3,1.4,5.3h.2c1.2-1.9,2.4-3.8,3.5-5.4l5.4-8.1h6.2l-12.6,17.4,6.1,17.9h-6.4l-2.6-8.8c-.5-1.8-1-3.6-1.6-5.6h-.2c-1.3,2-2.6,3.9-3.7,5.7l-5.9,8.7h-6.2l13.4-18.3h0Z"/>
      <path class="st2" d="M183.2,121.9c0-11.7,7.8-22.1,18.5-22.1s7.2,2.2,9.1,5.4l-4,3.1c-1.3-2.2-3-3.5-5.3-3.5-7.2,0-12.3,8.4-12.3,16.6s2.4,10,8.2,10,4.7-1.2,6.8-2.9l2.5,3.7c-2.4,2.1-5.9,4.2-10.4,4.2-8.1,0-13-5.7-13-14.5h0Z"/>
      <path class="st2" d="M219.2,100.4h5.8l-6.1,30.5h14.1l-1,4.9h-20l7.1-35.4h0Z"/>
      <path class="st2" d="M242.4,100.4h5.8l-4,19.8c-.3,1.5-.5,2.9-.5,4.2,0,4.5,1.8,7,6.2,7s6.5-2.8,8-9.9l4.2-21.1h5.7l-4.3,21.1c-2.1,10.5-6.9,14.9-13.8,14.9s-11.9-3.9-11.9-11.8.3-3.6.6-5.3l3.8-18.9h0Z"/>
      <path class="st2" d="M267.8,130l4.2-3.3c2,2.9,5,4.7,8.5,4.7s6.3-2.1,6.3-5.3-1.7-3.5-4.3-5.1l-3.7-2.3c-3.1-1.9-5.4-4.4-5.4-8.6s5.1-10.4,11.7-10.4,7.9,2.1,10.4,5.2l-3.7,3.4c-1.8-2-4-3.6-7-3.6s-5.4,2.3-5.4,4.8,1.8,3.4,4.5,5.1l3.8,2.3c3.4,2,5.1,4.3,5.1,8.4,0,6.4-5.2,11.2-12.8,11.2s-9.1-2-12.2-6.4h0Z"/>
      <path class="st2" d="M304.1,100.4h5.8l-7.1,35.4h-5.8l7.1-35.4Z"/>
      <path class="st2" d="M314.5,100.4h6.1l1.2,18.5c.2,3.8.5,7.7.6,11.5h.2c1.7-3.8,3.5-7.7,5.3-11.5l8.8-18.5h6.4l-18.4,35.4h-7l-3.1-35.4h0Z"/>
      <path class="st2" d="M347.3,100.4h20.2l-1,4.9h-14.5l-1.9,9.5h12.3l-1,4.9h-12.2l-2.3,11.1h15l-1,4.9h-20.8l7.1-35.4h0Z"/>
    </g>
  </g>
</svg>