<?xml version="1.0" encoding="UTF-8"?>
<svg id="Layer_2" data-name="Layer 2" xmlns="http://www.w3.org/2000/svg" xmlns:xlink="http://www.w3.org/1999/xlink" viewBox="0 0 2024.01 500.01">
  <defs>
    <style>
      .cls-1 {
        fill: none;
      }

      .cls-2, .cls-3 {
        isolation: isolate;
      }

      .cls-4 {
        fill: #f2c75c;
      }

      .cls-5, .cls-3 {
        fill: #76232f;
      }

      .cls-3 {
        font-family: BernardMT-Condensed, 'Bernard MT Condensed';
        font-size: 171.02px;
      }

      .cls-6 {
        clip-path: url(#clippath);
      }
    </style>
    <clipPath id="clippath">
      <ellipse class="cls-1" cx="441.24" cy="249.12" rx="177.97" ry="217.94"/>
    </clipPath>
  </defs>
  <g id="Layer_1-2" data-name="Layer 1">
    <g>
      <g id="g2154">
        <g id="g1412">
          <g id="g1410">
            <g id="g1408">
              <path id="path1406" class="cls-5" d="M405.6,1.06c179.06-11.53,370.47,71.77,470.23,225.68,35.5,54.77-79.92,143.95-117.55,172.25-78.42,58.95-174.28,92.65-271.88,99.72-176.88,12.81-390.32-69.35-481.81-231.16-30.29-53.58,97.89-146.29,134.37-172.8C217.01,38.04,309.6,7.25,405.61,1.07"/>
            </g>
          </g>
        </g>
        <g id="g1418">
          <path id="path1416" class="cls-4" d="M439.27,7.71c-11.1-.01-22.16.33-33.19,1.04-94.69,6.1-185.84,36.44-262.62,92.23-18.25,13.26-59.1,42.89-91.27,75.43-16.09,16.27-29.94,33.3-37.65,48.71s-9.23,28.1-3.27,38.64c89.51,158.32,300.48,239.88,474.55,227.27,96.2-6.97,190.68-40.21,267.81-98.19,18.73-14.09,56.66-43.28,85.08-75.17,14.21-15.94,25.95-32.59,31.82-47.68s6.14-27.77-1.18-39.06C777.48,89.18,605.71,7.92,439.27,7.71h0Z"/>
        </g>
        <g class="cls-6">
          <g id="g1434">
            <path id="path1422" class="cls-5" d="M437.94,41.41c-.58.78-5.46,2.14-10.72,2.92s-12.86,2.53-16.56,4.09-9.55,2.92-12.67,2.92c-6.82,0-24.94,4.48-38,9.35-9.94,3.9-26.31,15.59-26.5,19.1,0,.97-6.04,8.57-13.64,16.37-7.41,7.99-14.03,16.95-14.81,20.07-.58,3.12-5.07,9.94-9.74,15.2s-8.57,11.5-8.57,13.45c0,2.14-.78,3.9-1.95,3.9s-1.95,5.46-1.95,12.08-.97,17.93-2.34,24.94c-3.31,19.88-3.51,48.91-.39,53.98,1.56,2.34,2.73,7.02,2.73,10.13s.97,6.43,1.95,7.02c1.17.58,1.95,3.31,1.95,6.04s1.36,7.6,3.31,11.11c3.31,6.43,4.48,10.52,13.25,42.29,2.92,10.13,6.82,20.27,8.77,22.41,2.14,2.14,5.07,7.41,6.82,11.69,2.92,7.21,11.89,18.51,14.42,18.51.58,0,.78-8.96.19-19.88-.97-19.49-1.17-20.07-6.24-22.6-6.43-2.92-12.86-11.3-19.88-25.14-5.85-11.89-4.48-20.66,2.14-14.03,1.17,1.17,4.29,3.31,6.82,4.48,2.34,1.17,5.65,4.68,7.02,7.6,1.75,3.51,4.09,5.26,7.41,5.26,4.68,0,6.24-2.73,2.92-4.68-2.73-1.75-3.7-13.25-1.75-19.68,1.17-3.12,3.12-15,4.48-26.31,1.56-11.3,3.7-26.11,4.87-33.13,1.36-7.02,1.75-18.71,1.17-25.92-1.17-14.81,2.73-29.62,11.89-46.57,8.57-15.78,8.77-15.98,65.87-20.85,11.89-1.17,24.16-2.53,27.67-3.12,12.86-2.34,46.77-2.73,58.07-.78,10.91,1.95,12.28,2.92,20.46,12.67,4.68,5.85,9.55,10.52,10.91,10.52,7.02,0,14.42,23.97,14.42,46.57,0,20.27-3.31,24.75-19.1,26.5-6.04.78-15,2.53-19.88,3.9-4.87,1.56-12.67,3.31-17.54,3.9-10.72,1.75-24.55,7.79-25.53,11.11-1.56,5.26,1.75,59.44,4.29,69.57l2.53,10.33-7.21,6.63c-3.9,3.7-8.96,6.63-11.11,6.63-3.51,0-3.7.58-1.95,3.9,1.56,2.92,1.36,5.26-.58,9.16-2.34,4.29-4.29,5.26-10.72,5.65-4.29.19-9.74,1.75-12.28,3.31-2.53,1.75-10.33,4.87-17.34,7.21-17.73,6.04-19.49,7.21-19.49,13.25.19,5.65,4.09,12.08,7.41,12.08,1.17,0,6.24-1.75,11.5-4.09,16.37-7.02,64.89-4.68,64.89,3.12,0,3.12-3.7,4.09-20.07,5.65-6.24.39-12.47,1.75-13.64,2.73-1.36.97-4.87,2.34-7.79,3.12-9.55,2.34-4.68,6.04,9.35,7.41,15.39,1.56,21.83,4.29,23.58,10.13.78,2.34,2.34,5.46,3.9,7.02,2.14,2.53.97,4.48-7.41,13.25-7.02,7.41-10.52,9.74-11.89,8.38-3.12-3.12-11.11-2.53-12.28.78-1.95,4.68-7.6,5.26-20.66,1.95-9.16-2.53-14.42-5.26-21.05-11.3-4.87-4.48-12.08-10.33-15.98-13.06-4.09-2.73-7.41-5.46-7.41-6.43,0-.78-1.36-1.36-2.92-1.36-4.48,0-3.51,3.12,2.53,6.82,2.92,1.95,10.13,7.6,15.98,12.47s11.89,9.74,13.25,10.91c1.56.97,5.07,4.29,7.79,7.02,13.84,13.45,25.14,17.34,36.44,12.67,4.09-1.75,9.35-3.12,11.89-3.12s7.79-2.14,11.69-4.87,8.18-4.87,9.55-4.87,7.79-5.07,14.23-11.11c6.43-6.24,15-14.42,19.29-18.32,4.09-3.9,9.16-9.55,11.5-12.67,6.82-9.55,16.37-29.81,21.24-45.01,1.95-6.24,5.65-12.47,9.16-15.59,12.28-11.11,14.81-14.42,16.95-22.99,1.17-4.68,2.14-10.33,2.14-12.47s5.26-9.55,11.5-16.17c8.18-8.96,12.47-15.39,15-22.99,1.95-5.85,5.07-13.45,7.02-16.76,6.24-10.72,6.63-22.02.78-33.91-4.09-8.57-5.07-13.25-5.07-25.72,0-14.81-.19-15.59-6.24-20.85-6.24-5.46-9.16-12.47-12.47-29.43-3.9-20.46-33.71-58.07-60.8-76.78-7.99-5.46-30.01-12.67-38.97-12.86-3.12,0-5.07-1.75-6.43-5.85-1.95-5.46-2.73-5.85-12.08-5.85-5.65,0-12.67-1.36-15.78-2.92-6.04-3.12-15.98-3.9-17.54-1.17l.03-.02ZM504.19,257.91c1.36,0,4.29-1.95,6.43-4.09,3.7-4.09,5.26-4.09,11.89,0,1.56.97,5.26,2.73,7.99,3.7,8.96,3.51,15.98,15,16.95,27.48.58,8.57,0,11.69-2.34,13.64-1.75,1.36-3.12,4.87-3.12,7.79,0,2.73-1.56,7.6-3.51,10.91-1.95,3.12-4.09,10.13-4.87,15.59-1.17,9.94-9.16,28.84-13.06,31.18-1.17.78-4.29-.39-6.63-2.73s-5.46-4.09-6.63-4.09c-4.09,0-27.67-11.69-27.67-13.64,0-.97.58-1.95,1.56-1.95,4.87,0,12.67-9.74,14.03-17.54,1.36-7.41.78-9.74-4.09-18.51-8.96-15.78-9.35-30.59-1.75-50.67l1.95-5.07,5.07,3.9c2.92,2.34,6.43,4.09,7.79,4.09h0Z"/>
            <path id="path1424" class="cls-5" d="M389.22,231.79c-7.79,1.56-12.86,3.9-15.2,7.02-4.29,5.46-6.24,11.11-4.48,12.86,2.14,2.14,18.51,1.17,20.85-1.17,3.7-3.7,7.02-2.73,9.74,2.92,3.31,7.21,11.11,7.41,14.62.58,2.92-6.04,7.21-6.43,7.99-.78.58,3.9,1.17,4.09,7.79,2.14s19.88-12.08,19.88-15.2c0-8.18-38.19-13.45-61.19-8.38h0Z"/>
            <path id="path1426" class="cls-5" d="M439.11,328.25c-2.34.97-4.29,2.53-4.29,3.7,0,2.53,5.26,2.53,6.82,0,.78-1.17,2.92-1.56,5.07-.97,1.95.78,3.7.39,3.7-.58,0-2.73-6.43-3.9-11.3-2.14h0Z"/>
            <path id="path1428" class="cls-5" d="M596.33,490.37c-1.56,1.36-38.61-10.85-43.68-6.37-37.61,32.74-171.21,7.57-93.87,3.85,71.52-3.43,50.4,104.72-4.87,3.31-1.36,1.95-31.76,28.84-44.04,41.12-12.28,12.08-22.99,21.44-23.77,20.46-.78-.78-2.92-6.43-4.87-12.28-3.31-10.52-7.79-17.54-10.91-17.54-.97,0-1.17,1.36-.58,2.92.97,2.14-.19,2.92-3.9,2.92-11.5,0-25.33,22.41-17.34,28.26,4.29,3.12,1.75,6.43-6.24,7.99-6.04,1.17-9.74,4.68-4.87,4.68,1.17,0,3.51,3.12,5.26,6.82l3.31,6.82h187.66c136.99,0,187.66-.58,187.66-2.14,0-4.87-27.67-28.26-57.49-48.52-8.57-5.65-20.46-14.03-26.31-18.51-20.27-15.39-76.39-59.63-79.12-63.33-2.53-3.7,39.53,38.18,37.97,39.54h0Z"/>
            <path id="path1430" class="cls-5" d="M322.38,468.17c-1.36,2.14-5.26,4.29-8.77,5.07s-11.69,3.12-18.12,5.26-14.81,4.68-18.51,5.46c-5.85,1.56-20.85,5.65-58.46,16.37-20.66,6.04-48.52,16.76-55.34,21.44-4.09,2.73-9.16,5.46-11.5,6.24s-6.63,2.92-9.55,5.07c-5.46,3.7-5.46,3.9-5.46,27.09v23.19l77.17-.39,77.17-.58,2.53-6.82c1.36-3.7,3.51-10.33,4.68-14.62,2.34-7.6,5.85-17.15,10.91-29.23,1.36-3.31,5.26-17.15,8.57-31.18s6.82-27.67,7.79-30.79c2.14-6.04.19-7.02-3.12-1.56v-.02Z"/>
          </g>
        </g>
      </g>
      <g>
        <g id="g2753">
          <path id="path2749" class="cls-5" d="M970.03,52.48c-5.17,0-9.54,3.88-10.22,9.07l-24.5,187.78c-.75,5.72,3.23,10.97,8.87,11.72.45.06.9.09,1.35.09h49.91c5.35,0,9.81-4.15,10.27-9.55l1.09-12.87.91,12.73c.39,5.46,4.88,9.69,10.28,9.69h49.34c1.17,0,2.33-.21,3.43-.61,1.1.4,2.26.61,3.44.61h46.24c2.64,0,5.18-1.04,7.09-2.89,1.91,1.85,4.46,2.88,7.1,2.89h46.25c5.69,0,10.31-4.68,10.31-10.44v-18.2c4.07,9.7,10.96,17.81,20.05,23.25.02.01.04.03.07.04,9.84,5.78,21.98,8.13,36.19,8.13,11.3,0,21.38-1.77,30.07-5.83.03-.01.06-.03.08-.04,8.52-4.08,15.7-10.31,20.96-18.2h0c1.55-2.33,2.61-4.73,3.81-7.1v17.94c0,5.77,4.62,10.44,10.31,10.44h46.24c2.7,0,5.28-1.08,7.21-2.99,1.93,1.92,4.52,2.99,7.22,2.99h46.25c5.69,0,10.31-4.68,10.31-10.44v-15.96c1.91,4.26,4.18,8.3,7.13,11.81.04.05.08.1.12.15,5.41,6.22,12.72,10.6,21.16,13.36.03.01.07.02.1.03,8.44,2.67,18.09,3.83,29.06,3.83,10.13,0,19.45-1.45,27.84-4.59.02,0,.04-.01.06-.02,8.61-3.28,16.07-8.56,21.74-15.57.01-.02.03-.04.04-.05,3.41-4.27,5.89-8.97,7.89-13.84v20.85c0,5.77,4.62,10.44,10.31,10.44h46.24c5.69,0,10.31-4.68,10.31-10.44v-60.78c0-14.7.8-24.77,1.12-26.22,0-.02,0-.03.01-.05.32-1.46.47-1.82,2.41-2.96,1.22-.71,5.96-2.08,13.5-2.08.42,0,.84-.03,1.25-.09v92.17c0,5.77,4.62,10.44,10.31,10.44h42.13c3.65,0,7.02-1.96,8.87-5.14,1.85,3.18,5.23,5.13,8.87,5.14h29.87c3.35,0,6.48-1.66,8.41-4.43,1.93,2.77,5.07,4.42,8.41,4.43h42.12c4.33,0,8.19-2.75,9.67-6.86,1.48,4.12,5.35,6.86,9.67,6.86h83.56c2.59,0,5.08-.99,6.98-2.77,1.9,1.78,4.39,2.77,6.98,2.77h40.3c5.69,0,10.31-4.68,10.31-10.44v-13.61l4.87,16.59c1.3,4.43,5.32,7.47,9.88,7.47h42.24c5.69,0,10.31-4.68,10.31-10.44V62.91c0-5.77-4.62-10.44-10.31-10.44h-40.29c-5.69,0-10.31,4.68-10.31,10.44v18.35l-6.89-21.57c-1.38-4.31-5.34-7.23-9.81-7.23h-40.3c-3.45,0-6.67,1.76-8.58,4.67-1.91-2.92-5.13-4.67-8.58-4.67h-80.35c-4.33,0-8.19,2.75-9.67,6.86-1.48-4.12-5.35-6.86-9.67-6.86h-62.84c-5.19,0-9.57,3.91-10.23,9.13l-1.38,11.07c-.55-3.57-1.15-8.19-1.68-11.44-.82-5.05-5.12-8.75-10.17-8.75h-62.38c-5.69,0-10.31,4.68-10.31,10.44v20.73c-.64-.09-1.29-.11-1.93-.07-6.85.46-13.04,3-18.69,6.62-1.96-2.44-4.89-3.85-7.99-3.86h-46.24c-5.69,0-10.31,4.68-10.31,10.44v20.35c-1.96-4.46-4.34-8.79-7.57-12.79-5.35-6.64-12.67-11.63-21.33-15.22-8.98-3.83-19.23-5.55-30.61-5.55-13.7,0-25.83,2.7-35.79,8.82-9.58,5.88-16.89,14.33-20.77,24.55-.21.54-.25,1.26-.44,1.82-.28-2.08-.43-4.56-.85-6.33-1.87-8.32-7.25-15.38-14.4-20.6-7.54-5.56-16.82-8.25-26.65-8.25-6.01,0-11.86,1.1-17.4,3.14v-23.77c0-5.77-4.62-10.44-10.31-10.44h-46.24c-5.69,0-10.31,4.68-10.31,10.44v51.26c-4.1-8.61-10.52-16.04-19.31-21.37-10.38-6.29-22.69-9.25-36.2-9.25s-25.93,3-36.27,9.41c-9.72,5.95-17.16,13.43-20.82,22.82-.15.38-.17.89-.31,1.28-.29-1.81-.42-3.98-.82-5.57h0c-2.02-8.07-6.9-15.17-13.57-20.19-7.12-5.35-16.05-7.74-25.61-7.74-7.64,0-14.97,1.82-21.39,5.45-1.89-1.72-4.34-2.67-6.88-2.67h-47.04c-5.69,0-10.31,4.68-10.31,10.44v59.54l-13.95-94.93c-.75-5.12-5.09-8.91-10.2-8.91h-69.71v-.03ZM1895.8,108.28v22.6c-1.84-3.23-5.24-5.22-8.92-5.22h-19.8v-14.72h21.86c2.53,0,4.97-.95,6.86-2.66h0ZM1547.67,123.57s.02.08.01.06c0-.02,0-.04-.01-.06ZM1252.08,164.73c1.1.4,2.26.6,3.43.6h43.61c1.13,0,2.25-.19,3.31-.56v12.72c-1.07-.37-2.18-.56-3.31-.57h-41.21c-2.08,0-4.12.64-5.83,1.84v-14.03h0ZM1895.8,177.05v26.3c-1.17-.45-2.4-.68-3.65-.68h-25.06v-20.4h19.8c3.68,0,7.08-1.99,8.92-5.22h-.01Z"/>
          <path id="path2751" class="cls-4" d="M970.03,62.92l-24.5,187.78h49.91l2.86-33.76h17.28l2.4,33.76h49.34l-27.59-187.78h-69.71.01ZM1312.73,62.92v187.78h46.24v-109.84c0-7.81.5-13.02,1.49-15.65s2.9-3.94,5.72-3.94c3.05,0,5,1.27,5.84,3.83.92,2.55,1.37,8.31,1.37,17.28v108.33h46.25v-106.13c0-14.46-.65-24.39-1.95-29.8-1.22-5.49-4.7-10.33-10.42-14.5-5.65-4.18-12.51-6.26-20.6-6.26-5.27,0-10.23.92-14.88,2.78-4.58,1.86-8.85,4.64-12.82,8.35v-42.22h-46.24ZM1640.56,62.92v187.78h42.13v-123.87l17.74,123.87h29.87l16.83-126.77v126.77h42.12V62.92h-62.84l-10.99,87.68-6.64-47.78c-2.06-15.31-4.01-28.61-5.84-39.9h-62.38ZM1808.59,62.92v187.78h83.56v-37.58h-35.37v-41.29h30.11v-35.72h-30.11v-35.61h32.16v-37.58h-80.35ZM1906.11,62.92v187.78h40.3v-85.36l25.06,85.36h42.24V62.92h-40.29v84.55l-27.01-84.55h-40.3ZM1149.51,94c-6.33,0-11.94,1.43-16.83,4.29-4.81,2.78-8.89,7-12.25,12.64l.8-14.15h-47.04v153.91h46.24v-104.04c0-11.6.42-18.71,1.26-21.34.84-2.71,2.9-4.06,6.18-4.06s5.04,1.16,5.73,3.48,1.03,8.77,1.03,19.37v106.59h46.25v-107.87c0-13.45-.73-23.04-2.18-28.77-1.45-5.8-4.7-10.59-9.73-14.38-5.04-3.79-11.52-5.69-19.46-5.69v.02ZM1246.91,94c-12.13,0-22.43,2.63-30.9,7.88-8.47,5.18-14,11.1-16.6,17.75-2.59,6.65-3.89,16.51-3.89,29.58v43.72c0,15,1.56,26.6,4.69,34.8,3.21,8.12,8.62,14.46,16.25,19.02,7.63,4.48,17.97,6.72,31.02,6.72,10.23,0,18.81-1.62,25.76-4.87,6.94-3.32,12.55-8.2,16.83-14.61,4.35-6.5,6.91-12.8,7.67-18.9.84-6.19,1.3-15.43,1.37-27.72h-41.21v18.33c0,7.96-.57,13.38-1.72,16.24-1.07,2.86-3.17,4.29-6.3,4.29-2.67,0-4.69-1.35-6.07-4.06-1.37-2.78-2.06-6.92-2.06-12.41v-72.61c0-6.73.46-11.05,1.37-12.99.92-1.93,2.71-2.9,5.38-2.9s4.5,1.12,5.49,3.36c.99,2.16,1.49,6.34,1.49,12.52v17.75h43.61c0-14.46-1.41-25.63-4.23-33.52s-8.51-14.42-17.06-19.6-18.85-7.77-30.91-7.77h.02ZM1485.58,94c-12.36,0-22.51,2.44-30.45,7.31s-13.43,11.33-16.49,19.37c-3.05,8.04-4.57,19.21-4.57,33.52v39.44c0,13.07.84,22.89,2.51,29.46,1.68,6.5,4.46,12.06,8.35,16.7,3.97,4.56,9.5,8.01,16.6,10.33,7.1,2.24,15.76,3.36,25.99,3.36,9.16,0,17.25-1.32,24.27-3.94,7.1-2.71,12.89-6.84,17.4-12.41,4.5-5.64,7.44-11.67,8.81-18.09,1.37-6.5,2.06-16.67,2.06-30.51v-37.69c0-10.9-.77-19.02-2.29-24.36-1.45-5.34-4.19-10.52-8.24-15.54s-9.81-9.09-17.28-12.18c-7.4-3.17-16.29-4.75-26.67-4.75v-.02ZM1629,94c-12.74.85-22.47,8.5-29.19,22.96l1.83-20.18h-46.24v153.91h46.24v-60.78c0-14.92.46-24.43,1.38-28.53.92-4.18,3.35-7.42,7.32-9.74s10.19-3.48,18.66-3.48v-54.16ZM1006.89,104.9c2.44,31.24,4.88,57.49,7.32,78.75h-16.48c1.22-16.62,4.27-42.87,9.16-78.75ZM1487.18,121.26c2.75,0,4.54,1.04,5.38,3.13.84,2.01,1.26,6.96,1.26,14.85v70.98c0,6.65-.46,10.98-1.38,12.99-.84,2.01-2.63,3.01-5.38,3.01s-4.47-1.08-5.38-3.24c-.92-2.24-1.37-7-1.37-14.27v-69.47c0-7.89.46-12.84,1.37-14.85.92-2.09,2.75-3.13,5.49-3.13h.01Z"/>
        </g>
        <g id="text2186" class="cls-2">
          <g class="cls-2">
            <text class="cls-3" transform="translate(944.29 408.95) scale(.6 1)"><tspan x="0" y="0">Legendary Fantasy Football</tspan></text>
          </g>
        </g>
      </g>
    </g>
  </g>
</svg>