<?xml version="1.0" encoding="UTF-8"?>
<svg id="Layer_2" data-name="Layer 2" xmlns="http://www.w3.org/2000/svg" viewBox="0 0 1503.03 701.02">
  <g id="Layer_1-2" data-name="Layer 1">
    <g>
      <path d="M1146.03,456c5.66-8.04,18.55-6.4,25.89-11.99.04-2.46-21.28-8.01-24.75-8.81-67.82-15.7-144.53-9.07-213.76-9.93l-44.87,3.11c-1.92.56-16.54,22.71-19.49,26.56-93.54,122.27-227.23,199.26-377.37,230.96-54.72,11.55-154.78,26.4-205.59,1.76-71.94-34.89,33.99-109.87,66.91-129.81,134.76-81.64,333.45-120.28,489.28-136.38,13.06-1.35,26.49-.76,39.25-3.93l61.03-105.41c-8.62,3.38-14.97,10.46-23.02,14.87-9.26,5.08-13.01,3.99-21.42,6.41-1.64.47-11.56,8.85-17,10.83-18.13,6.61-32.76-1.05-25.11-21.26,4.94-13.05,18.05-25.34,16.97-39.63-13.51,17.74-27.91,36.45-44.62,51.32-12.62,11.23-33.42,26.58-35.04-2.41-8.36,4.71-26.4,23.5-34.8,24.72-9.55,1.38-12.74-5.83-11.32-14.23,2.13-12.56,19.32-38.6,27.19-49.55,2.84-3.94,11.63-16.81,15.52-18.07,4.83-1.56,12.88,1.47,11.36,7.48-.72,2.86-12.27,13.98-15.13,17.54-9.36,11.66-18.32,25.63-23.05,39.77.59.65,9.33-5.47,10.47-6.31,13.91-10.27,31.52-26.49,43.29-39.22,5.62-6.07,12.45-20.77,22.99-16.3,5.86,2.48,1.17,8.9-1.1,12.28-7.35,10.94-16.12,20.46-23.27,32.38-.31.51-5.14,8.26-2.97,7.59,14.86-12.54,30-27.11,41.59-42.84,3.37-4.57,15.19-25.31,18.42-26.67,7.71-3.24,12.97,1.29,14.27,8.72,2.1,12.07.35,21.57-4.52,32.67-4.92,11.2-15.61,20.18-15.52,32.93,1.86,1.85,19.8-6.75,21.77-8.93,2.25-2.49,2.91-10.25,4.62-14.09,6.91-15.52,40.11-46.32,57.06-49.45,16.52-3.05,24.54,8.38,25.01,23.54,9.51-2.35,17.41-20.69,24.99-23.46,5.51-2.01,10.88,1.78,10.49,7.58-.31,4.47-14.81,15.38-18.7,19.7-5.67,6.29-14.79,19.04-17.08,27.05-.45,1.55-1.34,4.2-.18,5.57,22.45-13.69,45.39-31.56,62.89-51.28,4.98-5.62,11.33-20.76,21.04-14.36s-3.4,14.12-7.6,19.16c-6.5,7.8-15.18,19.82-18.73,29.24-5.72,15.17.52,10.59,9.02,4.22,24.37-18.23,46.34-41.22,69.8-60.68,6.6-4.25,14.53.59,12.36,8.52-1.14,4.17-6.13,8.01-5.79,12.44,7.42-6.32,15.19-12.33,22.57-18.69,4.49-3.87,10.19-12.65,16.69-12,2.79.28,6.67,3.79,7.14,6.46.79,4.47-9.58,18.59-12.2,23.88-5.88,11.93-9.49,25-14.52,37.28.79,1.25,3.05-.32,4.02-.78,8.44-4.03,19.19-12.45,27.01-18.09,11.5-8.31,52.51-42.78,64.4-42.02,4.28.27,6.9,7.41,10.16,5.3,23.12-45.96,49.25-90.44,81.17-130.88,9.44-11.96,26.77-33.93,40.03-40.56,4.52-2.26,10.27-4.8,14.97-2.13,6.92,3.94,3.38,9.5.49,14.7-27.46,49.27-70.92,95.59-104.43,141.17-12,16.32-30.19,44.75-29.41,65.55.36,9.6,3.17,10.24,10.93,7.1,37.71-15.23,69.36-59.75,105.29-77.97,4.98-2.53,10.06-3.98,14.35.87,6.29,7.12-9.04,19.29-13.43,24.99-12,15.59-24.19,32.63-30.73,51.28,2.63,2.41,26.75-12.53,30.63-14.94,20.94-13.05,39.79-30.04,62.06-40.63,4.16.08,7.56,2.46,8.89,6.41l-43.04,82.73,112.28-61.86c-3.31,2.68-3.06,6.32-4.28,9.15-7.92,18.27-99.22,56.47-118.46,71.52-36.62,50.46-70.69,105.42-117.16,147.63-9.09,8.26-32.61,28.35-44.65,28.29-17.71-.09-11.72-21.41-7.65-31.64,25.63-64.43,101.84-110.03,156.33-147.82,9.8-16.87,21.11-33,30.49-50.1,2.32-4.23,15.99-29.93,14.22-32.3-19.02,10.81-35.94,24.92-55.01,35.65-9.02,5.08-27.71,17.36-36.68,7.55-5.5-6.02-.46-16.25,2.27-22.75,5.31-12.61,13.98-23.39,21.28-34.83-.86-.8-7.84,4.83-9.08,5.79-15.99,12.34-30.31,26.87-46.85,38.54-12.63,8.91-43.96,31.19-52.03,6.49-3.8-11.65.42-20.42,2.38-31.64-7.17,6.48-13.2,13.86-20.65,20.12-12.46,10.47-39.62,31.9-46.99,4.83-9.95,5.43-33.49,28.87-44.22,16.36-9.02-10.51,8.72-34.25,9.17-46.1-5.33,3.61-10.57,7.68-15.36,11.98-7.48,6.73-34.05,37.76-40.85,38.85-2.8.45-5.9-.54-7.58-2.89-7.33-10.22,14.71-28.16,19.65-36.42l-12.93,9.61c-9.02,8-17.83,17.12-27.48,24.33-4.15,3.11-15.97,11.61-20.62,12.08-11.77,1.19-12.13-15.24-12.38-23-10.82,7.19-31.71,28.96-44.97,28.43-7.77-.31-11.37-7.46-11.24-14.54.16-9.04,5.7-13.36,7.73-20.14.38-1.29-.12-1.79-1.41-1.41-4.82,1.42-14.15,18.1-17.21,23.09-18.72,30.45-33.38,63.45-54.15,92.64l-.15,2.23c5.27-.16,10.6.21,15.88.05,57.41-1.78,114.23-4.52,171.73-1,21.55,1.32,84.19,7.44,99.36,21.55,8.52,7.93,3.56,13.82-5.79,16.31-2.77.74-9.55,2.41-11.98,2.41h-19.67ZM1293.83,188.39l52.77-71.94c-9.87,9.46-18.49,21.26-26.69,32.31-7.77,10.47-16.58,22.25-23.23,33.37-1.13,1.9-2.8,3.97-2.85,6.25ZM1228.56,262.25c-3.59.35-7.69,3.07-10.85,4.97-7.88,4.74-17.81,12.45-23.7,19.48-.9,1.08-2.33,1.56-1.91,3.36,13.87-6.78,26.69-15.76,36.46-27.81ZM905.14,316.91c3.84,3.01,33.63-18.95,38.29-22.63,5.76-4.55,33.52-26.35,7-19.87-14.11,3.45-38.03,29.73-45.29,42.5ZM1352.37,377.35l-48.85,33.18c-28.22,21.78-75.86,66.52-85.95,101.14-1.21,4.14-4.11,12.02,2.38,11.08,21.41-3.12,78.61-70.92,93.45-89.87,13.93-17.79,26.97-36.38,38.97-55.52ZM872.5,430.1c-151.23,12.31-302.6,40.5-442.12,100.54-26.91,11.58-54.08,23.56-78.92,39.1-26.92,16.83-120.98,81.53-60.9,111.54,46.96,23.46,149.07,7.13,200.17-4.01,143.61-31.31,272.57-104.76,363.51-220.83,1.85-2.36,19.79-25,18.27-26.33Z"/>
      <path d="M355.22,430.11c-7.51,12.13-20.72,21.63-32.71,29.16-23.24,14.6-55.94,28.6-83.76,24.41-54.8-8.26-77.59-72.41-129.55-86.27l-36.86,83.27c-3.86,4.52-.53,11.95-1.12,14.94-.08.42-6.23,4.75-6.85,4.99-4.71,1.8-9-5-7.42-9.38l41.15-98.9c-.77-3.66-39.7-6.7-45.39-8.54-15.04-4.87.68-12.34,7.01-16.43,24.1-15.59,50.11-28.2,74.23-43.79,27.66-50.01,52.6-101.56,81-151.17,5.55-9.7,26.21-47.72,33.42-51.97,4-2.36,11.22-2.89,12.67,2.47,1.26,4.65-11.66,19.61-14.66,24.32-10.72,16.88-20.44,34.71-30.48,52.03-20,34.51-42.8,71.98-60.46,107.43-.9,1.8-3.67,5.03-1.27,6.38,71.94-44.14,146.65-84.18,214.39-134.85,36.71-27.46,106.3-81.41,101.87-132.3-2.05-23.56-27.18-32.5-47.55-34C297.74,2.67,133.73,113.97,54.33,204.68c-13.42,15.33-47.92,58.12-46.6,78.17.1,1.48,1.45,5.58,2.63,6.33,8.66,3.49,17.08-2.88,25.26-2.48-7.3,7.73-21.31,12.72-30.65,5.7-10.11-7.59-2.35-24.38,1.7-33.68C39.01,184.41,156.22,94.02,226.93,55.86c58-31.3,172.53-80.43,233.78-41.48,71.41,45.41-29.72,132.62-69.08,161.96-69.41,51.73-145.9,95.77-220.99,138.83-9.16,5.25-23.67,10.3-29.63,19.31l-26.59,52.96c8.43,5.08,17.43,9.1,25.73,14.45,54.08,34.84,66.67,95.04,146.2,65.38,6.17-2.3,11.88-5.54,18.04-7.87l50.82-29.29ZM124.89,340.91l-44.07,24.53c-1.19,1.26-15.62,9.11-13.51,10.94l36.33,7.56,21.25-43.03Z"/>
      <path d="M681.53,235.38c21.73-2,47.52-8.5,67.83,2.71,42.01,23.19-16.87,84.16-38.07,102.34-24.35,20.88-86.21,61.68-118.44,57.91-8.74-1.02-18.63-5.57-17.88-15.71,1.11-15.04,26.76-34.83,39.43-41.46,14.4-28.31,31.31-55.75,42.17-85.64-5.6-.27-15.27-5.03-13.28-11.79,1.37-4.65,26.55-21.34,31.01-26.6l36.53-77.63c7.18-4.45,14.75-4.26,16.74,5.12l-27.8,51.91,3.55.7c21.98-15.54,44.49-30.29,66.58-45.69,26.69-18.6,58.86-40.08,77.07-67.81,10.05-15.3,14.52-26.85-4.21-36.86-45.32-24.22-127.86,8.46-167.7,34.81-32.36,21.4-101.62,78.13-112.31,115.07-1.57,5.42.68,13.56-9.2,9.9-6.56-4.19,7.08-27.89,10.1-32.98,40.34-67.85,144.12-139.63,223.92-144.53,29.18-1.79,93.88,6.36,77.71,49.85-19.43,52.28-128.96,103.57-172.71,140.08-5.89,4.91-9.42,8.26-11.06,16.27ZM610.49,361.04c-2.18-1.92-14.09,10.28-15.84,12.46-3.76,4.7-10.94,14.73-.18,15.02,41.12,1.11,129.07-68.19,148.27-103.93,5.76-10.72,13.56-32.03-1.44-38.45-17.88-7.65-49.16-1.04-67.21,4.83l-35.75,74.57c20.42-6.71,40.53-16.64,61.58-21.41,1.09-.25,8.62-2.48,8.45-.17s-36.52,16.39-41.59,18.84c-9.02,4.36-31.85,15.63-36.93,23.52-2.65,4.12-7.39,21.44-9.74,22.9-3.86,2.4-10.25-4.08-9.62-8.19Z"/>
      <path d="M365.96,292.75c2.79,1.64,27.03-8.62,33.03-9.3,17.56-1.97,25.82,7.49,19.75,24.53-1.95,5.48-7.3,9.94-7.38,15.64,12.04-7.75,21.59-22.69,33.38-29.95,15.27-9.4,21.19-1.05,15.27,14.3-3.53,9.15-23.8,39.98-2.6,42.53,18.28,2.2,50.25-13.76,66.41-22.88,12.74-7.19,27.32-19.4,40.4-24.84,3.14-1.31,6.12-2.5,5.88,2.15-.26,4.89-15.73,15.91-20.15,19.06-19.32,13.8-61.32,37.54-84.82,38.06-28.29.62-34.99-26.19-22.57-47.55-.11-.96-1.48-.5-2.17-.25-2.99,1.07-11.8,8.72-14.64,11.26-14.08,12.56-29.82,35.91-45.25,44.93-6.34,3.71-12.85,4.44-14.33-4.59-.73-4.47,13.34-19.09,16.72-23.71,6.26-8.54,24.9-34.92,25.93-44.2.16-1.42-.06-2.27-1.2-3.18-1.15-.96-2.5-.95-3.9-.97-6-.08-33.67,8.37-37.37,12.63-2.69,3.09-3.48,10.69-5.18,14.97-9.4,23.69-53.78,76.15-81.28,75.18-14.04-.49-21.17-11.98-19.42-25.23,2.75-20.81,36.03-68.26,52.52-81.79,16.16-13.25,43.45-21.88,52.98,3.18ZM354.26,297.71c-1.08-2.95-.92-8.94-4.32-9.6-6.6-1.27-21.4,7-22.55,14.41,9.33,1.76,18.1-2.21,26.87-4.82ZM351.37,310.2c-7.13,2.4-19.4,4.66-26.45,1.99-2.89-1.09-5.21-5.66-8.6-3.01-12.66,15.5-27.28,32.03-36.46,49.92-6.02,11.74-12.95,34.46,9.16,23.54,18.77-9.27,39.65-30.42,50.87-47.95,2.08-3.24,13.09-22.28,11.48-24.49Z"/>
    </g>
  </g>
</svg>