<?xml version="1.0" encoding="UTF-8"?>
<svg id="Layer_2" data-name="Layer 2" xmlns="http://www.w3.org/2000/svg" viewBox="0 0 430 354.87">
  <defs>
    <style>
      .cls-1 {
        fill: #010101;
      }

      .cls-2 {
        fill: #6f263d;
      }

      .cls-3 {
        fill: #fff;
      }

      .cls-4 {
        fill: #a2aaad;
      }

      .cls-5 {
        fill: #236192;
      }
    </style>
  </defs>
  <g id="Layer_1-2" data-name="Layer 1">
    <g id="colorado-avalanche">
      <path class="cls-3" d="M413.58,196.86c-4.96,0-9,4.02-9,8.99s4.03,8.99,9,8.99,8.99-4.03,8.99-8.99-4.02-8.99-8.99-8.99ZM413.58,212.91c-3.9,0-7.06-3.15-7.06-7.05h0c0-3.92,3.16-7.07,7.06-7.07s7.06,3.16,7.06,7.06-3.16,7.06-7.06,7.06ZM417.28,203.76c0-1.68-1.37-3.05-3.05-3.05h-4.33v10.26h1.93v-4.17h1.38l1.95,4.17h2.13l-2.03-4.35c1.22-.43,2.03-1.58,2.03-2.87h0ZM414.22,204.89h-2.41v-2.25h2.41c.62,0,1.13.5,1.13,1.12,0,.62-.51,1.12-1.13,1.12Z"/>
      <path class="cls-3" d="M393.08,206.69c13.89-20.12,21.01-40.23,21.01-59.81,0-51.66-52.83-86.38-131.47-86.38,0,0-3.76.06-6.37.1-7.95-13.04-22.77-20.3-35.23-22.95L217.21,0l-50.47,82.48C75.35,116.5,11.64,180.03,11.64,237.36c0,21.44,9.2,40.43,26.45,55.28L0,354.87s66.83-10.65,167.93-16.5l6.17-16.33c29.62-3.13,60.45-10.76,89.8-22.16.27,1.98.71,4.05,1.74,6.1l5.53,11.03c8.27,16.55,24.67,36.29,55.79,36.29,79.35,0,103.03-67.04,103.03-67.04,1.03-52.75-36.9-79.57-36.9-79.57h0Z"/>
      <path class="cls-5" d="M387.07,207.6c14.31-19.62,22.58-40.3,22.58-60.72,0-46.56-46.36-81.94-127.02-81.94-2.93,0-5.86.07-8.8.16-7.48-14.64-24.34-21.52-35.57-23.52l-20.98-33.17-47.53,77.65C84.81,117.28,16.08,178.44,16.08,237.36c0,21.21,9.65,40.1,27.76,54.38l-35.11,57.37s72.55-10.52,156.06-15.02l6.11-16.16c33.24-3.21,66.57-11.91,97.34-24.51-.19,1.26-.76,6.32,1.37,10.57l5.52,11.05c8.74,17.47,24.57,33.82,51.82,33.82,76.12,0,98.59-63.36,98.59-63.36,0-35.39-16.24-61.07-38.47-77.9Z"/>
      <path class="cls-1" d="M402.26,265.35c-4.86,7.4-12.81,16.05-15.15,18.55l-.04,22.13-1.43.14-3.02.29-7.63-11.81c-55.37,38.88-96.92,14.97-96.92,14.97l12.48,19.2c22.22,28.49,94.82,18.22,125.77-34.5l-4.2-.16c-.73-11.98-9.85-28.8-9.85-28.8h0Z"/>
      <g>
        <path class="cls-4" d="M320.77,183.07l-67.35-106.48c-2.32-.5-4.8-.73-7.43-.73l67.62,106.91c2.35.03,4.74.12,7.16.3h0ZM115.73,196.86L217.44,30.69l6.57,10.39c2.68.27,5.23.62,7.63,1.05l-14.28-22.58-102.55,167.54c.01,2.02.16,5.59.92,9.76h0Z"/>
        <path class="cls-4" d="M228.67,263.81c-38.63,0-64.48,19.34-99.67,19.34-48.98,0-64-34.57-64-58.48,0-73.7,86.89-118.14,86.89-118.14l1.71-2.79c-.29.13-1.04.48-2.16,1.03-14.43,7.12-92.41,48.84-92.41,119.9,0,11.38,2.62,21.64,7.22,30.45,1.03,1.97,2.17,3.88,3.41,5.73l-49.38,80.66s60.93-8.69,140.35-13.1l18.41-48.73c16.11-4.74,31.83-9.5,52.12-9.5,42.97,0,70.58,23.01,70.58,23.01,0,0-15.73-29.39-73.08-29.39h0Z"/>
      </g>
      <path class="cls-2" d="M246,75.85c-17.65.05-41.81,11.1-67.37,29.16l11.63-18.96,7.96-6.44,6.07-21.99,9.85-3.03,2.9-14.03c2.43.11,4.72.3,6.95.53l-6.57-10.39-101.71,166.16c2.17,11.9,9.32,28.73,32.46,28.73,46.35,0,113.35-42.84,164.32-42.84.36,0,.73.02,1.11.02l-67.61-106.91h0ZM73.46,265.92l-41.7,68.12s51.95-6.95,124.72-11.27l15.5-41.03c-13.83,3.93-28.45,7.34-46.86,7.34-20.74,0-39.48-8.55-51.66-23.15h0Z"/>
      <g>
        <path class="cls-4" d="M347.59,323.4l3.4-5.62c-46.11,15.27-65.16-.53-65.16-.53,15.59,17.53,49.12,9.86,61.75,6.15h0Z"/>
        <path class="cls-4" d="M292.8,326.61c13.28,16.27,53.69,14.58,85.35-4.35l2.37-6.26c-19.84,13.61-63.95,26.22-87.72,10.61ZM218.05,150.51l-20.9,55.56s-29.1,11-48.29,14.13c38.5,2.92,105.36-40.65,149.06-40.65-19.67-6.15-66.93,12.48-66.93,12.48l-12.94-41.51h0Z"/>
      </g>
      <path class="cls-5" d="M217.53,168.63c-3.96,10.53-8.48,22.56-12.78,33.99l20.72-8.54c-2.46-7.88-5.25-16.81-7.93-25.44h0Z"/>
      <g>
        <path class="cls-3" d="M151.45,104.77c-65.18,25.34-115.72,70.7-115.72,116.32,0,19.71,8.81,35.05,22.76,46.72l7.76-12.68c-4.6-8.81-7.22-19.08-7.22-30.45,0-71.06,77.98-112.78,92.41-119.9h0ZM378.39,201.66c7.77-12.83,12.13-26.18,12.13-39.55,0-50.86-58.71-72.7-113.04-77.02-.36,4.21-1.31,8.78-3.01,13.73l53.78,85.03c16.79,2.27,34.5,8.11,50.14,17.81ZM253.43,76.59c7.65,1.63,13.56,6.05,17.1,13.77,4.41-16.82-1.1-41.54-38.89-48.22-2.53-.45-5.08-.8-7.63-1.05-2.31-.24-4.63-.42-6.95-.53l-2.9,14.03-9.85,3.03-6.07,21.99-7.96,6.44-11.63,18.96c25.57-18.06,49.73-29.11,67.37-29.16,2.62,0,5.11.23,7.43.73Z"/>
        <path class="cls-3" d="M312.55,187.4c-55.85,0-117.2,43.51-165.36,43.51-14.3,0-18.61-5.31-18.61-5.31l-2.09,3.24s-59.04-28.34,21.58-116.08c0,0-69.42,36.2-74.95,109.43l4.2-3.5s-2.18,49.28,53.62,49.28c44.88,0,60.8-16.66,102.44-16.66,88.84,0,103.07,50.64,103.07,50.64,0,0-58.22,17.16-62.06-14.99,0,0-8.88,37.66,65.74,18.71,0,0,4.71-7.38,4.15-17,0,0,6.89,6.92,8.08,12.2,0,0,5.65-6.46-3.41-23.87,0,0,7.74,7.07,12.77,17.38l3.12-2.63s.23-7.53-14.76-27.76l-10.19,6.4s-23.75-44.86-112.04-39.1c0,0,73.52-26.08,116.3,27.02l9.22-6.31s25.66,24.94,32.26,54.15l1.43-.14.04-22.13.05-26.44,7.44,8.71s3.6-6.55-.72-20.22c0,0,17.27,16.88,22.42,48.37l1.33-17.53c0-15.1-25.07-89.39-105.09-89.39h0ZM376.84,237.74l-2.55,19-11.92-12.57-5.83,3.05c-8.02-10.16-38.93-35.89-75.12-35.89-51.92,0-96.33,37.49-140.8,37.49-48.53,0-50.49-28.98-50.49-40.44,0-21.29,12.46-44.5,12.46-44.5-4.27,13.02-22.46,77.15,41.4,77.15,50.25,0,77.18-34.7,135.76-34.7s79.11,32.12,79.11,32.12l4.38-2.76,8.32,8.96.64-9.27,5.12-8.96c-11.84-23.35-38.29-31.56-38.29-31.56,34.64,6.51,45.02,31.79,45.02,31.79l-7.22,11.07h0Z"/>
        <path class="cls-3" d="M183.06,285.73l-4.93,13.05c29.26-1.01,58.85-6.98,86.28-16.53-30.08-13.96-76.59,1.8-81.35,3.47h0Z"/>
      </g>
      <path class="cls-5" d="M262.3,71.48c-15.93-15.16-53.59-2.78-53.59-2.78l-1.01,4.05c37.91-14.16,54.6-1.27,54.6-1.27h0Z"/>
      <path class="cls-4" d="M191.52,91.87c47.14-26.35,66.43-19.27,73.68-12.93-22.44-23.55-69.76,6.92-69.76,6.92l-3.92,6.01h0Z"/>
    </g>
  </g>
</svg>