<?xml version="1.0" encoding="UTF-8"?>
<svg id="Layer_2" data-name="Layer 2" xmlns="http://www.w3.org/2000/svg" xmlns:xlink="http://www.w3.org/1999/xlink" viewBox="0 0 200.5 201.12">
  <defs>
    <style>
      .cls-1 {
        fill: none;
      }

      .cls-2 {
        fill: #ff9f24;
      }

      .cls-3 {
        clip-path: url(#clippath);
      }

      .cls-4 {
        fill: #699cc6;
        stroke: #000;
        stroke-miterlimit: 5.24;
        stroke-width: .32px;
      }
    </style>
    <clipPath id="clippath">
      <path class="cls-1" d="M113.96.02c-3.59.08-7.31.48-11.11,1.19h0c-15.86,2.96-25.15,8.35-38.74,22.46h0c-17.76,18.44-22.36,26.76-23.86,43.11h0c-1.04,11.42-1.82,13.9-6.04,19.23h0c-6.01,7.59-12.29,20.79-13.58,28.54h0c-1.16,6.98-3.11,6.75-8.19-.99h0c-3.14-4.79-4-5.33-5.16-3.26h0c-.76,1.37-.96,4.17-.45,6.23h0c1.1,4.39-.1,4.74-4.02,1.19h0c-2.63-2.38-2.82-2.37-2.82.1h0c0,4.56,2.78,8.13,8.05,10.32h0l5.08,2.11-4.63.94-4.63.94,4.35,1.79c2.39.98,7.25,1.81,10.81,1.84h0c5.4.04,5.99.32,3.58,1.73h0c-2.98,1.73-14.91,1.09-20.2-1.09h0c-2.98-1.23-2.98-1.2,0,3.88h0c3.77,6.42,11.89,10.86,19.97,10.93h0l6.2.05-3.65,3.04c-4.43,3.69-7.28,3.87-8.56.55h0c-.77-2.02-1.39-2.13-3.25-.58h0c-3.81,3.16-2.63,7.37,3.88,13.88h0c4.24,4.24,6.18,7.52,6.18,10.46h0c0,2.36,1.11,5.87,2.46,7.8h0c2,2.86,3.65,3.43,8.84,3.05h0c6.02-.44,6.53-.86,8.94-7.42h0c1.4-3.82,3.68-7.17,5.05-7.45h0c2.03-.41,2.5-2.63,2.5-11.87h0v-11.38l4.25,2.22c2.34,1.22,5.81,2.22,7.72,2.23h0c4.73.01,4.59-5.04-.56-19.95h0c-6.76-19.58-6.65-26.1.78-43.92h0c4.6-11.04,6.35-17.39,6.35-23.07h0c0-6.39,1.13-9.71,6.1-17.96h0c10.44-17.34,12.03-18.73,24.09-21.06h0c19.52-3.78,26.51-3.03,38.26,4.05h0c8.37,5.05,11.3,6.07,15.34,5.33h0c4.66-.85,5.36-.37,10.4,7.11h0l5.4,8.03v17.91c0,12.18.93,21.8,2.9,30.07h0c3.2,13.41,2.84,25.38-1.07,35.71h0c-1.29,3.4-3.45,9.18-4.82,12.86h0c-1.37,3.68-2.7,9.93-2.96,13.9h0c-.53,8-7.6,23.22-13.96,30.07h0c-2.21,2.38-4.02,5.03-4.02,5.9h0c0,.86,2.02.13,4.48-1.62h0c5.3-3.77,8.74-4.08,9.97-.88h0c1.4,3.66,3.92,2.7,5.07-1.93h0c.58-2.34,2.33-5.16,3.9-6.27h0c2.97-2.11,6.27-7.74,8.21-14.01h0c1.05-3.39.8-3.6-2.98-2.65h0l-4.11,1.03,3.46-4.68c2.38-3.23,4.77-4.68,7.68-4.68h0c5.16,0,9.1-1.41,9.1-3.25h0c0-.76-.91-1.38-2.02-1.38h0c-1.11,0-3.35-.97-4.97-2.16h0c-2.75-2.01-2.51-2.28,3.62-4.12h0c15.75-4.72,17.92-13.21,7.7-30.11h0l-6.48-10.71-1.11-25.48c-.61-14.01-1.9-28.93-2.87-33.15h0c-2.89-12.58-14.24-29.12-21.18-30.86h0c-2.28-.57-6.88-4.16-10.24-7.96h0C143.21,5.45,130.37,0,115.42,0h0c-.49,0-.97,0-1.47.02ZM39.11,132.05c-.9-5.54-.86-5.59,4.52-5.59h0c5.93,0,7.27,2.2,7.31,11.97h0c.02,3.86-.64,5.02-2.83,5.02h0c-4.08,0-7.95-4.9-9-11.39ZM169.85,156.59c0-4.21,3-11.6,4.7-11.6h0c1.82,0,2.85,8.24,1.38,11h0c-1.26,2.35-2.88,3.56-4.13,3.56h0c-1.12,0-1.94-.97-1.94-2.95ZM115.77,137.99c-2.45.06-3.41.87-4.89,2.81h0c-2.08,2.71-4.2,3.42-10.32,3.43h0c-6.05.02-8.59.84-11.83,3.86h0c-5.4,5.02-7.34,10.15-5.29,13.98h0c2.12,3.95,4.29,3.77,7.78-.67h0c2.05-2.61,4.97-3.89,10.23-4.48h0c5.14-.58,8-1.8,9.5-4.07h0c1.64-2.47,3.76-3.24,8.94-3.24h0c5.8,0,7.06.58,8.61,3.98h0c1,2.19,4.46,5.33,7.69,6.98h0c4.24,2.17,5.87,3.99,5.87,6.57h0c0,1.96.46,4.03,1.03,4.6h0c2.18,2.18,5.29.87,6.69-2.83h0c2.4-6.3.21-12.74-5.53-16.29h0c-2.83-1.75-6.97-5.35-9.21-8h0c-3.3-3.92-5.69-5.05-12.8-6.03h0c-2.77-.38-4.7-.61-6.14-.61h0c-.11,0-.22,0-.32,0Z"/>
    </clipPath>
  </defs>
  <g id="svg3739">
    <g id="g938">
      <g id="g934">
        <path id="path932" class="cls-2" d="M162.09,123.44c0,1.97-.66,3.6-1.97,4.91s-2.95,1.97-4.91,1.97h-5.64v7.03c0,1.97-.66,3.59-1.97,4.86-1.31,1.31-2.95,1.97-4.91,1.97s-3.6-.66-4.91-1.97c-1.28-1.28-1.91-2.9-1.91-4.86v-27.46c0-4.1,1.4-7.55,4.19-10.34,2.79-2.79,6.24-4.19,10.34-4.19h4.81c1.97,0,3.6.66,4.91,1.97,1.31,1.28,1.97,2.9,1.97,4.86,0,.9-.16,1.76-.47,2.59.31.83.47,1.69.47,2.59,0,2.31-.86,4.14-2.59,5.48,1.72,1.31,2.59,3.12,2.59,5.43,0,.93-.16,1.79-.47,2.59.31.83.47,1.69.47,2.59h0ZM158.73,118.27c0-1.03-.33-1.86-.98-2.48-.66-.66-1.5-.98-2.53-.98h-9v-4.91c0-1.17.4-2.16,1.19-2.95.83-.83,1.83-1.24,3-1.24h4.81c1.03,0,1.88-.33,2.53-.98s.98-1.5.98-2.53c0-1.03-.33-1.86-.98-2.48-.66-.66-1.5-.98-2.53-.98h-4.81c-3.21,0-5.88,1.07-8.02,3.21-2.1,2.1-3.16,4.76-3.16,7.97v22.29c0,1.03.31,1.88.93,2.53.66.62,1.5.93,2.53.93s1.88-.31,2.53-.93c.66-.66.98-1.5.98-2.53v-10.4h9c1.03,0,1.88-.33,2.53-.98s.98-1.5.98-2.53h0ZM139.56,104.18c0,4.07-1.41,7.5-4.24,10.29-2.79,2.83-6.22,4.24-10.29,4.24-2.62,0-5.02-.64-7.19-1.91-2.17,1.28-4.57,1.91-7.19,1.91-4.1,0-7.55-1.4-10.34-4.19s-4.19-6.24-4.19-10.34v-27.46c0-1.97.66-3.59,1.97-4.86,1.31-1.31,2.95-1.97,4.91-1.97,1.97,0,3.59.66,4.86,1.97,1.31,1.28,1.97,2.9,1.97,4.86v22.29c0,.48.22.76.67.83v-23.12c0-1.97.66-3.59,1.97-4.86,1.31-1.31,2.95-1.97,4.91-1.97,1.97,0,3.59.66,4.86,1.97,1.31,1.28,1.97,2.9,1.97,4.86v22.29c0,.55.28.83.83.83s.83-.28.83-.83v-22.29c0-1.97.64-3.59,1.91-4.86,1.31-1.31,2.95-1.97,4.91-1.97,1.97,0,3.6.66,4.91,1.97,1.31,1.28,1.97,2.9,1.97,4.86v27.46ZM136.2,99v-22.29c0-1.03-.33-1.86-.98-2.48-.66-.66-1.5-.98-2.53-.98s-1.88.33-2.53.98c-.62.62-.93,1.45-.93,2.48v22.29c0,1.17-.41,2.17-1.24,3-.79.79-1.78,1.19-2.95,1.19s-2.17-.4-3-1.19c-.79-.83-1.19-1.83-1.19-3v-22.29c0-1.03-.33-1.86-.98-2.48-.62-.66-1.45-.98-2.48-.98s-1.88.33-2.53.98c-.66.62-.98,1.45-.98,2.48v24.98c-.83,1-1.9,1.5-3.21,1.5-1.17,0-2.17-.4-3-1.19-.79-.83-1.19-1.83-1.19-3v-22.29c0-1.03-.33-1.86-.98-2.48-.62-.66-1.45-.98-2.48-.98s-1.88.33-2.53.98c-.66.62-.98,1.45-.98,2.48v22.29c0,3.21,1.05,5.88,3.16,8.02,2.14,2.1,4.81,3.16,8.02,3.16,2.72,0,5.12-.88,7.19-2.64,2.07,1.76,4.47,2.64,7.19,2.64,3.17,0,5.83-1.07,7.97-3.21,2.14-2.14,3.21-4.79,3.21-7.97ZM99.52,81.28c0,4.14-1.43,7.64-4.29,10.5s-6.36,4.29-10.5,4.29-7.64-1.43-10.5-4.29c-2.83-2.86-4.24-6.36-4.24-10.5,0-.72.1-1.43.31-2.12-.21-1-.31-2.02-.31-3.05,0-1.97.66-3.59,1.97-4.86,1.31-1.31,2.95-1.97,4.91-1.97s3.59.66,4.86,1.97c1.31,1.28,1.97,2.9,1.97,4.86,0,.72.34,1.09,1.03,1.09.72,0,1.09-.36,1.09-1.09v-22.14c0-1.97.64-3.59,1.91-4.86,1.31-1.31,2.95-1.97,4.91-1.97s3.6.66,4.91,1.97c1.31,1.28,1.97,2.9,1.97,4.86v27.31ZM96.15,76.11v-22.14c0-1.03-.33-1.86-.98-2.48-.66-.66-1.5-.98-2.53-.98s-1.88.33-2.53.98c-.62.62-.93,1.45-.93,2.48v22.14c0,1.24-.43,2.29-1.29,3.16s-1.91,1.29-3.16,1.29c-1.24,0-2.29-.43-3.16-1.29-.83-.86-1.24-1.91-1.24-3.16,0-1.03-.33-1.86-.98-2.48-.62-.66-1.45-.98-2.48-.98s-1.88.33-2.53.98c-.66.62-.98,1.45-.98,2.48,0,3.24,1.09,5.97,3.26,8.17,2.17,2.17,4.88,3.26,8.12,3.26s5.95-1.09,8.12-3.26c2.21-2.21,3.31-4.93,3.31-8.17h0Z"/>
      </g>
      <g class="cls-3">
        <rect id="rect936" class="cls-4" x=".95" y="-.6" width="199.92" height="204.37"/>
      </g>
    </g>
  </g>
</svg>