<?xml version="1.0" encoding="UTF-8"?>
<svg id="Layer_2" data-name="Layer 2" xmlns="http://www.w3.org/2000/svg" viewBox="0 0 951.13 960.85">
  <defs>
    <style>
      .cls-1 {
        fill: #f60;
      }

      .cls-2 {
        fill: #fff;
      }
    </style>
  </defs>
  <g id="svg2">
    <g id="g868">
      <path id="path854" class="cls-1" d="M149.38,27.43c-29.5.14-54.38,9.65-70.48,27.02-34.9,37.78-21.3,103.8,31.95,155.12-10.86,22.33-16.4,45.52-16.46,68.83.04,6.16.46,12.33,1.26,18.47-34.8,37.62-58.11,85.89-66.03,136.67-18.55,120.34,52.45,223.66,159.7,232.4,4.68,17.39,14.67,36.29,28.2,53.33,31.51,39.68,73.49,59.01,93.76,43.18,20.27-15.84,11.16-60.84-20.35-100.53-3.27-4.12-6.71-8.08-10.29-11.86,3.87-1.68,7.7-3.47,11.49-5.39,37.65,16.05,110,26.05,188.66,26.07,68.4-.02,132.67-7.6,173.14-20.41,3.93,2.23,7.9,4.33,11.92,6.3-30.84,38.11-40.09,80.69-20.98,96.66,19.75,16.47,62.33-1.52,95.1-40.19,9.21-10.88,17-22.68,22.75-34.48.91-.01,1.83-.03,2.74-.06,109.1-6.59,182.23-110.83,163.34-232.83-7.63-48.72-29.46-95.18-62.07-132.13,2.96-11.65,4.52-23.42,4.68-35.21-.13-23.9-6.03-47.66-17.5-70.49,46.23-50.28,55.82-110.81,23.15-146.15-38.04-40.95-119.97-34.58-185.22,14.41-62.36-24.73-134.86-37.92-208.94-38.01-74.33,0-147.09,13.19-209.67,38-1.66-1.45-3.35-2.87-5.06-4.28-35.03-27.57-77.45-43.83-115.92-44.44-.96-.02-1.92-.02-2.87-.02ZM583.62,702.27c-.54-.02-1.08-.02-1.64.02-15.77.89-34.82,23.08-45.55,53.06-1.49,4.17-2.79,8.41-3.88,12.64-19.83-4.29-42.25-6.55-65.08-6.56-19.61.02-38.96,1.69-56.64,4.91-.81-2.87-1.72-5.72-2.72-8.55-12.46-34.8-35.66-58.15-51.81-52.16-16.16,6-19.16,39.07-6.7,73.88.92,2.54,1.92,5.05,2.97,7.51-11.02,7.46-16.81,15.86-16.83,24.41,0,27.61,58.98,50,131.74,50s131.74-22.39,131.74-50c-.05-6.71-3.65-13.35-10.6-19.52,2.36-4.75,4.48-9.73,6.32-14.84,12.46-34.8,9.46-67.88-6.7-73.88-1.46-.54-3.01-.85-4.62-.92Z"/>
      <ellipse id="ellipse859" class="cls-2" cx="597.05" cy="356.34" rx="21.68" ry="9.96" transform="translate(-90.02 249.68) rotate(-22.01)"/>
      <ellipse id="path857" class="cls-2" cx="353.05" cy="356.34" rx="9.96" ry="21.68" transform="translate(-109.61 550.15) rotate(-67.99)"/>
      <ellipse id="path861" class="cls-2" cx="475.26" cy="550.01" rx="87.24" ry="29"/>
      <path id="path817" d="M472.27,958.48c0-7.04-7.95-19.85-17.73-28.58l-5.77-5.15-.53,8.8c-.4,6.64-1.19,10.22-3.19,14.55-1.47,3.16-3.03,5.75-3.48,5.75s-2.84-2.54-5.31-5.65c-9.95-12.52-24.69-23.63-49.49-37.32-20.06-11.07-27.61-16.2-36.11-24.53-8.44-8.29-15.27-18.42-21.4-31.78-2.45-5.35-4.73-9.72-5.06-9.72s-2.31,2.92-4.4,6.5c-2.09,3.58-4.08,6.5-4.42,6.5-1.07,0-26.08-9.5-40.12-15.23-57.81-23.62-105.73-50.02-138.01-76.03-11.59-9.34-25.87-23.81-30.73-31.15l-3.13-4.73-1.46,2.82c-.8,1.55-1.98,4.85-2.61,7.32-.63,2.47-1.36,5.11-1.62,5.86-.54,1.59-7.55-6.67-20.7-24.36-34.36-46.23-58.13-101.31-67.68-156.83-7-40.67-7.26-88.68-.72-129.42.73-4.54,1.15-8.25.93-8.25s-2.45,1.41-4.96,3.14l-4.56,3.14.72-5.89c4.7-38.59,18.18-82.15,36.63-118.36,4.33-8.51,7.55-15.77,7.15-16.14-.4-.37-3.2-.32-6.23.1-3.03.42-5.63.65-5.79.51-.59-.51,12.79-27.24,18.06-36.09l5.42-9.09-4.46-8.87c-13.05-25.97-22.61-55.88-26.19-81.95-1.43-10.41-1.43-35.83,0-45.96,4-28.39,15.41-52.4,34.27-72.14C96.51,1.6,153.15-10.08,211.27,8.98c11.67,3.83,30.72,12.79,41.72,19.63l8.22,5.11,5.28-1.85c12.34-4.34,34.36-8.99,57.78-12.21,6.2-.85,20.28-1.29,40.5-1.26,27.09.04,32.81.33,45.38,2.29,7.91,1.24,14.58,2.05,14.82,1.81s-.52-2.33-1.7-4.64c-1.18-2.31-1.92-4.41-1.65-4.68.71-.71,10.92,1.52,20.15,4.41,4.4,1.38,13.98,5.15,21.3,8.38l13.3,5.88,4.98-2.52c14.58-7.39,46.74-17.98,48.69-16.04.34.34-.39,2.69-1.63,5.23l-2.24,4.62,3.8-.56c2.09-.31,8.98-1.37,15.3-2.35,16.68-2.6,66.87-2.63,86-.04,17.26,2.33,38.97,6.83,50.61,10.49l9.11,2.86,7.89-4.95C729.87,9.12,768.34-1.53,801.3.2c78.13,4.12,130.68,63.38,126.5,142.65-1.59,30.27-9.97,60.51-26.45,95.57l-5.2,11.07,4.71,7.93c5.25,8.84,18.89,36.31,18.29,36.84-.21.19-2.86,0-5.88-.41-3.03-.41-5.83-.56-6.23-.33-.4.23,1.93,5.46,5.19,11.62,17.84,33.76,32.16,77.47,37.68,114.94.95,6.45,1.45,12.01,1.12,12.34s-2.33-.57-4.43-1.99c-2.1-1.43-3.96-2.19-4.13-1.69-.17.5.6,7.37,1.7,15.26,14.71,105.19-12.3,206.25-77.05,288.35-4.34,5.5-8.94,11.28-10.23,12.84l-2.34,2.84-2.68-8.59c-1.47-4.72-2.83-8.59-3.01-8.59s-2.62,3.07-5.41,6.83c-19.41,26.1-69.33,60.39-126.37,86.79-27.73,12.84-78.29,33.38-82.15,33.38-.65,0-2.22-1.91-3.48-4.25-1.26-2.34-3.21-5.36-4.33-6.71l-2.04-2.46-1.87,2.46c-1.03,1.36-5.79,8.99-10.59,16.96-19.08,31.72-29.48,44-47.34,55.89-12.53,8.35-31.62,17.9-47.11,23.58l-3.58,1.31.68-4.47c.37-2.46.37-6.15,0-8.2-.67-3.64-3.88-10.12-5.02-10.12-.31,0-1.88,2.75-3.47,6.12-3.66,7.71-14.61,19.47-25.26,27.13-4.39,3.16-8.28,5.75-8.63,5.75s-.64-1.07-.64-2.37ZM475.63,843.6c8.9-4.71,19.48-15.57,23.95-24.57l3.63-7.32,2.03,3.32c2.07,3.39,2.48,6.05,2.08,13.57-.21,3.89-.02,4.25,2.18,4.25,3.5,0,12.5-2.83,18.27-5.75,13.52-6.84,27.86-19.27,35.22-30.54,6.42-9.83,9.65-18.37,16.81-44.36,3.51-12.73,7.52-25.97,8.93-29.42,3.17-7.79,3.19-9.68.15-11.07-1.97-.9-3.4-.64-7.93,1.43-10.57,4.84-17.57,13.49-21.21,26.21-3.56,12.44-8.43,19.34-18.26,25.85-16.88,11.18-37.5,16.11-67.2,16.06-19.68-.03-31.66-1.73-46.5-6.57-21.96-7.16-32.51-16.87-37.93-34.89-1.42-4.71-3.86-10.59-5.44-13.07-5.44-8.58-18.81-17.18-23.12-14.88-2.75,1.47-2.54,4.19,1.08,14.06,1.7,4.64,5.73,18.62,8.94,31.06,6.2,24,10.53,36.24,16.06,45.44,7.67,12.74,23.88,23.41,39.73,26.14,10.03,1.73,12.54,2.86,17.32,7.79,3.16,3.25,3.65,3.45,4.85,2.01,2.06-2.48,2.4-11.35.63-16.45-.85-2.45-1.38-4.63-1.18-4.83.79-.79,11.22,6.67,14.67,10.5,4.36,4.85,6.29,10.16,5.58,15.41-.29,2.14-.29,3.88,0,3.88s3.28-1.46,6.65-3.25h0ZM498.39,746.79c7.58-1.14,7.63-1.17,8.72-4.81.6-2.01,2.14-5.08,3.41-6.8l2.32-3.14,1.63,2.83c3.86,6.73,15.73,8.55,24.03,3.69,11.41-6.69,16.47-22.47,12.14-37.9-1.33-4.75-2.02-5.81-3.75-5.81-1.58,0-2.61,1.19-4.04,4.69-2.35,5.71-13.07,16.79-20.07,20.75-2.75,1.55-6.37,4.12-8.05,5.69-4.04,3.81-16.76,6.66-33.45,7.51-19,.96-41.49-2.53-45.5-7.08-1.1-1.25-4.48-3.57-7.5-5.16-7.25-3.82-21.3-17.73-22.95-22.73-1.65-4.99-4.99-4.82-6.75.33-1.68,4.92-1.58,16.72.18,22.57,1.97,6.55,8.04,14.35,13.56,17.41,8.4,4.66,20.61,2.47,23.41-4.2l1.3-3.1,3.06,4.22c1.68,2.32,3.34,5.5,3.68,7.07.66,3.02,1.05,3.12,20.51,5.44,5.56.66,25.78-.2,34.12-1.46ZM294.14,728.94c-1.86-2.15-6.47-7.44-10.24-11.75-20.05-22.89-34.46-50.55-41.31-79.34-2.02-8.47-2.6-14.08-3.04-29-.77-26.19,1.81-41.59,10.78-64.56,6.05-15.49,6.42-15.56,6.48-1.2.08,16.66,3.04,29.85,9.7,43.26,3.78,7.61,9.78,15.88,10.74,14.82.41-.45,1.54-4.19,2.51-8.32,2.92-12.36,10.86-35.65,16.87-49.5,9.28-21.37,21.06-41.2,33.95-57.13,6.6-8.16,25.08-26.45,28.66-28.37,1.77-.95,1.66-.46-.9,3.7-10.02,16.35-17.82,50.41-21.13,92.3-1.66,21.01-1.39,61.07.48,70.06,2.21,10.62,6.73,19.15,14.03,26.45,6.89,6.89,14.02,10.75,22.87,12.38,11.56,2.13,35.05-2.07,51.55-9.22,8.03-3.48,19.11-10.1,19.09-11.4,0-.42-3.04-1.99-6.75-3.49-13.15-5.33-29.33-16.34-32.37-22.02-.86-1.61-.77-2.23.44-2.91.85-.47,2.06-2.43,2.69-4.35,3.39-10.26-8.39-19.62-26.61-21.16-10.81-.91-10.98-1.13-8.89-11.39,2.83-13.87,7.35-27.85,12.27-37.94,3.79-7.77,6.1-10.96,12.68-17.54,16.11-16.1,30.5-19.84,76.54-19.88,36.14-.03,48.96,1.77,63.7,8.97,18.41,8.99,29.13,25.73,37.38,58.38,4.68,18.53,4.71,18.46-6.36,19.4-9.08.77-15.84,2.79-20.75,6.19-6.96,4.82-9.1,13.45-4.48,18.07l2.5,2.5-2.23,3.01c-4.36,5.9-17.75,14.8-30.77,20.45-3.58,1.55-6.68,2.96-6.91,3.13-1.99,1.49,13.68,10.43,25.91,14.79,15.19,5.41,33.6,8.14,43.78,6.49,16.78-2.73,31.77-17.21,36.77-35.54,1.14-4.19,1.78-12.2,2.16-27.42,1.43-56.27-8.42-117.34-22.32-138.34-1.4-2.12-2.36-4.03-2.13-4.26.71-.71,14.94,11.91,21.59,19.17,24.62,26.84,44.25,63.92,56.59,106.9,2.5,8.73,4.55,16.47,4.55,17.2,0,4.13,5.9-3.51,11.86-15.37,5.95-11.83,8.31-22.14,9.01-39.3l.63-15.5,3.34,7.46c4.72,10.55,8.68,22.85,11.28,35.04,3.05,14.32,3.31,43.55.52,58.5-6.24,33.46-23.75,66.39-50.24,94.46-3.65,3.87-6.24,7.04-5.75,7.04s6.95-3.31,14.37-7.36c73.05-39.87,116.32-86.4,124.31-133.66l1.26-7.48,3.7,5c5.58,7.55,13.28,23.06,17.12,34.48l3.42,10.2,4.93-7.34c25.3-37.64,43.22-88.59,49.37-140.34,1.91-16.05,1.65-52.9-.49-69.73-4.21-33.18-10.94-57.67-24.36-88.67-.78-1.8,2.14-1.1,14,3.35,10.47,3.93,10.39,4.93,1.08-13.7-13.23-26.46-25.6-45-39.69-59.5-4.61-4.74-7.36-8.25-6.45-8.25,3.3,0,17.85,3.13,23.35,5.02,3.17,1.09,5.97,1.77,6.23,1.52.63-.63-5.87-14.22-11.51-24.04-13.41-23.38-29.6-44.78-47.54-62.84-15.12-15.22-15.73-16.42-11.46-22.76,1.44-2.15,4.78-4.67,9.06-6.85,5.98-3.05,7.88-3.5,16.12-3.87,8.47-.37,9.85-.17,14.69,2.17,2.94,1.42,6.37,3.34,7.62,4.26,2.25,1.65,2.27,1.64,1.29-.93-4.72-12.41-13.08-19.86-27.07-24.14-7.42-2.27-27.24-3.1-38.36-1.62-4.88.65-9.04,1.01-9.25.8-.88-.88,12.76-10.03,21.11-14.16,12.32-6.09,19.75-7.91,32.5-7.94,18.13-.04,31.26,5.51,44.52,18.83,13.03,13.09,20.44,30.23,20.51,47.47.03,8.7.83,8.06,3.59-2.91,2.83-11.26,2.61-32.74-.45-43.43-7.89-27.63-29.06-49.61-57.17-59.35-12.74-4.41-20.99-5.71-36-5.65-30.11.11-59.79,11.47-87.61,33.53-3.36,2.67-6.29,4.67-6.5,4.46-.83-.82-25.04-5.54-38.39-7.49-28.99-4.23-64.03-4.72-83.06-1.16-2.44.46-4.44.45-4.44-.01s3.38-3.66,7.52-7.11c4.14-3.45,7.11-6.41,6.61-6.58-.5-.17-5.19.39-10.43,1.23-25.48,4.1-47.35,15.44-60.19,31.19-2.52,3.1-4.44,5.77-4.27,5.95s5.03-.16,10.78-.75c5.92-.6,18.93-.83,29.97-.53,29.87.83,50.82,5.17,70.5,14.61,9.32,4.47,23.26,13.67,22.25,14.68-.25.25-4.23-.44-8.85-1.51-32.32-7.55-70.06-4.14-95.23,8.59l-5.83,2.95,7.65,1.19c8.56,1.33,21.26,5.32,25.25,7.94l2.63,1.72-7.43,1.24c-8.73,1.45-22.62,5.62-25.32,7.6-1.68,1.23-.81,1.46,7.68,2.06,5.27.37,13.92,1.78,19.23,3.12,9.25,2.35,23.43,8.89,24.19,11.15.24.71-3.36,1.27-10.43,1.63-23.95,1.22-51.13,10.53-74.29,25.46-4.67,3.01-9.9,6.81-11.61,8.44l-3.11,2.96-7.1-5.34c-25.03-18.83-60.19-31.75-86.43-31.77-3.93,0-6.75-.43-6.75-1.03,0-1.81,9.06-6.83,17.26-9.56,8.42-2.8,22.86-5.34,31.24-5.49l5-.09-6.29-3.02c-3.51-1.69-11.18-4.01-17.39-5.26-10.82-2.18-11.04-2.28-8.76-3.88,3.21-2.25,13.25-5.49,23.71-7.66l8.72-1.81-7.93-3.66c-17.9-8.26-32.79-11.07-58.07-10.97-16.45.07-20.67.43-31.47,2.7-6.86,1.44-12.59,2.49-12.75,2.33-.79-.79,13.35-10.17,21.22-14.07,23.48-11.64,50.57-16.33,88-15.22,11,.33,21.01.89,22.25,1.25,3.91,1.14,2.55-1.29-5.37-9.57-14.07-14.73-31.32-23.22-55.76-27.46-12.98-2.25-13.65-2.14-9.01,1.54,5.15,4.08,12.58,11.06,12.19,11.45-.17.17-2.56-.11-5.31-.63-24.44-4.57-67.65-2.56-103.5,4.81-19.7,4.05-17.93,4.16-25.15-1.46-20.84-16.2-44.77-27.43-66.85-31.36-10.97-1.95-31.69-1.73-41.98.46-28.93,6.14-52.54,23.68-64.78,48.14-9.08,18.13-11.02,39.9-5.48,61.41l1.7,6.59.77-8.5c1.98-21.72,12.55-41.32,28.39-52.62,25.23-18.01,55.66-15.84,85.85,6.12,3.02,2.2,5.06,4.15,4.53,4.33-.53.18-4.1-.16-7.93-.75-3.82-.59-11.5-1.08-17.06-1.08-23.44,0-39.56,7.16-46.83,20.81-4.09,7.67-4.02,8.93.31,5.63,5.15-3.93,10.07-5.34,18.78-5.39,15.41-.09,29.06,7.94,29.06,17.09,0,2.47-1.97,4.91-11.6,14.42-13.73,13.54-25.79,28.26-37.24,45.45-13.55,20.36-26.56,45.01-23.04,43.65,3.74-1.44,20.49-5.55,25.04-6.15l5-.66-6.12,6.33c-14.34,14.82-27.4,34.24-40.48,60.19-4.95,9.83-8.85,18.01-8.67,18.2.18.18,4.14-1.18,8.8-3.02s9.96-3.66,11.78-4.04l3.31-.69-2.44,4.84c-10.22,20.3-20.73,61.95-23.67,93.84-1.3,14.11-1.3,41.89,0,56,4.7,50.94,23.38,105.56,49.52,144.79l5.19,7.79,3.72-10.79c4.21-12.2,11.04-26.02,16.18-32.75,4.01-5.26,5.37-5.68,5.37-1.66,0,1.58,1.12,7.32,2.49,12.75,3.15,12.48,12.14,30.69,21.17,42.88,7.79,10.52,30.15,33.15,42.34,42.85,9.33,7.43,29.98,21.6,42.5,29.15,7.32,4.42,29.48,16.44,30.38,16.48.21,0-1.14-1.74-3-3.9h0ZM198.42,592.93c-10.49-17.72-19.5-41.94-22.68-60.95-1.17-6.99-1.57-14.08-1.32-23.56.19-7.46.21-13.56.05-13.56-1.63,0-7.74,4.33-12.43,8.8-3.18,3.04-5.97,5.34-6.18,5.11-.63-.65-6.33-20.66-8.55-30.02-6.13-25.81-8.39-57.85-5.67-80.39,2.63-21.83,8.78-42.22,17.18-57,7.24-12.73,6.96-13.11,7.03,9.75.16,52.39,13.34,93.02,40.71,125.52,3.83,4.55,7.31,8.48,7.73,8.74.42.26,3.24-.62,6.26-1.95,6.66-2.94,18.79-5.56,25.79-5.56h5.15l-5.47,5.91c-14.18,15.31-26.66,40.96-33.62,69.09-2.82,11.39-5.84,29.52-6.7,40.25-.39,4.81-.99,8.75-1.35,8.75s-3.02-4.02-5.93-8.92h0ZM746.93,601.18c-.37-.37-.67-2.5-.67-4.75,0-6.78-3.79-30.32-6.92-43.08-7.21-29.41-19.42-54.58-33.82-69.67l-5.56-5.83h5.06c7.44,0,19.63,2.58,26,5.49l5.57,2.55,2.44-2.27c4.61-4.28,15.35-18.27,20.35-26.51,12.53-20.65,21.1-46.41,25.03-75.26.71-5.23,1.31-18.86,1.32-30.31l.03-20.81,2.26,2.81c3.52,4.38,10.73,18.93,14.04,28.36,12.95,36.89,12.1,85.56-2.35,134.67-1.9,6.45-3.45,11.89-3.45,12.07s-2.59-1.89-5.75-4.61c-3.16-2.72-7.55-6.06-9.75-7.42l-4-2.48-.03,18.6c-.03,16.83-.29,19.62-2.73,29.33-4.62,18.38-11.96,36.08-21.98,53.02-4.31,7.29-4.12,7.06-5.1,6.08ZM371.01,388.02c-.96-2.72-2.54-5.32-3.5-5.76-.96-.44-7.6-.83-14.75-.86-11.5-.05-13.61-.33-18.29-2.44-9.39-4.24-15.21-13.04-15.21-23,0-4.01-.09-4.13-2.75-3.54-5.35,1.19-13.15,5.55-16.24,9.07-1.72,1.96-3.33,3.37-3.57,3.12-.24-.24.01-2.88.57-5.86,3.88-20.81,24.33-36.86,47.01-36.9h6.51s5.33,6.98,5.33,6.98c13.31,17.45,27.01,24.49,37.74,19.4,3.28-1.56,8.17-6.36,10.25-10.07,1.44-2.57,2.38-1.11,2.92,4.56.72,7.45-2.76,13.98-13.92,26.13-10.68,11.63-16.68,18.59-18.84,21.85-1.48,2.22-1.53,2.18-3.25-2.7h0ZM363.76,360.86c1.58-1.64,2.67-3.14,2.44-3.33s-2.07-1.32-4.08-2.53c-2.01-1.21-5.31-4.03-7.33-6.27l-3.68-4.07-2.42,2.27c-3.64,3.42-3.4,10.09.51,14,4.19,4.19,10.52,4.16,14.57-.07h0ZM575.63,387.75c-2.25-2.97-8.81-10.46-14.58-16.66-5.77-6.2-11.72-13.53-13.23-16.3-2.77-5.08-3.59-11.15-2.14-15.71.69-2.16.95-2.02,5.28,2.79,5.65,6.29,8.85,7.98,15.05,7.98,9.22,0,20.73-8.26,31.14-22.36l4.16-5.64h6.86c12.68,0,27.27,6.39,35.98,15.76,5.4,5.81,9.94,15.19,10.78,22.26l.63,5.29-3.95-3.95c-3.86-3.86-10.24-7.45-15.48-8.71-2.54-.61-2.63-.46-3.19,5.01-1.17,11.36-8.23,19.69-19.44,22.95-4.43,1.29-7.78,1.49-15.88.95-13.13-.88-15.57.37-17.31,8.84l-.6,2.9-4.09-5.4ZM602.02,362.85c.15,0,1.16-1.46,2.25-3.25,2.69-4.42,2.54-9-.42-12.43l-2.41-2.8-4.34,4.62c-2.39,2.54-5.81,5.36-7.59,6.27-3.7,1.88-3.84,2.31-1.71,5.36,1.93,2.75,7.01,4.18,10.95,3.08,1.65-.46,3.12-.84,3.26-.84ZM492.75,552.83c20.68-7.5,26.76-8.94,37.64-8.96,9.11-.02,14.91,1.45,19.94,5.03,4.48,3.19,3.5.67-1.81-4.64-13.54-13.54-34.5-15.92-64.36-7.3l-10.61,3.06-7.97-2.52c-22.13-6.99-43.12-7.38-55.62-1.04-4.5,2.28-11.21,7.87-13.78,11.48l-2.17,3.05,5.83-3.29c5.18-2.93,6.87-3.34,15.14-3.7,11.79-.52,22.44,1.85,41.78,9.3,7.7,2.96,15.21,5.42,16.68,5.46,1.47.04,10.16-2.64,19.3-5.95h0Z"/>
    </g>
  </g>
</svg>