<?xml version="1.0" encoding="UTF-8"?>
<svg id="Layer_2" data-name="Layer 2" xmlns="http://www.w3.org/2000/svg" xmlns:xlink="http://www.w3.org/1999/xlink" viewBox="0 0 421.66 500">
  <defs>
    <style>
      .cls-1 {
        fill: #4c68be;
      }

      .cls-2 {
        fill: #a39382;
      }

      .cls-3 {
        fill: none;
      }

      .cls-4 {
        clip-path: url(#clippath-1);
      }

      .cls-5 {
        fill: #d0d0d0;
      }

      .cls-6 {
        fill: #4267d5;
      }

      .cls-7 {
        fill: #36d23f;
      }

      .cls-8 {
        clip-path: url(#clippath);
      }

      .cls-9 {
        fill: #373a36;
      }
    </style>
    <clipPath id="clippath">
      <path class="cls-3" d="M210.96,32.87c-1.22-.2-2.28.35-2.85.85-.57.5-.87.99-1.1,1.51,0,0,0,0,0,0-1.11,2.46-.68,4.62-.7,5.93h0v.02c-.01,1.87-.01,3.72-.06,5.54v11.25c0,1.63-.5,3.67-.93,5.68-1.72.32-3.34.75-4.69,1.44-1.9.97-3.82,2.6-3.82,5.17,0,2.28,1.58,3.86,3.19,4.82.64.38,1.37.67,2.11.95-6.3,4.82-7.57,14.08-2.54,20.44-.41,4.16-.51,8.28-.73,12.23-.96,16.82-1.66,33.63-2.98,50.33-1.39,17.56-3.21,35.09-5.17,52.62-2.14,19.15-4.69,38.28-7.04,57.47h0s0,0,0,0c-.11.91-.3,1.06-.2.96.11-.1.11.05-.82.02-2.52-.1-5.06.41-6.39,2.67-.67,1.13-.77,2.51-.51,3.68.26,1.16.82,2.2,1.57,3.22,2.13,2.91,2.04,5.09.95,8.64-5.61,18.22-11.07,36.47-16.72,54.63h0c-.88,2.84-1.82,5.69-2.69,6.22h0s0,0,0,0c-.76.46-1.92.61-3.6.64-1.65.03-3.71-.07-5.93.76-.8.27-1.54.7-2.14,1.31l-.06.06-.06.07c-.65.75-.91,1.72-.92,2.45s.14,1.3.31,1.78c.33.96.78,1.64,1.01,2.02v.02s.02.02.02.02c.33.52.44.79.56,1.05-.23.16-.58.41-1.29.74-.93.44-1.55.99-2.14,1.67-.59.68-1.38,1.35-1.24,3.2.09,1.27.54,2.08,1.09,2.88.56.8,1.16,1.62,2.63,2.07h.01s.01,0,.01,0c1.19.35,1.08.48,1.15.69.07.21.07,1.02-.24,2.16,0,0,0,0,0,0-.41,1.46-1.02,2.85-1.82,4.13-10.44,16.62-20.89,33.23-31.35,49.84l-11.44,18.02-5.67,9.03c-1.57,2.5-3.69,5.1-5.22,8.4-.47.82-.65,1.76-.51,2.69l.03.16.04.16c.26.93.92,1.62,1.48,2,.57.38,1.08.55,1.56.67.96.25,1.85.29,2.72.3,1.74.02,3.71-.15,3.7-.15l9.16.04h0c5.99,0,12,0,18.01-.06,1.68,0,2.54-.72,3.34-1.39s1.48-1.41,1.94-2.59h0c.36-.93.58-1.08.87-1.23.29-.15.92-.3,2.03-.27,6.19.16,12.33.06,18.33.06h2.57l.17-2.57c2.11-32.6,26.95-51.81,51.69-52.69,11.55-.41,22.12,2.46,31.65,8.94,15.42,10.49,22.93,25.08,24.1,43.76l.16,2.57h2.58c5.94,0,11.35-.13,16.67.08.21,0,.79.14,1.23.35.44.21.72.54.61.38v-.02c2.29,3.72,6.22,5.06,9.87,5,0,0,0,0,0,0,9.45,0,18.95-.14,28.4-.43l.09.47.93-.6c.64-.04,1.28-.1,1.85-.41l.15-.08.14-.1c.75-.54,1.26-1.34,1.46-2.24.1-.41.17-.82.15-1.24l-.26-4.73-1.43.93c-6.71-12.07-14.56-23.38-21.89-34.78h0c-10.6-16.52-21.2-33.04-31.8-49.56h0c-1.43-2.22-1.74-3.16-1.73-3.41.01-.25.38-1.15,2.09-3.25h0s0,0,0,0c.7-.87,1.54-1.88,1.78-3.59.12-.86-.02-1.99-.62-2.92-.6-.92-1.51-1.51-2.43-1.86h0s0,0,0,0c-1.58-.59-1.49-.83-1.48-.83,0,0,.07-.79.83-2.13h0c.87-1.53,1.5-3.51.39-5.4-1.1-1.89-3.15-2.33-4.98-2.32-2.3,0-4.19.24-5.49-.02-.1-.02-.61-.22-.94-.44-.32-.22-.4-.53-.26-.1h0c-6.67-20.34-13.21-40.72-19.61-61.14h0c-1-3.18-.83-5.9,1.16-8.85h0c.65-.97,1.15-1.92,1.41-3,.26-1.08.21-2.41-.44-3.53-.65-1.12-1.72-1.8-2.75-2.16s-2.09-.47-3.25-.48h-.02c-1.07,0-1.08-.15-1.06-.13s-.22-.34-.35-1.45h0c-3.58-32.07-7.86-64.01-10.67-96.02-1.16-13.24-1.9-26.57-2.51-39.86-.45-9.8-.84-19.6-1.29-29.43v-.02c-.08-2.11-.08-4.3-.16-6.52,5.46-6.63,3.8-16.45-2.95-21.12.34-.16.73-.27,1.04-.45,1.66-.96,3.32-2.54,3.32-4.89,0-2.65-2-4.28-3.98-5.26-1.4-.69-3.09-1.11-4.88-1.41-.37-1.95-.8-3.94-.78-5.55.06-6.1.28-12.35.27-18.6.04-1.02,0-2.05-.12-3.07v-.02s0-.02,0-.02c-.05-.4-.13-.9-.45-1.55-.33-.66-1.17-1.66-2.45-1.89h-.02s-.01,0-.01,0Z"/>
    </clipPath>
    <clipPath id="clippath-1">
      <path class="cls-3" d="M326.95,463.88c-.08-.41-.23-.81-.46-1.17-6.78-12.47-15-24.15-22.68-36.09-10.6-16.52-21.2-33.04-31.8-49.56-2.94-4.57-3.02-5.51.54-9.88,1.15-1.42,2.09-3.24-.1-4.07-4.02-1.51-3.84-3.77-2.08-6.88,1.28-2.26.55-3.63-2.18-3.62-2.01,0-4.09.32-6.04-.07-1.23-.25-2.92-1.31-3.27-2.38-6.67-20.35-13.21-40.74-19.63-61.17-1.19-3.79-.94-7.59,1.51-11.21,2.13-3.17,1.11-4.86-2.77-4.88-2.95,0-3.83-1.31-4.13-4.02-3.58-32.03-7.86-63.99-10.68-96.09-1.17-13.3-1.91-26.66-2.52-39.98-.45-9.82-.84-19.62-1.29-29.44-.09-2.2-.09-4.41-.16-6.59-.01-.28-.04-.56-.09-.84,4.64-4.57,4.69-12.04.11-16.68-1.42-1.44-3.2-2.5-5.15-3.05-.13-.62-.26-1.24-.39-1.86,4.02-.61,6.92-2.21,6.92-4.08,0-2.13-3.69-3.89-8.55-4.28-.53-2.62-1.12-5.38-1.1-7.97.06-6.17.29-12.44.28-18.65.03-.9,0-1.8-.1-2.7-.06-.45-.22-1.01-.65-1.08-.44-.07-.82.36-1.01.78-.69,1.54-.43,3.21-.45,4.84-.01,1.86-.01,3.73-.06,5.59v11.18c0,2.66-.74,5.4-1.28,8.05-4.67.45-8.15,2.17-8.15,4.24,0,1.83,2.74,3.4,6.61,4.02l-.45,2.44v.22c-5.84,2.85-8.27,9.9-5.41,15.74.53,1.09,1.23,2.09,2.07,2.97-.5,4.36-.54,8.8-.78,13.19-.96,16.8-1.66,33.62-2.98,50.39-1.39,17.61-3.21,35.16-5.18,52.71-2.15,19.19-4.7,38.33-7.04,57.5-.29,2.39-1.2,3.48-3.84,3.39-4.08-.16-5.39,1.96-3.02,5.21,2.64,3.61,2.58,7.11,1.36,11.07-5.6,18.21-11.07,36.46-16.73,54.64-.78,2.52-1.45,6.27-3.9,7.75-2.97,1.8-6.93.41-10.06,1.63-.41.13-.77.36-1.08.66-.68.78.22,2.26.68,3.02,1.96,3.12,1.62,4.09-1.89,5.74-.81.38-1.87,1.51-1.82,2.19.06.9.97,2.26,1.79,2.52,3.52,1.04,3.52,3.52,2.78,6.21-.48,1.71-1.2,3.35-2.14,4.85-10.44,16.62-20.9,33.24-31.36,49.85l-11.44,18.02-5.67,9.02c-1.73,2.76-3.83,5.32-5.17,8.29-.16.27-.22.6-.17.91.43,1.51,5.72.83,6.84.83l9.16.04c6,0,12.01,0,18.01-.06.94,0,2.34-1.25,2.72-2.23,1.04-2.72,2.86-3.33,5.53-3.26,6.11.16,12.22.06,18.26.06,2.2-33.93,28.23-54.33,54.33-55.26,12.07-.43,23.29,2.61,33.29,9.42,16.07,10.94,24.09,26.52,25.29,45.86,5.9,0,11.34-.13,16.78.09,1.41.06,3.37.91,4.05,2.01,1.83,2.96,4.33,3.75,7.5,3.7,9.68,0,19.43-.13,29.1-.44.32.02.63-.05.92-.2.21-.15.35-.37.4-.62.05-.16.07-.32.06-.48h0ZM205.75,251.55c.47-4.18.92-8.37,1.59-12.52.38-2.34,1.14-12.07,1.66-14.59.18-.8.54-1.76,1.35-1.85.81-.09,1.36.73,1.67,1.46.95,2.29.95,4.91,1.2,7.34.28,2.78.56,5.53.78,8.34.16,1.96,1.01,10.6,1.06,11.41.37,6.08.67,12.16,1.01,18.93,0,.26-10.39-.09-11.45-.22-.3,0-.58-.11-.8-.31-.15-.22-.22-.48-.19-.74-.01-5.72,1.48-11.58,2.13-17.26h0ZM228.78,351.75c-.24.65-.86,1.03-2.23.97-3.37-.16-6.72-.22-10.1-.2-7.86.04-15.73.06-23.59-.06-4.23-.06-4.27-.44-3.35-4.72,3.15-14.68,6.32-29.35,9.3-44.06.58-2.86,1.79-4.05,4.67-3.97,4.5.13,9,0,13.5.13,2.2.06,3.4,1.01,3.82,3.57,1.4,8.52,2.84,17.02,4.34,25.52.75,4.3,1.5,8.61,2.26,12.91l1.17,6.67c.22,1.23.51,2.43.22,3.22v.02Z"/>
    </clipPath>
  </defs>
  <g id="svg3739">
    <path id="path5259" class="cls-9" d="M5.08,0l-.27,3.69-.89,12.31-.27,3.69c-11.66,160.99,5.09,268.93,42.24,343.32,37.18,74.44,95.41,113.5,159.3,135.08h0l5.62,1.9,5.62-1.9c63.89-21.58,122.12-60.64,159.3-135.08,37.16-74.39,53.9-182.33,42.25-343.33l-.03-.42h0S416.56,0,416.56,0l-19.44,3.71c-86.16,16.43-142.1,11.07-181.67.3l-4.62-1.26-4.61,1.26c-39.57,10.77-95.51,16.14-181.68-.3L5.08,0Z"/>
    <path id="path5250" class="cls-5" d="M8.1,3.7l-.89,12.31-.27,3.69c-11.63,160.66,5.14,268.01,41.91,341.61,36.77,73.63,94.08,112.04,157.41,133.43l4.57,1.54,4.57-1.54c63.33-21.39,120.63-59.8,157.41-133.43,36.76-73.61,53.54-180.96,41.91-341.62h0s-1.16-16-1.16-16l-15.75,3h0c-86.58,16.52-143.13,11.16-183.21.25h0s-3.75-1.03-3.75-1.03l-3.75,1.02c-40.08,10.91-96.63,16.27-183.22-.25h0s-15.76-3-15.76-3Z"/>
    <path id="path5226" class="cls-9" d="M18.17,16.05l-.27,3.69c-11.55,159.54,5.33,264.95,40.78,335.92,35.44,70.97,89.58,107.16,151.09,127.93l1.05.36,1.05-.36c61.52-20.77,115.65-56.97,151.09-127.93,35.44-70.97,52.33-176.37,40.78-335.92l-.27-3.69-3.64.69c-87.89,16.77-146.42,11.42-188.16.06l-.87-.24-.86.24c-41.74,11.36-100.27,16.71-188.16-.06l-3.64-.69Z"/>
    <path id="path5212" class="cls-1" d="M21.19,19.76C-1.87,338.17,88.87,439.06,210.83,480.24c121.96-41.19,212.69-142.07,189.64-460.49-88.28,16.84-147.4,11.5-189.64,0-42.24,11.5-101.36,16.84-189.64,0Z"/>
    <g class="cls-8">
      <path id="path5650" class="cls-9" d="M21.19,20.34C-1.87,338.76,88.87,439.64,210.83,480.83c121.96-41.19,212.69-142.07,189.64-460.49-88.28,16.84-147.4,11.5-189.64,0-42.24,11.5-101.36,16.84-189.64,0Z"/>
    </g>
    <g class="cls-4">
      <path id="path5644" class="cls-2" d="M21.19,20.34C-1.87,338.76,88.87,439.64,210.83,480.83c121.96-41.19,212.69-142.07,189.64-460.49-88.28,16.84-147.4,11.5-189.64,0-42.24,11.5-101.36,16.84-189.64,0Z"/>
    </g>
    <path id="path5588" class="cls-6" d="M210.67,233.73c.21,2.08.42,4.15.59,6.23h0c.09,1.05.33,3.67.57,6.18.24,2.51.48,5.11.48,5.19.31,5.16.57,10.49.85,16.08-.76,0-1.48-.01-2.36-.04-1.35-.03-2.74-.08-3.84-.13-.24,0-.22-.01-.44-.02.18-3.94.88-8.15,1.53-12.49l.11.02.33-2.89c.47-4.18.92-8.33,1.57-12.39.18-1.14.4-3.48.62-5.74h0Z"/>
    <path id="path5584" class="cls-6" d="M203.39,302.46h0c4.6.13,9.11,0,13.5.13h0c.72.02.8.13.81.14.01.02.22.21.37,1.13,1.4,8.53,2.85,17.04,4.35,25.55.75,4.3,1.5,8.61,2.26,12.91l1.17,6.67h0c.13.72.15.63.18.97-3.21-.14-6.4-.21-9.61-.19h0c-7.86.04-15.7.06-23.53-.06h0c-.49,0-.62-.03-.95-.05.07-.41.11-.7.25-1.34,3.15-14.68,6.32-29.36,9.3-44.09.23-1.14.51-1.5.59-1.57.08-.07.25-.23,1.3-.2h0Z"/>
    <path id="path5582" class="cls-7" d="M148.66,364.04h.03c.32.11.13.02.13.03,0,.06,0,.01,0,.06-.06-.02-.09-.07-.15-.08h0Z"/>
    <path id="path5580" class="cls-7" d="M271.47,365.09s.01,0,.02.01h-.01s0-.01,0,0h0Z"/>
    <path id="path5544" class="cls-7" d="M328.82,460.67l.08.15s-.05-.08-.07-.13c0,0,0-.02-.01-.02h0Z"/>
    <path id="path5777" class="cls-9" d="M123.05,56.96c-.13,0-.26,0-.4,0-.3.01-.61.03-.93.05-2.94.21-6.03,1.6-9.24,3.68-1.33.87-2.51,1.5-3.29,3.03-.78,1.53-.65,2.79-.65,4.54,0,2.77.75,5.27,2.49,6.96.42.4,1.03,1.04,2.08,1.34,1.05.29,1.67.14,2.41.07,1.1-.11,2.22-.31,3.26-.67,1.68-.58,2.91-1.6,3.99-2.72.54-.56,1.01-1.13,1.41-1.83.13-.23.27-.49.4-.78.23-.13.51-.27.71-.42.83.64,1.93,1.57,2.51,2.28.95,1.16,1.72,2.66,3.02,6.35.25.71.51,1.37.76,1.99-4.8,2.11-8.75,5.47-10.65,9.62h0s-.07.15-.07.15l-1.02.29c-3.07.86-5.91,2.17-8.13,3.84-1,.75-1.87,1.66-2.61,2.61-.43.55-.81,1.09-1.13,1.69-1.66-.05-2.01-.33-2.38-1.08,0,0-.2-.67-.24-1.22,0-.14.02-.23.04-.36.41-.15,1.06-.32,1.81-.38.7-.06,1.32-.12,2.01-.31.69-.19,1.61-.59,2.26-1.47s.78-1.89.75-2.62c-.02-.73-.15-1.33-.31-2-.04-.19-.05-.18-.05-.18.09-.17.18-.32.3-.65.14-.39.31-1.15.13-1.9-.22-.9-.53-1.31-.84-1.59.12-.65.15-1.38.09-2.01.27-.31.53-.64.76-1.11.32-.65.52-1.65.28-2.56-.48-1.81-1.65-2.36-2.65-2.94-1.15-.67-1.3-.77-1.69-1,.08-.5.14-.99.12-1.53-.03-.94-.35-1.76-.63-2.44-1-2.38-2.49-4.64-4.25-6.3-2.94-2.78-7.1-3.69-11.17-3.41s-8.2,1.76-11.2,4.7c-1.81,1.77-3.29,3.8-4.05,5.95-.51,1.43-.52,2.75-.49,4.36.03,1.6.2,3.35.52,4.98.66,3.31,1.9,5.88,5.07,10.75l1.91,2.94.06,1.3c.12,2.88-.64,4.89-2.06,6.31-1.17,1.17-1.77,1.45-3.98,1.61-4.5.34-9.13,1.88-12.17,4.48-.13.11-.14.12-.17.15-.03,0-.25.02-.88.02-2.41,0-4.69.4-6.71,1.2.64-2.38,1.78-4.85,2.97-6.32.04-.05.02-.03.06-.07.54.04,1.18.07,1.84.09.37,0,.57.03.81.04.47.64,1.05,1.27,1.9,1.67,1.11.51,2.22.5,3.18.38,1.18-.14,2.44-.44,3.46-1.53-.15.16.45-.32.5-.35h0c.79-.41,1.97-1.43,2.39-2.6s.4-2.13.43-3.53c.02-1.13.07-1.74-.08-2.61-.12-.67-.63-1.43-1.05-1.94-.11-.72-.33-1.3-.62-1.83-.39-.71-.74-1.38-1.91-2.01-.69-.37-.85-.31-1.06-.34-.22-.03-.4-.05-.59-.07-.39-.03-.82-.05-1.32-.05-.99-.02-2.22,0-3.48.03-1.26.03-2.56.09-3.67.16-1.11.07-1.92.12-2.76.3-2.59.56-4.6,1.91-6.15,4.03-1.76,2.4-4.29,5.97-6.53,9.16-2.23,3.19-4.04,5.8-4.73,6.94-2.37,3.94-3.97,8.21-4.82,12.82-.39,2.12-.28,3.97.4,5.47.97,2.13,3.03,3.41,5.34,4.06,1.43.4,3.32.59,5.93.88,2.61.29,5.57.56,7.86.69,5.68.32,10.39-.84,15.1-3.69,1.13,2.41,2.81,4.7,4.91,6.66,1.56,1.46,1.54,1.46,3.14,4.43,2.41,4.49,5.2,9.25,6.77,11.33.52.69.38.42.4.6.02.18-.03,1.16-.29,3.11h0c-.74,5.56-2.26,10.79-4.91,16.8-1.99,4.52-2.61,6.9-2.61,10.21,0,4.24,1.35,8.51,3.8,12.31.89,1.37.79,1.17,1.47,4.31,1.01,4.68,2.16,9.25,3.24,13.03,1.08,3.77,1.99,6.59,2.99,8.44.22.4.32.48.36.48-.03.02-.12.15-.19.75-.13,1.06-.27,2.86-.34,4.29h0s-.04.9-.04.9c-2.08,1.11-4.01,2.99-6.08,5.41-2.07,2.42-4.19,5.39-6.12,8.61-2.2,3.68-5.16,9.38-6.82,13.1-1.07,2.42-1.68,3.76-2.05,4.48-.37.73-.39.73-.71,1.09-.47.54-2.72,2.16-4.11,2.75-1.68.71-3.03,1.45-4.13,2.55s-1.78,2.74-1.78,4.25c0,.69.1.95.2,1.34.1.4.23.83.39,1.31.32.97.75,2.17,1.27,3.5,1.01,2.57,1.66,5,1.66,5,.65,5.64,3.36,10.58,7.83,12.81.83.41,1.47.75,2.51.87.52.06,1.24.05,2-.33.09-.05.15-.14.24-.19.89.1,1.66.09,2.68-.21.28-.08,1.12-.27,1.43-.32,1.27-.2,1.99-.47,3.01-1.5-.11.11.55-.35.52-.33.47-.2,1.13-.44,1.76-1.24.63-.8.75-1.8.75-2.33,0-.77-.38-2.32-1.43-3.11-1.05-.8-1.85-.82-2.69-.95-.68-.1-1.58-.32-2.27-.55-.03-.01-.04-.02-.08-.03.03-.4.04-.61.14-1.54.22-1.93.37-4.9.38-6.96v-2.7s1.57-2.61,1.57-2.61c3.59-5.96,7.4-10.57,11.53-14.04,1.56-1.31,3.36-2.95,4.35-4,2.4-2.56,8.9-8.59,10.2-9.58,3.36-2.55,5.44-5.01,7.27-8.62.86-1.7,1.53-3.11,1.8-5.26.27-2.15.29-4.97.36-10.69l.04-3.31c1.33,1.82,2.59,4.01,4.45,7.71,1.52,3.04,2.99,5.9,3.67,7.03l.13.21-.46,1.18c-2.36,6.04-3.55,11.37-3.55,16.37,0,2.86-.66,8.8-1.88,16.11-.98,5.87-1.62,8.36-2.88,11.37-.9,2.15-1.5,3.86-1.77,5.47-.28,1.61-.17,3.22.41,4.6.69,1.62,2.37,3,4.15,3.43,1.78.43,3.66.31,6.07-.02,1.54-.21,3.61-.37,3.62-.37,1.08,0,2.95.47,5.06,1.5,1.4.68,2.74,1.27,4.18,1.54,2.42.45,5.14.34,7.5-.04,1.18-.19,2.25-.43,3.23-.84.49-.2.97-.43,1.5-.87.53-.45,1.26-1.31,1.26-2.58,0-1.86-1.01-2.63-1.82-3.21-.81-.58-1.72-.99-2.96-.99.65,0,0-.02-.53-.38-1.66-1.09-3.53-1.78-5.58-2.1-.16-.02,0,.05-.27-.13-.28-.17-.87-.63-1.82-1.43-1.82-1.53-3.31-2.62-5.01-3.73-.05-.24-.1-.49-.14-.9-.1-1.09-.11-2.58.03-3.85.34-3.11.51-3.72,2.48-9.15,3.75-10.33,6.21-17.95,6.82-21.85.13-.85.43-1.75,1.14-3.17,2.04-4.08,3.21-7.97,2.8-11.43-.09-.77-.23-1.06-.43-1.7-.2-.64-.48-1.44-.82-2.4-.68-1.91-1.63-4.45-2.79-7.43-1.02-2.62-2-5.24-2.77-7.32-.77-2.09-1.36-3.84-1.4-4.01-1.99-7.38-6.31-15.6-11.39-21.73.05.06-.4-.59-.8-1.3-.4-.72-.87-1.59-1.26-2.41-.87-1.82-1.98-4-2.61-5.12l-.37-.64.4-1.1c2.06-5.64,3.41-11.18,4.25-17.32.55-4.04.65-11.72.11-15.4l-.18-1.22,1.01-2.44c.73-1.78,1.52-3.81,1.87-4.89h0c2.09-6.45,2.79-13.15,1.38-18.26,2.61-1.07,5.8-2.94,7.91-4.51,4.61-3.45,8.84-8.51,11.23-13.51.33-.68,1.26-2.07,1.49-2.33,2.63-2.93,4.55-5.93,3.51-9.4-.47-1.58-1.27-2.52-2.29-3.84-1.02-1.32-2.25-2.71-3.5-3.88-2.63-2.47-6.47-5.08-9.91-6.74-3.74-1.81-8.23-4.71-10-6.31-1.38-1.25-3.32-2.07-5.29-2.11h0ZM298.6,56.96c-1.98.04-3.91.87-5.29,2.11-1.76,1.6-6.25,4.5-10,6.31-3.43,1.66-7.28,4.26-9.91,6.74-1.25,1.17-2.48,2.56-3.5,3.88s-1.81,2.27-2.29,3.84c-1.04,3.46.88,6.47,3.51,9.4.24.26,1.17,1.65,1.49,2.33,2.39,4.99,6.62,10.05,11.23,13.51,2.1,1.57,5.3,3.44,7.91,4.51-1.41,5.11-.71,11.81,1.38,18.26.35,1.08,1.14,3.11,1.87,4.89l1.01,2.44-.18,1.22c-.54,3.68-.44,11.35.11,15.4.84,6.15,2.19,11.68,4.25,17.32l.4,1.1-.37.64c-.64,1.12-1.74,3.31-2.61,5.12-.39.82-.85,1.7-1.26,2.41-.4.72-.86,1.36-.8,1.3-5.08,6.13-9.4,14.35-11.39,21.73-.05.18-.64,1.93-1.4,4.01-.77,2.09-1.75,4.7-2.77,7.32-1.15,2.98-2.1,5.51-2.79,7.43-.34.96-.61,1.75-.82,2.4-.2.64-.34.93-.43,1.7-.41,3.46.76,7.35,2.8,11.43.71,1.42,1.01,2.32,1.14,3.17.61,3.9,3.07,11.52,6.82,21.85,1.97,5.43,2.14,6.04,2.48,9.15.14,1.27.13,2.76.03,3.85-.04.41-.09.66-.14.9-1.7,1.1-3.19,2.19-5.01,3.73-.96.81-1.55,1.26-1.82,1.43-.28.17-.12.1-.27.13-2.05.32-3.92,1.01-5.58,2.1-.54.36-1.18.38-.53.38-1.25,0-2.16.42-2.96.99-.81.58-1.82,1.35-1.82,3.21,0,1.27.73,2.14,1.26,2.58.53.45,1.01.67,1.5.87.99.41,2.05.65,3.23.84,2.36.38,5.08.49,7.5.04,1.44-.27,2.78-.86,4.18-1.54,2.11-1.03,3.98-1.49,5.06-1.5,0,0,2.08.16,3.62.37,2.41.33,4.29.45,6.07.02,1.78-.43,3.46-1.81,4.15-3.43.58-1.38.69-2.99.41-4.6-.28-1.61-.87-3.32-1.77-5.47-1.26-3.01-1.9-5.5-2.88-11.37-1.22-7.31-1.88-13.25-1.88-16.11,0-4.99-1.2-10.32-3.55-16.37h0s-.46-1.18-.46-1.18l.13-.21h0c.68-1.13,2.15-3.99,3.67-7.03,1.85-3.7,3.12-5.89,4.45-7.71l.04,3.31c.07,5.72.09,8.55.36,10.69.27,2.15.94,3.56,1.8,5.26,1.84,3.61,3.91,6.07,7.27,8.62,1.3.99,7.8,7.02,10.2,9.58.99,1.05,2.79,2.69,4.35,4,4.13,3.47,7.94,8.08,11.53,14.04l1.57,2.61v2.7s0,0,0,0c0,2.06.16,5.02.38,6.95.1.93.11,1.13.14,1.54-.03.01-.04.02-.08.03-.69.23-1.59.46-2.27.55-.84.12-1.64.15-2.69.95-1.05.8-1.43,2.34-1.43,3.11,0,.53.12,1.53.75,2.33.63.8,1.29,1.05,1.76,1.24-.03-.02.63.45.52.33,1.02,1.02,1.74,1.3,3.01,1.5.32.05,1.15.24,1.43.32,1.02.3,1.79.31,2.68.21.09.06.15.15.24.19.76.38,1.47.39,2,.33,1.04-.12,1.68-.46,2.51-.87,4.47-2.23,7.18-7.17,7.83-12.81,0,0,.65-2.43,1.66-5,.52-1.33.95-2.52,1.27-3.5.16-.49.29-.92.39-1.31.1-.4.2-.65.2-1.34,0-1.51-.69-3.15-1.78-4.25-1.09-1.11-2.45-1.84-4.13-2.55-1.39-.59-3.64-2.21-4.11-2.75-.32-.36-.34-.37-.71-1.09-.37-.73-.98-2.07-2.05-4.48-1.66-3.73-4.62-9.42-6.82-13.1h0c-1.92-3.22-4.04-6.19-6.12-8.61-2.07-2.42-4-4.3-6.08-5.41l-.04-.9c-.07-1.43-.21-3.23-.34-4.29-.08-.6-.16-.73-.19-.75.04,0,.14-.08.36-.48h0c1-1.85,1.9-4.67,2.99-8.44,1.08-3.77,2.23-8.35,3.24-13.03.68-3.14.58-2.94,1.47-4.31,2.46-3.8,3.81-8.07,3.8-12.31,0-3.31-.62-5.69-2.62-10.21-2.65-6.01-4.17-11.24-4.91-16.8h0c-.26-1.95-.31-2.93-.29-3.11.02-.18-.12.09.4-.6,1.56-2.08,4.35-6.84,6.77-11.33,1.6-2.97,1.58-2.97,3.14-4.43,2.1-1.97,3.78-4.25,4.91-6.67,4.7,2.85,9.41,4,15.1,3.69,2.29-.13,5.25-.4,7.86-.69,2.61-.29,4.5-.48,5.93-.88,2.31-.65,4.37-1.93,5.34-4.06.68-1.49.79-3.34.4-5.47-.85-4.61-2.45-8.88-4.82-12.82-.69-1.14-2.5-3.75-4.73-6.94-2.23-3.19-4.77-6.76-6.53-9.16-1.55-2.12-3.56-3.47-6.15-4.03-.85-.18-1.65-.23-2.76-.3-1.11-.07-2.41-.12-3.67-.16-1.26-.03-2.49-.04-3.48-.03-.5.01-.93.02-1.32.05-.2.02-.38.03-.59.07-.22.03-.37-.03-1.06.34-1.17.63-1.52,1.3-1.91,2.01-.29.53-.51,1.11-.62,1.83-.43.51-.93,1.27-1.05,1.94-.15.87-.1,1.49-.08,2.61.03,1.4.01,2.35.43,3.53.42,1.18,1.6,2.2,2.39,2.6.05.03.65.51.5.35,1.01,1.08,2.28,1.39,3.46,1.53.97.11,2.07.13,3.18-.38.85-.39,1.43-1.03,1.9-1.67.23-.02.44-.03.81-.04.66-.01,1.3-.04,1.84-.09.04.04.02.02.06.07,1.19,1.47,2.32,3.94,2.97,6.32-2.01-.8-4.3-1.19-6.71-1.2h0c-.62,0-.85-.03-.88-.02-.03-.03-.04-.03-.17-.15-3.04-2.6-7.67-4.14-12.17-4.48-2.21-.17-2.81-.44-3.98-1.61-1.42-1.42-2.19-3.44-2.06-6.31l.06-1.3,1.91-2.94h0c3.17-4.87,4.41-7.44,5.07-10.75.32-1.63.49-3.38.52-4.98.03-1.6.02-2.92-.49-4.36-.76-2.15-2.24-4.18-4.05-5.95-3-2.93-7.14-4.42-11.2-4.7-4.07-.27-8.23.64-11.17,3.41-1.76,1.66-3.25,3.92-4.25,6.3-.29.68-.6,1.5-.63,2.44-.02.55.04,1.03.12,1.53-.38.24-.53.34-1.69,1-1,.58-2.17,1.13-2.65,2.94-.24.9-.04,1.91.28,2.56.23.47.49.8.76,1.11-.07.63-.03,1.35.09,2.01-.31.28-.62.69-.84,1.59-.18.75-.02,1.51.13,1.9.12.33.21.48.3.65,0,.02,0-.08-.05.17-.16.68-.29,1.28-.31,2-.02.73.1,1.75.75,2.62.65.87,1.57,1.27,2.26,1.47.69.19,1.31.25,2.01.31.75.06,1.4.23,1.81.38.02.13.05.22.04.36-.04.55-.24,1.21-.24,1.22-.38.74-.73,1.03-2.38,1.08-.32-.61-.7-1.14-1.13-1.69-.74-.95-1.61-1.86-2.61-2.61-2.22-1.67-5.06-2.97-8.13-3.84l-1.02-.29-.07-.15h0c-1.9-4.15-5.85-7.51-10.65-9.62.25-.63.51-1.28.76-1.99,1.3-3.69,2.07-5.19,3.02-6.35.58-.71,1.68-1.64,2.51-2.28.2.15.47.3.71.42.13.29.27.56.4.78.39.7.87,1.27,1.41,1.83,1.08,1.12,2.31,2.14,3.99,2.72,1.04.36,2.16.56,3.26.67.74.07,1.36.22,2.41-.07,1.05-.29,1.66-.94,2.08-1.34,1.74-1.68,2.49-4.18,2.49-6.96,0-1.75.13-3.01-.65-4.54-.78-1.53-1.95-2.16-3.29-3.03-3.2-2.08-6.29-3.47-9.24-3.68-.33-.02-.64-.04-.93-.05h0c-.13,0-.26,0-.4,0h0Z"/>
    <path id="path817" class="cls-5" d="M122.74,59.71c-.25,0-.52.02-.82.04-2.11.15-4.99,1.33-7.94,3.24-2.65,1.72-2.68,1.79-2.68,5.27,0,2.41.47,3.84,1.66,4.99.8.77.86.79,2.32.65.82-.08,2.01-.32,2.63-.53,1.89-.65,4.49-3.34,4.13-4.28-.08-.21.16-.42.68-.59.44-.15,1.13-.6,1.54-1.02l.73-.75.79.43c1.19.64,3.08,2.27,4.15,3.58,1.24,1.51,2.15,3.39,3.49,7.18.59,1.69,1.29,3.35,1.54,3.71l.46.64-1.36.51c-4.91,1.82-8.96,5.19-10.62,8.82l-.6,1.31-2.24.63c-2.79.78-5.37,1.99-7.22,3.39-1.47,1.11-3.01,3.09-3.28,4.23-.15.63-.22.65-1.62.65-2.72,0-4.43-.84-5.33-2.61-.58-1.15-.74-3.47-.29-4.3.43-.8,2.09-1.45,4.11-1.63,2.56-.22,2.84-.6,2.28-3.05-.23-.98-.21-1.28.13-1.93.4-.77.4-.77-.36-1.48l-.76-.71.42-.92c.35-.78.37-1.05.13-1.8-.28-.84-.26-.91.47-1.66,1.08-1.12.92-1.72-.71-2.66-3.54-2.04-3.4-1.92-3.23-2.76.41-2.03.4-2.27-.13-3.52-.85-2.01-2.24-4.08-3.61-5.37-4.32-4.09-13.76-3.45-18.57,1.25-1.54,1.5-2.85,3.41-3.38,4.9-.5,1.41-.43,5.02.14,7.89.59,2.99,1.56,5,4.68,9.79l2.32,3.57.09,2.05c.15,3.46-.84,6.35-2.86,8.37-1.55,1.55-3.12,2.22-5.72,2.41-3.91.29-8.32,1.89-10.58,3.83-.92.79-1.05.82-2.83.83-3.97.01-7.35,1.25-9.24,3.39l-1.09,1.24.12-1.19c.07-.65.19-1.86.26-2.68.33-3.59,1.97-7.76,4.06-10.36.82-1.01,1.21-1.34,1.5-1.22.21.09,1.38.18,2.6.21,2.21.04,2.21.04,2.66.79.73,1.2,1.37,1.5,2.85,1.32.88-.1,1.44-.32,1.77-.67.27-.29.83-.7,1.25-.91,1.1-.56,1.28-1.07,1.33-3.75.04-2.22,0-2.42-.49-2.82-.29-.24-.54-.66-.54-.94,0-.72-.63-1.85-1.19-2.15-.58-.31-9.31-.09-11.01.28-1.42.31-3.64,1.76-4.52,2.97-3.47,4.73-10.14,14.27-11.12,15.9-2.2,3.66-3.68,7.59-4.48,11.9-.36,1.98-.33,2.68.2,3.83.54,1.18,1.73,2.03,3.58,2.55,1.45.41,8.78,1.23,13.2,1.47,5.76.32,9.91-.81,14.67-4.01l1.58-1.06.65,1.79c.88,2.42,2.6,4.91,4.83,7,1.64,1.54,2.06,2.12,3.68,5.14,2.37,4.41,5.31,9.33,6.54,10.98,1.13,1.5,1.16,1.79.63,5.72-.78,5.83-2.39,11.35-5.12,17.54-1.95,4.43-2.38,6.05-2.38,9.11,0,3.65,1.17,7.42,3.36,10.82.96,1.49,1.16,2.04,1.84,5.22,1.99,9.24,4.54,18.11,5.96,20.74.63,1.18.66,1.35.47,2.88-.11.9-.26,2.73-.33,4.08l-.12,2.46-1.37.73c-2.95,1.58-7.44,6.82-11.13,13.01-2.11,3.54-5.08,9.25-6.66,12.81-2.15,4.85-2.43,5.38-3.21,6.27-1.01,1.15-3.27,2.68-5.1,3.46-3.02,1.28-4.23,2.51-4.23,4.28,0,.54.66,2.57,1.67,5.15,1.04,2.66,1.73,4.8,1.83,5.69.57,4.93,2.98,9,6.33,10.66,1.44.72,2.08.79,2.28.26.11-.29.36-.33,1.2-.21.59.09,1.45.04,1.93-.1.48-.14,1.28-.32,1.79-.4.51-.08,1.18-.41,1.5-.73.32-.32.95-.74,1.4-.92.67-.28.82-.47.82-1.04,0-.89-.32-1.13-1.77-1.34-1.78-.26-4.05-1.02-4.5-1.51-.37-.41-.37-.68-.04-3.63.2-1.75.36-4.75.36-6.65v-3.46s1.96-3.26,1.96-3.26c3.71-6.16,7.71-11.02,12.12-14.73,1.48-1.24,3.33-2.94,4.11-3.78,2.58-2.75,8.69-8.48,10.54-9.89,3.16-2.4,4.78-4.32,6.49-7.68,1.73-3.41,1.72-3.3,1.87-14.74l.13-10.34,1.93,1.97c2.88,2.93,4.58,5.52,7.62,11.58,1.51,3.01,3.12,6.09,3.57,6.84l.82,1.37-.95,2.44c-2.27,5.83-3.37,10.81-3.37,15.37,0,3.25-.69,9.17-1.92,16.56-.99,5.95-1.71,8.77-3.05,11.98-1.73,4.13-2.09,6.24-1.37,7.95.81,1.9,2.79,2.38,7.32,1.76,1.62-.22,3.42-.4,4.01-.4,1.72.02,3.88.63,6.24,1.78,1.21.59,2.78,1.18,3.48,1.31,3.85.72,10.25-.3,10.25-1.63,0-.66-1.11-1.46-2.03-1.46-.49,0-1.25-.31-2.04-.83-1.34-.88-2.75-1.41-4.49-1.68-.88-.14-1.48-.52-3.45-2.17-2.02-1.71-3.47-2.77-5.43-4-.64-.4-.97-3.91-.65-6.87.35-3.21.65-4.33,2.63-9.79,3.73-10.27,6.19-18.12,6.69-21.34.19-1.2.61-2.4,1.4-3.98,1.88-3.77,2.82-7.41,2.53-9.88-.09-.78-1.57-4.93-3.87-10.85-2.05-5.28-3.96-10.5-4.26-11.61-1.86-6.89-6.06-14.91-10.85-20.7-.49-.59-1.58-2.52-2.42-4.28-.84-1.76-1.98-3.99-2.52-4.95l-.99-1.75.84-2.29c1.99-5.47,3.3-10.78,4.11-16.75.48-3.51.54-11.72.11-14.63l-.29-1.97,1.29-3.14c.71-1.73,1.52-3.84,1.8-4.69,2.2-6.78,2.54-14.14.84-18.2-.37-.88-.37-.88.97-1.3,1.74-.54,6.4-3.09,8.44-4.62,4.2-3.14,8.26-8.02,10.4-12.49.47-.99,1.34-2.33,1.93-2.99,2.32-2.58,3.42-5.13,2.92-6.77-.38-1.28-2.81-4.42-5.03-6.51-2.33-2.19-6.1-4.76-9.22-6.27-3.97-1.92-8.46-4.77-10.64-6.74-1.26-1.14-2-1.46-3.76-1.4h0ZM298.91,59.71c-1.76-.05-2.5.26-3.76,1.4-2.18,1.98-6.67,4.82-10.64,6.74-3.12,1.51-6.89,4.07-9.22,6.27-2.22,2.09-4.65,5.23-5.03,6.51-.49,1.65.6,4.19,2.92,6.77.59.65,1.45,2,1.93,2.99,2.14,4.47,6.19,9.35,10.4,12.49,2.05,1.53,6.7,4.08,8.44,4.62,1.34.42,1.34.41.97,1.3-1.7,4.06-1.36,11.42.84,18.2.28.85,1.08,2.96,1.8,4.69l1.29,3.14-.29,1.97c-.43,2.9-.37,11.12.11,14.63.81,5.97,2.12,11.29,4.11,16.75l.84,2.29-.99,1.75c-.55.96-1.68,3.19-2.52,4.95-.84,1.76-1.93,3.69-2.42,4.28-4.79,5.78-8.99,13.8-10.85,20.7-.3,1.11-2.22,6.34-4.26,11.61-2.3,5.93-3.77,10.07-3.87,10.85-.29,2.46.64,6.11,2.53,9.88.79,1.57,1.21,2.78,1.4,3.98.5,3.22,2.96,11.06,6.69,21.34,1.98,5.46,2.28,6.58,2.63,9.79.32,2.96-.02,6.47-.65,6.87-1.96,1.22-3.41,2.29-5.43,4-1.96,1.66-2.56,2.04-3.45,2.17-1.74.27-3.15.8-4.49,1.68-.79.52-1.55.83-2.04.83-.93,0-2.03.79-2.03,1.46,0,1.33,6.41,2.35,10.25,1.63.7-.13,2.27-.72,3.48-1.31,2.36-1.15,4.53-1.77,6.24-1.78.59,0,2.39.17,4.01.4,4.53.62,6.51.15,7.32-1.76.72-1.7.36-3.82-1.37-7.95-1.34-3.21-2.06-6.03-3.05-11.98-1.23-7.38-1.92-13.31-1.92-16.56,0-4.56-1.09-9.54-3.37-15.37l-.95-2.44.82-1.37c.45-.75,2.06-3.83,3.57-6.84,3.04-6.07,4.75-8.65,7.62-11.58l1.93-1.97.13,10.34c.15,11.45.13,11.33,1.87,14.74,1.71,3.37,3.33,5.28,6.49,7.68,1.85,1.4,7.96,7.14,10.54,9.89.78.83,2.63,2.53,4.11,3.78,4.41,3.7,8.41,8.56,12.12,14.73l1.96,3.26v3.46c0,1.9.17,4.9.36,6.65.33,2.95.33,3.22-.04,3.63-.44.49-2.71,1.26-4.5,1.51-1.45.21-1.77.45-1.77,1.34,0,.57.15.76.82,1.04.45.19,1.08.6,1.4.92.32.32.99.65,1.5.73.51.08,1.31.26,1.79.4.48.14,1.34.19,1.93.1.84-.13,1.09-.08,1.21.21.2.53.84.45,2.28-.26,3.34-1.67,5.76-5.73,6.33-10.66.1-.89.79-3.03,1.83-5.69,1.01-2.58,1.67-4.61,1.67-5.15,0-1.77-1.22-3-4.23-4.28-1.83-.78-4.09-2.31-5.1-3.46-.78-.89-1.06-1.43-3.21-6.27-1.58-3.56-4.55-9.27-6.66-12.81-3.69-6.19-8.18-11.44-11.13-13.01l-1.37-.73-.12-2.46c-.07-1.35-.21-3.19-.33-4.08-.19-1.53-.16-1.7.47-2.88,1.42-2.63,3.97-11.5,5.96-20.74.69-3.18.88-3.73,1.84-5.22,2.2-3.39,3.37-7.17,3.36-10.82,0-3.06-.43-4.68-2.38-9.11-2.73-6.2-4.34-11.71-5.12-17.54-.52-3.93-.49-4.22.63-5.72,1.24-1.65,4.17-6.57,6.54-10.98,1.62-3.02,2.04-3.6,3.68-5.14,2.22-2.08,3.95-4.58,4.83-7l.65-1.79,1.58,1.06c4.76,3.19,8.91,4.33,14.67,4.01,4.42-.25,11.75-1.06,13.2-1.47,1.85-.52,3.05-1.37,3.58-2.55.53-1.16.56-1.86.2-3.83-.79-4.31-2.27-8.24-4.48-11.9-.98-1.63-7.65-11.17-11.12-15.9-.88-1.21-3.1-2.66-4.52-2.97-1.7-.37-10.42-.59-11.01-.28-.56.3-1.19,1.44-1.19,2.15,0,.28-.24.7-.54.94-.5.4-.53.61-.49,2.82.05,2.68.23,3.18,1.33,3.75.42.22.99.63,1.25.92.33.36.9.57,1.77.67,1.48.18,2.12-.12,2.85-1.32.45-.74.46-.74,2.66-.79,1.22-.02,2.39-.12,2.6-.21.28-.12.68.2,1.5,1.22,2.09,2.6,3.72,6.77,4.06,10.36.08.82.19,2.02.26,2.68l.12,1.19-1.09-1.24c-1.89-2.15-5.27-3.39-9.24-3.39-1.78,0-1.91-.04-2.83-.83-2.26-1.94-6.68-3.53-10.58-3.83-2.59-.19-4.17-.86-5.72-2.41-2.03-2.03-3.01-4.91-2.86-8.37l.09-2.05,2.32-3.57c3.12-4.79,4.08-6.8,4.68-9.79.57-2.87.63-6.48.14-7.89-.53-1.49-1.84-3.4-3.38-4.9-4.81-4.7-14.25-5.34-18.57-1.25-1.37,1.3-2.76,3.36-3.61,5.37-.53,1.26-.54,1.5-.13,3.52.17.84.31.72-3.23,2.76-1.63.94-1.79,1.54-.71,2.66.72.75.75.82.47,1.66-.25.74-.23,1.01.13,1.8l.42.92-.76.71c-.76.71-.76.71-.36,1.48.34.65.36.95.13,1.93-.57,2.45-.28,2.83,2.28,3.05,2.02.17,3.68.83,4.11,1.63.45.84.29,3.15-.29,4.3-.89,1.77-2.6,2.6-5.33,2.61-1.4,0-1.47-.03-1.62-.65-.27-1.14-1.81-3.12-3.28-4.23-1.85-1.39-4.43-2.6-7.22-3.39l-2.24-.63-.6-1.31c-1.66-3.63-5.72-6.99-10.62-8.82l-1.36-.51.46-.64c.25-.35.95-2.02,1.54-3.71,1.34-3.79,2.25-5.67,3.49-7.18,1.08-1.31,2.97-2.94,4.16-3.58l.79-.43.73.75c.4.41,1.1.87,1.54,1.02.52.17.76.38.68.59-.36.93,2.24,3.63,4.13,4.28.62.21,1.8.45,2.63.53,1.46.14,1.52.12,2.32-.65,1.18-1.15,1.66-2.57,1.66-4.99,0-3.48-.03-3.55-2.68-5.27-2.95-1.91-5.83-3.09-7.94-3.24-.3-.02-.57-.04-.82-.04h0Z"/>
    <path id="path4654" class="cls-1" d="M210.67,233.73c.21,2.08.42,4.15.59,6.23h0c.09,1.05.33,3.67.57,6.18.24,2.51.48,5.11.48,5.19.31,5.16.57,10.49.85,16.08-.76,0-1.48-.01-2.36-.04-1.35-.03-2.74-.08-3.84-.13-.24,0-.22-.01-.44-.02.18-3.94.88-8.15,1.53-12.49l.11.02.33-2.89c.47-4.18.92-8.33,1.57-12.39.18-1.14.4-3.48.62-5.74h0Z"/>
    <path id="path4656" class="cls-6" d="M203.39,302.46h0c4.6.13,9.11,0,13.5.13h0c.72.02.8.13.81.14.01.02.22.21.37,1.13,1.4,8.53,2.85,17.04,4.35,25.55.75,4.3,1.5,8.61,2.26,12.91l1.17,6.67h0c.13.72.15.63.18.97-3.21-.14-6.4-.21-9.61-.19h0c-7.86.04-15.7.06-23.53-.06h0c-.49,0-.62-.03-.95-.05.07-.41.11-.7.25-1.34,3.15-14.68,6.32-29.36,9.3-44.09.23-1.14.51-1.5.59-1.57.08-.07.25-.23,1.3-.2h0Z"/>
    <path id="path4658" class="cls-7" d="M271.47,365.09s.01,0,.02.01h-.01s0-.01,0,0h0Z"/>
    <path id="path4997" class="cls-1" d="M203.39,302.46h0c4.6.13,9.11,0,13.5.13h0c.72.02.8.13.81.14.01.02.22.21.37,1.13,1.4,8.53,2.85,17.04,4.35,25.55.75,4.3,1.5,8.61,2.26,12.91l1.17,6.67h0c.13.72.15.63.18.97-3.21-.14-6.4-.21-9.61-.19h0c-7.86.04-15.7.06-23.53-.06h0c-.49,0-.62-.03-.95-.05.07-.41.11-.7.25-1.34,3.15-14.68,6.32-29.36,9.3-44.09.23-1.14.51-1.5.59-1.57.08-.07.25-.23,1.3-.2h0Z"/>
  </g>
</svg>