<?xml version="1.0" encoding="UTF-8"?>
<svg id="Layer_2" data-name="Layer 2" xmlns="http://www.w3.org/2000/svg" viewBox="0 0 250 250">
  <defs>
    <style>
      .cls-1 {
        fill: #f9f9f9;
      }
    </style>
  </defs>
  <g id="svg3739">
    <g id="g1705">
      <circle id="path3733-6-6" cx="125" cy="125" r="125"/>
      <circle id="path3735-4" class="cls-1" cx="125" cy="125" r="120.11"/>
      <path id="path87-4" d="M122.08,191.33c-.09-.71-.08-1.86.02-2.55.15-1.05-.05-1.07-1.21-.11-1.07.88-1.39.9-1.39.06s-.27-.86-1.3,0c-.77.63-1.93.79-2.84.4-1.76-.77-2.49-.99-3.72-1.15-.48-.06-.87-.6-.87-1.19,0-.6-1.02-1.14-2.26-1.21-1.24-.07-3.33-1.14-4.63-2.38-1.3-1.24-2.82-2.25-3.36-2.25s-1.23-.39-1.53-.86c-.31-.49.04-.64.82-.34.77.29,1.35.06,1.35-.54,0-.67-.82-.9-2.24-.63-1.57.3-2.55-.06-3.26-1.2-.56-.89-1.7-1.62-2.54-1.62s-2.17-.99-2.96-2.19-1.63-2.01-1.86-1.78c-.77.77-3.65-2.58-5.02-5.84-.88-2.09-1.75-3.04-2.43-2.65-.82.46-.83.34-.04-.5.56-.6.79-1.7.51-2.43-.32-.82-.16-1.11.42-.76.6.37.77-.05.49-1.14-.25-.95-.15-2.41.22-3.25.37-.84.61-1.84.52-2.21-.53-2.41,4.53-6.4,7.51-5.91.6.1,1.09-.19,1.09-.63,0-1.21,8.96-.16,10.54,1.24.76.67,2.06,1.22,2.89,1.22s1.27.39.98.86c-.3.48.03.64.73.37.7-.27,1.53-.07,1.84.44.32.51,1.47.93,2.57.93,2.23,0,7.58,2.39,8.59,3.83.46.65.86.62,1.34-.12.53-.81,1.26-.76,3.21.24,1.83.94,2.69,1.03,3.13.31.35-.57,1.4-.74,2.47-.4,1.02.32,1.85.23,1.85-.21s1.24-.83,2.75-.87c1.51-.04,2.99-.4,3.27-.8.83-1.15,5.52-3.05,8.38-3.39,1.44-.18,3.6-.69,4.8-1.14,6.15-2.31,13.09-1.52,13.09,1.49,0,.62.84,2.25,1.86,3.63,4.12,5.53,0,15.92-8.37,21.18-2.09,1.31-4.72,3.37-5.85,4.57-2.93,3.13-9.07,7.19-10.93,7.23-.87.02-3.15.59-5.05,1.26-1.96.69-3.67.88-3.95.44-.27-.43-1.02-.46-1.67-.06-.65.4-.95,1.1-.66,1.56.3.49-.37.67-1.63.43-1.19-.22-2.16-.75-2.16-1.17,0-1.54-1.82-.71-2.59,1.18-.51,1.25-.85,1.48-.95.65h0ZM47.29,149.84c-2.03-.8-4.17-1.93-4.76-2.51-.58-.58-1.52-1.05-2.08-1.05-1.59,0-8.72-8.56-11.62-13.96-2.82-5.24-6.21-17.67-6.21-22.74,0-4.69,2.9-11.34,6.67-15.29,3.99-4.18,10.18-7.25,19.26-9.55,7.86-2,11.23-4.34,15.7-10.92,6.07-8.93,10.81-12.42,16.87-12.42,1.58,0,2.47-.36,2.16-.87-.3-.48-2.56-.72-5.02-.54-3.96.29-4.29.19-2.85-.85,2.42-1.75,10.19-.97,13.49,1.35,1.47,1.04,2.68,1.57,2.69,1.18,0-.39.83.56,1.83,2.11,1,1.55,2.16,2.82,2.58,2.82s.54.56.27,1.25c-.27.69.29,2.08,1.23,3.08,2.64,2.81,2.95,6.23,1.62,17.54-.15,1.31-.54,2.64-.86,2.96-.32.32-.58,1.88-.58,3.46s-.38,2.89-.85,2.89-2.14,1.43-3.71,3.17c-1.57,1.74-4.33,4.63-6.13,6.43s-3.27,3.71-3.27,4.25-.97,2.25-2.15,3.79c-1.18,1.54-2.71,5.12-3.4,7.95-.68,2.84-1.69,6.28-2.24,7.65-.55,1.37-1.19,4.03-1.42,5.9-.58,4.6-2.4,7.1-7.37,10.13-7.47,4.56-13.28,5.37-19.86,2.78h0ZM190.64,147.26c-.46-1.18-.63-1.19-1.34-.08-.68,1.06-.81,1.02-.83-.27,0-.85-.7-1.79-1.54-2.1-.84-.3-2.4-1.4-3.46-2.43-2.1-2.03-6.33-10.43-6.35-12.6,0-.74-.48-1.81-1.06-2.38-.73-.72-.75-1.04-.07-1.04.9,0,.34-1.39-3.88-9.74-.66-1.31-.96-2.38-.66-2.38.84,0-2.5-4.33-6.7-8.69-7.26-7.54-8.98-9.88-8.72-11.87.14-1.08-.08-1.95-.5-1.95-.96,0-2.6-4.59-3.25-9.09-.36-2.53-.28-3,.32-1.73.66,1.4.85.99.99-2.17.09-2.14.11-4.22.04-4.61-.07-.39.28-.47.77-.17.52.32.89-.38.89-1.67,0-1.22.39-2.22.86-2.22s1.11-.99,1.41-2.2c.31-1.21,1-2.06,1.54-1.88.54.18,1.38-.45,1.86-1.39,1.07-2.07,6.86-5.31,7.28-4.07.16.48,1.65.87,3.3.87s4.41.58,6.13,1.29c2.9,1.2,3.08,1.19,2.56-.22-.31-.83.98.05,2.85,1.96,1.94,1.97,3.2,3.99,2.94,4.69-.27.7-.08.99.42.68.5-.31,1.42,1.05,2.1,3.09.67,2,2.39,4.98,3.84,6.61,1.45,1.63,2.54,3.2,2.44,3.48-.1.28.79.42,1.99.33,1.2-.1,1.95.19,1.67.65-.29.46.68.83,2.17.83s3.36.36,4.2.8c.83.44,3.68,1.62,6.34,2.62,5.38,2.03,10.94,6.64,13.85,11.47,2.22,3.7,3.06,12.53,1.69,17.75-.48,1.82-.92,3.96-.98,4.75-.06.8-.42,1.26-.8,1.03-.87-.53-1.46.99-1.89,4.88-.19,1.67-.38,3.29-.44,3.6-.05.31-.88.36-1.84.12-.96-.25-1.75-.05-1.75.45s-1.02,2.1-2.26,3.57c-1.65,1.94-1.91,2.66-.95,2.66,1.08,0,1.13.37.3,2.15-1.2,2.56-3.68,3.9-2.85,1.54.31-.88-.31-.52-1.46.86-1.1,1.31-2.78,2.38-3.73,2.38s-2.68.66-3.84,1.46c-2.91,2.02-12.82,2.29-13.56.37h0ZM220.76,134.16c0-.48.42-.87.92-.87s.68.39.38.87c-.3.48-.71.87-.92.87s-.38-.39-.38-.87Z"/>
    </g>
  </g>
</svg>