<?xml version="1.0" encoding="UTF-8"?>
<svg id="Layer_2" data-name="Layer 2" xmlns="http://www.w3.org/2000/svg" viewBox="0 0 516.09 719.81">
  <defs>
    <style>
      .cls-1 {
        fill: #fff;
      }

      .cls-2 {
        fill: #785630;
      }

      .cls-3 {
        fill: salmon;
      }

      .cls-4 {
        fill: #593001;
      }
    </style>
  </defs>
  <g id="svg2">
    <path id="path828" class="cls-1" d="M237.64,718.9c-50.42-3.21-108.41-33.79-147.76-77.92-15.99-17.93-25.97-33.73-34.79-55.05C18.71,497.95-5.55,384.97,1.1,334.43c12.13-92.29,40.61-176.85,78.83-234,8.4-12.56,14.42-19.6,25.58-29.9C146.51,32.66,196.65,7.68,244.17,1.45c13.62-1.78,20-1.88,31.5-.49,47.03,5.69,91.3,24.95,125.97,54.78,52.93,45.56,81.81,96.61,99.38,175.69,7.17,32.29,10.37,54.51,13.83,96,1.66,19.94,1.65,77.03-.02,95.5-5.06,56.08-16.83,100.8-37.11,141-19.22,38.11-37.66,64.51-62.58,89.59-15.33,15.43-24.68,23.22-40.18,33.46-10.76,7.11-31.34,17.91-42.51,22.32-23.31,9.2-53.31,12.23-94.81,9.59h0Z"/>
    <path id="path32" class="cls-3" d="M249.4,567.4c-3.03-1.3-22.33-4.29-60.1-9.29-18.96-2.51-35.83-4.92-37.49-5.36-1.65-.44-16.62-7.58-33.26-15.88-16.64-8.3-31.72-15.6-33.5-16.24-4.46-1.59-21.87-13.39-31.42-21.3-5.03-4.17-8.5-7.74-9.58-9.86-2.85-5.58-4.85-15.18-5.82-27.93l-.93-12.17,6.7-53.55c3.69-29.45,7.02-53.87,7.4-54.27.4-.41.93.2,1.23,1.42.3,1.18.72,2.15.94,2.15s9.25-8.54,20.08-18.97c18.29-17.63,19.96-19.03,23.65-19.85,77.62-17.03,127.71-27.35,144.11-29.7l9.51-1.36,16.85,7.07c56.96,23.89,79.82,32.53,101.64,38.38,5.13,1.38,12.21,3.61,15.72,4.97,18.9,7.29,42.82,22.53,59.98,38.21,3.56,3.25,4.18,4.4,7.15,13.3,7.26,21.73,21.59,73.94,25.17,91.68.99,4.91,1.57,9.84,1.28,10.97-1.36,5.36-12.71,17.77-27.36,29.92-6.31,5.24-9.19,6.8-34.08,18.42-34.4,16.07-61.94,28.32-66.12,29.41-3.54.92-48.9,6.69-67.75,8.61-16.69,1.71-31.65,2.24-34.01,1.23h0Z"/>
    <path id="path12" d="M237.64,718.9c-50.42-3.21-108.41-33.79-147.76-77.92-15.99-17.93-25.97-33.73-34.79-55.05C18.71,497.95-5.55,384.97,1.1,334.43c12.13-92.29,40.61-176.85,78.83-234,8.4-12.56,14.42-19.6,25.58-29.9C146.51,32.66,196.65,7.68,244.17,1.45c13.62-1.78,20-1.88,31.5-.49,47.03,5.69,91.3,24.95,125.97,54.78,52.93,45.56,81.81,96.61,99.38,175.69,7.17,32.29,10.37,54.51,13.83,96,1.66,19.94,1.65,77.03-.02,95.5-5.06,56.08-16.83,100.8-37.11,141-19.22,38.11-37.66,64.51-62.58,89.59-15.33,15.43-24.68,23.22-40.18,33.46-10.76,7.11-31.34,17.91-42.51,22.32-23.31,9.2-53.31,12.23-94.81,9.59h0ZM236.85,695.64c8.2-4.83,9.49-7.02,10.76-18.21.62-5.5,3.37-27.41,6.11-48.7,2.84-22.04,4.69-39.9,4.31-41.5-1.11-4.62-3.28-8.18-6.12-10.04-2.17-1.42-5.76-1.87-18.73-2.32-12.5-.44-16.78-.95-19.35-2.3l-3.31-1.74.8,6.3c1.25,9.81.72,32.8-1.14,49.3-.93,8.25-2.08,21.08-2.55,28.5s-1.35,15.75-1.95,18.5c-2.18,9.96,2.12,19.79,10.34,23.65,5.69,2.67,14.93,2.03,20.83-1.44h0ZM321.14,696.6c7.71-3.41,11.8-8.81,13.58-17.92,1.52-7.74.06-110.11-1.55-108.78-3.23,2.68-13.39,4.03-28.57,3.79-13.27-.21-15.94.01-18.76,1.55-4.07,2.21-6.99,6.85-7.66,12.16-.28,2.22-.63,28.26-.79,57.87l-.28,53.84,20.01-.37c16.41-.3,20.73-.69,24.01-2.14h0ZM184.14,674.78c1.89-1.8,2.01-3.34,2.19-29.13.3-42.47.95-54.74,3.75-70.87.42-2.43.08-2.74-4.24-3.81-2.59-.64-11-3.68-18.7-6.75-13.17-5.26-30.05-11.3-31.55-11.3-.37,0-.93,5.06-1.25,11.25s-1.77,17.33-3.24,24.75c-3.12,15.85-4.28,35.78-2.56,44.07,1.79,8.63,6.25,16.85,12.23,22.55,14.92,14.22,31.19,23.3,38.86,21.67,1.38-.29,3.4-1.39,4.5-2.44h0ZM369.94,668.32c1.76-.89,6.55-4.15,10.63-7.25,18.13-13.75,24.22-31.17,19.08-54.64-3.58-16.37-3.64-17.24-2.69-36.8.5-10.34.68-19.03.4-19.31-.28-.28-6.39,1.34-13.58,3.61-12.23,3.86-13.33,4.41-17.11,8.71-6.71,7.62-8.79,19.41-5.54,31.33,3.77,13.83,3.8,14.34,1.99,36.17-1.86,22.38-1.67,33.92.59,37.55,1.68,2.68,2.08,2.72,6.22.64h0ZM110.99,604.43c1.96-16.05,5.96-59.58,5.49-59.82-.19-.1-2.59-1.32-5.34-2.71s-8.15-4.2-12-6.24c-3.85-2.04-9.8-4.78-13.22-6.09l-6.22-2.38-1.56,5.35c-2.63,9.05-3.51,15.28-3.51,24.87,0,20.68,8.63,39.26,25.99,55.97,5.51,5.3,7.4,6.6,7.99,5.5.43-.79,1.49-7.29,2.37-14.44ZM426.44,600.65c4.12-4.39,7.44-18.04,9.28-38.22.95-10.36.57-25.59-.68-27.66-.22-.36-2.63.28-5.36,1.43-7.88,3.33-8.28,4.96-9.04,37.23-.56,23.46-.44,27.16.88,28.25,2.05,1.69,2.45,1.61,4.93-1.03h0ZM267.1,553.9c28.91-1.6,53.47-4.85,82.54-10.9,20.54-4.28,39.5-9.6,46.5-13.07,3.3-1.63,17.7-10.33,32-19.33,22.58-14.2,26.07-16.1,26.51-14.42.5,1.89.55,1.89,2.2.06,3-3.31,6.66-12.62,7.88-19.99,3.29-20-8.27-46.87-29.54-68.67-12.72-13.04-25.69-19.53-52.04-26.05-5.5-1.36-13.8-3.02-18.43-3.68-11.18-1.61-31.7-.67-45.07,2.04-34.26,6.97-70.95,25.83-95.39,49.05-4.04,3.84-7.57,6.98-7.84,6.98s.35-3.49,1.38-7.75c2.55-10.53,3.42-24.55,1.87-30.25-2.56-9.43-25.58-26.7-47.52-35.64-26.2-10.68-72.81-17.2-91.49-12.8-16.28,3.84-26.21,15.43-32.21,37.61-1.84,6.82-2.24,10.8-2.19,21.84.06,11.69.44,14.71,2.79,22.5,3.16,10.45,9.16,23.54,16.85,36.71,2.98,5.11,8.25,14.74,11.7,21.39l6.27,12.09,10.14,6.05c31.1,18.55,68.09,34.01,102.27,42.75,15.7,4.01,39.88,5.2,70.83,3.49h0ZM69.14,280.8c3.85-1.99,13.97-6.18,22.48-9.31,25.71-9.46,35.65-15.96,40.25-26.34,1.94-4.37,2.11-6.78,2.33-32.72.13-15.4,1.15-45.55,2.27-67,3.09-59.26,3.43-71.77,1.93-70.88-5.5,3.26-22.62,18.11-33.79,29.31-19.49,19.55-30.86,37.39-39.23,61.57-3.12,9.02-3.53,11.46-4.14,25-.37,8.25-1.34,21.3-2.15,29-2.11,20.08-2.97,48.89-1.65,55.04,1.4,6.52,3.02,10.71,3.95,10.29.41-.19,3.89-1.97,7.74-3.95h0ZM445.3,278.9c6.68-2.33,8.27-10.6,8.32-43.47.02-12.1-.47-33.25-1.1-47l-1.14-25-11-19.5c-12.66-22.45-18.97-32.24-28.11-43.59-6.43-7.99-18.46-19.91-19.28-19.1-.56.56-2.01,50.58-3.41,117.19-.62,29.7-1.2,54.4-1.29,54.88-.09.49,2.09,1.42,4.84,2.08,6.06,1.44,13.06,4.96,25,12.53,10.82,6.87,14.72,8.94,20,10.61,2.2.7,4.05,1.3,4.1,1.33.05.04,1.43-.4,3.05-.96h0ZM161.84,245.06c6.92-2.97,13.99-4.14,34.26-5.68,26.47-2.01,34.39-4.35,39.95-11.8,3.86-5.17,4.43-8.94,5.57-36.66.6-14.57,2.19-46.53,3.53-71,2.56-46.77,4.49-85.56,4.5-90.34v-2.84s-7.75.64-7.75.64c-27.34,2.25-43.18,5.44-54.82,11.03-10.15,4.88-16.6,11.04-21.1,20.14l-3.7,7.48-.77,24.69c-.42,13.58-1.46,47.64-2.3,75.69-.84,28.05-1.76,57.64-2.04,65.75-.28,8.11-.32,14.75-.1,14.75s2.37-.84,4.77-1.87h0ZM365.25,242.16c.69-.46,1.35-7.75,1.79-19.73.38-10.45,1.77-40.38,3.1-66.5s2.73-55.67,3.11-65.65l.69-18.15-3.79-3.35c-31.49-27.82-58.43-40.69-86.17-41.17-8.29-.14-10.59.12-11.35,1.32-.53.83-.97,6-.98,11.5-.02,5.5-.91,29.58-1.98,53.5-1.07,23.93-2.63,59.93-3.46,80-.83,20.07-1.75,41.25-2.04,47.05l-.53,10.55,6.44-.41c9.16-.58,24.19,1.34,45.57,5.84,10.17,2.14,20.75,4.31,23.5,4.82,6.08,1.13,24.57,1.41,26.1.39h0Z"/>
    <g id="g4565">
      <g id="g4560">
        <path id="path44" class="cls-2" d="M264.79,264.78c-1.53,0-2.03.67-2.41,1.05-.38.38-.63.72-.86,1.09-.47.74-.86,1.57-1.2,2.5-5.1,14.15-12.14,21.78-29.87,32.08-3.63,2.11-7.92,4.85-10.02,6.47-5.69,4.38-12.01,11.54-15.12,17.28-2.22,4.11-3.61,6.1-4.96,7.09s-3.14,1.47-7.04,1.93c-5.56.66-12.17,2.97-16.7,5.9-10.22,6.6-19.41,19.98-21.85,31.81-.76,3.68-.67,7,.72,9.78s4.16,4.64,7.39,5.33c1.49.32,3.64.45,6.97.66s7.47.42,11.67.57c8.32.3,16.94.75,18.1.88.92.1,1.55.32,2.01.51-.01-.01.12.01-.18.06-.72.11-2.41.16-5.36.17-3.53,0-14.34-.29-23.74-.66-10.01-.39-15.74-.53-20.35.02s-7.96,1.89-12.46,4.07c-11.63,5.62-19.46,15.96-23.78,30.9-4.14,14.3-3.23,27.11,3.57,35.36,2.64,3.2,7.44,6.79,11.39,8.65,1.37.65,3.05,1.14,6.36,1.35,3.31.21,8.69.3,18.84.44,17.25.25,64.2.38,108.26.39,22.03,0,43.32-.02,59.8-.08,16.48-.06,27.94-.14,30.98-.27,4.66-.21,7.24-.33,9.26-.64,2.02-.31,3.49-.91,4.99-1.67,4.57-2.33,8.43-5.94,10.74-10.2,2.96-5.43,3.13-13.46,1.16-20.63-3.79-13.8-10.59-24.12-20.38-30.3-7.21-4.55-16.17-6.9-29.93-8.14-3.66-.33-6.8-.78-9.2-1.29-2.4-.51-4.12-1.2-4.48-1.43-.86-.56-.88-1.5-.44-2.02.12-.06.2-.11.35-.15.57-.15,1.43-.33,2.47-.52,2.07-.37,4.87-.74,7.9-1.04,4.2-.41,7.59-1.29,10.3-3.2,2.7-1.9,4.43-4.77,5.43-8.18,1.57-5.42.85-12.35-1.06-19.35s-5.06-13.98-9.2-19.04c-3.6-4.39-8.99-8.83-13.94-11.47l-3.36-1.79c-.43-.23-.92-.35-1.41-.34l-28.05.42-24.01.36c.65-.12,1.42-.28,2.73-.39,3.14-.28,8.33-.6,16.75-1.06,9.02-.49,14.07-.81,17.22-1.33,1.57-.26,2.72-.49,3.89-1.28s1.93-2.59,1.93-3.64c0-1.41-.3-1.63-.59-2.33-.28-.7-.66-1.5-1.12-2.43-.92-1.86-2.17-4.2-3.61-6.77-2.87-5.12-6.46-11.1-9.47-15.59-4.62-6.89-9.88-14.07-14.23-19.58-2.18-2.75-4.12-5.08-5.68-6.79-.78-.85-1.46-1.54-2.1-2.1-.32-.28-.62-.53-1.01-.77-.38-.24-.77-.62-1.98-.62h0ZM221.95,392.17c3.08-.05,7,0,10.56.13,1.94.08,3.73.18,5.12.3.72.06.77.08,1.21.15l-5.57-.03c-5.4-.03-8.83-.24-11.32-.54h0Z"/>
        <path id="path16" class="cls-4" d="M131.28,479.27c-8.09-2.32-15.2-7.33-20.39-14.38-6.78-9.21-9.18-20.92-6.95-33.99,4.37-25.68,16.39-41.21,36.42-47.04l5.88-1.71-.24-4.98c-.47-9.71,4.81-23.65,12.78-33.78,7.17-9.11,18.59-16.08,30.3-18.49l6.37-1.31,3.59-5.45c6.93-10.51,16.5-19.22,26.76-24.34,6.78-3.39,15.38-9.64,19.57-14.22,3.31-3.62,4.59-6.12,9.38-18.27,3.05-7.74,5.54-14.4,5.54-14.79s.51-1.15,1.13-1.66c2.36-1.96,22.72,21.17,36.19,41.12,9.39,13.89,17.72,29.62,18.17,34.29.39,4.06,1.05,4.73,5.57,5.58,8.87,1.68,21.38,10.92,26.65,19.66,4.19,6.96,7.32,18.23,7.43,26.76.09,6.82-.04,7.39-2.96,13.14-1.68,3.31-2.91,6.14-2.74,6.29.17.15,3.15,1.2,6.62,2.35,8.68,2.86,15.47,7,21.5,13.1,6.25,6.33,9.65,11.9,12.75,20.88,2.77,8.04,3.64,17.75,2.2,24.68-2.72,13.09-13.64,24.18-26.78,27.21-2.24.52-42.98.78-116.7.76-105.21-.03-113.6-.14-118.03-1.4h0ZM365.05,467.03c5.32-1.58,9.91-5.07,12.5-9.49,1.69-2.88,2.22-4.95,2.49-9.64.3-5.21.01-6.97-2.25-13.78-7.11-21.41-20.01-30.72-45.19-32.62-11.66-.88-16.49-2.13-18.08-4.68-1.24-1.99-.58-4.38,1.52-5.5.86-.46,5.02-1.11,9.25-1.43,9.26-.72,12.23-2.15,14.75-7.12,3.4-6.7,1.45-20.34-4.61-32.36-3.15-6.24-10.65-13.72-16.75-16.7l-4.7-2.3-14.89.34c-8.19.19-20.54.37-27.43.39l-12.54.05v-2.33c0-1.82.43-2.46,1.96-2.89,1.08-.31,10.13-.9,20.11-1.32,10.36-.44,18.86-1.14,19.79-1.64,2.12-1.13,2.07-2.53-.22-6.16-1.02-1.62-2.93-5.06-4.23-7.63-4.5-8.89-17.78-27.93-27.49-39.4-4.04-4.78-4.62-4.61-6.72,1.9-4.02,12.43-14.36,22.78-32.69,32.72-9.61,5.21-18.49,14.28-22.99,23.48-2.99,6.1-4.6,7.3-10.62,7.89-10.61,1.04-18.02,4.54-24.93,11.77-9.67,10.11-16.18,25.84-13.12,31.74,2.49,4.82,3.43,5.04,24.63,5.63,10.62.3,19.89.78,20.61,1.08,1.79.74,2.37,2.58,1.4,4.4-.98,1.84-5.12,1.93-31.54.68-15.17-.71-18.31-.66-22.84.39-17.73,4.11-28.59,16.84-33.14,38.84-1.51,7.29-1.01,16.2,1.2,21.3,3.07,7.09,10.1,12.84,17.96,14.69,1.63.38,52.63.73,113.91.77,96.19.07,111.49-.08,114.9-1.09h0ZM314.5,453.84c-5.06-5.39,1.57-13.68,7.58-9.47,2.51,1.76,3.38,4.45,2.36,7.35-1.48,4.24-6.86,5.39-9.94,2.12ZM138.41,446.91c-2.47-2.93-2.2-5.58.84-8.3,3.98-3.56,9.72-.94,9.72,4.43,0,6.15-6.61,8.58-10.57,3.87h0ZM251.07,436.34c-1.39-.58-1.22-3.81.26-5.04,1.79-1.48,3.85.07,3.85,2.88,0,2.28-1.69,3.17-4.12,2.15h0ZM182.69,428.62c-2.57-2.73-2.44-6.39.3-8.75,4.18-3.6,9.88-1.09,9.88,4.36,0,5.75-6.34,8.49-10.18,4.4h0ZM223.27,395.39c-6-.54-8.67-2.26-7.16-4.61.77-1.2,2.22-1.34,12.76-1.17,13.15.21,15.18.75,14.8,3.98l-.24,2.1-7.45.08c-4.1.05-9.82-.14-12.71-.39h0ZM207.11,367.18c-1.37-.87-.88-4.02.79-5.06,1.71-1.07,3.79.58,3.79,3.02s-2.41,3.41-4.58,2.04h0ZM283.15,366.05c-2.49-2.65-2.31-7,.36-9.1,2.7-2.12,5.18-2.06,7.82.21,2.74,2.36,2.87,6.02.3,8.75-2.4,2.55-6.15,2.61-8.48.14h0ZM231.02,335.21c-1.04-1.04-.49-4.14.85-4.83,2.16-1.11,13.08-1.83,15.26-1,2.7,1.03,3.25,2.93,1.38,4.8-1.33,1.33-2.62,1.55-9.26,1.55-4.24,0-7.94-.24-8.23-.52h0ZM263.54,310.74c-1.37-.87-.88-4.02.79-5.06,1.71-1.07,3.79.58,3.79,3.02s-2.41,3.41-4.58,2.04h0ZM183.24,310.45c-17.6-21.88-18.12-24.38-7.98-38.24,7.96-10.89,7.95-11.37-.42-23.09-2.47-3.45-4.88-7.47-5.37-8.94-2.95-8.83,1.85-21.34,6.19-16.12.81.97.8,1.78,0,4.25-.55,1.68-.84,4.8-.63,6.95.32,3.29,1.2,5.02,5.66,11.1,9.87,13.45,9.84,16.14-.33,29.86-4.88,6.58-6,9.5-4.83,12.55.4,1.05,3.94,6.1,7.87,11.24,3.93,5.14,7.14,9.78,7.14,10.32,0,4.56-3.66,4.62-7.28.12h0ZM304.76,282.23c-.71-.54-3.42-3.76-6.03-7.16-4.4-5.73-4.74-6.48-4.74-10.24s.41-4.61,3.63-8.94c1.99-2.68,3.63-5.7,3.63-6.7s-1.63-4.21-3.63-7.12c-3.19-4.66-3.63-5.79-3.63-9.46,0-5.74,1.04-8.19,3.47-8.19,2.62,0,3.57,1.93,2.63,5.34-.91,3.29-.32,4.8,4.2,10.79,2.46,3.26,3.34,5.21,3.61,8.01.33,3.44.08,4.07-3.65,9.16-2.2,3.01-4,6.2-4,7.09s2.12,4.38,4.7,7.75c4.76,6.21,5.46,8.01,3.76,9.71-1.2,1.2-2.35,1.19-3.96-.04h0ZM238.54,258.72c-12.19-15.54-13.54-17.8-13.54-22.72,0-4.15,1.38-6.92,7.67-15.36,4.16-5.59,4.87-7.01,4.87-9.84,0-1.82-.38-3.69-.85-4.15-.47-.47-.73-1.68-.59-2.7.21-1.45.82-1.91,2.83-2.1,2.35-.23,2.69.04,4.1,3.14,2.88,6.35,1.94,9.73-5.57,20.06-5.58,7.68-6.71,10.46-5.52,13.56.4,1.05,3.94,6.09,7.87,11.21,3.93,5.12,7.14,9.77,7.14,10.32,0,5.25-3.67,4.64-8.41-1.41h0ZM175.61,213.82c-.81-.97-.8-1.79.03-4.31,2.28-6.92,5.4-9.57,7.83-6.64.79.95.63,2.03-.82,5.68-.98,2.48-2.13,4.95-2.54,5.49-1.03,1.34-3.29,1.23-4.5-.22h0ZM227.41,194.69c-3.33-3.33-4.15-12.36-1.62-17.94,1.34-2.95,1.82-3.35,3.71-3.14,2.38.27,2.45.71,1.36,8.89-.38,2.84-.17,4.78.73,6.95,1.55,3.72,1.55,3.98.03,5.51-1.6,1.6-2.37,1.55-4.2-.29h0ZM232.04,163.65c-.81-.97-.8-1.79.03-4.31,2.28-6.92,5.4-9.57,7.83-6.64.79.95.63,2.03-.82,5.68-.98,2.48-2.13,4.95-2.54,5.49-1.03,1.34-3.29,1.23-4.5-.22h0Z"/>
      </g>
    </g>
  </g>
</svg>