<?xml version="1.0" encoding="UTF-8"?>
<svg id="Layer_2" data-name="Layer 2" xmlns="http://www.w3.org/2000/svg" viewBox="0 0 500 275.99">
  <defs>
    <style>
      .cls-1 {
        fill: #4edcca;
      }

      .cls-2 {
        fill: #8031a7;
      }
    </style>
  </defs>
  <g id="svg3739">
    <path id="path959" d="M12.74,0C6.06,0,0,6.06,0,12.74v46.23c0,4.91,3.63,8.61,8.03,10.7C3.63,71.75,0,75.45,0,80.37v42.73c0,6.68,6.06,12.75,12.74,12.74h62.23v127.4c0,6.68,6.06,12.75,12.74,12.74h54.99c6.68,0,12.75-6.06,12.74-12.74v-127.4h49.3v127.4c0,6.68,6.06,12.75,12.74,12.74h51.83c3.5,0,6.7-1.73,9.08-4.28,2.32,2.02,4.67,4.29,7.76,4.28h55.69c4.35,0,8.32-2.74,10.59-6.44,2.25,3.79,6.39,6.45,10.8,6.44h55.66c3.09,0,5.44-2.26,7.76-4.28,2.38,2.55,5.58,4.29,9.08,4.28h51.51c6.68,0,12.75-6.06,12.74-12.74V12.74c0-6.68-6.06-12.75-12.74-12.74h-77.43c-4.73,0-9.33,2.84-11.42,7.09l-46.02,92.87L306.7,7.11v-.03C304.6,2.84,300,0,295.27,0H12.74ZM282.07,137.32l26.91,50.78-26.91,54.56v-105.34ZM423,137.35v105.34l-26.89-54.58,26.89-50.76Z"/>
    <path id="path955" class="cls-2" d="M12.74,7.27c-3.02,0-5.46,2.44-5.47,5.45v46.25c0,3.02,2.44,5.46,5.45,5.47h69.52v10.45H12.74c-3.02,0-5.46,2.44-5.47,5.45v42.74c0,3.02,2.44,5.46,5.45,5.47h69.52v134.68c0,3.02,2.44,5.46,5.45,5.47h55c3.02,0,5.46-2.44,5.47-5.45v-134.69h63.85v134.68c0,3.02,2.44,5.46,5.45,5.47h51.85c3.02,0,5.46-2.44,5.47-5.45V108.03l42.35,79.96-35.91,72.82c-1.34,2.7-.24,5.98,2.46,7.32.76.38,1.6.57,2.45.57h55.71c2.04,0,3.91-1.15,4.85-2.96l5.74-11.1,5.98,11.18c.95,1.78,2.81,2.89,4.82,2.88h55.69c3.02,0,5.47-2.43,5.47-5.45,0-.85-.19-1.69-.57-2.45l-35.89-72.82,42.32-79.93v155.18c0,3.02,2.44,5.46,5.45,5.47h51.53c3.02,0,5.46-2.44,5.47-5.45V12.74c0-3.02-2.44-5.46-5.45-5.47h-77.44c-2.08,0-3.98,1.18-4.9,3.04l-52.54,106.04-52.21-106.04c-.92-1.87-2.82-3.05-4.9-3.04H12.74ZM148.18,64.44h63.85v10.45h-63.85v-10.45Z"/>
    <path id="path951" class="cls-1" d="M409.83,12.74h77.43v250.51h-51.5V87.36h-.7l-53.26,100.55,37.14,75.33h-55.71l-10.86-20.32-10.51,20.32h-55.71l37.14-75.33-53.26-100.55h-.7v175.88h-51.85V12.74h77.78l57.11,115.97,57.46-115.97ZM218.04,58.98h-75.33v21.37h75.33v42.74h-75.33v140.15h-55.01V123.1H12.73v-42.74h74.98v-21.37H12.73V12.74h205.31v46.25Z"/>
  </g>
</svg>