<?xml version="1.0" encoding="UTF-8"?>
<svg id="Layer_2" data-name="Layer 2" xmlns="http://www.w3.org/2000/svg" xmlns:xlink="http://www.w3.org/1999/xlink" viewBox="0 0 550 550">
  <defs>
    <style>
      .cls-1 {
        fill: #0094ff;
      }

      .cls-2 {
        fill: #006cff;
        filter: url(#outer-glow-1);
        opacity: .7;
      }

      .cls-3 {
        fill: #00002d;
      }
    </style>
    <filter id="outer-glow-1" x="0" y="0" width="550" height="550" filterUnits="userSpaceOnUse">
      <feOffset dx="0" dy="0"/>
      <feGaussianBlur result="blur" stdDeviation="5"/>
      <feFlood flood-color="#000" flood-opacity=".75"/>
      <feComposite in2="blur" operator="in"/>
      <feComposite in="SourceGraphic"/>
    </filter>
  </defs>
  <g id="svg2">
    <path id="path873" class="cls-3" d="M275,5.95c-70.35,0-140.51,29.06-190.25,78.8C35.01,134.49,5.95,204.65,5.95,275c0,70.35,29.06,140.51,78.8,190.25,49.74,49.74,119.9,78.8,190.25,78.8,70.35,0,140.51-29.06,190.25-78.8s78.8-119.9,78.8-190.25c0-70.35-29.06-140.51-78.8-190.25C415.51,35.01,345.35,5.95,275,5.95Z"/>
    <path id="path861" class="cls-2" d="M275,15.29C131.67,15.29,15.29,131.67,15.29,275s116.38,259.71,259.71,259.71c4.99,0,9.92-.17,14.81-.45-.02.04.43.34,1.61.16h0s2.12-.32,2.12-.32h.03s0,0,0,0c.28-.04.49-.08.68-.11,134.4-9.85,240.47-122.13,240.47-258.99S418.33,15.29,275,15.29ZM275,32.84c60.4,0,115.4,22.25,157.81,58.78l-8.61,9.36c-.05.05-.09.11-.13.16,0,0,0,0,0,.01l.13-.16c-.55.6-.85,1.3-1.2,1.99l-15.74-17.18h0c-.19-.21-.42-.38-.68-.5h0c-1.58-1.42-3.52-2.32-5.53-2.41-2.3-.11-4.67.66-6.51,2.34-3.4,3.12-3.75,8.32-1.01,11.98.09.27.24.52.44.73l20.7,22.59c-.57,1.09-1.01,2.28-1.01,3.66v19.39c0,4.91,4.11,9.02,9.02,9.02s9.02-4.11,9.02-9.02v-19.39c0-1.55-.56-2.88-1.25-4.08.71-1.3,1.1-2.74,1.12-4.21,2.18-.15,4.32-1.02,5.91-2.76l8.58-9.32c13.74,13.71,25.94,28.95,36.06,45.61.63,1.04,1.23,2.13,1.84,3.2-.11,0-.27-.03-.38-.03h0c-.7-.05-1.41.02-2.1.2l.54-.07h-1.3c-1.23,0-2.28.37-3.24.82-1.03-.53-2.17-.97-3.52-.97-3.32,0-6.17,1.99-7.67,4.77-1.52-2.69-4.31-4.62-7.57-4.62h-23.29c-1.2,0-2.22.35-3.16.78-.94-.43-1.97-.78-3.16-.78-4.8,0-8.8,4.01-8.8,8.8v6.93c-.74-4.13-2.58-7.83-5.52-10.55-3.59-3.33-8.31-4.79-13.15-5.02-.03,0-.07,0-.1,0h0c-.4-.07-.79-.16-1.19-.16h-11.61c-1.4,0-2.59.47-3.68,1.05-1.08-.58-2.27-1.05-3.67-1.05-4.8,0-8.8,4.01-8.8,8.8v33.94l-16.02-37.42h0c-.03-.07-.06-.13-.09-.19h0c-1.5-3.22-4.76-5.19-8.22-5.11h0c-1.16.03-2.35.29-3.48.82-3.68,1.72-5.51,5.76-4.76,9.66-1.41.86-2.68,1.98-3.43,3.59,0,0,0,0,0,0-.03.06-.06.12-.08.18,0,0,0,0,0,.01l-16.31,38.07c-.11.27-.17.57-.16.86-1.34,4.19.55,8.79,4.54,10.65,4.44,2.07,9.69.03,11.71-4.29.03-.06.06-.12.08-.18,0,0,0,0,0-.01l4.97-11.61c.4.06.74.25,1.16.25h11.76c.46,0,.85-.21,1.3-.29l4.98,11.64h0c.03.07.06.13.09.19.03.07.09.1.12.17-.09,0-.19,0-.29,0-2.13.08-4.19.23-6.17.46-7.28.86-13.78,2.93-19.21,7.04-2.46,1.87-4.61,4.08-6.49,6.57-.75.99-1.46,2.04-2.13,3.12-3.01,4.86-5.28,10.55-7.38,17.21-.39,1.24-.76,2.46-1.1,3.64-.34,1.19-.65,2.35-.93,3.49-.57,2.29-1.01,4.5-1.32,6.67-.15,1.08-.27,2.16-.35,3.23,0,0,0,.01,0,.02-.04.53-.07,1.05-.09,1.58-.1,2.66.07,5.28.54,7.87,1.49,8.22,5.88,15.25,12.19,23.05.03.06.06.12.11.2.12.22.29.54.48.93.39.78.87,1.83,1.22,2.84.75,2.15,1.4,4.8,1.59,6.55.11.98.16,1.81.17,2.4,0,.24,0,.17,0,.34-.14.11-.09.08-.32.23-1.54,1-5.56,2.96-11.78,5.56-10.06,4.22-16.7,5.76-23.28,5.71-.5,0-1.01-.02-1.52-.04-1.02-.05-2.05-.13-3.1-.26-4.4-.52-8.89-.52-13.59.01-1.57.18-3.16.42-4.78.71-6.47,1.18-13.42,3.27-21.42,6.28-5.62,2.12-10.99,3.72-14.64,4.52-1.33.29-2.15.38-2.81.45-.17-.12-.04-.1-.43-.28-.17-.08-.35-.14-.52-.21-.02,0-.05-.02-.07-.03-.09-.04-.21-.09-.44-.17-1.38-.47-2.7-.72-3.95-.92-2.56-.39-5.36-.56-8.11-.58-2.74-.02-5.47.1-7.97.49-1.18.18-2.6.45-4.13,1.08-.78.32-1.25.7-1.75,1.06-.05.01-.1.03-.18.05-1.24.3-3.19.71-5.3,1.1-2.97.55-5.81,1.44-8.34,2.57-1.72.77-3.65,1.97-5.42,3.69,0,0,0,0,0,0-.02.01-.02,0-.03.02-.02.01-.04.03-.06.04-.02.01-.07.04-.08.05-.06.04-.08.06-.11.08,0,0,0,0,0,0,0,0-.02.01-.02.02-.02.01-.02.02-.04.03-.11.06-.26.15-.59.3-.95.44-2.69,1.13-4.78,1.86-4.2,1.45-10.04,3.17-16.2,4.67-7.12,1.74-13.13,3.48-17.9,5.11-4.71,1.61-8.24,2.96-11.18,4.96-.7.48-1.7,1.22-2.63,2.33-.25.3-.53.67-.81,1.1-.25.4-.56.93-.82,1.58,0,0,0,0,0,0-.18.46-.32.94-.39,1.43l.04-.2s-.14.31-.22.87c-.12.81-.14,1.65-.04,2.48,0,0,0,0,0,0,.06.48.15.93.27,1.34,0-.01-.02-.17-.04-.34.02.17.04.32.04.36h0s0,0,0,0c0,0,0,0,0,0,0,0,0,0,0,.01h0c.04.15.1.29.18.43.92,2.73,2.85,4.44,4.51,5.33,1.49.79,2.91,1.08,3.82,1.22.95.15,1.9.21,2.88.23,2.93.06,6.27-.29,10.66-.91,12.32-1.74,21.32-3.04,27.7-3.83,5.91-.73,9.37-.8,10.51-.74.07.2.12.33.2.56.4,1.13.95,2.67,1.6,4.45.63,1.75,1.13,3.23,1.48,4.46.12.41.22.8.31,1.16.36,1.44.49,2.45.5,3.33.01.9-.08,1.65-.36,2.76-.07.26-.15.56-.25.88-.29.94-.72,2.09-1.29,3.47-.26.62-.51,1.22-.75,1.83-.72,1.81-1.39,3.62-1.81,5.65-.38,1.82-.51,3.8-.22,5.84.06.4.13.81.23,1.23.19.83.45,1.64.78,2.44.6,1.44,1.38,2.77,2.27,3.98.44.61.92,1.18,1.41,1.75,2.45,2.79,5.43,5.27,9.33,8.62,2.71,2.33,5.35,4.5,7.92,6.51,2.57,2.01,5.08,3.85,7.55,5.54,8.23,5.61,16.08,9.48,24.12,11.35,1.62.38,3.23.67,4.85.87.81.1,1.62.19,2.43.25,1.62.12,3.23.16,4.85.11,8.16-.23,16.18-2.63,24.37-6.51l.85,6.77c.17,1.38.37,3.11.57,5.13.41,4.04.85,9.24,1.2,15.23.18,3,.33,6.2.45,9.55.06,1.68.11,3.4.15,5.14.23,10.53-.09,22.3-1.06,34.02-.54.03-1.09.06-1.62.08-2.48.08-4.96.12-7.46.12-6.27,0-12.49-.24-18.64-.71-4.1-.31-8.17-.73-12.21-1.24-28.28-3.59-55.03-12.06-79.4-24.54-3.48-1.78-6.91-3.64-10.29-5.59-11.83-6.8-23.03-14.58-33.5-23.21-2.99-2.47-5.92-5.01-8.79-7.61-22.94-20.85-41.86-46.04-55.46-74.27-.85-1.76-1.68-3.54-2.48-5.33-.81-1.79-1.6-3.59-2.36-5.4-.77-1.81-1.51-3.63-2.23-5.46-1.44-3.67-2.8-7.38-4.07-11.13-.63-1.88-1.25-3.76-1.84-5.65-7.07-22.75-10.88-46.93-10.88-72.02,0-2.09.03-4.17.08-6.25.16-6.24.55-12.41,1.17-18.52.21-2.03.44-4.06.7-6.08.26-2.02.54-4.04.85-6.04.31-2,.64-4,.99-5.99,1.9-10.63,4.71-20.92,7.98-31.02.28.36.59.67.92.98-.38,2.48.16,5.14,2.03,7.18,0,0,0,0,0,0,.03.03.06.06.08.09,2.06,2.16,4.39,3.77,6.75,4.95,0,0,0,0,0,0,.03.01.05.03.08.04.01,0,.02.01.04.02,4.07,1.94,8.89,2.99,14.3,2.99,6.75,0,11.58-1.59,14.49-3.05,2.35-1.18,4.69-2.79,6.75-4.95.03-.03.06-.06.08-.09,0,0,0,0,0,0,1.83-1.99,2.38-4.58,2.05-7,.71-.65,1.46-1.26,1.95-2.11v8.4c0,4.8,4.01,8.8,8.8,8.8s8.8-4.01,8.8-8.8v-18.28l15.71,23.23c.17.24.38.45.63.6,2.81,3.39,7.72,4.33,11.49,1.91,1.93-1.24,3.14-3.14,3.68-5.21,1.04,3.71,4.34,6.55,8.34,6.55,4.79,0,8.8-4.01,8.8-8.8v-13.17h10.16c5.32,0,10.53-1.86,14.34-5.63.9-.89,1.69-1.89,2.39-2.95v21.75c0,4.79,4.01,8.8,8.8,8.8s8.8-4.01,8.8-8.8v-10.78l18.11,17.18h0s.05.05.08.08h0c3.45,3.16,9.06,3.17,12.41-.48.42-.46.63-1.02.94-1.54,1.56,2.54,4.24,4.35,7.38,4.35,1.16,0,2.17-.33,3.09-.74.92.41,1.92.74,3.09.74h23.52c3.31,0,6.15-1.98,7.65-4.74,1.5,2.77,4.34,4.74,7.65,4.74,4.79,0,8.8-4.01,8.8-8.8v-13.17h10.16c5.32,0,10.53-1.86,14.34-5.63,3.82-3.78,5.93-9.24,5.93-15.3,0-5.21-1.46-10.58-5.07-14.82-3.66-4.3-9.42-6.91-16.07-6.91h-10.66c-1.42,0-2.62.48-3.71,1.07-1.09-.59-2.29-1.07-3.71-1.07-3.34,0-6.2,2-7.69,4.8-1.49-2.8-4.35-4.8-7.69-4.8h-23.29c-1.2,0-2.22.35-3.16.78-.94-.43-1.97-.78-3.16-.78-4.8,0-8.8,4.01-8.8,8.8v6.93c-.74-4.13-2.58-7.83-5.52-10.55-3.59-3.33-8.31-4.79-13.15-5.02-.03,0-.07,0-.1,0h0c-.4-.07-.79-.16-1.19-.16h-11.61c-1.4,0-2.59.47-3.68,1.05-1.08-.58-2.27-1.05-3.67-1.05-4.8,0-8.8,4.01-8.8,8.8v.36c-.49-.76-.94-1.54-1.54-2.25-3.66-4.3-9.42-6.91-16.07-6.91h-10.65c-1.42,0-2.62.48-3.71,1.07-1.09-.59-2.29-1.07-3.71-1.07-4.14,0-7.53,3.04-8.42,6.94-.89-3.9-4.28-6.94-8.42-6.94-4.79,0-8.8,4.01-8.8,8.8v18.25l-15.64-23.12c-.1-.15-.22-.28-.36-.4-1.68-2.2-4.2-3.46-6.8-3.51-1.68-.04-3.43.41-4.96,1.4-1.79,1.15-2.9,2.89-3.5,4.78-1.17-3.5-4.4-6.12-8.25-6.12-4.79,0-8.8,4.01-8.8,8.8v34.54c0,.38.1.5.16.8,0,0,0,0,0,0,0,0,0,0,0,0-.22.11-.42.26-.59.44-.26.28-.89.76-1.59,1.1,0,0-.01,0-.02,0h0c-1.02.49-2.91,1.27-6.77,1.27-1.84,0-4.67-.32-6.51-1.16-.06-.03-.12-.07-.18-.1-.01,0-.03-.01-.04-.02-.7-.33-1.34-.82-1.59-1.1-.14-.15-.3-.28-.48-.38.07-.34.19-.53.19-.94v-32.91c1.53-2.94,3.09-5.85,4.72-8.7.97-1.69,1.96-3.36,2.98-5.03,2.02-3.33,4.12-6.61,6.3-9.83,1.09-1.61,2.19-3.2,3.32-4.79h0s0,0,0-.02c1.12-1.58,2.26-3.14,3.42-4.69,7.81-10.44,16.53-20.16,25.9-29.21h8.26v42.7c0,4.91,4.11,9.02,9.02,9.02s9.02-4.11,9.02-9.02v-42.7h9.97c2.4,0,4.6-1.01,6.23-2.59-3.55,5.62-5.61,12.33-5.61,19.42,0,18.74,14.29,34.88,32.78,34.88s32.78-16.14,32.78-34.88-14.3-34.88-32.78-34.88c-11.13,0-20.67,5.91-26.55,14.65,1.29-1.56,2.18-3.48,2.18-5.63,0-4.91-4.11-9.02-9.02-9.02h-15.2c19.24-14.76,40.64-26.84,63.81-35.32,3.71-1.36,7.46-2.63,11.25-3.8,3.79-1.18,7.62-2.27,11.49-3.26,15.47-3.98,31.55-6.47,48.07-7.31,4.13-.21,8.29-.32,12.47-.32ZM131.85,367.46v-.24c-.01.08,0,.16,0,.24ZM210.96,82.85c-4.91,0-9.02,4.11-9.02,9.02s4.11,9.02,9.02,9.02h9.89v42.7c0,4.91,4.11,9.02,9.02,9.02s9.02-4.11,9.02-9.02v-42.7h9.97c4.91,0,9.02-4.11,9.02-9.02s-4.11-9.02-9.02-9.02h-37.9ZM315.26,82.85c-4.91,0-9.02,4.11-9.02,9.02v40.34l-18.8-43.91h0c-.03-.07-.06-.13-.09-.19h0c-1.54-3.3-4.88-5.32-8.43-5.24-1.22.03-2.43.31-3.57.84-3.91,1.83-5.82,6.21-4.79,10.35-1.62.9-3.06,2.13-3.89,3.91,0,0,0,0,0,0-.03.06-.06.12-.08.18,0,0,0,0,0,.01l-17.94,41.86c-.11.27-.17.57-.16.87-1.39,4.3.55,9.03,4.65,10.95h0c.26.12.54.19.83.2,4.36,1.53,9.22-.43,11.17-4.6.03-.06.06-.12.08-.18,0,0,0,0,0-.01l5.63-13.13c.55.13,1.12.24,1.72.24h12.93c.67,0,1.28-.13,1.88-.28l5.64,13.17h0c.03.07.06.13.09.19,2.07,4.43,7.44,6.53,12,4.4,1.34-.63,2.38-1.61,3.24-2.73,1.67,2.08,4.11,3.51,6.93,3.51,1.54,0,2.85-.55,4.04-1.23,1.19.68,2.5,1.23,4.04,1.23h24.32c2.52,0,4.73-1.16,6.37-2.88,1.63,1.72,3.85,2.88,6.37,2.88,1.54,0,2.85-.55,4.04-1.23,1.19.68,2.5,1.23,4.04,1.23h24.33c4.91,0,9.02-4.11,9.02-9.02s-4.11-9.02-9.02-9.02h-23.38v-42.7c0-4.91-4.11-9.02-9.02-9.02s-9.02,4.11-9.02,9.02v43.66c-1.13-.57-2.36-.96-3.71-.96h-23.38v-42.7c0-4.91-4.11-9.02-9.02-9.02ZM176.43,100.89c7.71,0,14.74,6.98,14.74,16.84s-7.03,16.84-14.74,16.84-14.74-6.98-14.74-16.84,7.02-16.84,14.74-16.84ZM279.12,114.8l.64,1.51h-1.29l.65-1.51ZM95.24,165.55c.13.26.15.54.31.79.02.04.05.07.07.11,0,0,0,.01.01.02l1.96,2.89c-.99.77-1.75,1.78-2.35,2.89v-6.7ZM280,167.16v35.64c-1.62-1.83-3.92-3.05-6.51-3.05h-20.89v-7.68h16.48c4.79,0,8.8-4.01,8.8-8.8s-4.01-8.8-8.8-8.8h-16.48v-4.15h20.81c2.64,0,4.95-1.27,6.58-3.16ZM465.14,167.38v35.21c-1.62-1.72-3.86-2.84-6.36-2.84h-20.89v-7.68h16.48c4.79,0,8.8-4.01,8.8-8.8,0-4.79-4.01-8.8-8.8-8.8h-16.48v-4.15h20.81c2.54,0,4.81-1.17,6.43-2.95ZM160.39,170.32h9.27c1.29,0,1.91.17,2.18.3.26.12.31.18.6.57.27.36.77,1.88.77,3.26,0,1.92-.42,2.47-.71,2.77-.33.35-.5.55-1.96.55h-10.16v-7.45ZM204.88,170.32h10.16c1.2,0,1.87.14,2.15.24s.21.08.27.15c-.09-.09.31.37.31,1.98,0,1.37-.43,2-.26,1.8-.1.11.06.02-.18.11-.24.09-.89.24-2.15.24h-10.3v-4.51ZM297.6,170.32h9.28c1.29,0,1.92.18,2.18.3s.31.18.6.57c.27.36.77,1.88.77,3.26,0,1.92-.42,2.47-.71,2.77-.33.35-.5.55-1.96.55h-10.16v-7.45ZM390.18,170.32h10.16c1.2,0,1.87.14,2.15.24.29.1.21.08.27.15-.09-.09.31.37.31,1.98,0,1.37-.43,2-.26,1.8-.1.11.06.02-.18.11-.24.09-.89.24-2.15.24h-10.3v-4.51ZM482.75,170.32h.14c.82.06,1.47.12,2.07.21,0,0,.01,0,.02,0,1.78.28,3.29.76,4.52,1.4,1.11.57,2.16,1.45,2.98,2.47.91,1.18,1.66,2.72,2.12,4.43.49,1.93.74,4.11.74,6.34v.15c0,2.32-.25,4.43-.77,6.26,0,0,0,0,0,0,0,0,0,0,0,0,0,.02,0,.03-.01.05-.53,1.92-1.38,3.58-2.26,4.61,0,0,0,0,0,0-.02.02-.03.03-.04.05-1.23,1.48-2.93,2.44-4.4,2.94-.9.28-1.81.45-2.59.49h-2.51v-29.43ZM235,177.03v25.11l-11.78-11.17c2.23-.79,4.37-1.82,6.19-3.46,2.95-2.67,4.83-6.34,5.59-10.47ZM420.29,177.03v25.11l-11.78-11.17c2.23-.79,4.37-1.82,6.19-3.46,2.95-2.67,4.83-6.34,5.59-10.47ZM142.79,197.16v8.13c-.2-.49-.28-1.02-.57-1.48-.02-.04-.05-.07-.07-.11,0,0,0-.01-.01-.02l-2.01-2.98c1.18-.92,2.07-2.16,2.67-3.54h0ZM390.18,197.77l18.11,17.18s0,0,0,0c.03.03.05.05.08.08h0c3.45,3.16,9.06,3.17,12.41-.48.42-.46.63-1.02.94-1.54,1.56,2.54,4.24,4.35,7.38,4.35,1.16,0,2.17-.33,3.09-.74.92.41,1.92.74,3.09.74h23.52c3.3,0,6.13-1.96,7.63-4.71,1.53,2.66,4.3,4.56,7.53,4.56,1.12,0,2.09-.31,2.98-.68.97.46,2.02.83,3.27.83h5.59c.09,0,.17,0,.26,0,2.52-.1,4.95-.59,7.23-1.35h0c4.15-1.36,8.79-3.97,12.5-8.46h0c.49-.59.86-1.2,1.28-1.81.31.98.64,1.98.92,2.96,1.09,3.83,2.09,7.7,2.99,11.61,4.06,17.57,6.2,35.88,6.2,54.7,0,76.73-35.74,144.89-91.35,189.26-.1-7.06-.13-12.62.17-15.01.54-4.42,2.09-7.81,6.54-20.23,2.55-7.12,5.53-14.58,8.21-20.72,1.33-3.04,2.68-5.89,3.79-8.1,1.11-2.21,2.08-3.92,2.25-4.16.04-.06.08-.12.12-.19,8.44-12.32,13.22-23.91,10.02-35.62-1-3.65-2.7-7.08-4.94-10.29-.89-1.28-1.88-2.53-2.94-3.77-4.7-5.43-10.98-10.46-18.78-15.88l-.13-.1s-.02-.01-.01-.01c-.03-.02-.06-.05-.09-.07.03.02-.06-.04-.07-.05h0s-.05-.04-.07-.06h0c.05.03.07.04-.05-.04h0c-3.4-2.36-8.44-6.17-12.8-10.63-.79-.81-1.56-1.64-2.29-2.49-1.1-1.27-2.12-2.57-3.01-3.87-2.37-3.47-3.81-6.94-4.1-9.94-.31-3.15.15-5.71,2.85-9.54,0-.01.02-.03.03-.04,2.6-2.45,4.76-5.46,5.94-9.16.18-.56.34-1.13.49-1.7h0s0-.02,0-.02c.14-.56.28-1.14.39-1.72,0,0,0,0,0-.01h0s0-.05.01-.07h0c.11-.55.21-1.12.3-1.71.46-3.04.63-6.3.63-9.96,0-6.2-.67-12.07-2.01-17.55-.22-.91-.46-1.81-.72-2.7-.78-2.67-1.74-5.24-2.86-7.69-.38-.83-.77-1.63-1.18-2.41-.73-1.4-1.52-2.72-2.35-4l-.1-.17c-.04-.07-.08-.15-.13-.22-.03-.06-.07-.12-.11-.18,0,0,0,0,0,0-.44-.66-.89-1.29-1.33-1.89l-.06-.08s-.04-.05-.05-.08c-.02-.03-.04-.06-.06-.09,0,0,0,0,0,0-.52-.7-1.06-1.39-1.62-2.06-.56-.67-1.13-1.33-1.73-1.96-4.76-5.1-10.61-9.05-17.23-11.68-.32-.13-.69-.19-1.01-.31,2.61-1.54,4.48-4.27,4.48-7.47v-10.78ZM364.81,229.91c11.95,0,20.36,3.66,26.32,10.05,5.94,6.37,9.61,15.95,9.61,29.15,0,4.9-.49,8.27-1,9.86-.63,1.96-.37,1.53-1.46,2.29h0s-.23.17-.23.17c-.67.47-1.26,1.06-1.73,1.73l-.16.22s0,0,0,0c0,0,0,0,0,0,0,0-.02.02-.02.03-.06.09-.1.18-.16.27-4.66,6.74-6.48,14.15-5.81,21.05.67,6.92,3.56,13,7.07,18.13,7.02,10.25,16.91,17.57,22.59,21.5,0,0,.02.01.03.02,0,0,0,0,.01,0,4.1,2.83,7.53,5.44,10.32,7.85h0s.01.01.02.02c0,0,0,0,0,0,.55.48,1.08.94,1.58,1.4.5.46.99.92,1.45,1.37.13.13.35.36.64.66.45.45.86.89,1.25,1.32.27.3.48.52.53.57,0,0,.02.02.02.02h0s.19.24.43.52c0,.01.02.02.03.04.88,1.05,1.6,2.03,2.13,2.89.44.71.79,1.37,1.08,2,.28.63.49,1.22.65,1.79.16.58.27,1.16.33,1.75.06.59.08,1.2.05,1.84-.05.97-.21,2.03-.53,3.22-.21.79-.49,1.65-.84,2.57-.53,1.37-1.23,2.89-2.12,4.53-.29.54-.61,1.11-.95,1.7-1.01,1.74-2.21,3.62-3.61,5.64-.61.89-1.2,1.86-1.79,2.93-1.79,3.2-3.73,7.35-5.87,12.24h0c-.03.07-.05.13-.08.2-2.84,6.51-5.89,14.16-8.57,21.63-3.24,9.06-5.23,13.77-6.48,18.82-.42,1.69-.74,3.39-.96,5.18-.11.88-.19,1.76-.25,2.68-.19,2.75-.22,5.76-.19,9.53.04,4.1.18,10,.3,16.69-6.07,3.96-11.94,7.65-17.52,10.78-2.18,1.22-4.35,2.39-6.5,3.51-3.22,1.68-6.42,3.24-9.63,4.7-2.14.98-4.28,1.91-6.44,2.8-3.24,1.34-6.5,2.59-9.85,3.77-2.23.79-4.48,1.54-6.79,2.26-13.99,4.41-30.32,7.76-49.84,11.01.23-3.25.44-6.49.56-9.68.16-4.02.24-7.97.26-11.82.02-3.85-.01-7.6-.1-11.21-.04-1.8-.09-3.57-.15-5.3-.12-3.46-.28-6.75-.46-9.84-.18-3.09-.38-5.97-.6-8.62-.43-5.29-.89-9.61-1.27-12.65l-2.66-21.29h0s0-.03,0-.05h0c-.2-1.6-1.02-2.97-2.14-4.08-.14-.25-.33-.47-.56-.65-.19-.15-.21-.16-.04-.03h0s0,0,0,0c-.01,0,0,0-.01-.02-.02-.01-.03-.02-.05-.04-.1-.07-.19-.13-.29-.2l.06.04s-.03-.03-.22-.15c-.02-.01-.04-.03-.07-.04h0s-.02-.01-.03-.02c0,0-.01,0-.02-.01,0,0,0,0,0,0-.01,0-.02-.01-.03-.02h.01c-.51-.3-1.1-.44-1.68-.6-.24-.15-.5-.26-.78-.31-.21-.04-.24-.03-.09-.01h0c.81.12.8.12-.03-.01-.02,0-.04,0-.06,0-.11-.01-.22-.03-.33-.03-.02,0-.02,0-.17-.02h0c-.07,0-.13,0-.2-.01h0c-.45-.02-.48,0-.08,0-.02,0-.03,0-.05,0-.02,0-.04,0-.06,0h-.03c-.11,0-.23.01-.34.03-.27,0-.53,0-.82.05-.72.11-1.42.33-2.08.67,0,0,0,0,0,0l-11.02,5.54s-.01,0-.02.01h0c-1.36.69-2.68,1.3-3.95,1.86-1.27.55-2.5,1.05-3.7,1.47-7.18,2.57-12.8,3-19.19,1.52-8.42-1.95-18.62-8-32.13-19.61-3.02-2.6-5.2-4.75-6.61-6.22-.56-.59-.92-.98-1.24-1.34.16-.53.56-1.79,1.38-3.78,3.93-9.49,3.84-17.82-.1-28.72-1.05-2.89-1.65-5.84-3.58-9.14-1.8-3.07-4.72-5.33-8.15-6.53.27-.26.52-.57.78-.89,0,0,.03.01.03.01l-.1.15s-.28.33-.31.36c-.03.02-.04.04-.06.05-.2.17.04-.04.13-.1.18-.12.6-.38.92-.53,1.05-.47,2.85-1.05,4.32-1.32,2.38-.44,4.54-.89,6.26-1.3.84-.2,1.61-.4,2.38-.65.35-.11.89-.3,1.51-.58.05-.02.66-.39,1.18-.7,1.04-.13,2.86-.27,4.73-.26,1.04,0,2.09.05,3.06.11h0c.97.07,1.86.16,2.5.26.27.04.38.07.52.11.07.05.14.09.21.13-.8.77-1.57,1.6-2.2,2.62-1.08,1.76-1.73,3.66-2.09,5.51-.12.6-.21,1.21-.28,1.83-.27,2.41-.22,4.78-.13,7.38.31,8.91,4.28,17.35,9.44,24.07,5.09,6.64,12.09,12.93,21.24,12.93,3.8,0,7.03-1.36,9.71-2.82,2.79-1.52,5.48-3.52,7.76-6.04,2.91-3.21,5.53-7.31,5.95-12.46.39-4.79-.78-9.26-2.46-15.03-2.41-8.28-4.58-14.33-7.82-19.04-1.19-1.73-2.81-3.32-4.7-4.67,10.88-3.84,18.5-5.31,25.04-5.06h0c1.03.04,2.05.12,3.07.24,1.46.17,2.91.29,4.36.36.72.03,1.45.05,2.19.05,9.48.05,18.91-2.33,30.19-7.06,8.49-3.56,13.96-5.63,18.22-9.96,2.39-2.43,3.89-5.5,4.4-8.69.47-2.9.22-5.5-.05-7.95h0c-.19-1.72-.48-3.46-.87-5.19-.58-2.59-1.36-5.16-2.36-7.56-.33-.81-.69-1.59-1.07-2.36-.39-.77-.8-1.51-1.26-2.23-.45-.72-.94-1.43-1.5-2.11-1.42-1.75-2.64-3.34-3.68-4.8-1.03-1.46-1.89-2.8-2.57-4.04-1.38-2.47-2.1-4.46-2.47-6.5-.18-1.02-.28-2.07-.29-3.24,0-3.5.9-8.19,3-14.87,2.88-9.15,5.75-14.36,8.61-17.12.22-.21.43-.4.62-.57.2-.17.41-.34.64-.51,2.6-1.97,6.05-3.22,12.2-3.76,2.05-.18,4.36-.27,6.97-.27h0ZM217.27,347.08c-.11.22-.38.68-.39.7.17-.23.37-.65.39-.7ZM251.97,358.32c1.03,1.72,3.09,6.34,5.14,13.4.76,2.61,1.24,4.67,1.52,6.15.27,1.48.31,2.52.31,2.54-.06.68,0,.41-.02.46-.03.05-.47.59-1.46,1.68-.59.65-2.07,1.82-3.15,2.41-.29.16-1.01.4-1.54.54,0,0-.01,0-.02,0-.07-.02-.1-.03-.18-.06-.5-.2-1.2-.53-1.92-1.02-1.53-1.04-3.4-2.78-5.01-4.87-3.25-4.24-5.71-10.53-5.83-14.01-.07-1.93.04-3.32.15-4.25.4-.12.47-.18,1.19-.33,4.03-.87,7.86-1.84,10.83-2.65h0ZM195.13,366.75s.08.06.09.07c-.03-.02-.05-.04-.09-.07ZM195.37,366.97s.18.19.19.21c-.02-.02-.11-.12-.19-.21ZM195.59,367.23c.04.06.04.24.12.21-.06-.1-.11-.18-.12-.21ZM193.53,370.55c.06.01.17.03.34.02h0s-.22,0-.22,0c0,0-.07,0-.12-.02h0ZM284.6,439.76l-.05.05h0s.04-.04.06-.05h0Z"/>
    <path id="path827" class="cls-1" d="M275,21.88c-139.77,0-253.12,113.35-253.12,253.12s113.35,253.12,253.12,253.12c5.01,0,9.98-.16,14.91-.45.1.17.3.27.5.24l2.15-.33c.28-.04.53-.08.8-.13,131.19-9.42,234.75-118.86,234.75-252.45S414.77,21.88,275,21.88ZM275,26.24c64.47,0,123.2,24.51,167.38,64.72l-13.33,14.48c-.89.97-.81,2.51.16,3.39.97.89,2.51.81,3.39-.16l13.29-14.44c16.14,15.27,30.25,32.67,41.85,51.76,2.08,3.42,4.08,6.89,5.99,10.42,1.4,2.58,2.74,5.19,4.05,7.82-1.05-.84-2.17-1.58-3.34-2.2-2.5-1.32-5.22-2.13-7.94-2.57-1.1-.15-2.28-.22-3.38-.29l.15.15h-2.57c-1.25,0-2.2.96-2.2,2.21s.95,2.21,2.2,2.21h2.5c.96.07,1.84.15,2.79.29,2.35.37,4.56,1.03,6.54,2.06s3.75,2.5,5.14,4.26c1.54,1.98,2.65,4.34,3.31,6.83.66,2.57.96,5.29.96,8.01v.15c0,2.79-.29,5.51-1.03,8.08-.73,2.65-1.91,5.14-3.6,7.13-2.2,2.65-5,4.19-7.42,5-1.4.44-2.86.74-4.33.81h-5.37c-1.25,0-2.21.96-2.21,2.21s.96,2.2,2.21,2.2h5.58c1.84-.07,3.68-.44,5.44-1.03,3.16-1.03,6.69-3.01,9.48-6.39,2.13-2.57,3.53-5.66,4.41-8.82.81-3.09,1.1-6.25,1.1-9.33v-.15c0-.71-.02-1.42-.05-2.13,3.11,7.81,5.85,15.81,8.17,23.99,1.12,3.94,2.14,7.91,3.07,11.92,4.17,18.06,6.37,36.86,6.37,56.19,0,83.56-41.18,157.48-104.35,202.58-.27-16.28-.6-24.09.02-29.14.67-5.47,2.47-9.35,6.88-21.65,2.61-7.28,5.63-14.84,8.37-21.13,2.75-6.29,5.32-11.42,6.65-13.36,8.1-11.78,11.69-21.24,9.21-30.32-.77-2.83-2.1-5.56-3.98-8.25-.75-1.08-1.59-2.15-2.52-3.23-4.18-4.83-10.16-9.69-17.94-15.06,0,0,0,0-.01-.01-.01,0-.02-.02-.03-.02-3.61-2.5-8.95-6.51-13.77-11.45-.88-.9-1.73-1.83-2.56-2.78-1.24-1.43-2.41-2.92-3.46-4.46-2.81-4.11-4.78-8.53-5.22-13.02-.44-4.49.58-9.09,4.02-13.98,2.31-1.8,4.06-4.22,5.08-7.41.14-.43.26-.87.38-1.33.12-.45.22-.92.32-1.41,0,0,0,0,0,0,.1-.48.19-.98.26-1.49.39-2.57.56-5.52.56-8.96,0-5.73-.62-11.07-1.82-15.98-.2-.82-.42-1.62-.65-2.42-.7-2.38-1.54-4.65-2.52-6.8-.33-.72-.67-1.42-1.03-2.11-.72-1.38-1.5-2.7-2.34-3.97,0,0,0,0,0,0-.42-.63-.86-1.25-1.31-1.86,0,0,0,0,0,0-.45-.61-.91-1.2-1.39-1.77s-.97-1.14-1.48-1.69c-4.08-4.37-9.07-7.76-14.84-10.04-2.16-.86-4.43-1.56-6.81-2.11-2.37-.55-4.84-.93-7.41-1.15-1.71-.15-3.46-.22-5.25-.22-1.42,0-2.8.02-4.12.07-1.99.08-3.87.22-5.65.43-6.53.77-11.72,2.51-15.99,5.75-1.94,1.47-3.66,3.23-5.21,5.29-.62.82-1.21,1.7-1.79,2.62-2.57,4.16-4.69,9.34-6.7,15.72-.38,1.2-.73,2.35-1.05,3.47s-.61,2.21-.87,3.27c-.52,2.11-.92,4.1-1.19,6.01-.13.95-.24,1.88-.3,2.79,0,0,0,0,0,0-.03.45-.06.9-.07,1.35-.08,2.23.06,4.36.44,6.46,1.22,6.71,4.86,12.73,10.99,20.28.79.97,1.86,3.18,2.75,5.75s1.64,5.5,1.92,8.01c.24,2.23.31,3.87.13,5.02-.19,1.17-.51,1.86-1.41,2.77-.44.45-1.05.92-1.84,1.44-2.39,1.54-6.47,3.45-12.81,6.11-10.5,4.41-18.21,6.28-25.88,6.22-.59,0-1.18-.02-1.77-.05-1.18-.05-2.37-.15-3.57-.3-3.89-.46-7.84-.47-12.07.02-1.41.16-2.86.38-4.34.65-5.94,1.08-12.51,3.04-20.28,5.96-5.88,2.21-11.44,3.89-15.56,4.79-2.06.45-3.77.7-4.88.74-.53.02-.94-.02-1.06-.04-.45-.44-.94-.75-1.41-.96,0,0,0,0,0,0-.16-.07-.31-.13-.46-.18-.84-.28-1.78-.48-2.83-.64-2.11-.32-4.65-.48-7.15-.5-2.51-.02-4.96.11-6.92.41-.98.15-1.84.34-2.63.66-.39.16-.81.37-1.22.75-.14.13-.14.2-.16.27-.33.1-.84.24-1.51.41-1.42.34-3.44.77-5.66,1.18-2.43.45-4.82,1.2-6.82,2.1-1.86.84-3.44,1.68-4.46,3.15,0,0-.02.01-.03.02-.05.04-.05.04-.07.06-.06.06-.15.14-.27.21-.31.19-.82.47-1.47.77-1.3.6-3.16,1.33-5.39,2.1-4.47,1.55-10.45,3.3-16.79,4.85-6.97,1.7-12.81,3.4-17.34,4.94-4.52,1.54-7.67,2.86-9.6,4.17-.48.32-.91.66-1.29,1.12-.1.11-.2.25-.29.4-.1.15-.19.32-.27.51,0,0,0,0,0,0-.08.19-.14.39-.17.61-.03.22-.04.46,0,.72.02.13.04.26.08.38.24.85.89,1.43,1.44,1.72.57.31,1.13.43,1.71.52.59.09,1.26.14,2.01.16,2.27.04,5.35-.24,9.61-.84,24.6-3.47,36-5.23,40.76-4.64,1.21.15,1.94.36,2.44.66.12.07.24.16.34.25.11.09.2.19.3.3.19.22.37.49.57.83.76,1.3,1.46,3.83,2.73,7.33.66,1.84,1.2,3.44,1.62,4.88.14.48.26.94.38,1.39.45,1.79.67,3.35.69,4.84.02,1.49-.17,2.92-.57,4.48-.1.39-.21.79-.34,1.2-.38,1.23-.88,2.55-1.5,4.04-.25.61-.49,1.19-.71,1.75-.67,1.67-1.18,3.13-1.48,4.55-.25,1.19-.31,2.39-.15,3.55.03.23.08.47.13.7.11.46.25.92.44,1.38.37.89.87,1.75,1.5,2.61.32.43.67.86,1.05,1.3,1.93,2.2,4.75,4.6,8.67,7.96,2.65,2.28,5.2,4.38,7.68,6.31,2.48,1.93,4.87,3.69,7.21,5.29,7.79,5.31,14.89,8.74,21.9,10.37,1.4.33,2.8.58,4.19.75.7.09,1.39.16,2.09.21,1.39.1,2.78.14,4.17.1,7.66-.22,15.38-2.57,23.77-6.8l6.19-3.12,1.99,15.95c.18,1.44.38,3.22.59,5.29.42,4.13.87,9.42,1.22,15.51.18,3.05.34,6.3.46,9.71.06,1.7.11,3.45.15,5.22.27,12.45,0,26.56-1.45,40.49-2.53.15-5.06.27-7.61.36-2.55.08-5.1.12-7.67.12-6.44,0-12.82-.24-19.14-.72-4.21-.32-8.39-.75-12.54-1.27-29.05-3.69-56.54-12.39-81.57-25.21-3.58-1.83-7.1-3.75-10.57-5.74-12.15-6.99-23.66-14.97-34.41-23.84-3.07-2.53-6.08-5.14-9.03-7.82-23.56-21.41-42.99-47.29-56.96-76.29-.87-1.81-1.72-3.64-2.55-5.47-.83-1.84-1.64-3.69-2.43-5.55-.79-1.86-1.55-3.73-2.29-5.61-1.48-3.77-2.88-7.58-4.18-11.43-.65-1.93-1.28-3.86-1.89-5.81-7.27-23.37-11.18-48.22-11.18-73.98,0-2.15.03-4.29.08-6.42.16-6.4.56-12.74,1.2-19.02.21-2.09.45-4.17.71-6.25.26-2.08.55-4.14.87-6.2.31-2.06.65-4.11,1.02-6.15,2.55-14.29,6.32-28.17,11.21-41.5.7-1.91,1.42-3.8,2.16-5.68,1.77-4.48,3.67-8.89,5.69-13.24v25.52c0,1.25.95,2.21,2.2,2.21s2.21-.96,2.21-2.21v-34.54s0-.02,0-.04c1.79-3.49,3.66-6.93,5.61-10.32,1-1.74,2.02-3.46,3.06-5.17,2.08-3.42,4.23-6.78,6.47-10.09,1.12-1.65,2.25-3.29,3.41-4.92,0,0,0,0,0,0,1.16-1.63,2.33-3.24,3.53-4.83,8.6-11.5,18.17-22.21,28.59-32.05.29.12.62.19.97.19h37.9c1.37,0,2.42-1.05,2.42-2.42s-1.05-2.42-2.42-2.42h-33.8c23.21-20.74,50.34-37.2,80.14-48.11,3.81-1.39,7.66-2.7,11.56-3.91,3.89-1.21,7.83-2.33,11.8-3.35,15.9-4.09,32.41-6.65,49.38-7.51,4.24-.21,8.51-.32,12.8-.32h0ZM176.51,89.45c-14.63,0-26.18,12.85-26.18,28.28s11.56,28.29,26.18,28.29,26.18-12.85,26.18-28.29-11.56-28.28-26.18-28.28ZM210.96,89.45c-1.37,0-2.42,1.05-2.42,2.42s1.05,2.42,2.42,2.42h37.9c1.37,0,2.42-1.05,2.42-2.42s-1.05-2.42-2.42-2.42h-37.9ZM315.26,89.45c-1.37,0-2.43,1.05-2.43,2.42v51.72c0,1.37,1.05,2.43,2.43,2.43s2.42-1.05,2.42-2.43v-51.72c0-1.37-1.05-2.42-2.42-2.42ZM360.4,89.45c-1.37,0-2.42,1.05-2.42,2.42v51.72c0,1.37,1.05,2.43,2.42,2.43s2.42-1.05,2.42-2.43v-51.72c0-1.37-1.05-2.42-2.42-2.42ZM279.08,89.47c-.32,0-.63.08-.94.22-1.21.57-1.78,2.02-1.21,3.23l22.14,51.72c.57,1.21,2.02,1.78,3.23,1.21s1.78-2.02,1.21-3.23l-22.14-51.72c-.42-.91-1.35-1.45-2.3-1.43h0ZM400.72,89.47c-.62-.03-1.24.17-1.73.62-.97.89-1.05,2.42-.16,3.39l22.06,24.08c.89.97,2.42,1.05,3.39.16.97-.89,1.05-2.42.16-3.39l-22.06-24.08c-.44-.48-1.05-.75-1.67-.78h0ZM176.43,94.29c11.64,0,21.34,10.34,21.34,23.44s-9.7,23.44-21.34,23.44-21.33-10.34-21.33-23.44,9.7-23.44,21.33-23.44ZM124.12,96.72c-1.37,0-2.42,1.05-2.42,2.43v44.45c0,1.37,1.05,2.43,2.42,2.43s2.42-1.05,2.42-2.43v-44.45c0-1.37-1.05-2.43-2.42-2.43h0ZM229.87,96.72c-1.37,0-2.42,1.05-2.42,2.43v44.45c0,1.37,1.05,2.43,2.42,2.43s2.43-1.05,2.43-2.43v-44.45c0-1.37-1.05-2.43-2.43-2.43h0ZM274.94,99.33c-.95-.02-1.87.52-2.29,1.43l-17.94,41.86c-.57,1.21,0,2.67,1.21,3.23,1.21.57,2.67,0,3.23-1.21l17.94-41.86c.57-1.21,0-2.67-1.21-3.23-.3-.14-.62-.21-.94-.22ZM422.67,121.77c-1.37,0-2.43,1.05-2.43,2.42v19.39c0,1.37,1.05,2.43,2.43,2.43s2.42-1.05,2.42-2.43v-19.39c0-1.37-1.05-2.42-2.42-2.42h0ZM272.56,122.9c-1.37,0-2.42,1.05-2.42,2.43s1.05,2.42,2.42,2.42h12.93c1.37,0,2.42-1.05,2.42-2.42s-1.05-2.43-2.42-2.43h-12.93ZM323.34,141.16c-1.37,0-2.42,1.05-2.42,2.42s1.05,2.43,2.42,2.43h24.32c1.37,0,2.43-1.05,2.43-2.43s-1.05-2.42-2.43-2.42h-24.32ZM368.48,141.16c-1.37,0-2.42,1.05-2.42,2.42s1.05,2.43,2.42,2.43h24.33c1.37,0,2.42-1.05,2.42-2.43s-1.05-2.42-2.42-2.42h-24.33ZM473.95,159.17c-1.25,0-2.21.96-2.21,2.21v47.03c0,1.25.96,2.21,2.21,2.21s2.21-.96,2.21-2.21v-47.03c0-1.25-.96-2.21-2.21-2.21h0ZM134.75,159.32c-1.25,0-2.21.96-2.21,2.21v32.33c0,1.25.96,2.2,2.21,2.2s2.2-.95,2.2-2.2v-32.33c0-1.25-.95-2.21-2.2-2.21ZM151.59,159.32c-1.25,0-2.21.96-2.21,2.21v47.03c0,1.25.96,2.2,2.21,2.2s2.21-.95,2.21-2.2v-47.03c0-1.25-.96-2.21-2.21-2.21ZM159.01,159.32c-1.25,0-2.21.96-2.21,2.21s.96,2.21,2.21,2.21h10.65c8.08,0,10.14,5.95,10.14,10.73,0,6.32-3.67,9.92-9.26,9.92h-11.32c-1.25,0-2.21.96-2.21,2.21s.96,2.21,2.21,2.21h11.32c7.64,0,13.67-5.14,13.67-14.33,0-7.94-4.48-15.14-14.55-15.14h-10.65ZM196.08,159.32c-1.25,0-2.2.96-2.2,2.21v47.03c0,1.25.95,2.2,2.2,2.2s2.21-.95,2.21-2.2v-47.03c0-1.25-.96-2.21-2.21-2.21ZM203.43,159.32c-1.25,0-2.21.96-2.21,2.21s.96,2.21,2.21,2.21h11.61c7.05,0,9.33,3.82,9.33,8.96,0,4.56-1.84,8.74-9.19,8.74h-11.32c-1.25,0-2.21.96-2.21,2.21s.96,2.21,2.21,2.21h11.32c8.01,0,13.59-4.26,13.59-13.08s-5.51-13.37-13.74-13.37v-.07h-11.61ZM243.8,159.32c-1.25,0-2.2.96-2.2,2.21v47.03c0,1.25.95,2.2,2.2,2.2s2.21-.95,2.21-2.2v-47.03c0-1.25-.96-2.21-2.21-2.21ZM250.12,159.32c-1.25,0-2.21.96-2.21,2.21s.96,2.21,2.21,2.21h23.29c1.25,0,2.21-.96,2.21-2.21s-.96-2.21-2.21-2.21h-23.29ZM288.8,159.32c-1.25,0-2.21.96-2.21,2.21v47.03c0,1.25.96,2.2,2.21,2.2s2.21-.95,2.21-2.2v-47.03c0-1.25-.96-2.21-2.21-2.21ZM296.22,159.32c-1.25,0-2.21.96-2.21,2.21s.96,2.21,2.21,2.21h10.66c8.08,0,10.14,5.95,10.14,10.73,0,6.32-3.67,9.92-9.26,9.92h-11.32c-1.25,0-2.21.96-2.21,2.21s.96,2.21,2.21,2.21h11.32c7.64,0,13.67-5.14,13.67-14.33,0-7.94-4.48-15.14-14.55-15.14h-10.66ZM381.37,159.32c-1.25,0-2.2.96-2.2,2.21v47.03c0,1.25.95,2.2,2.2,2.2s2.21-.95,2.21-2.2v-47.03c0-1.25-.96-2.21-2.21-2.21ZM388.72,159.32c-1.25,0-2.21.96-2.21,2.21s.96,2.21,2.21,2.21h11.61c7.05,0,9.33,3.82,9.33,8.96,0,4.56-1.84,8.74-9.19,8.74h-11.32c-1.25,0-2.21.96-2.21,2.21s.96,2.21,2.21,2.21h11.32c8.01,0,13.59-4.26,13.59-13.08s-5.51-13.37-13.74-13.37v-.07h-11.61ZM429.09,159.32c-1.25,0-2.2.96-2.2,2.21v47.03c0,1.25.95,2.2,2.2,2.2s2.21-.95,2.21-2.2v-47.03c0-1.25-.96-2.21-2.21-2.21ZM435.41,159.32c-1.25,0-2.21.96-2.21,2.21s.96,2.21,2.21,2.21h23.29c1.25,0,2.21-.96,2.21-2.21s-.96-2.21-2.21-2.21h-23.29ZM103.01,159.33c-.43,0-.87.1-1.25.35-1.03.66-1.32,2.06-.66,3.09l31.82,47.03c.66,1.03,2.06,1.32,3.09.66s1.32-2.06.66-3.09l-31.82-47.03c-.41-.64-1.11-1-1.83-1.01h0ZM348.4,159.34c-.29,0-.58.07-.85.2-1.1.51-1.62,1.84-1.1,2.94l20.14,47.03c.51,1.1,1.84,1.62,2.94,1.1s1.62-1.84,1.1-2.94l-20.13-47.03c-.39-.83-1.23-1.32-2.09-1.3ZM86.44,159.39c-1.25,0-2.21.95-2.21,2.2v34.54c0,1.25.96,2.21,2.21,2.21s2.21-.96,2.21-2.21v-34.54c0-1.25-.96-2.2-2.21-2.2ZM344.64,168.3c-.86-.02-1.7.47-2.09,1.3l-16.31,38.07c-.51,1.1,0,2.43,1.1,2.94s2.43,0,2.94-1.1l16.31-38.07c.51-1.1,0-2.43-1.1-2.94-.28-.13-.56-.19-.85-.2h0ZM102.93,174.01c-1.25,0-2.21.96-2.21,2.21v32.33c0,1.25.96,2.2,2.21,2.2s2.21-.95,2.21-2.2v-32.33c0-1.25-.96-2.21-2.21-2.21ZM250.12,181.07c-1.25,0-2.21.96-2.21,2.21s.96,2.2,2.21,2.2h18.96c1.25,0,2.21-.95,2.21-2.2s-.96-2.21-2.21-2.21h-18.96ZM435.41,181.07c-1.25,0-2.21.96-2.21,2.21s.96,2.2,2.21,2.2h18.96c1.25,0,2.21-.95,2.21-2.2s-.96-2.21-2.21-2.21h-18.96ZM208.84,187.3c-.56,0-1.11.23-1.52.67-.81.88-.81,2.28.07,3.09l20.13,19.11c.88.81,2.28.81,3.09-.07.81-.88.81-2.28-.07-3.09l-20.13-19.11c-.44-.4-1.01-.61-1.57-.6h0ZM394.13,187.3c-.56,0-1.11.23-1.52.67-.81.88-.81,2.28.07,3.09l20.13,19.11c.88.81,2.28.81,3.09-.07.81-.88.81-2.28-.07-3.09l-20.13-19.11c-.44-.4-1.01-.61-1.57-.6h0ZM342.48,189.74c-1.25,0-2.21.95-2.21,2.2s.96,2.21,2.21,2.21h11.76c1.25,0,2.2-.96,2.2-2.21s-.95-2.2-2.2-2.2h-11.76ZM54.13,201.16c-.56-.03-1.13.15-1.57.56-.88.81-.95,2.21-.15,3.09,1.47,1.54,3.16,2.72,4.92,3.6,3.09,1.47,6.91,2.35,11.46,2.35,5.73,0,9.48-1.32,11.54-2.35,1.76-.88,3.45-2.06,4.92-3.6.81-.88.74-2.28-.15-3.09-.88-.81-2.28-.73-3.09.15-.96,1.03-2.21,1.91-3.6,2.57-1.69.81-4.78,1.91-9.63,1.91-2.35,0-6.1-.22-9.48-1.84l-.07-.07c-1.4-.66-2.65-1.54-3.6-2.57-.4-.44-.96-.68-1.52-.71h0ZM249.97,206.35c-1.25,0-2.21.96-2.21,2.21s.96,2.2,2.21,2.2h23.52c1.25,0,2.21-.95,2.21-2.2s-.96-2.21-2.21-2.21h-23.52ZM435.27,206.35c-1.25,0-2.21.96-2.21,2.21s.96,2.2,2.21,2.2h23.52c1.25,0,2.21-.95,2.21-2.2s-.96-2.21-2.21-2.21h-23.52ZM364.81,223.31c13.37,0,23.87,4.35,31.14,12.15,7.27,7.8,11.38,19.2,11.38,33.64,0,5.28-.44,9.14-1.32,11.88-.88,2.75-2.08,4.36-3.95,5.68l-.24.17s-.09.07-.12.12l-.17.24c-3.99,5.64-5.34,11.46-4.81,16.92.53,5.46,2.86,10.53,5.95,15.05,6.18,9.04,15.47,16.04,20.9,19.8,0,0,0,0,0,0,0,0,0,0,.01,0,4.24,2.93,7.86,5.67,10.89,8.28,0,0,0,0,0,0,.61.52,1.19,1.04,1.75,1.55.56.51,1.1,1.02,1.61,1.52.25.25.49.49.73.74.5.51.98,1.02,1.44,1.52.21.23.44.47.64.7.19.22.36.44.54.66,1.03,1.23,1.92,2.44,2.67,3.63.58.94,1.08,1.87,1.5,2.79.41.92.75,1.84,1,2.76.25.92.43,1.84.53,2.79.1.94.13,1.9.08,2.88-.08,1.47-.32,2.99-.74,4.57-.28,1.06-.63,2.14-1.07,3.26-.65,1.68-1.47,3.43-2.47,5.29-.33.62-.69,1.24-1.06,1.88-1.11,1.92-2.4,3.93-3.87,6.07-.45.66-.94,1.47-1.47,2.41-1.58,2.83-3.49,6.87-5.58,11.66-2.79,6.39-5.84,14.03-8.48,21.41-3.28,9.16-5.21,13.83-6.29,18.18-.36,1.45-.62,2.87-.81,4.4-.09.75-.16,1.52-.22,2.34-.17,2.45-.21,5.29-.17,8.99.05,4.93.23,11.37.37,20.41-7.33,4.86-14.23,9.12-20.96,12.89-2.24,1.26-4.46,2.46-6.68,3.61-3.32,1.72-6.62,3.34-9.93,4.85-2.21,1.01-4.42,1.97-6.65,2.89-3.35,1.38-6.73,2.68-10.17,3.89-2.3.81-4.63,1.59-7,2.34-16.59,5.23-35.15,9.01-59.09,12.74.2-2.01.38-4.01.54-6.02.31-4.01.54-8,.7-11.94s.24-7.82.26-11.6c.02-3.78-.01-7.47-.09-11.02-.04-1.77-.09-3.51-.15-5.21-.12-3.4-.28-6.64-.46-9.68s-.38-5.88-.59-8.48c-.42-5.2-.87-9.43-1.24-12.37l-2.67-21.34c-.02-.13-.09-.25-.19-.33h0s-.03-.02-.04-.03h0c-.06-.03-.12-.06-.18-.07h0s-.03,0-.05,0c-.03,0-.07,0-.1,0-.05,0-.1.02-.15.05l-11.04,5.55c-1.46.73-2.88,1.41-4.28,2.01s-2.77,1.15-4.11,1.64c-8.07,2.89-15.32,3.5-22.91,1.73-10.12-2.35-21.06-9.1-34.94-21.04-6.24-5.36-9.25-8.33-10.04-10.25-.41-.99-.46-1.75-.18-3.09.28-1.32.96-3.12,1.95-5.53,3.51-8.47,3.46-13.81-.21-23.96-1.2-3.31-1.79-5.86-3.07-8.05-1.31-2.23-3.61-3.75-6.85-4.15-6.41-.8-17.33,1.18-41.9,4.65-1.18.17-2.2.29-3.12.38-.92.09-1.73.16-2.49.2,1.22-.52,2.61-1.07,4.39-1.68,4.36-1.49,10.1-3.15,16.97-4.83,6.46-1.58,12.53-3.36,17.18-4.96,2.32-.8,4.28-1.56,5.79-2.26.76-.35,1.4-.68,1.95-1.03.52-.33,1.07-.66,1.54-1.41-.05.08-.02.03,0,0,.03-.03.09-.08.16-.14.14-.12.34-.28.59-.45.5-.35,1.2-.78,2.01-1.14,1.64-.74,3.77-1.41,5.83-1.79,2.28-.42,4.36-.85,5.9-1.23.77-.19,1.4-.35,1.91-.52.25-.08.48-.16.73-.28.11-.05.29-.13.51-.3.13-.1.3-.33.46-.55.24-.09.81-.25,1.55-.37,1.58-.25,3.89-.38,6.22-.36,1.17,0,2.35.05,3.46.13,0,0,0,0,0,0,1.11.08,2.16.18,3.06.32.89.14,1.65.31,2.1.47.18.06.27.12.36.19.01,0,.02.02.05.03.01,0,.03.02.06.03.01,0,.03.01.05.02.01,0,.03,0,.06.01.14.14.29.27.44.38s.3.21.46.29c.3.16.6.27.87.32.69.15,1.38.16,2.15.13.38-.02.79-.05,1.22-.09.85-.09,1.79-.23,2.81-.43.51-.1,1.04-.21,1.59-.33,4.42-.96,10.12-2.69,16.16-4.96,13.32-5.01,22.6-7,31.07-6.66,0,0,0,0,0,0,1.21.05,2.4.14,3.59.28,1.3.15,2.59.26,3.88.32.64.03,1.29.05,1.93.05,8.36.05,16.8-2.02,27.6-6.55,8.5-3.56,13.21-5.6,16.06-8.5,1.44-1.46,2.29-3.22,2.59-5.12.3-1.88.16-3.84-.1-6.18-.16-1.46-.41-2.97-.75-4.47-.5-2.25-1.19-4.48-2.01-6.48-.28-.67-.57-1.3-.87-1.91-.3-.6-.62-1.17-.95-1.7-.33-.53-.68-1.01-1.03-1.45-1.49-1.83-2.8-3.54-3.94-5.16s-2.12-3.15-2.95-4.63c-1.65-2.96-2.69-5.71-3.2-8.54-.26-1.42-.39-2.87-.39-4.4-.01-4.6,1.11-9.89,3.31-16.87,3.03-9.62,6.16-15.88,10.33-19.89.3-.29.6-.56.91-.83s.62-.52.94-.76c3.84-2.91,8.75-4.48,15.61-5.07,2.29-.2,4.79-.29,7.54-.29h0ZM253.18,346.94c-.67.03-1.33.14-1.98.34-1.96.59-7.68,2-12.38,3.02-3.84.83-6.76,1.93-8.39,4.6-.61.99-1,2.09-1.24,3.33-.08.41-.15.85-.2,1.3-.2,1.8-.18,3.89-.09,6.41.24,7.01,3.59,14.43,8.08,20.28,4.49,5.85,10.14,10.36,16,10.36,2.15,0,4.37-.83,6.56-2.02,2.19-1.19,4.34-2.81,6.03-4.67,2.42-2.67,4-5.26,4.27-8.57.27-3.3-.58-7.01-2.22-12.64-2.34-8.05-4.46-13.56-6.92-17.15-1.23-1.79-2.6-3.15-4.24-3.92-.83-.39-1.71-.6-2.59-.65-.22-.01-.45-.01-.67,0h0ZM253.61,351.24c.33.02.64.1.99.27.68.32,1.56,1.07,2.52,2.46,1.91,2.78,4.04,8.03,6.33,15.9,1.6,5.5,2.25,8.86,2.06,11.08-.18,2.24-1,3.64-3.16,6.03-1.28,1.42-3.11,2.81-4.89,3.78-1.78.97-3.62,1.49-4.49,1.49-3.39,0-8.55-3.42-12.57-8.67-4.03-5.25-6.99-12.11-7.19-17.8-.17-4.85.2-7.48.9-8.63.36-.59.86-1.04,1.73-1.46s2.12-.79,3.89-1.17c4.79-1.04,10.37-2.39,12.72-3.11.23-.07.43-.12.62-.14.19-.03.36-.04.53-.03h0Z"/>
  </g>
</svg>