<?xml version="1.0" encoding="UTF-8"?>
<svg id="Layer_2" data-name="Layer 2" xmlns="http://www.w3.org/2000/svg" viewBox="0 0 1558.45 1692.85">
  <defs>
    <style>
      .cls-1 {
        fill: #de5463;
      }

      .cls-2 {
        fill: #fff;
        stroke-width: 8.5px;
      }

      .cls-2, .cls-3, .cls-4, .cls-5, .cls-6 {
        stroke-linecap: round;
      }

      .cls-2, .cls-7 {
        stroke-miterlimit: 11.3;
      }

      .cls-2, .cls-7, .cls-4, .cls-5 {
        stroke: #113350;
      }

      .cls-3 {
        stroke-width: 8.3px;
      }

      .cls-3, .cls-8, .cls-6 {
        fill: #f9f9f9;
      }

      .cls-3, .cls-6 {
        stroke: #fff;
      }

      .cls-7 {
        stroke-width: .9px;
      }

      .cls-7, .cls-4 {
        fill: #113350;
      }

      .cls-4 {
        stroke-miterlimit: 3;
        stroke-width: 49.5px;
      }

      .cls-9 {
        isolation: isolate;
      }

      .cls-5 {
        fill: none;
        stroke-width: .8px;
      }

      .cls-6 {
        stroke-width: .6px;
      }
    </style>
  </defs>
  <g id="Layer_1-2" data-name="Layer 1">
    <g id="svg1">
      <g id="g82029">
        <path id="path1" class="cls-4" d="M763.65,1629.7c-44.8-11.6-114.4-39.5-161-64.6-136.3-73.3-248.1-183.7-335.8-331.3-121.7-205-190.8-469-203.7-778.5-2.9-68.9-1.2-217.6,2.7-237.8l1-5.3,34.5,4.1c46.1,5.4,67.7,7.1,114,8.8,118.4,4.3,229.2-8.3,330.7-37.5,45.4-13.1,68-22.4,128-52.8,39.4-20,66.5-36,88.5-52.5,15.5-11.6,16.6-12.1,19.8-10.1,1.9,1.2,12.6,8.9,23.9,17.2,92.2,67.7,216.3,112.3,360.9,129.7,52.2,6.3,65.6,6.8,154.5,6.7,79.1-.2,89.8-.5,128.3-4,23.1-2.1,42.2-3.5,42.5-3.3,2.8,2.6,4.1,177.7,1.7,233.2-10.5,239.9-54.9,451.9-133.1,635.2-30.6,71.8-50.3,110.3-79.8,156-61.1,94.7-117.7,162.3-183.8,219.7-62.1,53.9-140.8,103.1-213.1,133.3-17.3,7.2-94.8,34.9-102.6,36.7-2.1.5-10.2-.8-18-2.8h0l-.1-.1Z"/>
        <g id="g43">
          <path id="path14" class="cls-3" d="M771.15,1584.9c-.8-24.1-1.7-172.5-2.1-172.9-.4-.4-5.3,0-10.8,1-15,2.5-31.9,10.2-39.9,18.1l-6.8,6.7,1.2-5.8c4-19.4,22.2-32.2,49.6-34.8l9.8-.9-1.1-14.4c-.6-7.9-1.1-28.1-1.1-44.9v-30.5h-6.2c-9.4,0-32.5,5.5-42.3,10-4.8,2.2-11.2,6.4-14.3,9.4-5,4.8-5.5,5-4.4,1.7,6.5-19.8,27.9-33.2,56.9-35.8,6.1-.6,11-1.5,10.7-2.1-.2-.6-.4-22.9-.4-49.5v-48.3l-9.5.8c-13.7,1.2-30.6,6.8-40.2,13.4-9.2,6.3-9.9,6.2-4.9-1.2,8.1-11.9,27.5-23.1,45.8-26.6l9.2-1.7-1-14.3c-.5-7.9-1.5-42.8-2.1-77.7l-1.1-63.4-14.3-2.5c-35.9-6.3-93.2-21.5-128.6-34.2-18-6.4-65.8-27-64.8-27.9.3-.3,21,5.6,46,13.1,51.7,15.6,91.6,26.1,124.3,32.9,29.2,6.1,29.8,6,28.5-.2-5.5-25.9-27.4-46.9-67.3-64.4-25.8-11.4-58.1-18.8-121.3-27.8-20-2.9-36.7-5.5-37.1-5.9-.4-.4.3-1,1.6-1.4,4.1-1.3,51.6-8.1,68.1-9.8,21.3-2.1,86.6-2,97.8,0,14.7,2.8,26.2,8.7,38,19.3,17.6,15.9,27,36.3,35.5,77.2,2.5,12.2,5.1,22.2,5.7,22.2s3.1-9.6,5.7-21.3c13.2-61,32.9-87.2,72.8-97.1,8.3-2,17.5-2.5,46-2.5,40.5,0,77.7,3.7,116,11.3,8.7,1.7,8.9,1.9,4.2,3-2.7.7-18,3-34,5.2-99.1,13.4-146.4,30.5-173.9,62.9-6.5,7.7-15,25.3-15.1,31.4,0,3.6,1.6,3.4,31.4-2.6,33.3-6.8,66.4-15.4,120.8-31.6,24-7.2,44-12.7,44.4-12.4,1.2,1.1-46,20.8-68.1,28.5-36.8,12.7-88.3,26-123.4,32-7.7,1.3-14.1,2.5-14.3,2.7-.9,1-3.8,110.2-3.5,131l.3,23.9,11.3,2.8c20.6,5.1,33.8,12.9,42.4,25.1,6.7,9.5,6.5,10.5-1.1,5.1-12-8.6-35.2-16.9-47.2-16.9h-4.1l-1.2,48.1c-.7,26.4-.7,48.8-.1,49.6.6.9,3.8,1.6,7.2,1.6,14.8,0,37,8,46.7,16.8,5.2,4.7,13.2,17.9,13.2,21.9,0,1-2.6-.7-5.7-3.9-10.3-10.3-36.8-19.7-56-19.8h-6.2v89.7l11.4,1.6c15.5,2.2,30.6,8.6,37.5,15.9,5.6,5.9,10.8,16.9,10.8,22.7s-.8,2.1-4.2-2.1c-5.2-6.4-9.4-9.5-19.1-14.1-8.1-3.9-25.2-8.3-31.8-8.3h-4l-1.1,71.1c-.6,39.1-.6,84.9-.6,101.9-.2,28.2-1.1,34-6.5,35.4-5.4-.9-7-7-7.7-35.2h0l-.3-.3Z"/>
          <path id="path15" class="cls-6" d="M856.95,1537.5c0-.9,2.3-17.6,5.2-37.1,6.9-47.2,8.1-59.5,7.3-75.2-.6-12-.4-14.5,2.7-27.1,5-20.3,6.3-31.6,6.4-54.8,0-19.1-.2-21.3-2.7-28.1l-2.8-7.3,2.7-10.8c2.4-9.4,2.7-13.5,2.8-32,0-36.6-6-61.2-18.8-77.2l-3.9-4.9,12.5-1.3c6.9-.7,14.9-1.7,17.9-2.2,2.9-.5,5.5-.8,5.6-.6.2.1-1.3,2.9-3.2,6-1.9,3.2-4.3,8-5.3,10.6-1.7,4.6-1.6,5.5.7,14.4,4.8,18.5,5.8,25.7,7.2,53.2l1.4,27.8,6.1,1.3c9.3,2,9.5,2.4,6.1,7.1-1.6,2.2-5.3,6.5-8.2,9.4l-5.3,5.3-.8,22.9c-.5,12.6-1.6,28.1-2.6,34.4-1,6.4-1.6,11.7-1.4,11.9.2.2,6.4-1.5,13.8-3.8,7.4-2.2,13.6-3.9,13.9-3.7.9.8-12.6,23.2-21,34.6l-8.9,12.3-.7,11.1c-.4,6.1-3.6,29.5-7.2,52-7.1,44.2-6.9,43.8-15.5,50.4-2.9,2.2-3.9,2.6-3.9,1.4h-.1Z"/>
          <path id="path16" class="cls-6" d="M696.85,1537.4c-4.6-3-8.7-9-9.9-14.7-2.9-14-11.8-73-12.9-86.2l-1.3-14.6-6.5-8.2c-9.6-12.1-24.9-36.9-23.5-38.2.3-.3,6.5,1.5,13.7,3.8,7.3,2.4,13.4,4.2,13.5,4,.2-.1-.4-5.5-1.3-12-.9-6.4-2-22-2.4-34.6l-.8-22.9-4.3-4.3c-6-5.9-11.8-12.8-11.8-14.2s3.3-2,7.3-3.1l7.3-2,.8-17c1.4-28.5,3.1-44.1,6.2-55.6,4.3-16,4-20.1-2.3-30.9l-5.2-8.9,4.3.6c2.4.4,10.6,1.4,18.4,2.4,7.7,1,14.2,1.9,14.4,2,.2.2-1.5,2.6-3.7,5.5-6.7,8.4-12.2,21.7-15.4,36.8-4.4,21.3-4.4,57.1.1,74,1.8,6.9,1.8,7.4-.8,16.7-2.4,8.3-2.7,12-2.7,28.7,0,21.3,1.9,35.3,7.6,56.6,3.2,12,3.4,13.5,2.2,20.2-2,11.3.8,42,8.3,90.1,2,12.8,3.5,24.2,3.3,25.3-.3,1.8-.6,1.9-2.8.4h0l.2.3Z"/>
          <path id="path17" class="cls-6" d="M374.35,1272.5c-10-2-20.8-7.4-27.9-13.9-6.1-5.6-15.7-20.8-15.7-24.8s.4-2.2,6.2-1.6c14.1,1.5,24.5,5.7,35.8,14.2,7.4,5.6,8.3,5.6,10.2.2,2.9-8.7,17.2-24.5,26.3-29.2l3.8-2-.4,16.4c-.4,15.9-.5,16.5-4.2,23.2-8.9,16.4-17.6,20.8-34,17.5h-.1Z"/>
          <path id="path18" class="cls-6" d="M353.95,1208.9c-16.8-4.2-32.4-20.9-37.9-40.5-1.8-6.4-2.3-12.3-1.1-12.3,1.7,0,18.5,7.6,23,10.4,6.5,4.1,15.7,12.4,19.5,17.5,1.6,2.2,3.3,4,3.7,4s3-3.1,5.8-6.9c7.6-10.5,26-23.1,28.5-19.5,1.2,1.8.2,12-2,20.6-2,7.7-10.1,20-15.7,24-5.1,3.6-15.4,4.8-23.6,2.7h-.2Z"/>
          <path id="path19" class="cls-6" d="M356.75,1150.2c-3.3-2.1-5-7.8-5-17,0-14.2,5.9-26.7,18.3-38.6,8.4-8.1,8.7-8.1,11.1,2.9,2.3,10.3,1.7,23.7-1.3,31.9-5.6,15.2-16.5,25-23.2,20.8h.1Z"/>
          <path id="path20" class="cls-6" d="M399.25,1331.2c-11.8-4.1-21.2-11-29.7-21.9-5.6-7.2-5.3-7.6,7.2-7.5,12.5,0,20.9,1.8,30.6,6.4,3.8,1.8,7.1,3.1,7.3,2.9s1.2-4.2,2.3-8.8c2.2-9.9,7-19.1,13.8-26.4,4.7-5.1,4.8-5.2,6.7-3,3.2,3.6,6,15.8,6,26.4,0,15.2-3.9,24.8-12.6,30.8-4,2.7-5.4,3.1-14.5,3.3-8.1.2-11.4-.2-17.1-2.2h0Z"/>
          <path id="path21" class="cls-6" d="M443.75,1386.4c-8.9-2.6-15.3-6.3-24.3-14.3-5-4.4-9.1-8.4-9.1-8.8,0-1.4,11.6-3.1,21.6-3.1s17.5,1.6,27.2,5c1.3.4,1.6-1.1,1.6-7.5s.6-10.6,1.3-13.7c1.3-5.4,7.1-17.2,10.7-21.5,1.6-1.9,1.8-1.7,4.7,2.8,1.7,2.6,4.4,8.4,6.1,12.8,2.5,6.7,3,10,3,20.1s-.4,12.8-2.8,17.4c-3.3,6.4-7.1,9.8-12.5,11.2-5.5,1.4-21.8,1.2-27.4-.5h0l-.1.1Z"/>
          <path id="path22" class="cls-6" d="M493.55,1435.4c-9.4-1.9-18.8-6.6-25.2-12.5l-5.5-5.1,9.8-2.9c7.9-2.3,12.1-2.9,21.5-3,6.4,0,13.3.1,15.2.4,3,.5,3.4.2,3-1.6-.3-1.2-.5-8.1-.6-15.4,0-12.5.1-13.7,3.2-19.7l3.3-6.4,4.7,4.8c5.2,5.4,13,19.3,14.9,26.6.7,2.6,1.6,8.8,2,13.6l.8,8.8-5.4,4.7c-3.6,3.1-7.4,5.2-11.5,6.3-8.6,2.3-22.7,2.9-30.4,1.3h0l.2.1Z"/>
          <path id="path23" class="cls-6" d="M543.05,1471.7c-1.9-1.7-1.8-7.8.2-9.3,1.1-.8,7-1.1,18.4-.9l16.8.3,1.1,2.9c.8,2,.7,3.8-.2,5.6l-1.4,2.7h-16.8c-11.5,0-17.2-.4-18.2-1.3h.1Z"/>
          <path id="path24" class="cls-6" d="M976.45,1471.4c-1.9-2.1-1.9-6.4,0-8.5,1.2-1.3,4.7-1.6,17.5-1.6s16.3.2,18,1.9c2.5,2.6,2.5,5.8-.2,8-3,2.5-33.1,2.6-35.4.2h.1Z"/>
          <path id="path25" class="cls-6" d="M1036.25,1435.4c-8.8-1.7-15.3-5-18.6-9.3-2.5-3.3-2.7-4.4-2.2-13.2.8-14.2,7.7-28.8,18.9-40.2l4-4,3.2,7.2c2.7,6,3.3,8.9,3.4,17.3,0,5.6-.3,12.4-.8,15.3-1,5.1-.9,5.2,1.8,4.5,6.6-1.8,18.5-1.9,27.8-.2,9.7,1.8,17.7,4.5,17.7,6.1s-12.4,9.8-19.3,12.6c-12.6,5.2-23.1,6.3-35.7,3.8h0l-.2.1Z"/>
          <path id="path26" class="cls-6" d="M1089.35,1387.8c-8.7-1-13.6-4.2-16.9-10.8-2.5-5-2.8-7-2.7-18.9,0-10.8.6-14.6,2.7-20.2,2.9-7.6,7.9-16,9.6-16s6.9,8,10.1,14.9c2.2,4.8,2.7,7.8,2.7,17.3,0,6.3.2,11.4.4,11.4s3.5-1,7.3-2.3c12.4-4,42.7-3.8,42.7.3s-13.6,13.2-20.7,17.1c-11.6,6.3-22.9,8.6-35.2,7.1h0v.1Z"/>
          <path id="path27" class="cls-6" d="M1126.85,1331.6c-6.1-2.5-10.1-8.4-12.9-19-1.8-6.6-1.9-9.3-.8-19.1.8-7.5,2.2-13.4,4-17.2l2.7-5.8,5.7,5.8c7.5,7.6,12.4,17,13.7,26.5.6,4.2,1.3,7.9,1.7,8.2.3.3,5.4-1.6,11.1-4.3l10.5-4.9h12.9c7.1,0,13.2.4,13.6,1,.4.5-1.5,3.9-4.1,7.4-4.8,6.5-13.3,13.8-21,17.9-10.5,5.6-28,7.3-37.1,3.5h0Z"/>
          <path id="path28" class="cls-6" d="M1161.35,1271.5c-4.7-2.4-12.2-12.5-15.2-20.6-2.2-5.9-2.7-9.3-2.7-20s.4-13.3.8-13.7c1.6-1.5,5.5.8,12.9,7.4s14.9,17.6,16.7,24.3c.4,1.6,1.2,2.9,1.8,2.9s4.1-2.4,7.8-5.4c8.1-6.4,18.7-11.2,29.4-13.3,14.1-2.7,14.5-2.1,7.8,10.1-5.8,10.5-17.1,21.3-27.1,25.8-6.6,3-9.1,3.5-18.3,3.8-7.9.2-11.5,0-13.8-1.3h-.1Z"/>
          <path id="path29" class="cls-6" d="M1182.15,1208.4c-4.8-2.7-11.7-9.9-14.6-15-3.8-6.7-7.1-19.2-7.1-26.5s0-6.7,2.6-6c8.4,2.3,20.9,11.7,27.6,20.6,2.4,3.2,4.9,5.9,5.5,6s3.5-2.7,6.4-6.3,8.4-8.9,12.3-11.7c6.7-4.9,21.7-12.4,24.9-12.4s1.5,1.6,1.5,4.6c0,15.1-16,37.2-32.1,44.2-9.7,4.2-22,5.3-27.1,2.4h0l.1.1Z"/>
          <path id="path30" class="cls-6" d="M1188.05,1147.5c-5.9-4.7-12.2-16.9-13.7-26.5-1.9-12.4.7-32.9,4.2-32.9s15.1,13.6,19.4,21.4c5.6,10.1,7.5,18.1,6.8,28.3-.4,6.2-1.1,8.3-3.3,10.4-3.8,3.6-8.3,3.4-13.4-.7h0Z"/>
          <path id="path31" class="cls-6" d="M175.45,783.9c-1.6-2.4-3-4.6-3-5.1,0-1.9,13.7-17.6,26.3-30,57.4-57.1,149.5-103.3,254.4-127.6,25.5-5.9,33.4-7.2,33.4-5.5s-1.4,4.3-3.1,8.2c-3,6.7-3.1,7.6-2.4,20.6l.7,13.6-3.3,2.9c-2.1,1.8-3.6,2.5-4.1,1.8-.4-.6-1.3-8.7-2-17.9s-1.4-16.9-1.7-17.2c-1.5-1.3-58.4,20.2-85.5,32.3-29.4,13.1-61,28.5-79.1,38.5-51.9,28.6-107.8,67-123.2,84.6l-4.5,5.1-3-4.3h.1Z"/>
          <path id="path32" class="cls-6" d="M375.25,886.6c-13.2-6-28.8-12.7-34.6-14.9-15.9-6.1-41.7-13.8-56.8-17.1-13.6-2.9-17.6-4.2-17.6-5.7s29.6-7,36.9-6.9c14.1.1,38.8,8.5,56.4,19,13.2,7.9,45.4,36.9,40.6,36.6-.5,0-11.8-5-25-11h.1Z"/>
          <path id="path33" class="cls-6" d="M485.95,839.7c-27-21.7-56.4-40.9-82.4-53.7-6.5-3.2-11.9-6.2-11.9-6.6s4.2-5.8,9.4-11.9l9.4-11.1,6.1,1.6c29.8,7.8,59.4,31.8,74,60.1,4.9,9.4,10.4,26.2,9.8,30.2-.4,2.7-1.1,2.3-14.4-8.5h0v-.1Z"/>
          <path id="path34" class="cls-6" d="M641.95,862c-26.2-10.7-63.5-22-96.2-29.2-14.5-3.2-19.2-4.6-20.8-6.5-1.2-1.3-1.7-2.7-1.2-3.2,1.8-1.6,15.2-3.2,30.9-3.9,25.8-1,47.5,3.3,70.8,14.2,15,7,28,15.4,45.7,29.6l4.7,3.8h-11.1c-10.6,0-11.7-.3-22.7-4.8h-.1Z"/>
          <path id="path35" class="cls-6" d="M881.45,866.3c4-4.3,28.7-22.3,38-27.6,26.5-15.1,62.9-22.2,96.7-18.9,18.6,1.9,19.8,2.4,16,6.9-1.2,1.4-7.2,3.3-19.6,6.1-37.2,8.5-74.5,19.6-98.8,29.3-9,3.6-12.2,4.3-22.2,5-10.6.7-11.5.6-10.1-1v.2Z"/>
          <path id="path36" class="cls-6" d="M1056.45,844.9c1.6-13.9,11.6-34.5,23.8-49,15-17.9,33.8-30.3,56.3-37.1l9.1-2.8,3.3,3.6c1.8,2,6.4,7.2,10.3,11.7l7,8.2-3.8,2c-2.1,1.1-7.5,3.9-12,6.1-22.8,11.2-57.4,33.9-79.4,52-5.8,4.7-11.6,9.3-12.9,10.2-2.4,1.6-2.4,1.5-1.7-4.9h0Z"/>
          <path id="path37" class="cls-6" d="M1155.65,895.8c2.4-4,27.6-26.1,35.7-31.2,14.8-9.5,35.9-18.2,52.7-21.8,9.1-1.9,9.2-1.9,22.1.5,16.3,3,24.6,5.3,23.9,6.4-.6.8-2.8,1.5-34.7,9.7-22.7,5.9-44.6,13.8-74.9,27.2-13.8,6.1-25.3,11.1-25.5,11.1s0-.8.7-1.9h0Z"/>
          <path id="path38" class="cls-6" d="M1378.45,787.2c0-1.9-23.2-21.9-36.9-31.9-30.5-22.2-78.2-51.4-112.1-68.5-18.5-9.4-69.4-32.6-85.5-39.1-15.5-6.2-54.6-20.1-56.5-20.1s-3.1,11.1-3.2,26.5c-.1,10.6-.8,11.3-6.2,6.8-4.4-3.7-4.5-3.9-3.2-7.8,2.9-8.7.8-26.8-4.1-35.3-1.7-2.9-1.6-3,1.6-3,4.9,0,35.7,6.8,56.4,12.3,85.1,23,163.3,62.2,215,107.8,16.2,14.3,30.6,28.8,38.5,38.8l4.2,5.3-3.5,4.6c-3.5,4.6-4.5,5.4-4.5,3.6h0Z"/>
          <path id="path39" class="cls-6" d="M896.75,644.6c0-40.4.2-73.4.5-73.4,1.1,0,23.9,16.5,29.1,21.1l5.6,4.9v94.1l-10.3,8.3c-5.6,4.6-13.6,10.6-17.6,13.4l-7.3,5.1v-73.5Z"/>
          <path id="path40" class="cls-6" d="M650.65,710.8c-3.5-2.7-11.3-8.9-17.3-13.9l-10.9-9,.3-44.8.3-44.8,10.3-8.2c5.6-4.5,13.8-10.6,18.2-13.6l7.9-5.4.4,22c.5,28.8-1,122.6-2,122.5-.4,0-3.6-2.2-7.2-4.9h0v.1Z"/>
          <path id="path41" class="cls-6" d="M858.15,590.4c-.7-1.1-1.2-4.5-1.2-7.4v-5.4h-16.4v5.1c0,5.8-1.4,7.7-6,7.7s-4.3-1.1-5.3-9.1l-.7-5.8h-14.6l-.6,6.3c-.3,3.5-1,6.8-1.4,7.4-.4.6-2.9,1.1-5.4,1.1h-4.6v-14.9h-17.6v5.6c0,7.3-1.9,9.7-6.7,8.8-3.8-.8-5-3.3-5-10.8v-3.6h-16.4v6.9c0,6.4-.2,6.9-2.8,7.5-6.1,1.4-7.1.5-7.5-7.3l-.3-7.2h-17.2l-.7,4c-.4,2.2-.7,5.6-.7,7.5q0,3.5-5,3.2l-5-.3-.3-6.6-.3-6.6h-16.2l-.3,7.2-.3,7.2h-8.2v-17.2c0-18.7.5-20.3,5.7-18.5,2.8,1,3.1,1.6,3.1,6.4v5.3h16.3l.3-7.7.3-7.7h4.7c4.2,0,4.7.3,5.4,3.2.4,1.8.8,5.2.9,7.7v4.5c.1,0,8-.7,8-.7,4.4-.4,8.3-1.2,8.8-1.9.5-.6.9-3.9.9-7.3v-6.1h3.9c5.4,0,6.7,1.6,6.7,8.7v6.2h16.4v-4.1c0-2.3.3-5.6.7-7.4.7-3,1.1-3.3,5.1-3.3s5.8,1,5.8,9.1v5.8h17.1l-.5-7.3c-.4-7.2-.4-7.3,2.7-8,2.1-.5,4.1-.1,6,.9,2.4,1.4,2.8,2.5,2.8,7.9s.7,7.5,10.2,7.5h4.9l.8-6.1c1.1-8.9,1.6-9.8,4.7-9.8,5.8,0,6.5.8,6.5,8.5v7.2l3.7.7c2,.4,6,.7,8.8.7h5.1v-5.1c0-2.8.7-6,1.6-7.1,1.5-1.9,1.8-1.9,4.5-.3,4.4,2.6,5.3,9.3,3.6,28.2q-.8,8.8-4.1,8.8c-3.3,0-3.8-.8-4.5-2.1h0l-.2-.1Z"/>
          <path id="path42" class="cls-6" d="M556.85,651.9c-14.6-7.2-24.2-19.9-25.3-33.5-.7-9,.7-11.6,10.9-19.3,6.8-5.1,11-7.5,40.7-22.7,8.4-4.3,34.1-19.2,57.3-33.1,52.4-31.5,53.7-32.1,69.7-32.6,12.4-.4,20.5,1.2,23.6,4.6,1,1.1.2,1.6-4.3,2.1-9.2,1.2-32.8,8.8-46.8,15-15.3,6.8-36.5,18.9-50.7,28.9-23.4,16.5-61.1,53.9-69.3,68.8-4.1,7.4-4.2,9.9-1.1,18.2,1.3,3.4,2.2,6.3,2,6.5s-3.2-1.1-6.7-2.9h0Z"/>
          <path id="path43" class="cls-6" d="M994.45,651.8c2.9-9.4,4.2-14.4,4.2-16.4s-8.7-14.4-20.5-27.6c-10.1-11.3-34.6-33.2-48.6-43.4-12.8-9.4-37.9-24.5-50-30.2-12.5-5.9-34.8-13.7-46.5-16.2-5.1-1.1-9.5-2.2-9.8-2.5s1.9-1.5,4.9-2.8c4.8-2.1,6.8-2.3,19.1-2,13,.4,14.1.6,21.4,4.1,4.2,2,26.4,15,49.4,28.8s47.2,27.9,53.9,31.2c25.5,12.8,38.7,20,43.5,23.6,9.4,7,12.6,14.7,10.3,24.2-3.6,14.7-15.3,27-29.2,30.9-2.5.7-2.7.5-2-1.7h-.1Z"/>
        </g>
        <path id="path82002" class="cls-1" d="M746.05,1664c-149.9-71.4-273.6-160.7-360.7-260.3-58.4-66.8-100.2-138.6-129.5-222.5-25.3-72.4-36.5-138.3-36.5-214v-30.8l-4.2-6.2c-10.1-14.7-18.7-34.2-28.4-63.7-11.1-34-18-48.2-35-72.4-4.7-6.7-9-12.8-9.5-13.5-1.9-2.7,20.1-29.1,41.2-49.5,43.6-42.1,101.2-77.4,168.1-103,45.8-17.5,114.1-34.4,157.3-38.8l8.2-.8,15.7-9.7c8.7-5.3,24.8-14.1,35.9-19.6,12.3-6,35.7-19.6,60.1-34.8,56.7-35.3,58.1-35.9,87-35.3l18,.4,10.6,4.9c6.8,3.2,13.2,7.2,17.8,11.4l7.2,6.5h15.9l7.3-6.4c4.5-4,11.5-8.4,18.1-11.4l10.8-5h45.5l8.2,3.3c4.5,1.8,26.4,14.7,48.7,28.5,22.5,14,51.2,30.6,64.4,37.4,27.3,14,27.8,14.3,40.4,22.8l9.4,6.4,20.8,2.8c107.1,14.4,216.8,59,290.2,117.9,22.1,17.8,48.8,45.1,63.5,65.1l4,5.4-11,15.3c-6,8.4-13.9,20.7-17.6,27.2-6.9,12.5-8.9,17.5-22.6,57.5-8,23.2-16.4,41.1-24.8,53.1l-3.3,4.7-.7,36.4c-.4,20-1,39-1.3,42.3-.3,3.2-1.5,14.3-2.7,24.7-3.3,30.9-10.6,69.6-18.9,100.8-21,78.3-61.8,160.1-114.5,229.3-73,95.9-189.4,189-330.5,264.4-31.1,16.6-86.8,43.7-89.8,43.7-1.4,0-16.1-6.5-32.7-14.4h0l-.1-.1ZM782.45,1619.6l3.3-3.6v-35.4c0-46.6,1.5-168,2.1-168.6,1-1.1,19.4,2.7,28.1,5.9,11.7,4.2,20.5,10.3,26.9,18.7l4.9,6.4-.8-7c-2.7-23.1-20.3-36.2-53.9-40l-6-.7v-87.9h6c25.3.2,52.5,12,61,26.4,3.9,6.6,4.4,5.1,1.5-4.2-7.6-24-26-36-60.1-39.3l-8.7-.8.8-22.9c.5-12.6.8-34.5.8-48.6v-25.7l6,.8c24.4,3.1,44.9,12.9,54.4,26.1,4.8,6.6,4.1,3.5-1.6-7.9-8.4-16.7-26.6-28.9-49.8-33.6l-10.5-2.1.8-23.5c.4-13,1.1-40.2,1.4-60.5.4-20.3,1-44.5,1.4-53.7l.7-16.7h2.6c1.5,0,12.4-1.8,24.2-4.1,41.2-7.8,91.4-22,130.2-36.6,18.8-7.1,60.9-26.1,59.9-27.1-.4-.3-19.8,5.2-43.2,12.4-49.9,15.2-73.6,21.9-103,28.9-22.3,5.3-60.8,12.9-61.7,12.1-1-1,3.6-14.8,7.4-22.1,5-9.5,18.9-23.4,31.8-31.7,30.8-19.8,74.2-32.2,144.6-41.2,34-4.3,43.7-6,44.3-7.8.5-1.5-.6-1.7-29.8-6.3-57.7-9-114.5-11.1-142.2-5.3-28.1,5.9-47.2,22.4-60.4,52.3-4.9,11-11.8,35.2-14.9,52.6-1.3,7.3-2.7,13.6-3,13.9s-1-2.2-1.5-5.7c-1.7-12.4-8.1-40.6-11.4-50.3-1.8-5.5-6.2-15.2-9.8-21.7l-6.4-11.7-10.1-9.4c-11.8-11.1-20.7-15.8-36.7-19.6l-11.2-2.7h-38.4l-38.4.1-20.8,2.6c-23.6,3-64.3,9.3-65.2,10.2-2,1.9,1.8,2.6,42.8,8.2,75.8,10.4,112.2,20.7,145.2,41.2,23.3,14.5,36.5,31,40.2,50.3l.9,4.5-5.4-.8c-11.1-1.6-40.1-7.9-63.3-13.7-30-7.5-45.7-12-136.9-39.8-13.1-4,16.9,10.9,45,22.3,31.7,12.9,64.4,23.4,101.9,32.8,19.2,4.8,49,11.1,60.4,12.8l6.3.9.8,36.4c.4,20,1.2,54.6,1.7,76.9l.9,40.5-10.8,2.6c-23.6,5.7-39.1,16.6-47.9,33.6-4.9,9.6-5.4,13.2-.8,6.3,3.4-5.1,10.7-11.3,17.9-15.2,7.2-3.9,23.6-8.6,33.5-9.6l7.9-.8v26.8c0,14.8.4,36.7.8,48.7l.8,21.9-9.3.9c-32.2,3-51.6,15.6-59.2,38.3-3.2,9.7-3,12.2.6,5.1,3.8-7.5,10.3-12.9,22.1-17.9,10.3-4.4,28.5-8.4,38.7-8.5h6.5l.2,43.9.2,43.9-7.3.8c-23.5,2.5-38.6,10-46.1,22.8-2.9,5-7.8,22.2-6.5,23.4.2.2,1.9-2,3.7-5,7.3-11.7,27.1-21.3,50.8-24.7l5.3-.8v31.6c0,17.4.4,63.5.8,102.4l.8,70.8,3.1,3.4c1.7,1.9,3.5,3.4,4.1,3.4s2.5-1.6,4.3-3.6h0l-.3-.4ZM697.05,1512.7c-9.1-58.6-11.1-80.8-8.2-92.6l1.3-5.2-3.2-10.6c-9.9-32.9-11.9-73.2-4.5-91.2l2.4-5.9-1.7-4.4c-4.4-11.6-5.9-44.7-3.1-65.9,2.8-20.7,11.6-43.6,19.5-50.5,4.2-3.7,3.9-4.7-1.6-4.7-4.5,0-23.8-2.5-32.7-4.2l-4.1-.8,5.8,9c7.5,11.6,8,15.4,3.8,29.1-3.8,12.7-5.7,28.4-6.5,55.1l-.6,19.2-7.4,2.3c-4.1,1.3-7.8,2.7-8.3,3.2-1,.9,4.6,8.1,12.1,15.6l4.7,4.7.8,24.1c.4,13.2,1.6,28.4,2.5,33.8.9,5.3,1.4,9.7,1.2,9.7s-6.2-1.8-13.1-4.1c-7-2.3-13.2-4.1-13.8-4.1-3.2,0,9.1,21.6,21.6,37.9l8.7,11.3v8.2c0,8.1,5.8,47.7,11.8,81l3.1,16.9,6.6,6.3c3.6,3.4,6.8,6.1,7.1,5.8.2-.2-1.6-13.3-4-29h-.2ZM871.85,1516.3c1.1-6.8,4.2-26.4,7-43.4,2.8-17.1,5.4-35.5,5.9-40.9l.9-9.9,9.4-13c8.9-12.3,21-33.4,19.8-34.5-.7-.7-24.8,6.7-26.8,8.3-2,1.4-2,1.9.5-11.8,1.4-7.5,2.1-19,2.2-33.5v-22.1c.1,0,5.5-5.3,5.5-5.3,6-5.8,12.9-14.3,12.9-15.9s-.9-1-2-1-4.9-.8-8.5-1.8l-6.5-1.8-.2-19.1c-.2-23.7-2.2-41.1-6.3-55.8-1.8-6.3-3.2-12.8-3.2-14.5,0-3.9,5.6-15.1,10-19.9l3.3-3.6-2.5.7c-5.2,1.4-17.4,3.1-28.2,3.9l-11.3.8,4.3,5.3c11.1,13.6,17.2,32.9,19.5,62.1,1.5,18.4,0,39.9-3.7,50.8l-2.4,7.2,2.3,5.6c5.1,12.6,5.8,31,2.3,59.5-1.6,12.8-5.6,30.8-8.1,36.5l-1.9,4.2,1.6,4.3c3.4,9.3,1.5,30.9-8.5,95.8-2.4,15.4-4.3,28.4-4.3,28.8s3.4-2.5,7.5-6.3l7.5-7,2-12.4v-.3ZM578.65,1472.5c3.1-2.1,3.1-8.8,0-10.9-1.7-1.1-6.8-1.6-18.4-1.6h-16l-2,1.8c-2.6,2.4-2.5,7.4.1,10.1l2.1,2.1h15.9c11.4,0,16.6-.4,18.3-1.6h0v.1ZM1011.95,1472.3c3.5-2.3,3.6-6.8.3-9.9l-2.5-2.3h-31.5l-2.5,2.3c-3.1,2.9-3.2,6.7-.4,9.6l2.1,2.1h15.9c12.3,0,16.5-.4,18.7-1.8h-.1ZM525.25,1434.7c3.4-.9,8.2-3.5,10.6-5.6l4.5-3.9v-8.9c0-4.9-.6-11.7-1.4-15.1-2-8.6-8.6-20.5-15.3-27.4l-5.6-5.8-2.7,4.9c-6,10.9-7.7,26.9-3.9,36.2l1.1,2.6-13-.6c-13.6-.6-18.9.1-31.6,4.5l-7,2.5,3.6,3.5c7.4,7.2,20.1,13.4,31.9,15.5,5.1.9,22.4-.5,29-2.3h0l-.2-.1ZM1057.55,1436.5c10.7-1.6,21.8-6.5,29.6-13.1l6.3-5.3-5-2c-13.2-5.2-30.8-7-40.7-4.3l-4.2,1.2.8-2.6c.5-1.4,1.2-6.9,1.6-12.1l.7-9.5-2.6-8.1c-1.4-4.4-3.5-9.1-4.5-10.4l-1.9-2.3-5.7,5.9c-8.1,8.3-14.4,20-16.5,30.6-2.6,12.4-2.3,17.1,1,21.7,3.7,5.1,9,7.9,18.8,9.9,10,2,12.3,2.1,22.4.6h0l-.1-.2ZM468.65,1388.3c14.4-2.9,19.6-12.3,18.5-33.8l-.6-12.4-3.3-7.6c-1.8-4.2-4.7-9.2-6.4-11.2l-3-3.5-2,2.3c-1.1,1.3-4,6.2-6.6,10.9l-4.6,8.5-.6,11.6-.6,11.6-9.3-2.8c-6-1.8-12.4-2.8-17.9-2.8-10.5,0-22.8,2.2-22.8,4,0,2.7,12.4,14.2,19.6,18.2,7.7,4.3,20.8,8.1,28.5,8.2,2.6,0,7.6-.5,11.1-1.2h0ZM1106.85,1388.3c11.3-2.2,22.3-8,31.7-16.6,5.6-5.1,8.3-8.4,7.5-9.1-4.5-4.2-31.6-4.3-43.3,0-3.8,1.4-6.9,2.5-6.9,2.5v-9.7c0-6.3-.8-12-2.3-16.4-2.4-6.7-9.2-17.5-11.5-18.2-.7-.2-2.7,1.9-4.6,4.6-11.9,17.9-13.2,45.6-2.9,57.2,5.6,6.2,18.5,8.5,32.2,5.8h0l.1-.1ZM429.65,1331.8c13.5-6.3,19.2-32.7,11.4-53.1-3.9-10.2-4.5-10.4-11.2-3.6-7.1,7.3-12.6,17.9-14.3,27.7-.7,4.1-1.5,7.7-1.8,7.9-.3.2-2.2-.7-4.4-2.1-7.1-4.7-17.5-7.4-30.2-7.9-6.6-.2-12.7,0-13.6.6l-1.7,1.1,1.9,3.5c3.6,6.6,11.8,15.1,18.6,19.4,9.8,6.3,18.8,9,30.1,9h9.5l5.6-2.6.1.1ZM1162.25,1329.4c5.2-2.4,11.8-6.5,14.7-9.1,6.3-5.7,14.8-17.4,13.5-18.6-.5-.5-7-.8-14.3-.8h-13.4l-8.4,3.3c-4.6,1.8-9.1,4-9.9,4.9-2.4,2.7-3.7,1.9-3.7-2.2,0-5.5-2.1-13.1-5.2-19.2-2.6-5.1-14.1-18.1-16.1-18.1s-2.2,3-3.8,6.8c-2.1,5-3,10.1-3.5,19.3l-.6,12.5,2.8,8.6c2,6.2,4,9.6,7.1,12.4,5.2,4.5,6.9,4.9,20.7,4.7l10.8-.2,9.5-4.4-.2.1ZM393.85,1272.3c3.7-1.6,6.6-4.2,10.3-9.4,7.9-11.1,9.8-17.3,9.8-33.2s-.4-14.1-.9-14.5c-.5-.5-4.2,1.3-8.2,3.8-8.3,5.3-19.2,17.9-22.5,26.1-1.2,3-2.4,5.6-2.6,5.9-.2.3-3.3-2-6.8-5.1-7-6.1-18.3-11.4-28.7-13.4-8.2-1.6-15.4-1.7-15.4-.2,0,6,13.2,25.7,20.6,30.8,15.5,10.5,32.8,14.2,44.3,9.3h0l.1-.1ZM1193.05,1269.9c4.5-2,10-5,12.2-6.7,8.4-6.6,16.8-18.8,20.3-29.5l.9-2.6h-4.2c-12.4,0-30.3,6.7-40.1,15-6.6,5.5-7.5,5.9-7.5,3.1,0-4-7.7-16.7-13.6-22.4-6.3-6.2-16.3-12.8-17.6-11.6-1.6,1.5-1.8,24.2-.3,30.2,3.1,12.2,11.6,24.3,19.5,27.6,6.3,2.7,20.6,1.3,30.4-3h0v-.1ZM373.35,1209.5c5-1.9,13.6-10.9,17.2-17.7,4.9-9.4,7.8-29,4.7-31.9-1.1-1-14.5,5.7-19.7,9.8-2.7,2.2-7.2,7.1-9.9,10.9l-5,7-4.5-6.4c-7.1-10-24.7-21.4-38.7-25l-4.5-1.2.6,5.4c1.2,11.4,9.2,28.5,17.1,36.3,4.1,4.1,14.7,10.3,21,12.4,7.1,2.3,16.4,2.5,21.8.4h-.1ZM1210.35,1206.6c9.6-4.4,19.9-14.3,24.9-23.9,3.9-7.4,7.2-18.4,7.2-23.6v-3.4l-3.5.8c-12.9,2.8-34.4,17.3-40,27-1.3,2.3-2.7,4.2-3.1,4.2s-1.8-2-3.2-4.3c-5.2-9.1-19.8-20.2-30.5-23.2l-2.8-.8v8.1c0,16.8,10.1,36.3,21.6,41.8,6.5,3.1,19.2,2,29.2-2.7h.2ZM366.75,1149.7c5.2-3.3,11.8-13.2,14.6-22,2.7-8.6,2.6-24.4-.2-33.8-1.2-4-2.9-7.3-3.6-7.3-2.9,0-16.7,15.1-20.6,22.4-4.9,9.2-6.6,15.8-6.6,25.4,0,15.5,6.4,21.6,16.5,15.3h-.1ZM1199.65,1151.3c3.2-1.6,6.4-9.6,6.4-16.2,0-11.5-7.7-29.8-16.1-38.4-4.3-4.4-11.4-10-12.7-10s-5.1,15.8-5.1,23.2c0,14.4,4.6,27.4,12.6,36,5.7,6.1,10.3,7.8,15,5.4h-.1ZM396.15,890.5c-9.7-10.9-25.1-23.9-35.6-30.2-11.6-6.9-29.9-14-44.5-17.3l-13.7-3.1-18.2,3.8-18.2,3.8v2.1c0,1.6,1.7,2.4,7.2,3.4,32.1,5.9,65.4,17.1,101.6,34.1,15.9,7.5,29.2,13.4,29.4,13.3.3-.2-3.4-4.6-8.1-9.8l.1-.1ZM1212.95,873.2c19.4-7.3,33.9-11.7,56.9-17.1,14.3-3.4,21.2-5.6,21.5-6.7.3-1.3-4.3-2.6-19.5-5.6l-19.9-3.9-12,2.9c-19.4,4.8-36.6,12.1-51,21.7-7.4,5-24.7,20.3-33.5,29.8l-6.2,6.7,25.6-11.5c14.1-6.3,31.2-13.7,38.1-16.3h0ZM671.15,862.3c-42.8-36.3-90.7-50.6-140-41.7-4.7.8-8.8,1.8-9.2,2.2-1.8,1.7,3.7,6.7,8.1,7.4,30.5,4.9,83.1,20.3,114.3,33.4l11.1,4.6h22.6l-6.9-5.9h0ZM915.15,862.3c26.7-10.9,75.2-24.7,113.1-32.2,1.5-.3,3.9-2.1,5.4-4l2.6-3.4-2.2-.6c-8.4-2.3-21.2-3.5-37.5-3.5h-18.9l-13.8,3c-31.1,6.8-48.3,15.7-79,40.7l-7.3,6h22.9l14.7-6h0ZM501.15,846.4c-6.3-32.2-27.7-61.3-56.9-77.8-8-4.5-24.8-11.4-30.5-12.5l-3.9-.7-7.1,8.6c-3.9,4.7-8.5,10.2-10.2,12.1l-3.1,3.6,15.2,7.6c28.8,14.4,57.7,33.5,84.7,56.1,6.9,5.8,12.7,10.4,12.9,10.3.2-.2-.3-3.4-1.1-7.2h0v-.1ZM1088.95,826.1c20.3-15.1,47.6-31.6,68.2-41.3,6.7-3.1,9.7-5.2,9.1-6.1-.9-1.4-15.7-18.6-18.8-21.8l-1.6-1.6-9.2,2.6c-42.6,12.1-76.1,49-82.4,91l-.9,5.8,11.3-9.5c6.2-5.2,17.1-13.8,24.2-19.1h.1ZM185.95,780.4c18.4-18.6,72.7-55.4,120.9-81.8,24-13.2,81.3-40.2,105.1-49.6,13.9-5.5,57.5-21.4,58.6-21.4s.5,7.3.9,16.1,1.2,17.3,1.8,18.8l1.1,2.6,4.8-3.7c3.7-2.9,4.6-4.2,4-6.2-3.8-11.5-3-23.3,2.6-34.7,1.7-3.5,2.9-6.6,2.6-6.8-.9-.8-26.1,4.1-44.8,8.6-81.4,19.9-161.2,56.5-215.2,98.8-15.5,12.1-40,35.8-50,48.1l-7.8,9.7,4,5.2,4,5.2,1.9-2.6c1-1.4,3.6-4.4,5.8-6.6h0l-.3.3ZM1383.35,783.7l3.7-5.2-7.7-9.5c-9.2-11.3-39.2-39.6-52.5-49.6-47.7-35.8-110.4-66.7-177-87.2-27.7-8.5-79.8-20.4-81.7-18.6-.3.3.9,3.5,2.7,7.1,5.4,11,6.5,23.8,2.7,32.9l-1.4,3.4,5.6,4.5,5.6,4.5.8-5.6c.5-3.1.9-11.8.9-19.4s.4-13.8.8-13.8c1.9,0,35,11.8,53.2,18.9,28.6,11.2,82,36.1,107.2,49.8,39.6,21.6,87,52.3,110.1,71.3,11.6,9.5,22,19.6,22,21.2s.5,1,4.9-5.1h0l.1.4ZM924.35,698.2l7.3-6.3v-97l-12.4-9.3c-6.8-5.1-14.9-10.9-18-12.9l-5.6-3.6.3,62.4c.2,34.3.3,68.1.3,75.1v12.7l10.4-7.4c5.7-4.1,13.6-10.2,17.6-13.7h.1ZM659.85,644v-74l-2.4,1.2c-3.7,1.9-21.3,15.1-28.7,21.6l-6.6,5.8v90.9l11,8.9c15.8,12.7,24.7,19.5,25.8,19.6.5,0,.9-33.2.9-74h0ZM562.05,648.5c-2.2-5-2.9-8.3-2.3-11,1.4-6.9,16.3-25.9,33.7-43,39.9-39,89.3-67.2,133.6-76.1l10.2-2-6-3.3c-11.5-6.3-30.1-5.3-45.9,2.5-4.6,2.3-25.4,14.6-46.1,27.3-39.1,24-48.9,29.6-64.8,37-23.2,10.8-39.7,21.9-42.8,28.8-2.1,4.8-1,15.7,2.3,22.7,3.8,7.9,13.4,17,22.2,20.9,4.2,1.8,7.9,3.4,8.3,3.4s-.6-3.2-2.3-7.2h-.1ZM1006.65,649.8c13.5-7.8,23-26.5,19.5-38.4-2.9-9.9-12.1-16.8-40.9-30.4-21.8-10.3-36-18.4-69.9-39.8-34.9-22-46.2-28.1-56.7-30.6-11-2.6-25.5-1.7-32.6,2-2.8,1.5-5.1,3-5.1,3.5s2.7,1.1,6,1.5c18.3,2,55.2,17.2,80.8,33.1,33.9,21.1,67.2,51.1,84.1,75.6,6,8.7,6.6,13.2,2.7,22.4-1.4,3.3-2.5,6.2-2.5,6.4,0,.9,10.3-2.9,14.5-5.3h.1ZM867.25,577.1c.4-18.5,0-20.8-4.2-22.3-5.3-1.9-6.9-.4-6.9,6.6v6.3h-4.2c-2.3,0-6-.3-8.1-.7l-3.9-.7-.4-7.2-.4-7.2-3.5-1.2c-5.8-1.9-7.7.2-8.2,8.6l-.4,7.2h-4.7c-2.6,0-5.9-.4-7.5-.7l-2.8-.7v-12.6l-3-1.8-3-1.8-3.5,1.2-3.5,1.2.7,7,.7,7h-16l-.4-7.3-.4-7.3h-11.3l-.4,7.3-.4,7.3h-15v-6.3c0-7.4-1.7-9.3-7.8-8.7l-4.2.4-.4,7.3-.4,7.3h-4.2c-2.3,0-6,.3-8.1.7l-3.9.7v-7c0-7.5-1.4-9.8-5.8-9.8s-6.8,1-6.8,8.9v7.5h-15.1v-10.6l-3.4-1.2c-6.4-2.3-6.7-1.5-6.7,18.1v18.1l2,.7c1.1.4,3.4.4,5,0l3-.7v-13.8h15.1v12.9l3,.7c1.7.4,4.4.5,6,.3l3-.4.4-7.3.4-7.3h16.2v14l3.2.8c1.8.4,4.7.2,6.4-.6l3.2-1.3-.4-6.4-.4-6.4h15.6l.4,6.7.4,6.7,4.1,1.1c5.9,1.6,7.9-.4,7.9-8.2v-6.3h16.2l.4,7.3.4,7.3,4.9.4c6,.5,7-.8,7-8.9v-6.2h15.1v6.2c0,7,1.5,9,6.4,9s6.5-2.5,6-8.4l-.4-5h15.2l.4,6.4c.5,7.7,1.9,9.7,7.1,9.2l3.9-.4.4-15.8v.1Z"/>
        <path id="path82001" class="cls-7" d="M758.65,1669.8c-58.8-26.7-134.2-69.3-190.5-107.6-73.9-50.2-140.4-109-191.9-169.6-63.2-74.4-109.9-164.7-136-263-14.1-53.1-21.1-108.1-20.9-164.6v-28.4l-6.2-9.9c-10.5-16.6-16.2-29.9-28.5-66.8-3.8-11.4-9.1-25.4-11.8-31.1-4.9-10.6-16.5-29.4-26-42.2l-5.3-7.2,7.5-9.8c29.2-38.2,68.9-72,118.6-101.2,19.2-11.2,65.4-33.1,85.7-40.6,48.9-18,112.5-33.6,156.8-38.4l7.2-.8,14.8-9.2c8.2-5.1,24.1-13.8,35.5-19.4,12.8-6.3,35.7-19.5,59.8-34.5,45.3-28.2,47.4-29.3,59.6-33.4l9.2-3.1h32.2l7.3,2.4c10.2,3.3,17.7,7.6,25.9,14.9l7,6.2h17.4l5.5-5.3c6.4-6.2,19.4-13.6,28.9-16.4l6.6-2,19.2.5,19.2.4,8.8,3.4c5.2,2,25.6,13.9,50,29.1,24.5,15.2,50.3,30.2,63.6,36.9,21.2,10.7,35.7,19.1,45.7,26.3l4.4,3.2,12,1.4c47.1,5.4,113.2,22.2,159.8,40.6,85.9,33.8,155.6,82.6,199.3,139.5l7,9.2-11.1,15.5c-19.3,27-24.3,37-34.3,67.7-11,34-17.9,49.8-29.8,68l-5.6,8.7.8,9.6c1.1,12.2-1.2,65.3-3.7,88.2-12.8,116.7-52.4,219.9-121.8,316.9-39,54.6-87.1,104.4-150.1,155.2-59.4,47.9-137.1,97.7-214.6,137.2-26.6,13.6-65.9,32.4-67.6,32.3-.6,0-9.5-3.9-19.9-8.6h0l.3-.2ZM793.45,1608.9c7.9-7.9,19.4-19.8,25.6-26.5l11.1-12.1,1.1-5.5c2-9.8,5.9-34.4,8.5-53.1,1.4-10,3.4-24.3,4.5-31.7,1.1-7.4,2.3-20.6,2.7-29.4l.8-15.9-2-6.5c-5.6-18-21.7-28.7-48.4-32.1l-10.4-1.3v-16.3l11.6.7c13.9.9,28.8,4.3,39.9,9.1,4.4,1.9,8.5,3.1,9,2.6s2-3.9,3.5-7.5c9.6-24.4,8.7-53.4-2.1-69.3-9-13.3-28.6-22.2-52.8-24.2l-9.2-.7.7-1.7c.4-.9.7-4.6.7-8.2v-6.5l12.3.7c17.2,1,29.5,3.6,41.5,9l10.4,4.6,1.3-4.4c6.3-21.7,3.6-52-6.2-71.2-9.9-19.3-26.2-30.1-52.9-35.2l-6.9-1.3.5-10.5c.2-5.8.6-10.7.9-10.9.2-.2,7.4.7,15.9,2,26.8,4.2,42,5.2,58.5,3.7,45.3-3.9,83.3-20.9,116.8-52.3,31.1-29.1,46.4-60,48.1-97.2.5-10.5.3-16.1-.5-16.1s-5.4,5.9-10.6,13.2c-24.8,35.2-49.2,58.4-84.5,80.4-26.1,16.3-63.4,31-93.5,36.9-11.9,2.3-40,5.8-47.5,5.8h-3.5v-18.8h9.8c20.4,0,52-6.1,75.1-14.5,35.1-12.8,65.5-30.9,91.8-54.6,37.6-33.9,58.8-67.8,63.7-101.8,1.5-10.4,1.4-36-.2-37.5-.9-.9-27.6-5.5-46.4-8.1-29.6-4-53-5.7-79.9-5.8-40-.1-56.3,3-73.6,13.9-23.7,15-37.7,42.3-48,93.9l-2.8,14.1-3.4-18.2c-9.1-48.9-22.4-74.5-46.5-89.8-16.9-10.7-33.3-13.9-71.7-13.9-34.8,0-74,3.7-115.6,11.1l-14.1,2.5.4,23.1.4,23.1,2.8,9.4c5.2,17.5,15.6,35.6,31.4,54.6,10.7,12.9,35.6,36.2,49.4,46.1,42.5,30.6,94.5,49.8,141.1,52.2l14.8.7v18.4h-4.1c-2.2,0-10.6-.8-18.6-1.7-50.4-5.7-97.9-23.7-138.9-52.6-14.5-10.2-42.9-37-53.3-50.2-4.8-6.1-11.8-15.8-15.5-21.4-3.7-5.7-7.1-10.3-7.6-10.3-1.9,0-2.5,12.7-1.2,24.1,4.2,36,20.1,64.6,51.7,92.8,32.5,29,70.5,45.3,113.3,48.7,17.8,1.4,35,.4,58.8-3.6,7.9-1.3,14.7-2,15.1-1.6.4.4,1,5.4,1.2,11l.4,10.3-6,.8c-3.3.5-9.6,2.1-14,3.5-24.2,8.2-39.7,24.6-45.2,47.7-2.8,11.9-3.7,34.8-1.8,47,2,13.4,2.3,13.7,9,10,11.6-6.3,34.8-11.3,52.3-11.4h5.2l.4,8.1.4,8.1-9.8.8c-29,2.2-50.6,16.1-57.7,36.9-3,8.9-3.6,25-1.2,38,1.1,6.4,7.1,26.4,8.2,27.6.2.2,4.2-1.6,9-3.8,11.2-5.3,25.8-8.7,40.5-9.6l11.6-.7v16.5l-9,.8c-36,3.3-53.4,22.4-50.9,55.8,1,14.1,5,46,9,73.4,5.6,38.1,6.7,43,9.9,46.9,10.1,12.2,48,51.1,49.8,51.1s7.4-6.5,15.3-14.4h0l.3.2ZM699.45,1525.5c-9.9-59-13.5-99.5-9.6-108l1.5-3.2-2-4.4c-2.7-6.1-7.5-27.9-9.3-42.4-2.1-17.5-1-43.5,2.3-52.9l2.6-7.5-2.5-9c-1.7-6-2.8-14.6-3.2-26.1-1.5-37.3,6-68.5,20.5-85.2l4.2-4.9-9.1-.8c-5-.4-14.4-1.6-20.8-2.6-6.4-1-11.9-1.6-12.1-1.4-.2.2,2.1,4.4,5.1,9.2,7.4,11.7,7.7,14.2,3.8,27.3-4.2,14.1-5.7,25.7-6.7,53.3l-.8,22.5-7.7,2c-4.2,1.1-8.1,2.2-8.6,2.5-1.1.6,8.4,12.4,14.1,17.4l4,3.5-.8,10.6c-.7,9.4,1.1,33.4,3.8,51.3l.8,5.5-14-4.6c-9.5-3.1-14-4.1-14-3.1,0,4.5,14.6,28.4,25.6,41.8l5.2,6.3.9,13.7c.8,12.4,2.7,25.3,11.2,77.1l2.7,16.4,7.6,6.8c4.2,3.7,7.7,6.6,7.9,6.5.2-.2-1-8.1-2.6-17.7h0v.1ZM870.65,1526.4c2.1-12.6,12.1-75.6,13.2-83.2.7-5.1,1.3-11.8,1.3-14.9v-5.7l7-9.2c10.8-14,23.1-34.7,23.2-38.8,0-1.2-16.2,3.2-26.5,7.2l-2,.8,1.6-9.6c2.4-14.3,4-38,3.3-48.4l-.7-9.2,5-4.9c10.4-10.2,15.1-17.2,11.6-17.2s-4.4-.8-8-1.8l-6.6-1.8-.8-22.6c-.9-26.5-2.4-38.5-6.6-53.5-1.7-6-3.1-12.1-3.1-13.5,0-3.3,5.5-14.3,9.7-19.4l3.2-4-3.6.7c-8.7,1.6-19.5,3-29.1,3.7l-10.4.8,4.4,4.5c12.5,12.9,19.2,35.9,20.4,69.9.8,21.9-.5,35.8-4.1,45.3l-1.8,4.8,2.7,7.8,2.7,7.8.6,17.8c.7,20.7-1.9,42.9-6.8,59.6-3.4,11.5-3.5,12-2.2,29.5.9,12.9-1,30.1-9,82-2.4,15.4-4.3,28.8-4.3,29.7s3.3-1,7.5-4.5c5.3-4.4,7.7-7.3,8.1-9.8h0l.1.1ZM912.85,1494.5c20.2-19.9,33.3-42.4,38.8-66.4,4.3-18.8,3.2-49.9-2.2-59.3l-1.5-2.6-4.8,2.3c-2.6,1.2-5.4,3-6.2,3.9-.8.9-7.6,12.6-15.2,25.9l-13.7,24.3-.9,12c-1,14.3-3.8,38.2-6.4,54-1,6.3-1.8,12.8-1.8,14.5v3l3.5-2.3c1.9-1.3,6.6-5.4,10.4-9.2h0v-.1ZM655.95,1490.9c-4-23.7-6-40.3-6.6-54.6l-.6-13.8-6.2-9.6c-3.4-5.3-10-16.6-14.5-25.2l-8.3-15.5-6.4-3c-3.5-1.7-6.7-2.8-7.1-2.4-2,1.9-4.2,18.6-4.4,32.9-.4,35.1,9.5,60.7,34,87.3,5.9,6.4,19.7,17.9,21.5,17.9s0-6.2-1.3-13.8h0l-.1-.2ZM580.55,1470.3l1.9-3.2-1.9-3.2-1.9-3.2-17.6-.3-17.6-.3-2.2,2.5c-2.7,3.1-2.8,5.7-.2,9.1l2,2.6,17.8-.3,17.8-.3,1.9-3.2v-.2ZM1012.45,1472.2c2.9-2.4,3-7.2.2-10l-2.1-2.1h-32.8l-2.3,1.9c-2.9,2.4-3,7.2-.2,10l2.1,2.1h32.8l2.3-1.9ZM518.25,1436.5c9-1.5,16.3-5,20.1-9.7l2.6-3.3-.2-9.3c-.3-16-7.9-32.9-19.2-42.8l-4-3.5-1.2,1.7c-.7,1-2.4,4.6-3.9,8.2-2.9,6.9-3.9,21.4-2,29.7l1,4.5-4.8-.9c-11.6-2.3-27.5-.4-41.2,5l-4.8,1.9,4.9,4.7c12.9,12.5,31.3,17.3,52.7,13.8h0ZM1060.35,1436.5c8.9-1.7,20.5-7.2,27.4-12.9l5.7-4.7-2.5-1.8c-7.3-5.1-29.3-8.3-41.8-6l-5.3,1,1.3-4.4c.7-2.4,1.1-9.2.8-15.1l-.5-10.7-3.7-7.5-3.7-7.5-6.7,6.9c-14.7,15.2-22.6,42.1-15.5,52.9,5.6,8.5,26.7,13.2,44.4,9.7l.1.1ZM475.65,1386.5c9.8-4.7,14.7-20,12.1-37.3-1.4-9.3-6.5-21.4-11.5-27.3l-2.5-3-5.1,7.4c-6.5,9.4-9,17.5-9,29.1v9.2l-8.1-2.8c-6.2-2.1-10.7-2.8-19.3-2.8s-24,2-24,3.9,4.1,4.9,9.1,9.6c13.6,12.6,25.9,17.3,43.2,16.7,7.2-.2,11.6-1.1,15.1-2.7h0ZM1111.95,1387.3c10.2-2.9,21.2-9.6,29.2-17.6l6.2-6.2-2.2-1.5c-5.8-4-28.2-4.1-40.5-.3l-8.7,2.7v-22.4l-4.6-8.8c-2.5-4.8-5.7-10.1-7.1-11.7l-2.5-2.9-3.9,5.7c-6.8,10-9.2,17.6-9.9,31.1l-.6,12.3,2.7,7c1.5,3.9,3.6,7.9,4.9,9.1,6.1,5.7,23.4,7.3,37.1,3.3h0l-.1.2ZM643.65,1345.9c0-4,.4-11.7.7-17l.6-9.7-7.9-8.5-7.9-8.5-19.2-9c-17.9-8.4-33-17.5-38.5-23.2-1.3-1.3-2.8-2.4-3.4-2.4-1.7,0-1.2,19,.7,28.4,4.7,23.1,18.7,41.4,39,51.1,8.4,4,17.1,5.9,27.4,6.1h8.5l.1-7.2-.1-.1ZM933.65,1351.9c21.2-3.7,42.6-22,50.4-43,3-8,5.6-24.1,5.6-34.2v-8.7l-6.6,5.3c-10,7.9-23.4,15.6-39.5,22.7l-14.5,6.4-7.5,7.3c-4.2,4-8.4,8.5-9.4,9.8l-1.8,2.5.9,16.6.9,16.6h7.1c3.9,0,10.5-.6,14.5-1.3h-.1ZM423.55,1334.3c13.6-2.7,21.1-15.5,21.1-35.7s-3.1-22.4-6.8-27l-1.8-2.3-5.8,5.3c-7.3,6.6-13,17.2-14.9,27.8l-1.5,8.1-5-2.7c-9.2-4.9-20.1-7.4-32.8-7.4s-12.1.5-12.4,1c-1.1,1.7,8.4,14.4,14.9,19.9,8.9,7.6,24.1,13.6,35.6,14.2,1.5,0,5.8-.5,9.4-1.2h0ZM1157.75,1331.9c9.8-3.4,20.8-11.5,27.4-20.2,3.2-4.2,5.8-8.2,5.8-8.9,0-2.1-5.6-2.8-18.2-2.3l-11.8.5-10,4.6-10,4.6-.6-7.4c-.4-5-1.9-9.8-4.5-14.8-3.8-7.3-13.6-18.3-16.1-18.3s-6.6,11.4-8.1,20.4c-2.9,17.4,3.2,37,13.1,42,7.5,3.8,21.7,3.6,33.1-.4h0l-.1.2ZM641.95,1277.3l2.8-.7v-5c0-6.7-2.8-13.9-8.4-21.5l-4.6-6.3-16.4-10.1c-27.7-17-43.1-29.9-56.8-47.9l-6.2-8.1-.4,12.3c-.4,14.9,1.8,25.5,8,37.7,14.8,28.8,44.9,48.9,75.4,50.2,2.1,0,5-.2,6.6-.5h0v-.1ZM929.95,1276.8c34.4-5.6,64.7-34.7,72.4-69.5,2.5-11.3,3-19.1,1.7-25.4l-.8-3.7-5,6.7c-14.9,19.9-33.7,36.1-57,49-19.6,10.9-28.1,21.9-28.5,36.8-.2,7.5,2.4,8.4,17.3,6h0l-.1.1ZM393.65,1272.9c5.4-2.1,13.5-11.7,17.3-20.4l2.9-6.8v-14.9c0-8.2-.3-15.2-.8-15.7-1.6-1.5-11.9,5.1-18.5,11.9-6.4,6.6-13.9,18.5-13.9,22.3s-2,.2-6.4-3.4c-10.5-8.8-26.4-14.8-39.3-14.8h-6v2.2c0,3.6,8.4,18.2,13.8,23.9,12.8,13.6,37.1,21.1,50.9,15.7h0ZM1194.15,1270c14.1-6.1,28.7-22.9,31.5-36.2l.7-3.5-8.5,1c-14.8,1.7-27.7,7-36.8,15.2-5.8,5.2-6.5,5.5-6.5,2.6,0-4.7-7.8-17.2-14.8-23.7-6.8-6.3-14.9-11.5-16.2-10.3-.3.3-1.2,3.8-1.9,7.9-3.5,18.3,6.3,43.5,19.2,49.7l4.3,2,10.3-.5,10.3-.5,8.4-3.6v-.1ZM651.05,1217.9c0-8.7-2.6-21.6-5.4-27.2-3.9-8-12-15.5-23.5-21.7-24-13-34.7-20.6-50.9-35.7l-16.2-15.2.8,9.9c3.1,37.3,23.8,66.8,58.7,83.3,10.4,4.9,27.3,10.4,32.5,10.4h4.1v-3.8h-.1ZM922.15,1219.2c21.1-5.8,40.7-17.5,53.8-32,8.1-9,17.8-26.1,20.6-36.6,2.3-8.3,5-30.9,3.9-31.9-.4-.4-2,.8-3.6,2.7-13.4,16.3-35.9,33.3-64.4,48.7-16.9,9.1-25,21.9-26.8,41.9l-.8,9.7h4.1c2.3,0,8.2-1.1,13.1-2.5h.1ZM377.55,1208c5.1-3.6,13.8-16,16.2-23.1,1.1-3.4,2.3-10.5,2.7-15.8l.7-9.7h-2.1c-7.2,0-24.7,12.6-30.7,22.2l-3.3,5.2-2.6-3.4c-6.2-8.4-18.2-17.8-28.6-22.5-5.8-2.6-12.2-5.1-14.1-5.5l-3.6-.8.9,6.8c2.6,19.1,15.5,37.6,31.5,45.3,7.9,3.8,10.7,4.3,20.4,4,6.9-.2,9.9-.9,12.6-2.7h0ZM1210.25,1207c17.3-7.9,32.3-29.8,32.3-47.1v-5l-7.5,2.4c-11.6,3.7-26.1,13.3-32.8,21.8-3.1,4-6,7.3-6.5,7.3s-2.3-2.2-4-5c-5.4-8.7-19.8-19.3-28.7-21.4l-3.3-.8-.9,2.5c-1.7,5.1,2.2,23.2,7,32,3.1,5.6,9.5,12.4,14.3,15.3l3.8,2.2,9.4-.5c7.1-.3,11.2-1.3,16.8-3.8h0l.1.1ZM1046.45,1191.6c22.4-20.4,41.1-63.2,47-107.3,1.9-14.3,2.4-39.6.8-42-.7-1.1-3.1-1.1-9.7-.3-4.8.6-8.8,1.3-8.9,1.4,0,.1-1.5,6.3-3.1,13.8-6.5,30.2-21.3,63.9-36.5,82.8-4.2,5.2-7.5,10.2-7.5,11.2s.8,6.3,1.8,11.7c1,5.5,2.1,15.3,2.6,21.7.5,6.5,1.1,12.7,1.5,13.8l.6,2.1,2.7-1.8c1.5-1,5.4-4.2,8.7-7.2h0v.1ZM523.15,1184.5c.4-8.2,1.4-19.2,2.2-24.4l1.4-9.5-7.7-10c-15.4-19.9-30.1-53.1-35.5-80.3-1.4-7.2-3.1-14.1-3.6-15.5l-1-2.5-8.6-.6c-4.7-.4-8.9-.4-9.2-.1-1.6,1.4-.3,39.5,1.7,50.3,5.8,31.5,17.7,61.4,33,83,6.5,9.1,22,24.4,24.8,24.4s1.9-3.3,2.6-14.9h0l-.1.1ZM369.15,1148.2c9.9-8.4,16-25.3,14.7-40.6-.7-8.5-4.4-22.1-5.9-22.1s-4.7,3.7-9.3,8.2c-12.9,12.8-18.6,25-18.6,40.2,0,17.5,8.1,23.5,19,14.3h.1ZM1202.75,1148.5c1.9-2.4,2.7-5.5,3.1-11.9.5-10-1.8-18.8-7.8-29.4-4.3-7.5-17-20.6-20-20.6-5.5,0-8,29-3.6,42.2,6.4,19.1,20.8,29.2,28.3,19.7h0ZM525.35,1079c-6.5-9.5-13-23.4-14.6-31.3l-.9-4.4h-14.9l.8,3.2c7,29.2,16,51,30.6,74.3l3.3,5.3,1.1-18.9,1.1-18.9-6.4-9.3h-.1ZM1030.65,1117.5c2.6-4.4,5.7-9.6,6.9-11.6,8.4-14.1,17.7-39.1,22-58.9l.8-3.8h-14.7l-1.6,6.5c-2.2,8.7-8.2,21.7-14.2,30.5l-4.9,7.2v19c0,10.4.2,19,.5,19s2.6-3.6,5.3-7.9h-.1ZM507.55,1010.5v-6.9l-12.3-2.6c-35-7.5-73.8-22.6-109.3-42.4l-10.2-5.7h-5.6c-7.9,0-25.3-3-34.3-5.9-10.2-3.3-26.1-10.6-35.3-16.2-4.2-2.6-7.7-4.2-8-3.7-.7,1.8,4.7,11.9,11.7,21.7,29.4,41.2,97.8,64.9,197.3,68.5l6,.2v-7ZM1090.95,1015.6c63.2-6.1,113.1-23.4,144.8-50.3,8.3-7,18.1-19.5,24.3-30.9,2.2-4,3.9-7.5,3.9-7.9s-3.8,1.5-8.5,4.2c-21.7,12.5-44.9,20.1-65.6,21.6l-10.9.8-10.9,6.2c-33,18.9-79.6,36.5-113.4,42.8l-7.2,1.3v13.9h12.9c7.1,0,20.8-.8,30.5-1.7h.1ZM509.85,976.8l.4-2.4-11.7-5c-14.7-6.2-38.7-19.7-59-33l-15.6-10.3-6.7,5.7c-3.7,3.1-9.2,7.4-12.4,9.5l-5.7,3.8,2.3,1.7c3.6,2.6,24.3,11.5,38.6,16.6,11,3.9,33.6,10.1,55.6,15.2,8.1,1.9,13.8,1.2,14.2-1.7h0v-.1ZM1061.35,978c31-6,71.8-19.5,87.9-29.2l5.5-3.3-6.8-5.4c-3.7-3-8.9-7.4-11.6-9.8l-4.8-4.4-9.7,6.8c-20.9,14.6-45,28.4-65,37.2l-11.8,5.2.7,2.3c.8,2.8,3,2.9,15.5.5h0l.1.1ZM269.95,939c-10.5-19.5-23-51.8-25.5-65.8-.9-5.4-2.1-8.5-3.1-8.5s-4.3,1.1-7.5,2.4l-5.9,2.4.8,7.5c.5,4.1,1.9,10.4,3.2,14.1,1.3,3.6,1.9,6.6,1.4,6.6s-4-3-7.6-6.8c-9-9.3-10.6-9.9-7.4-3,4.2,9.2,13.9,23.6,21.6,32,8.5,9.3,29.4,25.9,32.8,25.9s-.6-3-2.6-6.8h-.2ZM1309.25,927c5.2-4.8,12.1-12.6,15.4-17.2,6.3-8.9,14.8-24.1,14.8-26.5s-3.6,2.2-8,6.7-8.3,7.9-8.7,7.6c-.4-.3.7-5,2.4-10.4,1.7-5.4,3-11.5,3-13.5v-3.7l-5.3-2c-2.9-1.1-6.3-2.3-7.4-2.7l-2-.7-.8,6.4c-1.6,13-11.4,40-22.4,61.7-3.4,6.7-6.1,12.4-6.1,12.7,0,1.6,17.2-11,25.2-18.4h-.1ZM380.65,930.7c11.2-3.7,23.1-11.5,28.9-19.1l2.6-3.4-10.7-12.1c-25.3-28.7-50.4-44.9-80.8-52.4-16.4-4-18.7-4-37.6,0-9.7,2-17.7,3.8-17.9,3.9-1.2,1.1,5.4,22.6,9.4,30.5,4.9,9.8,17.3,26.2,23.6,31.2,13.2,10.7,29.2,18.9,43.9,22.6,11.2,2.8,28.1,2.4,38.7-1.1h0l-.1-.1ZM1210.85,932.2c19.6-3.7,40.9-15.9,55.7-31.7,8.6-9.2,20-29.4,23.2-41.2,1.9-7.1,2.5-12.2,1.4-12.2s-9-1.6-19.2-3.7l-18.6-3.7-7.2,1.4c-17.3,3.2-39.2,11.9-54.4,21.5-11.6,7.4-20.9,15.4-36.1,31.1l-13.9,14.4,4.6,5.3c7.9,9,24.6,17.8,37.1,19.7,7.4,1.1,18.4.7,27.4-1.1h0v.2ZM1096.25,916.7c39.4-24,71.7-58.7,81.6-87.8,3.6-10.7,4.3-26.3,1.5-33.7-.9-2.4-7.7-11.2-15.1-19.6-7.4-8.4-14.3-16.5-15.4-18l-2-2.7-8.5,2c-37.8,9.1-72.4,43.1-82.1,80.8-1.9,7.5-2.5,13.9-2.5,26.9,0,19.5,4.7,62.5,6.9,61.9.7-.2,7.6-6.8,15.2-14.6s14-14,14.2-13.8-2.1,5-5.2,10.7-6.5,12.4-7.6,14.8l-2,4.4,4.9-2.4c2.7-1.3,9.9-5.4,16-9.1h0l.1.2ZM479.95,926.4c0-.3-3.4-6.9-7.6-14.7-4.2-7.7-7.6-14.4-7.6-14.9s1.8,1.2,4,3.8c5.1,5.9,26.4,26.4,27.4,26.4,1.7,0,5.6-35.7,6.1-54.6.5-20.8-.4-28.4-5-41.7-10.5-30.4-37.1-57.4-69.1-70-5.6-2.2-12.2-4.3-14.8-4.7l-4.6-.6-2.7,4c-1.5,2.2-8.7,10.7-16,18.9-14.8,16.5-15.3,17.8-15.1,33.6.4,22.4,14.6,46,44.5,74.1,15.9,14.9,26.9,23,45.9,33.8,11.9,6.7,14.5,7.9,14.5,6.5h0l.1.1ZM537.55,881.3c3-.6,5.7-1.3,6-1.6s-3.2-3.6-7.7-7.3-8.4-6.6-8.6-6.3c-.2.2-.1,4.3.2,9l.6,8.5,2.1-.6c1.1-.3,4.5-1.1,7.5-1.7h-.1ZM1028.65,874v-9.5l-8.7,7.4c-4.8,4.1-8,7.7-7.3,7.9.8.3,4.5,1.1,8.4,1.9,3.8.8,7.1,1.5,7.3,1.6.2,0,.3-4.1.3-9.3h0ZM594.45,872.3c22.7-2.8,44.3-4.2,65.2-4.1h19.3l-9.6-7.9c-35.6-29.3-69.9-42.6-110-42.6-10.9,0-32,2.4-37.1,4.2l-2,.7,5.3,7.2c8.5,11.7,26.7,28.4,39.9,36.7,6.6,4.1,12.5,7.5,13.2,7.5s7.8-.8,15.7-1.8h0l.1.1ZM982.45,872.2c7.2-3.4,22.7-14.8,31.8-23.4,10.1-9.6,22.4-25.2,20.9-26.6-2.6-2.4-27.7-4.7-44.3-4.1-31.6,1.2-60.2,10.3-84.3,26.9-8.4,5.8-28.9,22.2-28.9,23.1,0,.4,6.1.4,13.5,0,14.4-.6,45.6,1.2,66.4,3.9,17.2,2.2,20.3,2.2,24.9,0h0v.2ZM215.45,827.8c22.8-11.7,45.2-25.9,72.5-45.5,40.6-29.3,111.4-77.6,137.3-93.6l10.1-6.2-8.8,8.5c-8.8,8.4-58.8,50.2-83.3,69.5-15.8,12.4-39.5,29-68.4,47.7-12.1,7.8-23.4,15.3-25.2,16.7l-3.1,2.4,3.1-.6c1.7-.3,7.7-1.4,13.2-2.4,19.1-3.5,40.3-9,49.4-12.9,20.7-8.8,37.1-22.9,82.7-70.4,24.1-25.1,71.5-69.8,82.3-77.5l6.6-4.7-1-3.5c-.5-1.9-.9-8.5-.9-14.7v-11.2l3.5-7.5c1.8-4.1,3.1-7.8,2.7-8.1-1.9-1.7-50.2,9.1-78.3,17.6-102.9,31-188.7,82.8-234.7,141.6l-4.8,6.1,7.4,10.3c7.7,10.7,14,20.7,22.3,35.3,2.7,4.7,5,8.5,5.1,8.5s4.8-2.4,10.4-5.3h0l-.1-.1ZM1363.65,814.2c4.9-8.1,12.2-19.3,16.3-25l7.4-10.3-2.8-3.8c-5.9-8-21.1-24.2-32.5-34.7-60.7-55.8-158.4-102.1-260.8-123.4-9.3-1.9-18.8-3.5-20.9-3.5h-4l1.8,2.6c6.2,9,8.9,27.4,5.3,36.9l-1.7,4.6,11.9,9.4c14.5,11.4,70.7,64.4,92.2,86.9,48.6,50.9,61,58.8,107.3,68.5,21.6,4.5,26.1,5.2,26.1,4s-8.1-6-17.9-12.1c-38.9-24.1-60.5-39.4-91.1-64.5-43.7-35.9-69.2-57.7-74.1-63.3l-2.4-2.8,3,1.5c9.6,4.7,83.9,55.5,132,90.3,38,27.4,64.1,43.9,87.5,55.1l5,2.4,1.7-2c.9-1.1,5.7-8.6,10.5-16.7l.2-.1ZM812.15,792.6c5.2-1.1,12.9-2.9,17.2-4.2,8.8-2.5,35.8-12.7,37.2-14,.5-.5-.9-2.5-3.2-4.6l-4.1-3.7-10,4c-35.1,14.1-80,16.4-120.8,6-6.2-1.6-15.6-4.5-20.8-6.5l-9.4-3.6-3.7,3.8-3.7,3.8,10,4.4c15.5,6.8,41.7,14.2,57.8,16.3,11.4,1.5,42.7.5,53.5-1.7h0ZM667.95,751c-.7-.5-5.7-3.8-11.3-7.2-32.9-20.3-63.9-48.7-83.1-76.3-12.9-18.6-15.7-27.1-11.4-35.4,7.2-14.2,45.9-52.9,69.3-69.3,33.3-23.3,68.3-39.2,97.9-44.5l7.3-1.3-2.1-2.2c-3.9-4-13.6-6.1-25.8-5.6l-11.1.5-10.5,4.8c-5.8,2.7-25.2,13.9-43.2,25.1-39,24.1-49.4,30.1-70.7,40.5-19.9,9.8-27.9,14.4-34.7,20.3-2.9,2.5-7.6,5.2-10.3,6-7.5,2.2-16,7.6-19.5,12.5-2.3,3.2-3.2,6.3-3.6,12.1l-.5,7.8,3.1,7.2c6.8,15.6,20.3,29.6,40.4,41.9,5.9,3.6,18.2,12.2,27.3,19,31.8,23.8,57.6,37.8,79.6,43.3,7.4,1.9,14.6,2.3,12.8.8h.1ZM907.75,747.8c21-6.6,44.8-19.8,72.4-40.4,9-6.7,21.5-15.3,27.7-19.2,15-9.2,32.8-26,38.1-35.7,8.7-16.2,8.2-28-1.6-37.1-3.2-3-8.2-6.1-12.4-7.6-3.9-1.4-9.1-4.4-11.6-6.8-6.2-5.8-13.5-10-40.7-23.4-15.5-7.6-35.9-19.3-60.7-34.8-20.6-12.8-42.4-25.6-48.4-28.4l-10.9-5h-29.1l-4.3,2.4c-6.3,3.5-6.1,4.9.8,5.8,8.7,1.2,33.7,9.1,45.9,14.6,45.1,20.2,94.2,59.3,119.9,95.2l4.6,6.5-.5,5.4c-1,11.1-14.9,32.7-34.8,54.2-16.8,18.3-35.5,33.4-60.5,49-6.6,4.1-12.5,8-13.2,8.6-2,1.8,8.9-.1,19.5-3.4h0l-.2.1ZM817.85,720c23.3-4.1,44.7-10.6,64.5-19.6l12.3-5.6.4,12.2c.2,6.7.8,12.2,1.3,12.2s4-2.2,7.8-4.9c26.7-18.8,51.5-43.1,66.3-65.2l5.8-8.6-5-6.2c-20.1-24.8-54.4-53.8-83.4-70.3-39.4-22.5-74-31.4-116.7-30-67,2.3-132.6,38.2-185.1,101.5l-4.1,5,4.6,7c12.6,19.3,39.3,46.7,61.2,62.6,6,4.3,11.2,7.9,11.6,7.9s.8-5.5.8-12.2v-12.2l14.8,7c21.8,10.2,50.7,18.3,77.1,21.4,9.7,1.2,56.3-.2,66.1-2h-.3Z"/>
        <g id="text14" class="cls-9">
          <g class="cls-9">
            <path class="cls-8" d="M390.05,281.8h41.1v131.2c0,6.1,1.5,11,4.6,14.6s7.2,5.4,12.4,5.4,9.6-1.9,12.8-5.7c3.1-3.8,4.7-9.1,4.7-15.8v-129.7h40.8v122.3c0,16.7-2.1,30-6.2,40.1-4.1,10-10.2,17.4-18.3,22.1-8.1,4.7-19.3,7-33.8,7-21.3,0-36.3-5.8-45.1-17.3-8.7-11.5-13.1-31-13.1-58.5v-115.7h.1Z"/>
            <path class="cls-8" d="M542.65,281.8h40.7c23.7,0,40.7,4.9,51.1,14.7,10.4,9.8,15.6,22.3,15.6,37.5s-7.6,29.5-22.7,39.5c17.2,7.2,25.8,20.8,25.8,40.9s-5.3,29.1-16,38.9c-10.7,9.9-24.7,14.8-42.2,14.8h-52.3v-186.3h0ZM582.75,317.5v40.2c17.9-.5,26.8-7,26.8-19.7s-2.1-12.8-6.4-15.8c-4.3-3-11.1-4.6-20.4-4.7h0ZM582.75,391.5v40.3c10.1-.2,17.7-1.8,22.8-5,5.1-3.1,7.6-8.3,7.6-15.4,0-13.3-9-20-27.1-20h-3.3v.1Z"/>
            <path class="cls-8" d="M677.25,281.8h41.1v131.2c0,6.1,1.5,11,4.6,14.6s7.2,5.4,12.4,5.4,9.6-1.9,12.8-5.7c3.1-3.8,4.7-9.1,4.7-15.8v-129.7h40.8v122.3c0,16.7-2.1,30-6.2,40.1-4.1,10-10.2,17.4-18.3,22.1-8.1,4.7-19.3,7-33.8,7-21.3,0-36.3-5.8-45.1-17.3-8.7-11.5-13.1-31-13.1-58.5v-115.7h.1Z"/>
            <path class="cls-8" d="M829.85,281.8h40v143.2h31.7v43.1h-71.8v-186.3h.1Z"/>
            <path class="cls-8" d="M925.25,281.8h41.1v131.2c0,6.1,1.5,11,4.6,14.6s7.2,5.4,12.4,5.4,9.6-1.9,12.8-5.7c3.1-3.8,4.7-9.1,4.7-15.8v-129.7h40.8v122.3c0,16.7-2.1,30-6.2,40.1-4.1,10-10.2,17.4-18.3,22.1-8.1,4.7-19.3,7-33.8,7-21.3,0-36.3-5.8-45.1-17.3-8.7-11.5-13.1-31-13.1-58.5v-115.7h.1Z"/>
            <path class="cls-8" d="M1077.95,464.6v-43.4c12.7,7.8,23.3,11.7,32,11.7s9-1.5,11.9-4.4,4.4-6.8,4.4-11.7-1.2-7.2-3.5-10.5-6.4-7.2-12.1-11.9c-13.8-11.2-23.9-21.6-30.1-31.2s-9.3-20.4-9.3-32.2,4.8-29.2,14.4-39.4c9.6-10.1,22-15.2,37.3-15.2s22.5,2.6,33.6,7.7v41.7c-11.9-6.9-21.5-10.3-28.9-10.3s-8.8,1.3-11.7,3.8c-2.9,2.6-4.3,6.1-4.3,10.5,0,7.8,6.7,16.6,20,26.4,7.9,5.8,16,13.9,24.1,24.4s12.2,22.6,12.2,36.4-5.3,29.4-16,40-24.2,15.8-40.6,15.8-22.3-2.8-33.3-8.4l-.1.2Z"/>
          </g>
          <g class="cls-9">
            <path class="cls-5" d="M390.05,281.8h41.1v131.2c0,6.1,1.5,11,4.6,14.6s7.2,5.4,12.4,5.4,9.6-1.9,12.8-5.7c3.1-3.8,4.7-9.1,4.7-15.8v-129.7h40.8v122.3c0,16.7-2.1,30-6.2,40.1-4.1,10-10.2,17.4-18.3,22.1-8.1,4.7-19.3,7-33.8,7-21.3,0-36.3-5.8-45.1-17.3-8.7-11.5-13.1-31-13.1-58.5v-115.7h.1Z"/>
            <path class="cls-5" d="M542.65,281.8h40.7c23.7,0,40.7,4.9,51.1,14.7,10.4,9.8,15.6,22.3,15.6,37.5s-7.6,29.5-22.7,39.5c17.2,7.2,25.8,20.8,25.8,40.9s-5.3,29.1-16,38.9c-10.7,9.9-24.7,14.8-42.2,14.8h-52.3v-186.3h0ZM582.75,317.5v40.2c17.9-.5,26.8-7,26.8-19.7s-2.1-12.8-6.4-15.8c-4.3-3-11.1-4.6-20.4-4.7h0ZM582.75,391.5v40.3c10.1-.2,17.7-1.8,22.8-5,5.1-3.1,7.6-8.3,7.6-15.4,0-13.3-9-20-27.1-20h-3.3v.1Z"/>
            <path class="cls-5" d="M677.25,281.8h41.1v131.2c0,6.1,1.5,11,4.6,14.6s7.2,5.4,12.4,5.4,9.6-1.9,12.8-5.7c3.1-3.8,4.7-9.1,4.7-15.8v-129.7h40.8v122.3c0,16.7-2.1,30-6.2,40.1-4.1,10-10.2,17.4-18.3,22.1-8.1,4.7-19.3,7-33.8,7-21.3,0-36.3-5.8-45.1-17.3-8.7-11.5-13.1-31-13.1-58.5v-115.7h.1Z"/>
            <path class="cls-5" d="M829.85,281.8h40v143.2h31.7v43.1h-71.8v-186.3h.1Z"/>
            <path class="cls-5" d="M925.25,281.8h41.1v131.2c0,6.1,1.5,11,4.6,14.6s7.2,5.4,12.4,5.4,9.6-1.9,12.8-5.7c3.1-3.8,4.7-9.1,4.7-15.8v-129.7h40.8v122.3c0,16.7-2.1,30-6.2,40.1-4.1,10-10.2,17.4-18.3,22.1-8.1,4.7-19.3,7-33.8,7-21.3,0-36.3-5.8-45.1-17.3-8.7-11.5-13.1-31-13.1-58.5v-115.7h.1Z"/>
            <path class="cls-5" d="M1077.95,464.6v-43.4c12.7,7.8,23.3,11.7,32,11.7s9-1.5,11.9-4.4,4.4-6.8,4.4-11.7-1.2-7.2-3.5-10.5-6.4-7.2-12.1-11.9c-13.8-11.2-23.9-21.6-30.1-31.2s-9.3-20.4-9.3-32.2,4.8-29.2,14.4-39.4c9.6-10.1,22-15.2,37.3-15.2s22.5,2.6,33.6,7.7v41.7c-11.9-6.9-21.5-10.3-28.9-10.3s-8.8,1.3-11.7,3.8c-2.9,2.6-4.3,6.1-4.3,10.5,0,7.8,6.7,16.6,20,26.4,7.9,5.8,16,13.9,24.1,24.4s12.2,22.6,12.2,36.4-5.3,29.4-16,40-24.2,15.8-40.6,15.8-22.3-2.8-33.3-8.4l-.1.2Z"/>
          </g>
        </g>
        <path id="path82011" class="cls-2" d="M727.75,39.8c-16.6,10.5-33.1,21.4-49.8,31.8-9,5.6-18.1,11.1-27.3,16.3-8.3,4.7-16.7,9.1-25.3,13.2-4.4,2.1-8.9,4.2-13.4,6.1-15.9,7-32,13.4-48.4,19-9.4,3.3-18.9,6.3-28.5,9.2-16.1,4.8-32.3,9.1-48.7,12.8-14.7,3.3-29.5,6.2-44.4,8.7-9.6,1.6-19.2,3-28.9,4.3-19.8,2.6-39.6,4.5-59.5,5.7-5.3.3-10.6.7-16,.9-37.8,1.7-75.6,1.9-113.4.7-13.6-.5-27.3-1.1-40.9-1.9-5.8-.3-11.5-.7-17.3-1.1-8.2-.6-16.5-1.2-24.7-1.9-5.4-.4-10.8-.9-16.2-1.4-33.4-2.9-66.6-6.7-99.9-10.8-3-.4-6.1-.7-9.1-1-.7,0-1.4-.1-2.1-.1h-.6c-.1,0-.1.2-.1.4,0,.5-.2.9-.2,1.4-.2,1.3-.3,2.6-.4,3.9-.3,2.7-.5,5.3-.7,8-.4,4.4-.7,8.8-1.1,13.2-.3,3.2-.5,6.3-.7,9.5-1.3,17-2.3,34-3,51-.3,6.2-.5,12.5-.8,18.7-.4,9.9-.7,19.7-1,29.6-.2,8.8-.4,17.6-.6,26.4-.5,25.4-.6,50.9-.4,76.3v5.2c.2,13.4.4,26.8.6,40.3,0,2.6,0,5.3.1,7.9.2,6.2.5,12.5.8,18.7.7,15.4,1.7,30.8,2.7,46.2,1.7,24.6,3.7,49.2,6,73.8,2.2,22.9,4.7,45.8,7.6,68.7,1.7,13.4,3.5,26.7,5.4,40.1,1.9,13.2,3.9,26.3,6.1,39.5.8,4.8,1.7,9.6,2.4,14.4.1.6.2,1.3.3,1.9,1.3,8.2,2.7,16.3,4.2,24.4,2,10.5,4.2,21.1,6.3,31.6.9,4.3,1.8,8.7,2.7,13,2,9.3,4,18.7,6.1,28,1.8,7.9,3.6,15.9,5.6,23.8,5.5,22.9,11.5,45.6,17.9,68.3,1.9,6.8,3.9,13.5,5.9,20.3,1.4,4.7,2.8,9.4,4.3,14.1,1.9,6.2,3.9,12.4,5.9,18.7,1.3,4,2.6,8,3.9,12,1.6,5,3.3,9.9,5,14.8,2,5.7,4,11.5,6,17.2,3.3,9.2,6.6,18.4,10.1,27.6,1.9,5,3.8,10.1,5.8,15.1,3.8,9.8,7.7,19.6,11.8,29.3,2.4,5.8,4.9,11.6,7.3,17.4,2.8,6.5,5.6,13,8.5,19.5,3.6,8,7.3,16,11.1,24,2.9,6.2,5.9,12.4,9,18.6,4.6,9.4,9.4,18.7,14.2,27.9,5,9.7,10.1,19.4,15.4,29,3.2,5.7,6.4,11.4,9.8,17.1,5.7,9.6,11.7,19.1,17.6,28.6.5.8,1,1.6,1.5,2.3,1.8,3,3.7,5.9,5.6,8.9,5.7,9,11.8,17.7,17.6,26.7,5.5,8.5,11.2,16.9,17.1,25.1,3,4.1,6,8.2,9,12.3,15.5,20.7,31.7,40.8,48.7,60.3,17,19.4,34.7,38.1,53.3,56.1,18.9,18.3,38.7,35.7,59.2,52.2,8.2,6.6,16.5,13,24.9,19.2,9.2,6.9,18.6,13.6,28.1,20.1.5.3,1,.7,1.5,1,9.2,6.2,18.5,12.3,28.1,18.1,11.7,7.1,23.6,14,35.6,20.6,11.6,6.4,23.5,12.6,35.5,18.3.3.2.7.3,1,.5,2.5,1.1,5,2.2,7.6,3.4,12.9,5.8,25.8,11.7,38.9,17.2,9.3,4,18.6,7.8,28,11.3,3,1.1,6,2.2,9,3.3,8.5,2.9,17.1,5.5,25.8,8,11.4,3.3,22.8,6.4,34.3,9.3,7.1,1.8,14.2,3.5,21.4,5.2,3.5.8,7.1,1.6,10.6,2.3,1.7.3,3.4.7,5.2,1,.3,0,.6,0,.9.2h.2c11-2.2,22-4.8,32.9-7.5,8.3-2.1,16.6-4.3,24.9-6.7,6.8-1.9,13.5-3.9,20.2-6,6.5-2,13.1-4.2,19.5-6.4,2.9-1,5.8-2,8.7-3.1,8-2.9,15.8-5.9,23.7-9.1,10.3-4.1,20.6-8.4,30.8-12.9,7.4-3.2,14.7-6.6,21.9-10,3.5-1.7,6.9-3.4,10.4-5.1,3.9-2,7.8-4,11.7-6,6.9-3.6,13.7-7.2,20.5-10.8,3.1-1.7,6.1-3.3,9.2-5,1.6-.9,3.2-1.8,4.7-2.7,14-8.1,27.7-16.6,41.2-25.6,14.3-9.5,28.3-19.5,42-29.9,5-3.8,9.9-7.6,14.8-11.5,8.5-6.7,17.1-13.3,25-20.7,10-9.5,20.2-18.7,30.1-28.2,5.3-5.1,10.5-10.3,15.6-15.6,11.6-12.3,23.2-24.6,34.6-37.1,9.5-10.5,18.8-21.2,27.9-32.1,7-8.5,13.7-17.1,20.4-25.8,12.2-16,23.8-32.4,35.1-49.1,6.5-9.7,12.9-19.5,19.2-29.4,10.8-17.2,21.1-34.7,31-52.5,10.9-19.7,21.3-39.7,31.2-60,1.8-3.6,3.5-7.2,5.3-10.8,2.5-5.2,5-10.3,7.5-15.5,3.7-7.8,7.8-15.4,11.2-23.3,4.7-10.9,9.5-21.7,14-32.7,2.2-5.4,4.3-10.8,6.4-16.2,2-5.3,4-10.5,6-15.8,1.9-5,3.6-10.1,5.4-15.2,3-8.7,5.9-17.5,8.7-26.3,4.5-13.9,8.9-27.8,13.2-41.8,5.8-18.8,11.4-37.7,16.9-56.6,4.4-15.4,8.7-30.8,12.8-46.3,2.9-11.1,5.8-22.3,8.5-33.4,1.7-7.1,3.4-14.1,4.9-21.2,0-.3,0-.5.1-.8.5-2.4,1-4.9,1.5-7.3,5.1-24.7,9.9-49.4,14.1-74.2,1.9-10.9,3.6-21.9,5.4-32.9,1.7-10.7,3.2-21.5,4.7-32.2,3.1-22.4,5.7-44.9,8.2-67.3.5-4.2.9-8.3,1.3-12.5,1.3-12.4,2.4-24.8,3.4-37.2.7-8.5,1.5-17,2-25.5,1.4-25.5,3.3-51,4.6-76.5.7-13.2,1.1-26.3,1.3-39.5v-26c0-5.6,0-11.2.1-16.7.1-14.1.3-28.1,0-42.2v-1.5c-.1-4.9,0-9.8-.1-14.7-.3-13.2-.5-26.4-1-39.7-.3-8.3-.5-16.7-.9-25-.5-9.9-.7-19.8-1.3-29.7-.3-5.4-.6-10.8-.9-16.2,0-1.7-.2-3.3-.3-5-.1-2.5-.3-5-.4-7.5-.2-3.9-.4-7.8-.7-11.6-.2-4.2-.5-8.4-1-12.6-.1-1.2-.3-2.4-.5-3.6,0-.4-.1-.9-.2-1.3,0-.4-.2-.8-.3-1.2-.2-.8-.4-1.6-.7-2.4-.3-.7-.6-1.5-1-2.1-.3-.5-.7-1-1.2-1.4s-1.1-.8-1.8-1c-.6-.2-1.2-.3-1.9-.4h-1.4c-1.1,0-2.2,0-3.3.2-.5,0-1,.1-1.5.2-1.1.1-2.1.3-3.2.4-.4,0-.9,0-1.3.1-1,.1-2,.2-3,.3-20.4,2.2-40.8,4.1-61.3,5.8-5.6.5-11.2.9-16.9,1.3-13.8,1-27.6,1.9-41.5,2.6-8.8.4-17.7.7-26.5.9-14.2.3-28.4.4-42.7.5h-20.4c-17.5.3-35,.3-52.5,0-15.2-.3-30.3-.8-45.5-1.8-8.8-.6-17.6-1.3-26.3-2.2-10.7-1.1-21.4-2.3-32.1-3.7-8.4-1.1-16.8-2.4-25.2-3.7-25-4.1-49.9-9.3-74.5-15.6-16.4-4.2-32.7-8.8-48.9-13.7-13.3-4.1-26.5-8.5-39.5-13.2-7.5-2.7-14.9-5.5-22.3-8.5-7.4-2.9-14.8-6-22.1-9.2-7.6-3.3-15.1-7-22.5-10.8-8.7-4.5-17.3-9.3-25.9-14.3-17-9.8-33.7-20.2-50.8-30-1.5-.9-3-1.7-4.5-2.6-2.2-1.3-4.2-2.6-6.3-4-3.5-2.4-6.9-4.9-10.2-7.5-4.8-3.7-9.5-7.4-14.2-11.2-4.9-3.9-9.7-7.9-14.6-11.9-4,3-8.2,6-12.3,8.9-6.8,4.8-13.7,9.5-20.6,14.1-6,4-12.1,8-18.2,11.8h0l-.1-.4ZM829.95,100.1c8.8,5.8,17.7,11.3,26.8,16.6,4.6,2.7,9.2,5.3,13.9,7.9,6.5,3.6,13,7,19.5,10.3,4.2,2.1,8.5,4.2,12.7,6.3,3.5,1.7,7.1,3.4,10.7,5,3.4,1.5,6.7,3,10.1,4.5,15.2,6.7,30.7,12.7,46.3,18.3,17,6.1,34.3,11.5,51.7,16.4,12.4,3.5,24.9,6.7,37.4,9.7,8.8,2.2,17.6,4,26.5,5.8,4.5.9,9,1.8,13.6,2.7,12.9,2.5,25.9,4.6,39,6.6,1.4.2,2.8.4,4.2.6,5.3.7,10.7,1.6,16,2.2,8.4,1.1,16.7,2.1,25.1,3,3.9.4,7.7.8,11.6,1.2,2.3.2,4.6.4,6.9.6,3.8.3,7.6.6,11.4.9,1.8.1,3.6.3,5.4.4,1.2,0,2.5.2,3.7.2,10.7.7,21.5,1.3,32.3,1.7,6,.2,12.1.4,18.1.5h70.9c3.2,0,6.3,0,9.5-.1,12.6-.2,25.3-.4,37.9-.9,8.2-.3,16.3-.7,24.5-1.2,10-.7,20-1.5,30-2.4,4.1-.4,8.2-.7,12.3-1.1,5.7-.5,11.5-1,17.2-1.5,3.8-.3,7.6-.6,11.4-.9,2.2-.2,4.4-.3,6.6-.4h3.5s.1.2.1.3c0,.2.1.4.2.7.1.6.2,1.2.3,1.8.2,1.4.3,2.7.4,4.1.1,1.6.2,3.1.3,4.7,0,1.6.2,3.2.3,4.8.3,5.3.4,10.5.6,15.8.4,10.8.6,21.6.9,32.4,0,3.6.2,7.2.2,10.8.1,6.3.2,12.5.3,18.8,0,5.6.1,11.1.2,16.7,0,12.6.1,25.2.1,37.8,0,10.4,0,20.7-.1,31.1,0,4.2-.1,8.4-.2,12.6,0,3.3-.1,6.6-.2,9.9,0,3-.1,6.1-.2,9.1v4.4c0,4.1-.2,8.2-.3,12.3-.2,5.9-.4,11.9-.7,17.8,0,2.3-.2,4.6-.3,6.9-.3,6.4-.6,12.9-1,19.3-.4,7-.8,14-1.3,21-.3,4.2-.6,8.3-.9,12.5-.7,9-1.4,18-2.1,26.9-.2,2.7-.5,5.4-.7,8.1-.5,5.8-1,11.7-1.6,17.5-1.2,12.7-2.5,25.3-3.9,37.9-.7,6.3-1.4,12.7-2.2,19-3.4,28.2-7.4,56.3-12,84.4-1.3,8-2.7,16-4.1,24-.9,5.3-1.9,10.5-2.9,15.8-1,5.6-2.1,11.2-3.2,16.8-2.1,10.9-4.3,21.9-6.7,32.7-.4,1.9-.9,3.9-1.3,5.8-2,9.2-4.1,18.4-6.3,27.6-1.6,6.8-3.2,13.6-4.9,20.3-1.4,5.8-2.9,11.5-4.4,17.3-1.2,4.7-2.5,9.4-3.7,14.2-3.5,13.4-7.3,26.8-11.3,40.1-8.7,29.5-18.2,58.8-28.7,87.7-4.5,12.4-9.1,24.8-14,37-1.9,4.7-3.7,9.4-5.7,14.1-.2.4-.3.7-.5,1.1-7,16.5-14,33-21.2,49.4-4,9.1-8,18.3-12.2,27.3-4.5,9.7-9.2,19.4-14.1,28.9-5.1,9.9-10.3,19.8-15.6,29.6-3.7,6.8-7.5,13.5-11.5,20.1-1.7,2.7-3.3,5.4-5.1,8-.9,1.4-1.8,2.7-2.7,4.1-.7,1.1-1.4,2.2-2.1,3.3-.2.3-.4.7-.6,1,0,.1-.2.3-.2.4-12.5,19.6-25.4,39-38.7,58-11.8,16.8-23.9,33.2-36.5,49.4-11.3,14.4-23,28.6-35.1,42.3-7.6,8.7-15.4,17.2-23.5,25.5-9.4,9.7-19,19.2-28.9,28.4-1.3,1.2-2.7,2.4-4,3.7-1.8,1.7-3.7,3.4-5.5,5.1-4.3,3.9-8.6,7.8-13,11.6-4.5,4-9,8-13.6,11.9-2.8,2.4-5.6,4.7-8.5,7.1-6.7,5.4-13.6,10.7-20.4,15.9-6.6,5-13.1,10-19.6,14.9-.3.2-.7.5-1,.7-1.6,1.1-3.2,2.3-4.8,3.4-7.9,5.5-15.7,11-23.8,16.2-14.3,9.3-29,18.2-43.9,26.6-12.8,7.2-25.8,14.2-38.9,20.7-8.5,4.2-17,8.3-25.6,12.2-1.9.9-3.8,1.7-5.7,2.5-6.1,2.7-12.2,5.2-18.3,7.7-6.6,2.7-13.2,5.6-20,7.9-11.6,3.9-23.1,8-34.6,12.1-9,3.2-18.1,6.4-27.2,9.5-4.1,1.4-8.1,2.7-12.2,4-1.9.6-3.9,1.2-5.9,1.7-.6.2-1.3.3-1.9.5h-.1c-6-1.2-12-2.7-18-4.2-9.6-2.5-19-5.3-28.4-8.4-3.6-1.2-7.2-2.4-10.8-3.6-12.6-4.3-25.1-9-37.4-13.9-4-1.6-8-3.2-11.9-4.9-11.7-5.1-23.5-10.1-35.1-15.4-6.6-3-13.3-6.1-19.8-9.4-5.5-2.8-11-5.6-16.4-8.6-9.9-5.3-19.7-10.7-29.3-16.4-7.5-4.4-14.9-9-22.3-13.6-7.2-4.5-14.3-9.2-21.3-14-17-11.5-33.6-23.7-49.6-36.6-12.7-10.2-25.2-20.8-37.3-31.7-11.5-10.4-22.8-21.1-33.7-32.1-16.1-16.2-31.7-33-46.4-50.4-.5-.6-1-1.2-1.5-1.8-13.2-15.7-25.9-31.8-38.2-48.2-3.4-4.5-6.7-9.1-10-13.8-4.8-6.8-9.6-13.7-14.3-20.6-2.9-4.2-5.8-8.4-8.6-12.6-.5-.7-.9-1.4-1.3-2-7.2-11.1-14.2-22.3-21-33.7-.3-.4-.5-.8-.8-1.3-7-11.4-13.7-23-20.2-34.7-4.5-8.1-8.9-16.2-13.1-24.4-8.2-15.9-16.2-31.9-23.7-48.1-6.1-13-11.8-26.1-17.5-39.2-.3-.6-.5-1.2-.8-1.9-4.3-9.7-8.3-19.5-12.2-29.4-2.2-5.5-4.3-10.9-6.4-16.4-5.3-13.7-10.5-27.4-15.3-41.3-6.1-17.4-11.9-34.9-17.4-52.6-6.8-22-13-44.1-18.8-66.4-1.7-6.4-3.3-12.8-4.9-19.2-1.6-6.6-3.2-13.2-4.8-19.8-2.6-11.1-5.2-22.2-7.6-33.4-1.8-8.3-3.6-16.6-5.3-24.9-7.5-36.8-13.8-73.8-19.1-110.9-2.9-20.2-5.5-40.5-7.8-60.7-.1-.9-.2-1.8-.3-2.8-.7-6-1.2-12.1-1.9-18.1-1.8-16.7-3.2-33.4-4.5-50.2v-1.1c-1.4-18.7-2.8-37.4-3.8-56.2-.4-7.6-.8-15.2-1.1-22.8-.3-6-.5-11.9-.7-17.9-.5-13.6-.8-27.2-1.1-40.8-.4-15.7-.5-31.3-.4-47,0-6.8,0-13.6.1-20.3v-5.7c0-5.2.1-10.5.2-15.7.2-10.7.3-21.4.5-32,0-1.7,0-3.4.1-5.1,0-1.6.1-3.2.2-4.8,0-1.1,0-2.3.1-3.4.3-8.1.7-16.1,1.1-24.2.4-8.7.9-17.3,1.4-26,.2-3.4.4-6.7.6-10.1,0-1.2.2-2.5.3-3.7,0-.7.1-1.4.2-2.1,0-.3,0-.6.1-.9,0-.2,0-.3.1-.5h3.1s0,.1.2,0h.2s0,.1.2,0h.2s0,.1.2,0h.2s0,.1.2,0h.2s0,.1.2.1h.2s0,.1.2.1h.2s0,.1.2.1h.2s0,.1.2.1h.2s.1.2.3,0c15.5,1.8,31,3.9,46.5,5.7,5.5.6,10.9,1.2,16.4,1.8,8.1.9,16.3,1.6,24.5,2.3,11.3.9,22.6,1.6,33.9,2.1,14.3.7,28.5,1.1,42.8,1.4,9.3.2,18.6.8,27.9.5,19.6-.6,39.3-.9,58.9-1.7,12.2-.5,24.4-1.1,36.6-2.1,4-.3,8-.7,12-1.1,11.2-1.2,22.4-2.5,33.6-4,13-1.7,25.9-3.6,38.8-5.7,1.2-.2,2.4-.4,3.7-.6.4,0,.7-.1,1.1-.2,15.9-2.9,31.8-6,47.5-9.5,13-2.9,25.9-6,38.7-9.5,10.1-2.8,20.1-5.8,30-8.9,4.9-1.5,9.7-3.1,14.5-4.6,3.2-1,6.4-2.1,9.5-3.2,4.3-1.5,8.5-3.1,12.7-4.7,2.4-1,4.8-2,7.1-3,4-1.7,7.9-3.5,11.8-5.3,6-2.7,12-5.5,17.9-8.4,11.1-5.3,22.1-10.7,33-16.2,10.5-5.3,21-10.8,31.3-16.4,7.6-4.1,15.1-8.3,22.5-12.7,5.3-3.1,10.6-6.3,15.7-9.7,3.7-2.4,7.4-4.9,11.1-7.5.3-.2.7-.5,1-.7,4.6-3.3,9.3-6.5,14-9.8,3.2-2.3,6.4-4.5,9.6-6.9,1.9-1.4,3.7-2.7,5.5-4.1,6.7,4.8,13.4,9.7,20.2,14.4,9.1,6.4,18.3,12.6,27.5,18.8,1.1.8,2.2,1.5,3.4,2.3h0l.6.3Z"/>
      </g>
    </g>
  </g>
</svg>