<?xml version="1.0" encoding="UTF-8"?>
<svg id="Layer_2" data-name="Layer 2" xmlns="http://www.w3.org/2000/svg" viewBox="0 0 157.18 22">
  <defs>
    <style>
      .cls-1 {
        fill: #f60;
      }
    </style>
  </defs>
  <g id="Layer_1-2" data-name="Layer 1">
    <g>
      <g>
        <path class="cls-1" d="M.46.47c.47,0,.87.17,1.23.5.33.37.5.77.5,1.23,0-.47.17-.87.5-1.23.33-.33.77-.5,1.23-.5v8.69h4.26c1.36-4.83-.07-.17,2.63-8.69.8-.1,1.5.73,1.33,1.73.23-1.13.97-1.83,2.3-1.73l-3.26,10.42,3.26,10.45c-1.33.1-2.06-.63-2.3-1.76.17,1.03-.53,1.83-1.33,1.76-2.73-8.59-1.23-3.83-2.63-8.79H3.92v8.79c-.47,0-.9-.17-1.23-.5-.33-.33-.5-.77-.5-1.23,0,.47-.17.9-.5,1.23-.37.33-.77.5-1.23.5V.47Z"/>
        <path d="M14.21,21.81c-.8,0-1.45-.28-1.9-.8-.06.09-.13.18-.2.26-.35.38-.84.58-1.34.54l-.31-.03-.67-2.11q-1.21-3.8-1.35-4.39c-.08-.31-.2-.81-.61-2.26h-3.45v8.79h-.46c-.6,0-1.15-.23-1.56-.63-.06-.06-.12-.13-.17-.2-.05.07-.11.13-.17.19-.47.43-.98.63-1.56.63h-.46V0h.46C1.04,0,1.55.21,2,.63c.07.07.13.15.19.22.05-.06.1-.13.16-.19C2.77.23,3.33,0,3.92,0h.46v8.69h3.45c.35-1.25.49-1.77.57-2.09q.14-.52.67-2.19c.27-.84.67-2.11,1.3-4.09l.09-.28.29-.04c.49-.06.97.12,1.33.49.08.09.16.18.22.28C12.81.22,13.56-.06,14.48.01l.58.04-3.39,10.84,3.39,10.87-.58.04c-.09,0-.18.01-.27.01ZM12.6,19.48c.16.78.57,1.24,1.21,1.37l-3.11-9.96L13.8.96c-.65.12-1.05.56-1.21,1.34l-.91-.17c.06-.37-.04-.74-.27-.98-.06-.06-.15-.14-.28-.19-.56,1.78-.93,2.95-1.19,3.74q-.52,1.65-.66,2.15c-.09.35-.25.94-.67,2.44l-.1.34H3.46V1.01c-.17.06-.31.16-.44.28-.24.27-.36.56-.36.9h-.92c0-.34-.12-.64-.38-.92-.13-.12-.27-.21-.43-.27v19.78c.16-.06.31-.16.46-.29.22-.22.35-.54.35-.89h.92c0,.35.13.67.36.9.13.13.28.22.44.28v-8.71h5.07l.1.34c.49,1.72.63,2.29.71,2.63q.14.56,1.34,4.33l.46,1.46c.11-.04.21-.11.29-.2.22-.24.32-.6.26-.99l.91-.17Z"/>
      </g>
      <g>
        <path class="cls-1" d="M22.93.47h.1c.47,0,.9.17,1.23.5.3.33.5.7.53,1.1.07-.9.77-1.6,1.73-1.6h.1l6.59,20.87c-1.3.1-2.03-.57-2.3-1.63.07.93-1.33,1.63-1.33,1.63l-1.33-4.46h-6.89c-.43,1.4-.9,2.86-1.4,4.46-.8.1-1.46-.67-1.36-1.63-.23,1.06-.97,1.73-2.26,1.63L22.93.47ZM22.29,13.85h5.03l-2.53-8.45s-.83,3-2.5,8.45Z"/>
        <path d="M29.3,22l-1.39-4.66h-6.2c-.22.72-.46,1.46-.7,2.23l-.69,2.19-.3.04c-.48.06-.96-.11-1.32-.45-.09-.09-.18-.19-.25-.3-.49.56-1.23.83-2.16.76l-.58-.04L22.59,0h.44c.6,0,1.15.23,1.56.63.06.07.12.14.18.21.4-.52,1.03-.85,1.76-.85h.44l6.87,21.75-.58.04c-1,.08-1.8-.26-2.31-.94-.43.52-1.04.84-1.15.89l-.49.25ZM18.15,19.61l.91.15c-.04.36.07.71.29.93.07.06.16.13.28.17l.49-1.56c.28-.88.54-1.73.8-2.55l.1-.33h7.57l1.25,4.2c.32-.25.62-.58.6-.88l.91-.15c.18.73.58,1.14,1.21,1.26L26.29.95c-.58.09-.99.54-1.04,1.15h-.92c-.02-.26-.16-.54-.42-.82-.17-.17-.4-.28-.65-.33l-6.28,19.9c.62-.12,1.02-.53,1.17-1.24ZM27.94,14.31h-6.27l.18-.6c1.64-5.39,2.48-8.41,2.49-8.44l.43-1.54,3.17,10.58ZM22.92,13.39h3.78l-1.9-6.34c-.38,1.32-1.01,3.47-1.88,6.34Z"/>
      </g>
      <g>
        <path class="cls-1" d="M41.13,3.93h-6.49c0-.47.13-.87.47-1.2.37-.37.77-.53,1.26-.53-.5,0-.9-.13-1.26-.5-.33-.33-.47-.77-.47-1.23h16.44c0,.47-.17.9-.5,1.23-.33.33-.77.5-1.23.5.47,0,.9.17,1.23.53.33.33.5.73.5,1.2h-6.49v17.41c-.47,0-.9-.17-1.23-.5-.33-.33-.5-.77-.5-1.23,0,.47-.17.9-.5,1.23-.37.33-.77.5-1.23.5V3.93Z"/>
        <path d="M45.05,21.8h-.46c-.6,0-1.15-.23-1.56-.63-.06-.06-.12-.13-.17-.19-.05.07-.11.13-.17.19-.48.43-.98.63-1.56.63h-.46V4.4h-6.49v-.46c0-.62.2-1.12.6-1.53.07-.07.14-.13.21-.19-.07-.06-.14-.12-.21-.19-.39-.39-.6-.93-.6-1.56V0h17.37v.46c0,.6-.23,1.15-.63,1.56-.07.07-.13.13-.21.18.08.06.15.14.22.21.41.4.62.92.62,1.51v.46h-6.49v17.41ZM43.32,19.61c0,.35.13.67.36.9.13.13.28.22.44.28V3.47h6.4c-.06-.15-.15-.28-.28-.41-.25-.27-.54-.4-.9-.4v-.92c.35,0,.67-.13.9-.36.13-.13.22-.28.28-.44h-15.37c.05.17.14.32.27.44.26.26.53.36.94.36v.92c-.38,0-.66.12-.94.4-.12.12-.21.25-.26.41h6.42v17.32c.16-.06.31-.16.46-.29.22-.22.35-.54.35-.89h.92Z"/>
      </g>
      <g>
        <path class="cls-1" d="M74.28,10.89c0,5.76-4.69,10.45-10.45,10.45s-10.42-4.69-10.42-10.45S58.07.47,63.83.47s10.45,4.66,10.45,10.42ZM57.01,10.89c0,3.79,3.06,6.86,6.82,6.86s6.82-3.06,6.82-6.86-3.03-6.82-6.82-6.82-6.82,3.06-6.82,6.82Z"/>
        <path d="M63.83,21.8c-6,0-10.88-4.9-10.88-10.91S57.83,0,63.83,0s10.91,4.88,10.91,10.88-4.9,10.91-10.91,10.91ZM63.83.93c-5.49,0-9.96,4.47-9.96,9.96s4.47,9.99,9.96,9.99,9.99-4.48,9.99-9.99S69.34.93,63.83.93ZM63.83,18.21c-4.02,0-7.29-3.28-7.29-7.32s3.27-7.29,7.29-7.29,7.29,3.27,7.29,7.29-3.27,7.32-7.29,7.32ZM63.83,4.53c-3.51,0-6.36,2.85-6.36,6.36s2.85,6.39,6.36,6.39,6.36-2.87,6.36-6.39-2.85-6.36-6.36-6.36Z"/>
      </g>
      <g>
        <path class="cls-1" d="M89.82,8.16c0-1.13.77-1.73,1.83-1.73.37,1.16.63,2.8,2.7,9.98,3.83-13.31,1.5-5.49,4.79-15.94.8-.1,1.53.73,1.33,1.73.27-1.13,1-1.83,2.33-1.73l-6.62,20.87h-.1c-.97,0-1.73-.77-1.73-1.73,0,.47-.17.87-.53,1.23-.33.33-.73.5-1.2.5h-.1l-2.7-9.79-2.7,9.79h-.1c-1,0-1.73-.77-1.73-1.73,0,.47-.2.87-.53,1.23-.33.33-.77.5-1.23.5h-.1L76.84.47c1.33-.1,2.06.6,2.3,1.73-.17-1,.53-1.83,1.33-1.73,3.23,10.15,1.07,2.86,4.83,15.94,2.1-7.42,2.33-8.85,2.66-9.98,1.03,0,1.86.63,1.86,1.73Z"/>
        <path d="M96.52,21.8h-.44c-.72,0-1.35-.33-1.74-.85-.06.07-.12.14-.19.21-.42.42-.93.63-1.53.63h-.45l-2.34-8.51-2.34,8.51h-.45c-.72,0-1.35-.33-1.75-.86-.05.07-.11.14-.17.2-.42.42-.98.65-1.57.65h-.44L76.22.05l.58-.04c.92-.07,1.67.21,2.17.78.06-.1.14-.19.22-.28.36-.37.85-.56,1.33-.49l.29.04.09.28c.97,3.04,1.45,4.52,1.75,5.44q.52,1.57,1.48,4.93c.29,1,.66,2.29,1.15,4.02,1.12-4.02,1.59-5.92,1.88-7.1.14-.59.24-.97.34-1.33l.1-.33h.35c.79,0,1.44.3,1.85.79.4-.5,1.04-.79,1.85-.79h.34l.1.32c.13.42.25.89.43,1.62.3,1.22.79,3.16,1.83,6.83.66-2.31,1.1-3.85,1.41-4.93q.72-2.54,1.19-3.99c.3-.91.78-2.41,1.75-5.48l.09-.28.29-.04c.5-.06,1,.13,1.37.52.07.08.14.16.2.25.51-.58,1.25-.85,2.18-.78l.58.04-6.9,21.75ZM77.48.96l6.28,19.9c.26-.04.49-.16.67-.34.27-.29.4-.59.4-.9h.92c0,.64.42,1.14,1.02,1.25l3.04-11.04,3.04,11.04c.24-.04.44-.16.63-.34.27-.27.4-.55.4-.9h.92c0,.63.44,1.14,1.04,1.25L102.16.96c-.65.12-1.06.57-1.24,1.35l-.9-.2c.07-.35-.02-.71-.24-.95-.09-.1-.2-.17-.31-.21-.9,2.84-1.35,4.26-1.64,5.14q-.47,1.44-1.18,3.96c-.37,1.31-.94,3.28-1.86,6.48l-.44,1.55-.44-1.55c-1.35-4.71-1.93-7.02-2.28-8.41-.13-.52-.22-.9-.31-1.21-.48.08-1.03.36-1.03,1.24h-.92c0-.77-.52-1.13-1.06-1.24-.07.25-.14.55-.23.92-.31,1.24-.88,3.56-2.33,8.69l-.44,1.56-.45-1.56c-.73-2.53-1.24-4.3-1.6-5.58q-.95-3.34-1.47-4.9c-.29-.89-.75-2.29-1.64-5.1-.13.05-.22.13-.28.19-.23.24-.33.6-.27.98l-.91.17c-.16-.78-.56-1.22-1.21-1.34Z"/>
      </g>
      <g>
        <path class="cls-1" d="M106.66,10.82c.37-.37.77-.53,1.23-.53-.47,0-.87-.17-1.23-.5-.33-.33-.5-.73-.5-1.23h12.15c0,.5-.17.9-.47,1.23-.37.33-.77.5-1.26.5.5,0,.9.17,1.26.53.3.33.47.73.47,1.2h-12.15c0-.47.17-.87.5-1.2Z"/>
        <path d="M118.77,12.48h-13.07v-.46c0-.59.21-1.1.63-1.52h0c.07-.07.14-.14.22-.2-.07-.05-.14-.11-.2-.17-.44-.44-.65-.96-.65-1.57v-.46h13.07v.46c0,.59-.2,1.11-.58,1.54l-.03.03c-.07.06-.13.12-.2.17.07.06.15.12.22.2.4.45.6.96.6,1.52v.46ZM106.71,11.56h11.06c-.06-.15-.15-.29-.27-.43-.26-.26-.54-.38-.92-.38v-.92c.36,0,.65-.11.94-.36.12-.14.21-.28.26-.44h-11.08c.06.16.15.31.29.44.27.24.56.36.9.36v.92c-.35,0-.63.12-.9.4h0c-.13.13-.22.26-.28.41Z"/>
      </g>
      <g>
        <path class="cls-1" d="M122.7,19.24c-.77-.47-1.1-1.43-.6-2.2,1.66.9,5.59,2.66,5.59-2.7V.47c.5,0,.9.17,1.23.5.33.37.5.77.5,1.23,0-.97.77-1.73,1.76-1.73v14.51c0,3.83-1.83,6.36-5.76,6.36-2.23.03-3.33-.33-5.13-1.5.53-.83,1.46-1.2,2.4-.6Z"/>
        <path d="M125.15,21.8c-2.06,0-3.25-.37-5.1-1.57l-.39-.25.25-.39c.36-.56.87-.94,1.44-1.06.06-.01.11-.02.17-.03-.03-.08-.05-.16-.07-.24-.12-.51-.02-1.03.26-1.47l.23-.36.37.2c2.2,1.19,3.32,1.05,3.86.73.69-.41,1.05-1.43,1.05-3.01V0h.46c.61,0,1.14.21,1.56.63.06.07.12.14.17.21.4-.51,1.04-.84,1.76-.84h.46v14.97c0,4.33-2.27,6.82-6.22,6.82-.09,0-.19,0-.28,0ZM120.99,19.73c1.53.93,2.53,1.18,4.43,1.15,4.38,0,5.3-3.21,5.3-5.89V1.01c-.5.18-.84.64-.84,1.19h-.92c0-.34-.12-.64-.38-.92-.13-.12-.27-.22-.43-.27v13.34c0,1.93-.5,3.22-1.5,3.81-1.01.6-2.46.45-4.32-.47-.02.14,0,.27.01.37.07.31.27.58.55.77.02,0,.03.02.05.03l-.49.78s-.03-.02-.05-.03c-.29-.18-.58-.24-.86-.18-.2.04-.39.15-.55.3Z"/>
      </g>
      <g>
        <path class="cls-1" d="M156.71,10.89c0,5.76-4.69,10.45-10.45,10.45s-10.42-4.69-10.42-10.45S140.51.47,146.26.47s10.45,4.66,10.45,10.42ZM139.44,10.89c0,3.79,3.06,6.86,6.82,6.86s6.82-3.06,6.82-6.86-3.03-6.82-6.82-6.82-6.82,3.06-6.82,6.82Z"/>
        <path d="M146.26,21.8c-6,0-10.88-4.9-10.88-10.91S140.26,0,146.26,0s10.91,4.88,10.91,10.88-4.9,10.91-10.91,10.91ZM146.26.93c-5.49,0-9.96,4.47-9.96,9.96s4.47,9.99,9.96,9.99,9.99-4.48,9.99-9.99-4.48-9.96-9.99-9.96ZM146.26,18.21c-4.02,0-7.29-3.28-7.29-7.32s3.27-7.29,7.29-7.29,7.29,3.27,7.29,7.29-3.27,7.32-7.29,7.32ZM146.26,4.53c-3.51,0-6.36,2.85-6.36,6.36s2.85,6.39,6.36,6.39,6.36-2.87,6.36-6.39-2.85-6.36-6.36-6.36Z"/>
      </g>
    </g>
  </g>
</svg>