<?xml version="1.0" encoding="UTF-8"?>
<svg id="Layer_2" data-name="Layer 2" xmlns="http://www.w3.org/2000/svg" viewBox="0 0 157.96 22.35">
  <defs>
    <style>
      .cls-1 {
        fill: none;
        stroke: #363b3f;
        stroke-miterlimit: 15.1;
        stroke-width: .7px;
      }

      .cls-2 {
        fill: #a39382;
      }

      .cls-3 {
        isolation: isolate;
      }

      .cls-4 {
        fill: #363b3f;
      }

      .cls-5 {
        fill: #d0d0d0;
      }

      .cls-6 {
        fill: #373a36;
      }
    </style>
  </defs>
  <g id="Layer_1-2" data-name="Layer 1">
    <g>
      <g id="text4890" class="cls-3">
        <g class="cls-3">
          <g class="cls-3">
            <path class="cls-6" d="M68.74,17.33c-1.32,0-2.63-.33-3.95-.99-1.65,1.69-3.7,2.54-6.13,2.54-1.53,0-2.75-.4-3.66-1.2-.91-.8-1.36-1.88-1.36-3.26,0-1.1.34-2.05,1.03-2.85.69-.81,1.45-1.44,2.3-1.91.85-.47,1.79-.92,2.82-1.36.06-1.18.36-2.39.9-3.63.54-1.24,1.22-2.28,2.05-3.09.83-.82,1.69-1.23,2.59-1.23.58,0,1.04.16,1.37.48.34.32.51.77.51,1.34,0,1.14-.6,2.31-1.81,3.53-1.21,1.22-2.61,2.26-4.2,3.14.02,1.2.35,2.31,1,3.33.65,1.03,1.48,1.86,2.5,2.5.38-.42.73-.92,1.05-1.49.28-.54.54-1.1.78-1.69.24-.59.39-1.01.45-1.27.02-.12.05-.27.09-.46.04-.19.08-.33.13-.43.05-.1.11-.15.19-.15.12,0,.23.09.33.28.1.19.15.36.15.52,0,.44-.15,1.1-.45,1.99-.3.89-.63,1.65-.99,2.29-.26.46-.48.82-.66,1.08,1.08.44,2.09.66,3.05.66,1.08,0,1.89-.42,2.44-1.27.55-.85.96-1.86,1.24-3.03.06-.2.11-.36.16-.49.05-.13.1-.19.16-.19.08,0,.16.04.24.1.08.07.12.14.12.22,0,.6-.12,1.37-.37,2.3-.25.94-.71,1.79-1.37,2.56-.67.77-1.57,1.15-2.7,1.15ZM59.83,9.58c-.06.02-.47.18-1.23.49-.76.31-1.47.86-2.15,1.64-.68.79-1.02,1.67-1.02,2.65,0,.92.28,1.64.85,2.18.57.54,1.44.81,2.61.81,1,0,1.87-.15,2.62-.46.75-.31,1.45-.72,2.11-1.24-1.02-.72-1.87-1.6-2.57-2.66-.7-1.06-1.11-2.19-1.23-3.41ZM65.33,1.46c-.66,0-1.31.37-1.96,1.12-.65.75-1.18,1.62-1.6,2.63-.42,1.01-.63,1.83-.63,2.47,1.12-.64,2.22-1.5,3.3-2.59,1.09-1.09,1.63-2.04,1.63-2.85,0-.22-.06-.4-.18-.55-.12-.15-.31-.22-.57-.22Z"/>
          </g>
        </g>
        <g class="cls-3">
          <g class="cls-3">
            <path class="cls-1" d="M68.74,17.33c-1.32,0-2.63-.33-3.95-.99-1.65,1.69-3.7,2.54-6.13,2.54-1.53,0-2.75-.4-3.66-1.2-.91-.8-1.36-1.88-1.36-3.26,0-1.1.34-2.05,1.03-2.85.69-.81,1.45-1.44,2.3-1.91.85-.47,1.79-.92,2.82-1.36.06-1.18.36-2.39.9-3.63.54-1.24,1.22-2.28,2.05-3.09.83-.82,1.69-1.23,2.59-1.23.58,0,1.04.16,1.37.48.34.32.51.77.51,1.34,0,1.14-.6,2.31-1.81,3.53-1.21,1.22-2.61,2.26-4.2,3.14.02,1.2.35,2.31,1,3.33.65,1.03,1.48,1.86,2.5,2.5.38-.42.73-.92,1.05-1.49.28-.54.54-1.1.78-1.69.24-.59.39-1.01.45-1.27.02-.12.05-.27.09-.46.04-.19.08-.33.13-.43.05-.1.11-.15.19-.15.12,0,.23.09.33.28.1.19.15.36.15.52,0,.44-.15,1.1-.45,1.99-.3.89-.63,1.65-.99,2.29-.26.46-.48.82-.66,1.08,1.08.44,2.09.66,3.05.66,1.08,0,1.89-.42,2.44-1.27.55-.85.96-1.86,1.24-3.03.06-.2.11-.36.16-.49.05-.13.1-.19.16-.19.08,0,.16.04.24.1.08.07.12.14.12.22,0,.6-.12,1.37-.37,2.3-.25.94-.71,1.79-1.37,2.56-.67.77-1.57,1.15-2.7,1.15ZM59.83,9.58c-.06.02-.47.18-1.23.49-.76.31-1.47.86-2.15,1.64-.68.79-1.02,1.67-1.02,2.65,0,.92.28,1.64.85,2.18.57.54,1.44.81,2.61.81,1,0,1.87-.15,2.62-.46.75-.31,1.45-.72,2.11-1.24-1.02-.72-1.87-1.6-2.57-2.66-.7-1.06-1.11-2.19-1.23-3.41ZM65.33,1.46c-.66,0-1.31.37-1.96,1.12-.65.75-1.18,1.62-1.6,2.63-.42,1.01-.63,1.83-.63,2.47,1.12-.64,2.22-1.5,3.3-2.59,1.09-1.09,1.63-2.04,1.63-2.85,0-.22-.06-.4-.18-.55-.12-.15-.31-.22-.57-.22Z"/>
          </g>
        </g>
      </g>
      <g id="text4894" class="cls-3">
        <g class="cls-3">
          <g class="cls-3">
            <path class="cls-5" d="M11.57,16.71V6.41l-2.59,2.83-2.57-2.83v9.76h-3.77V3.6L.31.92v-.26h6.1l2.57,2.92,2.59-2.92h.39l3.38,3.64v15.77l-3.77-3.35Z"/>
            <path class="cls-5" d="M25.35,16.16h-5.92l-2.37-2.98V.66h8.3v3.88h-4.53v1.59h4.53v3.31h-4.53v2.85h4.53v3.88Z"/>
            <path class="cls-5" d="M36.65,22.04h-.28l-6.49-5.03V4.53h-3.68V.66h11.54v3.88h-4.09v10.26l3,2.31v4.94ZM40.24,6.08l4.25-5.42h4.57v15.5h-4.03l-4.36-4.18-3.31,4.25-3.2-2.33,3.64-4.66-1.68-1.61,2.48-3.11,1.63,1.57ZM42.96,8.82l2.33,2.22v-5.14l-2.33,2.92Z"/>
            <path class="cls-5" d="M57.58,22.04h-.28l-6.49-5.03V.66h3.77v14.13l3,2.31v4.94Z"/>
          </g>
          <g class="cls-3">
            <path class="cls-4" d="M15.64,20.75l-4.38-3.9V7.2l-2.28,2.49-2.26-2.49v9.27H2.33V3.71L0,1.03V.35h6.54l2.43,2.76L11.43.35h.67l3.55,3.82v16.57ZM11.87,16.57l3.15,2.8V4.42l-3.2-3.45h-.12l-2.73,3.07L6.27.97H.76l2.19,2.52v12.37h3.15V5.61l2.88,3.17,2.9-3.17v10.95Z"/>
            <path class="cls-4" d="M25.66,16.47h-6.38l-2.53-3.18V.35h8.91v4.49h-4.53v.97h4.53v3.93h-4.53v2.24h4.53v4.49ZM19.58,15.85h5.47v-3.26h-4.53v-3.47h4.53v-2.69h-4.53v-2.21h4.53V.97h-7.68v12.1l2.21,2.78Z"/>
            <path class="cls-4" d="M36.96,22.35h-.7l-6.69-5.19V4.84h-3.68V.35h12.16v4.37l.53-.67,1.63,1.57L44.34.35h5.03v16.12h-4.46l-4.2-4.03-3.28,4.21-3.48-2.53v.52l3,2.31v5.4ZM30.19,16.86l6.16,4.77v-4.38l-3-2.31V4.23h4.09V.97h-10.92v3.26h3.68v12.63ZM45.16,15.85h3.6V.97h-4.11l-4.36,5.57-1.64-1.57-2.1,2.63,1.67,1.61-3.61,4.63,2.7,1.97,3.34-4.28,4.51,4.33ZM33.95,4.84v8.83l3.44-4.4-1.68-1.61,2.24-2.81h-4ZM45.6,11.77l-3.06-2.91,3.06-3.83v6.74ZM43.38,8.8l1.6,1.53v-3.54l-1.6,2.01Z"/>
            <path class="cls-4" d="M57.88,22.35h-.7l-6.69-5.19V.35h4.38v14.29l3,2.31v5.4ZM51.11,16.86l6.16,4.77v-4.38l-3-2.31V.97h-3.15v15.89Z"/>
          </g>
        </g>
      </g>
      <g id="text4900" class="cls-3">
        <g class="cls-3">
          <g class="cls-3">
            <path class="cls-2" d="M83.62,12.14c0,1.3-.44,2.44-1.33,3.43-.92,1.02-2.01,1.52-3.29,1.52-.7,0-1.73-.02-3.12-.05-1.38-.03-2.42-.05-3.11-.05-.4,0-.99.02-1.79.05-.79.03-1.39.05-1.78.05-.25,0-.38-.11-.38-.33,0-.83.05-2.08.14-3.75.09-1.67.14-2.92.14-3.75s-.04-2.53-.13-4.99c-.02-.63-.07-1.58-.13-2.83v-.16c-.03-.18.07-.26.28-.26h7.85c1.93,0,3.44.37,4.55,1.12.53.36.95.88,1.26,1.56.3.64.45,1.3.45,1.97,0,.53-.22,1.16-.67,1.88-.45.72-.67,1.04-.67.95,0,.06.1.16.29.31.95.72,1.43,1.83,1.43,3.33ZM77,5.83c0-.6-.6-.89-1.79-.89-.27,0-.43.06-.48.18-.02.05-.03.25-.03.6s.02.54.05.62c.07.13.25.19.54.19,1.15,0,1.72-.23,1.72-.7ZM77.39,11.69c0-.63-.7-.94-2.09-.94-.32,0-.51.06-.57.17-.02.05-.03.26-.03.65s.02.61.06.68c.08.12.28.18.62.18.63,0,1.04-.02,1.23-.05.53-.1.79-.33.79-.7Z"/>
            <path class="cls-2" d="M100.15,16.97c0,.08-.1.13-.31.13-.34,0-.83-.02-1.5-.05-.66-.03-1.16-.05-1.48-.05s-.8.02-1.43.05c-.63.03-1.1.05-1.42.05-.26,0-.43-.1-.52-.29-.14-.34-.34-.86-.6-1.56-.25-.63-.61-1.58-1.08-2.85-.11-.33-.21-.49-.3-.49-.07,0-.1.13-.1.38,0,.52.05,1.3.15,2.34.1,1.04.15,1.8.15,2.29,0,.18-.08.26-.23.26-.05,0-.15-.01-.29-.03-.66-.09-1.65-.14-2.98-.14-.29,0-.73.02-1.31.05s-1.02.05-1.31.05c-.25,0-.38-.11-.38-.33,0-.86.05-2.14.14-3.86.09-1.72.14-3,.14-3.86,0-2.19-.11-4.72-.32-7.61v-.16c-.03-.15.05-.24.21-.26-.02,0,.13,0,.44,0,.83,0,2.09-.01,3.77-.03s2.94-.03,3.78-.03c1.79,0,3.26.38,4.42,1.13,1.35.89,2.03,2.19,2.03,3.89,0,1.1-.16,1.99-.49,2.66-.32.67-.92,1.31-1.77,1.93-.18.13-.27.26-.27.38,0,.09.47,1.1,1.42,3.03.95,1.93,1.42,2.93,1.42,3.01ZM93.67,6.79c0-.86-.63-1.3-1.9-1.3-.31,0-.47.48-.47,1.43,0,.11,0,.29.02.52.02.23.02.4.02.52s.16.17.47.17c1.24,0,1.86-.45,1.86-1.34Z"/>
            <path class="cls-2" d="M117.39,16.93c0,.11-.15.16-.46.16-.33,0-.83-.02-1.49-.05-.66-.03-1.16-.05-1.49-.05s-.82.02-1.47.05c-.65.03-1.14.05-1.47.05-.2,0-.31-.11-.34-.34,0,0,0-.18,0-.56,0-.31-.15-.46-.44-.46-1.78,0-2.82.05-3.13.14-.31.1-.49.33-.56.72-.06.34-.18.5-.37.5-.31,0-.78-.02-1.41-.05-.63-.03-1.1-.05-1.41-.05s-.77.02-1.39.05c-.62.03-1.09.05-1.39.05-.22,0-.33-.1-.33-.29,0-.23,1.81-5.44,5.42-15.63.07-.19.13-.31.18-.35.05-.04.17-.06.36-.06.27,0,.66.03,1.19.1.52.07.92.1,1.19.1,1.08,0,1.83-.05,2.26-.16.09-.03.16-.05.19-.05.13,0,.28.13.46.39.08.11.39.8.94,2.05.44.96,1.05,2.42,1.86,4.37.38,1.02.9,2.56,1.54,4.62.65,2.06,1.16,3.59,1.53,4.6.02.07.03.12.03.15ZM109.75,9.54c0-.6-.34-1.11-1.01-1.51-.67.49-1.01.99-1.01,1.51,0,.27.1.5.3.7.2.2.44.3.7.3s.51-.1.71-.3c.2-.2.3-.44.3-.7Z"/>
            <path class="cls-2" d="M139.91,6.88s-.36.78-1.07,2.27c-.76,1.6-1.15,2.45-1.18,2.52-.73,1.61-1.51,3.31-2.35,5.09l-.13.26s-.11.06-.25.07c-.27.02-.63.01-1.09-.01-.57-.02-.94-.03-1.1-.03-.24,0-.6,0-1.08.03s-.84.03-1.08.03c-.14,0-.26-.11-.36-.34-.3-.74-.76-1.85-1.38-3.32l-1.39,3.32c-.1.23-.22.34-.36.34-.24,0-.6,0-1.08-.03s-.84-.03-1.08-.03-.61,0-1.09.02c-.49.02-.85.02-1.09.02-.15,0-.27-.11-.38-.33-2.91-6.15-4.37-9.44-4.37-9.88,0-.6.02-1.51.06-2.72.04-1.21.06-2.12.06-2.72,0-.28.09-.42.26-.42.32,0,.8.02,1.45.05.65.03,1.13.05,1.45.05.29,0,.72-.02,1.3-.05.58-.03,1.01-.05,1.29-.05.12,0,.18.08.18.24,0,.63-.02,1.59-.07,2.86-.05,1.28-.07,2.23-.07,2.87,0,.22.16.71.48,1.46.34.79.58,1.18.72,1.18.05,0,.1-.09.17-.26.1-.24.23-.68.39-1.34.18-.69.26-1.14.26-1.35V1.37c0-.24.06-.37.17-.37.32,0,.8.02,1.44.05s1.12.05,1.44.05c.29,0,.73-.02,1.31-.05.58-.03,1.02-.05,1.31-.05.19,0,.29.09.29.27,0,.57-.02,1.44-.06,2.6-.04,1.16-.06,2.02-.06,2.6,0,.24.1.73.31,1.46.2.68.37,1.16.5,1.43.07.16.13.24.17.24.14,0,.35-.39.63-1.18.27-.74.4-1.23.4-1.46,0-.63-.02-1.59-.07-2.87-.05-1.28-.07-2.23-.07-2.86,0-.16.06-.24.18-.24.31,0,.76.02,1.38.05.61.03,1.07.05,1.38.05.33,0,.82-.02,1.46-.05.65-.03,1.13-.05,1.45-.05.18,0,.26.14.26.42,0,.6.02,1.51.06,2.72.04,1.21.06,2.12.06,2.72Z"/>
            <path class="cls-2" d="M157.65,1.32c0,.87-.04,2.18-.13,3.94-.08,1.75-.13,3.07-.13,3.95l-.02,7.62c0,.18-.13.26-.4.26-.25,0-.63-.02-1.13-.05-.5-.03-.88-.05-1.13-.05s-.65.02-1.18.05c-.53.03-.92.05-1.19.05-.13,0-.29-.13-.47-.38-2.77-3.84-4.27-5.75-4.5-5.75-.11,0-.16.11-.16.33,0,.6.02,1.49.07,2.69.05,1.2.07,2.09.07,2.69,0,.28-.12.42-.36.42-.28,0-.69-.02-1.24-.05-.55-.03-.97-.05-1.24-.05-.3,0-.75.02-1.35.05-.6.03-1.05.05-1.35.05-.25,0-.38-.11-.38-.33,0-.83.04-2.08.11-3.75.08-1.67.11-2.92.11-3.75s-.04-2.18-.11-3.91c-.07-1.74-.11-3.04-.11-3.9,0-.17.16-.25.47-.25.34,0,1.09-.07,2.23-.19.15-.02.56-.08,1.23-.19.5-.09.91-.14,1.21-.14.11,0,.26.16.47.49.13.21.74,1.08,1.85,2.62.59.86,1.52,2.12,2.78,3.76.08-.05.11-.3.11-.74,0-.59-.05-1.48-.15-2.66-.1-1.19-.15-2.08-.15-2.66,0-.3.08-.45.23-.45.31,0,.76.01,1.38.03.61.02,1.07.03,1.38.03.33,0,.82-.01,1.48-.03.66-.02,1.15-.03,1.48-.03.14,0,.21.1.21.31Z"/>
          </g>
          <g class="cls-3">
            <path class="cls-4" d="M79,17.4c-.69,0-1.74-.02-3.12-.05-1.38-.03-2.42-.05-3.1-.05-.39,0-.99.02-1.78.05-.81.03-1.39.05-1.79.05-.42,0-.69-.25-.69-.64,0-.83.05-2.1.14-3.77.09-1.66.14-2.91.14-3.74s-.04-2.53-.13-4.97c-.02-.63-.06-1.57-.13-2.83v-.15c-.03-.21.05-.34.12-.42.11-.12.26-.18.46-.18h7.85c1.98,0,3.57.4,4.72,1.18.57.39,1.03.96,1.37,1.69.32.68.48,1.39.48,2.1,0,.6-.23,1.27-.72,2.04-.23.38-.4.63-.52.81.02.01.04.03.06.05,1.03.78,1.55,1.98,1.55,3.58,0,1.37-.47,2.59-1.41,3.63-.97,1.08-2.16,1.63-3.52,1.63ZM72.78,16.69c.68,0,1.73.02,3.11.05,1.38.03,2.43.05,3.11.05,1.2,0,2.2-.47,3.06-1.42.83-.92,1.25-2.01,1.25-3.22,0-1.42-.43-2.43-1.31-3.09-.13-.1-.24-.19-.31-.28l-.1-.03v-.23s0-.01,0-.02h.31l.12-.27c-.13-.05-.25,0-.3.05.02-.02.14-.16.59-.89.41-.67.62-1.24.62-1.72,0-.62-.14-1.24-.42-1.84-.29-.63-.68-1.11-1.15-1.43-1.05-.71-2.52-1.07-4.38-1.07h-7.82v.09c.07,1.26.11,2.21.13,2.84.08,2.45.13,4.13.13,5s-.05,2.1-.14,3.77c-.09,1.66-.14,2.92-.14,3.74,0,0,0,.01,0,.02.01,0,.04,0,.07,0,.38,0,.97-.02,1.76-.05.81-.03,1.4-.05,1.8-.05ZM75.38,12.75c-.29,0-.7-.03-.88-.33-.07-.12-.1-.29-.1-.84,0-.61.03-.71.07-.79.16-.31.56-.34.85-.34,1.59,0,2.39.42,2.39,1.25,0,.3-.14.83-1.04,1-.22.03-.64.05-1.28.05ZM75.03,12.09s.13.04.35.04c.76,0,1.06-.02,1.18-.04.53-.1.53-.31.53-.39,0-.52-.97-.63-1.78-.63-.16,0-.24.02-.29.03,0,.07-.01.22-.01.49,0,.31.01.45.02.51ZM75.28,6.83c-.41,0-.69-.12-.81-.36v-.03c-.05-.09-.08-.24-.08-.73,0-.53.03-.64.06-.72.11-.25.36-.37.77-.37,1.39,0,2.1.4,2.1,1.2,0,1.01-1.53,1.01-2.03,1.01ZM75.03,6.19s.1.03.26.03c.87,0,1.41-.15,1.41-.39,0-.39-.5-.59-1.48-.59-.1,0-.16.01-.19.02,0,.06-.01.19-.01.45,0,.29.01.42.02.48Z"/>
            <path class="cls-4" d="M91.51,17.48c-.07,0-.18-.01-.34-.04-.63-.09-1.62-.13-2.93-.13-.28,0-.72.02-1.3.05-.6.03-1.03.05-1.33.05-.42,0-.69-.25-.69-.64,0-.86.05-2.16.14-3.87.09-1.7.14-2.99.14-3.84,0-2.17-.11-4.72-.32-7.59v-.16c-.04-.31.15-.54.47-.59l.04.3v-.3h.44c.83,0,2.09-.01,3.77-.03,1.67-.02,2.95-.03,3.79-.03,1.84,0,3.39.4,4.59,1.18,1.44.95,2.17,2.35,2.17,4.14,0,1.14-.17,2.08-.52,2.79-.35.72-.97,1.4-1.87,2.04-.08.06-.12.1-.13.12.07.18.36.82,1.38,2.9,1.45,2.95,1.45,3.04,1.45,3.15,0,.13-.06.43-.62.43-.34,0-.84-.02-1.51-.05-.66-.03-1.15-.05-1.47-.05s-.79.02-1.41.05c-.64.03-1.11.05-1.43.05-.51,0-.72-.29-.8-.47-.14-.36-.34-.88-.6-1.58-.21-.52-.49-1.27-.85-2.23.03.41.07.9.12,1.47.11,1.06.16,1.82.16,2.32,0,.35-.21.57-.54.57ZM88.25,16.69c1.34,0,2.35.05,3.02.14.07.01.13.02.16.02,0-.5-.05-1.24-.15-2.21-.1-1.04-.16-1.84-.16-2.37,0-.17,0-.69.41-.69.32,0,.47.34.59.71.46,1.25.82,2.21,1.07,2.83.26.7.46,1.22.6,1.56.01.03.04.09.23.09.3,0,.78-.02,1.4-.05.64-.03,1.12-.05,1.44-.05s.82.02,1.5.05c.6.03,1.06.04,1.39.05-.15-.33-.5-1.07-1.3-2.7-1.45-2.95-1.45-3.05-1.45-3.16,0-.23.14-.44.4-.63.81-.58,1.37-1.19,1.67-1.81.3-.63.46-1.48.46-2.52,0-1.6-.62-2.79-1.89-3.63-1.1-.72-2.53-1.08-4.25-1.08-.84,0-2.11.01-3.78.03-1.67.02-2.94.03-3.77.03h-.34v.09c.22,2.88.33,5.45.33,7.63,0,.86-.05,2.16-.14,3.87-.09,1.7-.14,3-.14,3.84,0,0,0,.01,0,.02.01,0,.04,0,.07,0,.28,0,.72-.02,1.3-.05.6-.03,1.03-.05,1.33-.05ZM91.81,8.44c-.64,0-.78-.26-.78-.48,0-.11,0-.28-.02-.5-.02-.24-.02-.42-.02-.54,0-.48,0-1.74.78-1.74,1.83,0,2.21.87,2.21,1.6s-.38,1.65-2.16,1.65ZM91.65,7.81s.09,0,.16,0c1.37,0,1.55-.55,1.55-1.03,0-.27,0-.99-1.59-.99,0,0-.16.17-.16,1.12,0,.11,0,.27.02.5.01.16.02.29.02.39Z"/>
            <path class="cls-4" d="M116.93,17.4c-.33,0-.83-.02-1.5-.05-.66-.03-1.16-.05-1.48-.05s-.81.02-1.45.05c-.66.03-1.15.05-1.48.05-.36,0-.6-.23-.65-.61v-.04s0-.56,0-.56c0-.15-.02-.15-.13-.15-2.28,0-2.88.08-3.04.13-.13.04-.29.13-.35.48-.12.66-.47.76-.67.76-.32,0-.79-.02-1.42-.05-.62-.03-1.09-.05-1.39-.05s-.76.02-1.38.05c-.64.03-1.1.05-1.41.05-.39,0-.64-.23-.64-.59,0-.14,0-.4,5.44-15.73.1-.26.18-.41.28-.49.24-.19.72-.16,1.77-.02.51.07.89.1,1.15.1,1.05,0,1.78-.05,2.18-.15.11-.04.2-.05.27-.05.32,0,.56.3.71.52.04.06.13.2.97,2.1.44.96,1.06,2.43,1.86,4.37.38,1.02.91,2.58,1.55,4.64.64,2.05,1.15,3.59,1.52,4.58.04.11.05.19.05.26,0,.21-.13.47-.77.47ZM110.98,16.73s.02.06.02.06c.34,0,.82-.02,1.47-.05.66-.03,1.15-.05,1.48-.05s.83.02,1.5.05c.66.03,1.16.05,1.48.05.04,0,.07,0,.09,0-.37-.99-.87-2.51-1.49-4.5-.64-2.05-1.16-3.6-1.54-4.6-.79-1.92-1.42-3.39-1.85-4.35-.73-1.66-.88-1.96-.92-2.01-.11-.17-.19-.23-.21-.25-.02,0-.05.01-.08.03-.48.12-1.24.18-2.35.18-.28,0-.69-.03-1.23-.11-.51-.07-.89-.1-1.15-.1-.09,0-.14,0-.17,0-.01.03-.04.09-.08.2-4.19,11.8-5.26,15-5.39,15.51,0,0,0,0,.01,0,.3,0,.76-.02,1.38-.05.64-.03,1.1-.05,1.41-.05s.79.02,1.42.05c.62.03,1.08.05,1.39.05,0,0,.04-.07.07-.25.11-.63.48-.86.77-.96.22-.07.79-.16,3.22-.16.46,0,.74.29.74.77v.54ZM108.74,10.86c-.35,0-.66-.13-.92-.39-.26-.26-.39-.57-.39-.92,0-.62.38-1.21,1.14-1.76l.17-.12.18.11c.77.46,1.16,1.06,1.16,1.78,0,.35-.13.66-.39.92-.26.26-.57.4-.93.4ZM108.75,8.4c-.47.38-.71.76-.71,1.14,0,.19.07.34.21.49.15.15.3.21.49.21s.35-.07.49-.21c.14-.14.21-.3.21-.49,0-.44-.22-.81-.69-1.14Z"/>
            <path class="cls-4" d="M130.59,17.41c-.19,0-.45-.09-.64-.53-.25-.62-.62-1.51-1.09-2.65l-1.1,2.64c-.19.44-.45.53-.64.53-.24,0-.6,0-1.09-.03-.48-.02-.84-.03-1.07-.03-.24,0-.6,0-1.08.02-.49.02-.86.02-1.1.02-.19,0-.45-.09-.66-.51-4.4-9.29-4.4-9.8-4.4-10.01,0-.61.02-1.53.06-2.73.04-1.2.06-2.12.06-2.71,0-.68.44-.73.57-.73.33,0,.81.02,1.46.05.63.03,1.12.05,1.44.05.28,0,.71-.02,1.28-.05.58-.03,1.02-.05,1.31-.05.24,0,.49.17.49.55,0,.64-.03,1.6-.07,2.88-.05,1.26-.07,2.22-.07,2.85,0,.08.04.37.46,1.33.17.39.29.64.38.79.09-.25.2-.64.32-1.16.21-.83.25-1.15.25-1.28V1.37c0-.61.34-.67.48-.67.32,0,.81.02,1.45.05.63.03,1.11.05,1.42.05.29,0,.72-.02,1.3-.05.6-.03,1.03-.05,1.33-.05.36,0,.59.23.59.58,0,.57-.02,1.45-.06,2.61-.04,1.14-.06,2.01-.06,2.59,0,.15.05.51.3,1.37.16.54.3.96.41,1.23.07-.15.17-.39.31-.75.33-.92.38-1.24.38-1.35,0-.63-.02-1.59-.07-2.85-.05-1.27-.07-2.24-.07-2.88,0-.38.25-.55.49-.55.31,0,.78.02,1.39.05.6.03,1.06.05,1.36.05.33,0,.81-.02,1.45-.05.66-.03,1.14-.05,1.46-.05.13,0,.57.05.57.73,0,.6.02,1.51.06,2.71.04,1.21.06,2.13.06,2.73,0,.1,0,.1-1.1,2.4-.93,1.97-1.15,2.45-1.17,2.5-.73,1.61-1.52,3.33-2.36,5.11l-.16.32c-.12.15-.32.17-.48.18-.28.02-.65.01-1.12-.01-.56-.02-.93-.03-1.08-.03-.23,0-.59,0-1.07.03-.49.02-.85.03-1.09.03ZM128.86,12.64l.29.68c.62,1.47,1.08,2.59,1.38,3.33.06.13.1.16.1.16.2,0,.56-.02,1.04-.04.49-.02.85-.03,1.09-.03.17,0,.53.01,1.11.03.45.02.8.03,1.06.01.02,0,.03,0,.04,0l.07-.15c.84-1.77,1.63-3.48,2.35-5.08.02-.04.17-.38,1.18-2.53.75-1.58.98-2.06,1.04-2.2,0-.6-.02-1.49-.06-2.65-.04-1.21-.06-2.12-.06-2.73,0-.05,0-.09,0-.12-.31,0-.78.02-1.38.05-.64.03-1.14.05-1.48.05-.31,0-.78-.02-1.39-.05-.52-.03-.94-.05-1.23-.05,0,.65.03,1.58.07,2.78.05,1.27.07,2.24.07,2.88,0,.17-.04.52-.42,1.56-.42,1.17-.64,1.38-.92,1.38s-.4-.29-.46-.43c-.14-.28-.31-.76-.52-1.47-.22-.77-.32-1.26-.32-1.54,0-.58.02-1.46.06-2.61.04-1.13.06-1.99.06-2.55-.28,0-.71.02-1.27.05-.58.03-1.03.05-1.33.05-.32,0-.81-.02-1.45-.05-.54-.03-.97-.05-1.28-.05,0,.02,0,.04,0,.06v5.28c0,.15-.03.47-.27,1.43-.16.67-.3,1.13-.4,1.38-.06.15-.18.45-.46.45s-.51-.22-1.01-1.37c-.45-1.05-.51-1.39-.51-1.58,0-.64.03-1.61.07-2.88.05-1.22.07-2.16.07-2.78-.27,0-.66.02-1.15.05-.58.03-1.02.05-1.32.05-.33,0-.82-.02-1.46-.05-.6-.03-1.07-.04-1.38-.05,0,.02,0,.06,0,.12,0,.6-.02,1.52-.06,2.73-.04,1.2-.06,2.11-.06,2.71.02.25.61,1.86,4.34,9.75.06.13.11.16.11.16.23,0,.59,0,1.07-.02.49-.02.86-.02,1.1-.02s.6,0,1.09.03c.47.02.83.03,1.06.03,0,0,.03-.05.08-.16l1.67-4ZM124.97,9.38h0s0,0,0,0Z"/>
            <path class="cls-4" d="M156.97,17.4c-.26,0-.63-.02-1.15-.05-.49-.03-.87-.05-1.11-.05s-.64.02-1.16.05c-.54.03-.94.05-1.21.05-.32,0-.56-.29-.72-.51-2.58-3.57-3.66-4.92-4.11-5.41,0,.59.03,1.42.07,2.48.05,1.19.07,2.1.07,2.7,0,.54-.34.73-.66.73-.28,0-.69-.02-1.26-.05-.55-.03-.96-.05-1.23-.05-.29,0-.74.02-1.33.05-.61.03-1.06.05-1.36.05-.42,0-.69-.25-.69-.64,0-.84.04-2.1.11-3.77.08-1.66.11-2.92.11-3.74s-.04-2.18-.11-3.9c-.07-1.73-.11-3.05-.11-3.92,0-.17.08-.56.78-.56.33,0,1.07-.06,2.2-.19.15-.01.55-.08,1.21-.19.52-.1.94-.14,1.27-.14.24,0,.45.18.73.64.13.2.74,1.08,1.84,2.61.52.76,1.3,1.82,2.34,3.18,0-.58-.05-1.46-.15-2.63-.1-1.19-.15-2.09-.15-2.69,0-.68.38-.76.54-.76.31,0,.77.01,1.39.03.6.02,1.06.03,1.36.03.32,0,.82-.01,1.47-.03.66-.02,1.16-.03,1.49-.03.24,0,.51.16.51.62,0,.87-.04,2.2-.13,3.95-.08,1.74-.13,3.06-.13,3.93l-.02,7.62c0,.28-.19.57-.71.57ZM147.37,10.65c.25,0,.5,0,4.75,5.88.16.22.24.25.24.25.24,0,.63-.02,1.15-.05.54-.03.93-.05,1.2-.05s.63.02,1.15.05c.49.03.87.05,1.11.05.04,0,.07,0,.09,0l.02-7.57c0-.88.04-2.22.13-3.96.08-1.74.13-3.06.13-3.92h0c-.32,0-.78.01-1.37.03-.66.02-1.16.03-1.49.03-.31,0-.77-.01-1.39-.03-.55-.02-.98-.03-1.28-.03,0,.03,0,.08,0,.14,0,.58.05,1.47.15,2.64.1,1.19.15,2.1.15,2.69s-.06.87-.25,1l-.24.17-.18-.23c-1.27-1.64-2.21-2.91-2.8-3.77-1.11-1.56-1.72-2.42-1.85-2.63-.14-.23-.23-.32-.26-.35-.28,0-.65.05-1.11.13-.68.12-1.09.18-1.25.2-1.17.13-1.91.2-2.27.2-.08,0-.13,0-.16.01,0,.86.04,2.14.11,3.82.07,1.73.11,3.06.11,3.93s-.04,2.1-.11,3.77c-.08,1.65-.11,2.91-.11,3.74,0,0,0,.01,0,.02.01,0,.04,0,.07,0,.29,0,.74-.02,1.33-.05.61-.03,1.06-.05,1.36-.05.28,0,.69.02,1.26.05.55.03.96.05,1.23.05.02,0,.03,0,.04,0,0,0,0-.04,0-.11,0-.59-.02-1.49-.07-2.68-.05-1.19-.07-2.1-.07-2.7s.36-.64.47-.64Z"/>
          </g>
        </g>
      </g>
    </g>
  </g>
</svg>