<?xml version="1.0" encoding="UTF-8"?>
<svg id="Layer_2" data-name="Layer 2" xmlns="http://www.w3.org/2000/svg" viewBox="0 0 163.46 22">
  <defs>
    <style>
      .cls-1 {
        fill: #4edcca;
      }

      .cls-2 {
        fill: #8031a7;
      }
    </style>
  </defs>
  <g id="Layer_1-2" data-name="Layer 1">
    <g>
      <rect width="163.46" height="22"/>
      <g>
        <g>
          <path class="cls-1" d="M11.16,5.04v1.61h5.67v3.21h-5.67v10.54h-4.14v-10.54H1.39v-3.21h5.64v-1.61H1.39V1.57h15.44v3.48h-5.67Z"/>
          <path class="cls-2" d="M11.75,20.99h-5.3v-10.54H.81v-4.38h5.64v-.44H.81V.99h16.6v4.64h-5.67v.44h5.67v4.38h-5.67v10.54ZM7.61,19.83h2.97v-10.54h5.67v-2.05h-5.67v-2.77h5.67v-2.32H1.97v2.32h5.64v2.77H1.97v2.05h5.64v10.54Z"/>
        </g>
        <g>
          <path class="cls-1" d="M23.1,8.5l-4.14,1.87V1.57h4.14v6.93ZM18.96,13.45l4.14-1.87v8.83h-4.14v-6.96Z"/>
          <path class="cls-2" d="M23.68,20.99h-5.3v-7.91l5.3-2.4v10.31ZM19.55,19.83h2.97v-7.35l-2.97,1.34v6ZM18.38,11.27V.99h5.3v7.89l-5.3,2.4ZM19.55,2.15v7.32l2.97-1.34V2.15h-2.97Z"/>
        </g>
        <g>
          <path class="cls-1" d="M40.7,5.04h-5.67v1.61h5.67v3.21h-5.67v10.54h-4.14v-10.54h-5.64v-3.21h5.64v-1.61h-5.64V1.57h15.44v3.48Z"/>
          <path class="cls-2" d="M35.62,20.99h-5.3v-10.54h-5.64v-4.38h5.64v-.44h-5.64V.99h16.6v4.64h-5.67v.44h5.67v4.38h-5.67v10.54ZM31.48,19.83h2.97v-10.54h5.67v-2.05h-5.67v-2.77h5.67v-2.32h-14.28v2.32h5.64v2.77h-5.64v2.05h5.64v10.54Z"/>
        </g>
        <g>
          <path class="cls-1" d="M56.83,12.24c.46.7.69,1.57.69,2.61,0,.83-.17,1.63-.5,2.4-.35.74-.85,1.37-1.5,1.9-.33.28-.7.52-1.11.72-.4.2-.85.38-1.34.54-1,.3-2.13.45-3.4.45-1.04,0-2.04-.13-3-.4-.49-.12-.95-.29-1.38-.49-.43-.2-.83-.44-1.2-.7-.74-.55-1.34-1.25-1.79-2.09-.44-.84-.65-1.85-.63-3.03h4.01c0,.6.11,1.14.34,1.63.12.21.26.4.41.58.15.18.32.33.51.47.39.28.83.48,1.32.61.56.14,1.09.21,1.58.21.19,0,.39,0,.58-.03.19-.02.4-.04.61-.08.21-.03.42-.08.62-.13.2-.05.4-.12.59-.21.35-.17.66-.42.92-.73.25-.33.37-.72.37-1.15,0-.51-.17-.93-.5-1.26-.32-.31-.75-.58-1.29-.79-.54-.23-1.14-.41-1.79-.55-.09-.02-.17-.04-.24-.05-.07-.02-.15-.04-.24-.05l5.19-2.35c.19.11.4.22.61.34.63.44,1.16.98,1.58,1.63ZM44.05,10.55c-.53-.39-.95-.89-1.26-1.5-.33-.6-.5-1.33-.5-2.21,0-.95.21-1.78.63-2.5.39-.7.92-1.3,1.61-1.79.67-.47,1.42-.83,2.27-1.05.81-.23,1.65-.34,2.53-.34,1,0,1.95.11,2.85.32.46.12.89.27,1.29.45.4.18.78.39,1.13.63.69.51,1.24,1.14,1.66,1.9.42.77.63,1.7.63,2.77h-4.01c-.05-.6-.18-1.06-.37-1.4-.21-.37-.48-.66-.82-.87-.33-.21-.71-.36-1.13-.45-.21-.04-.43-.07-.67-.09-.24-.03-.49-.04-.75-.04-.16,0-.32,0-.49.03-.17.02-.34.04-.51.08-.16.04-.31.08-.46.14-.15.06-.29.14-.43.22-.26.18-.49.4-.69.66-.18.3-.26.63-.26,1s.07.65.21.9c.16.25.44.46.84.63.19.11.43.21.72.3.29.1.62.19.99.28.21.07.44.14.7.2.25.06.53.13.83.2l-5.19,2.35c-.51-.21-.96-.47-1.34-.79Z"/>
          <path class="cls-2" d="M49.66,21.44c-1.08,0-2.15-.14-3.16-.42-.51-.13-1.02-.31-1.48-.53-.46-.22-.89-.47-1.29-.76-.81-.6-1.47-1.37-1.96-2.29-.49-.93-.72-2.05-.7-3.31v-.57h5.17v.58c0,.5.09.96.28,1.36.1.17.21.33.33.47.12.14.26.27.41.38.32.24.7.41,1.12.51.72.18,1.36.23,1.97.17.18-.02.37-.04.56-.07.19-.03.38-.07.57-.12.17-.04.34-.1.5-.18.26-.13.5-.33.72-.58.15-.2.23-.47.23-.78,0-.35-.1-.62-.33-.85-.26-.26-.62-.48-1.09-.66-.52-.22-1.09-.39-1.7-.52-.09-.02-.18-.04-.25-.06-.06-.01-.13-.03-.21-.05l-1.77-.36,7.1-3.21.25.14c.2.11.4.22.62.35l.04.02c.69.48,1.28,1.08,1.74,1.79.52.8.78,1.78.78,2.92,0,.9-.18,1.79-.55,2.63-.4.83-.95,1.54-1.67,2.12-.36.3-.77.57-1.21.79-.43.21-.91.41-1.43.57-1.06.32-2.26.48-3.58.48ZM42.24,14.72c.05.83.23,1.56.55,2.18.41.76.96,1.4,1.62,1.9.33.24.7.46,1.1.64.39.19.82.34,1.28.45.92.25,1.88.38,2.86.38,1.2,0,2.29-.14,3.23-.42.45-.15.88-.32,1.25-.5.36-.18.69-.4.99-.65.59-.48,1.04-1.05,1.35-1.7.29-.68.44-1.41.44-2.15,0-.92-.2-1.69-.59-2.29h0c-.37-.58-.85-1.07-1.41-1.46-.11-.06-.22-.12-.32-.18l-3.41,1.54c.26.08.5.17.74.27.6.23,1.11.54,1.48.91.45.44.67,1.01.67,1.67,0,.56-.16,1.07-.48,1.5-.34.4-.71.7-1.13.91-.24.11-.47.19-.71.25-.22.06-.44.1-.67.14-.22.04-.44.07-.65.08-.74.07-1.51.01-2.35-.2-.56-.14-1.07-.38-1.52-.7-.23-.17-.44-.36-.62-.57-.17-.2-.33-.42-.47-.66l-.02-.05c-.19-.4-.31-.84-.36-1.3h-2.86ZM45.4,11.98l-.23-.1c-.55-.23-1.05-.52-1.48-.87-.59-.44-1.07-1.01-1.43-1.7-.37-.66-.56-1.5-.56-2.48,0-1.05.24-1.99.71-2.8.42-.76,1.02-1.43,1.77-1.97.72-.51,1.55-.9,2.45-1.14.85-.24,1.75-.36,2.68-.36,1.04,0,2.04.11,2.98.33.5.13.96.29,1.39.48.44.19.85.42,1.23.69.76.57,1.37,1.27,1.83,2.09.47.86.71,1.89.71,3.05v.58h-5.12l-.05-.53c-.05-.51-.14-.9-.29-1.16-.17-.29-.37-.51-.62-.67-.27-.17-.59-.3-.94-.37-.18-.03-.39-.06-.62-.08-.34-.04-.71-.05-1.11-.01-.15.02-.3.04-.46.07-.11.03-.24.06-.35.11-.12.05-.24.11-.35.18-.18.12-.36.29-.51.49-.11.2-.17.43-.17.68s.05.45.13.61c.05.08.2.23.57.39l.05.02c.16.09.37.18.63.26.27.09.59.18.94.26h.05c.19.08.41.14.65.2.25.06.53.13.83.2l1.67.39-6.98,3.15ZM49.32,1.73c-.82,0-1.62.11-2.37.32-.78.21-1.48.54-2.09.97-.61.44-1.09.98-1.43,1.6-.37.64-.56,1.38-.56,2.22,0,.77.14,1.42.43,1.93.28.55.65.99,1.1,1.32l.02.02c.28.23.61.43.97.6l3.45-1.56c-.35-.09-.67-.18-.96-.27-.31-.1-.58-.21-.8-.33-.5-.22-.86-.5-1.08-.84-.21-.36-.3-.76-.3-1.21s.12-.91.34-1.3l.03-.05c.23-.32.51-.59.83-.8.18-.11.36-.2.54-.28.18-.07.37-.13.56-.18.2-.04.39-.07.58-.09.5-.05.95-.03,1.36.01.25.03.48.06.7.1.51.11.96.28,1.35.53.41.26.75.62,1.01,1.07.17.3.3.66.37,1.1h2.89c-.06-.73-.24-1.36-.54-1.91-.38-.67-.88-1.25-1.5-1.71-.3-.21-.65-.41-1.02-.57-.38-.16-.78-.3-1.21-.42-.83-.19-1.74-.3-2.69-.3Z"/>
        </g>
        <g>
          <path class="cls-1" d="M87.55,1.57v18.84h-3.87V7.18h-.05l-4.01,7.56,2.79,5.67h-4.19l-.82-1.53-.79,1.53h-4.19l2.79-5.67-4.01-7.56h-.05v13.23h-3.9V1.57h5.85l4.3,8.72,4.32-8.72h5.82Z"/>
          <path class="cls-2" d="M88.13,20.99h-10.26l-.46-.86-.45.86h-10.29V.99h6.79l3.93,7.99,3.96-7.99h6.77v20ZM80.27,14.75l2.82,5.73v-11.06l-2.82,5.33ZM71.74,9.42v11.06l2.82-5.73-2.82-5.33ZM84.26,19.83h2.71V2.15h-4.88l-4.68,9.45-4.66-9.45h-4.91v17.68h2.74V6.6h.98l4.31,8.13-2.51,5.09h2.9l1.14-2.2,1.17,2.2h2.91l-2.51-5.09,4.31-8.13h.98v13.23Z"/>
        </g>
        <g>
          <path class="cls-1" d="M107.89,13.16c-.11,1.21-.38,2.28-.82,3.21-.44.91-1.02,1.72-1.74,2.42-.7.65-1.55,1.16-2.53,1.53-1,.35-2.06.53-3.19.53-1.42,0-2.72-.25-3.9-.76-.58-.25-1.11-.54-1.59-.88-.48-.34-.93-.73-1.33-1.17-.79-.9-1.4-1.93-1.82-3.11-.42-1.18-.63-2.46-.63-3.85s.21-2.71.63-3.9c.42-1.21,1.03-2.27,1.82-3.16.4-.46.85-.86,1.33-1.21.48-.35,1.01-.65,1.59-.9,1.18-.51,2.48-.76,3.9-.76,1,0,1.98.15,2.92.45.91.28,1.74.71,2.48,1.29.74.58,1.34,1.29,1.82,2.13.46.83.76,1.79.9,2.9h-4.01c-.07-.46-.23-.89-.47-1.29-.25-.42-.55-.77-.92-1.05-.39-.3-.81-.53-1.26-.68-.42-.18-.9-.26-1.45-.26-.95,0-1.74.18-2.37.55-.65.33-1.18.82-1.58,1.45-.4.58-.7,1.26-.9,2.06-.05.23-.1.45-.13.66-.04.21-.06.43-.08.66l9.09,4.14v.16c.11-.37.18-.75.24-1.13h4.01ZM97.25,16.83c.63.37,1.42.55,2.37.55,1.05,0,1.91-.27,2.58-.82l-7.48-3.4s.03.07.03.12,0,.08.03.12c.19.77.49,1.44.9,2.02.39.58.91,1.05,1.58,1.41Z"/>
          <path class="cls-2" d="M99.62,21.44c-1.5,0-2.89-.27-4.13-.81-.61-.26-1.18-.58-1.7-.94-.51-.36-.99-.79-1.42-1.25-.84-.96-1.49-2.07-1.94-3.31-.44-1.23-.67-2.59-.67-4.04s.22-2.84.67-4.09c.44-1.28,1.09-2.4,1.93-3.35.43-.49.91-.92,1.42-1.3.52-.38,1.09-.7,1.71-.96,1.24-.54,2.63-.81,4.13-.81,1.06,0,2.1.16,3.1.47.97.3,1.87.77,2.66,1.39.8.62,1.46,1.4,1.97,2.31.49.89.82,1.94.97,3.11l.08.65h-5.16l-.08-.49c-.06-.38-.19-.74-.4-1.08-.21-.36-.47-.66-.78-.89-.34-.26-.71-.46-1.1-.6-.38-.16-.8-.23-1.26-.23-.84,0-1.54.16-2.08.47-.59.3-1.03.71-1.38,1.26-.37.54-.65,1.16-.82,1.88-.05.21-.09.42-.12.62-.01.07-.02.14-.03.21l8.09,3.68c.01-.08.03-.16.04-.24l.07-.5h5.15l-.06.63c-.11,1.27-.4,2.42-.87,3.41-.47.98-1.09,1.85-1.86,2.59-.77.71-1.68,1.26-2.73,1.66-1.07.38-2.21.56-3.39.56ZM103.07,14.51l-9.12-4.15.03-.41c.02-.25.05-.48.09-.71.04-.22.08-.45.14-.69.21-.86.54-1.62.99-2.26.45-.7,1.05-1.25,1.79-1.63.69-.4,1.59-.62,2.64-.62.62,0,1.18.1,1.67.31.48.16.96.43,1.4.76.42.32.79.74,1.07,1.22.19.31.34.65.44,1h2.86c-.15-.76-.39-1.44-.72-2.04-.43-.77-.99-1.43-1.67-1.96-.68-.53-1.45-.93-2.29-1.19-.89-.28-1.82-.42-2.75-.42-1.34,0-2.57.24-3.67.72-.54.23-1.04.51-1.48.83-.45.33-.86.7-1.24,1.13-.74.83-1.31,1.83-1.7,2.97-.4,1.13-.6,2.38-.6,3.71s.2,2.54.6,3.65c.39,1.1.97,2.08,1.71,2.92.37.4.78.77,1.23,1.08.45.32.95.59,1.49.82,1.1.48,2.34.72,3.67.72,1.05,0,2.06-.17,3-.49.9-.34,1.68-.81,2.33-1.41.66-.64,1.2-1.4,1.61-2.25.33-.7.56-1.5.69-2.38h-2.86c-.05.24-.1.48-.17.71M103.07,16.6l-.5.41c-.77.63-1.76.95-2.95.95-1.04,0-1.94-.21-2.66-.62-.74-.41-1.34-.95-1.78-1.6-.43-.61-.76-1.34-.97-2.15-.03-.07-.05-.15-.05-.23l-.67-1.39M95.67,14.23c.14.31.29.59.48.85.34.51.8.92,1.38,1.24h.01c.54.32,1.24.48,2.08.48.48,0,.91-.06,1.29-.18l-5.24-2.38Z"/>
        </g>
        <g>
          <path class="cls-1" d="M127.34,20.43h-2.63l-.42-2.13c-.74.95-1.55,1.61-2.45,1.98-.88.39-1.78.58-2.71.58-1.42,0-2.72-.25-3.9-.76-1.14-.51-2.11-1.19-2.9-2.06-.79-.9-1.4-1.93-1.82-3.11-.42-1.18-.63-2.46-.63-3.85s.21-2.71.63-3.9c.42-1.21,1.03-2.27,1.82-3.16s1.76-1.6,2.9-2.11c1.18-.51,2.48-.76,3.9-.76.98,0,1.92.14,2.82.42.86.28,1.68.71,2.45,1.29.37.28.7.6.99.95.29.35.56.73.8,1.13.47.83.76,1.77.87,2.85h-3.95c-.25-1.05-.72-1.84-1.42-2.37-.72-.53-1.57-.79-2.56-.79-.93,0-1.72.18-2.37.55-.65.33-1.18.82-1.58,1.45-.19.3-.37.62-.53.96-.16.34-.28.71-.37,1.09-.18.76-.26,1.55-.26,2.4,0,.4.02.8.07,1.19.04.39.11.76.2,1.13.09.37.21.72.37,1.07.16.34.33.66.53.96.39.58.91,1.05,1.58,1.42.65.37,1.44.55,2.37.55,1.33,0,2.4-.35,3.19-1.05.05-.05.09-.1.11-.13h-2.98v-2.71h4.14s.03-.1.03-.18l.03-1.16-.08-.03h-4.11v-2.74h7.9v11.04Z"/>
          <path class="cls-2" d="M119.12,21.44c-1.5,0-2.89-.27-4.13-.81-1.22-.54-2.25-1.28-3.1-2.2-.84-.96-1.49-2.07-1.94-3.31-.44-1.23-.67-2.59-.67-4.04s.22-2.84.67-4.09c.44-1.28,1.09-2.4,1.93-3.35.84-.95,1.88-1.71,3.1-2.25,1.25-.54,2.64-.81,4.14-.81,1.04,0,2.04.15,2.99.45.92.3,1.81.77,2.63,1.38.41.31.77.66,1.09,1.04.31.37.59.77.85,1.2.52.91.84,1.94.95,3.09l.06.64h-5.05l-.1-.45c-.22-.93-.61-1.59-1.21-2.04-.62-.45-1.34-.67-2.21-.67s-1.53.16-2.08.48c-.58.3-1.03.71-1.38,1.26-.18.28-.34.58-.49.89-.14.3-.25.63-.33.98-.17.71-.25,1.47-.25,2.27,0,.38.02.76.06,1.12.04.36.1.72.19,1.06.08.33.19.65.33.96.15.32.31.62.49.89.33.49.79.91,1.37,1.23.56.32,1.27.48,2.09.48.19,0,.38,0,.56-.02h-.82v-3.88h4.17v-.21s-4.17,0-4.17,0v-3.9h9.07v12.2h-3.69l-.29-1.46c-.59.56-1.22.98-1.88,1.26-.94.41-1.93.62-2.94.62ZM119.12,1.73c-1.34,0-2.57.24-3.67.72-1.05.47-1.96,1.13-2.69,1.96-.74.83-1.31,1.83-1.71,2.97-.4,1.13-.6,2.38-.6,3.71s.2,2.54.6,3.65c.39,1.1.97,2.08,1.71,2.92.73.79,1.64,1.44,2.7,1.91,1.09.47,2.33.71,3.66.71.84,0,1.68-.18,2.48-.53.81-.33,1.55-.94,2.23-1.8l.78-1.01.58,2.92h1.58v-9.88h-6.74v1.58h3.62l.58.19-.04,1.59c0,.17-.03.31-.09.43l-.16.32h-3.92v1.55h3.34l-.42.84c-.05.09-.11.18-.21.28-.92.82-2.12,1.22-3.6,1.22-1.03,0-1.92-.21-2.66-.63-.74-.41-1.34-.95-1.78-1.61-.21-.32-.4-.67-.57-1.04-.17-.38-.31-.77-.41-1.18-.09-.39-.16-.79-.21-1.2-.05-.4-.07-.83-.07-1.25,0-.88.09-1.73.28-2.53.1-.42.23-.83.41-1.21.17-.37.36-.71.57-1.03.46-.71,1.06-1.27,1.8-1.65.71-.41,1.61-.62,2.64-.62,1.1,0,2.08.3,2.9.9.71.53,1.22,1.29,1.52,2.26h2.84c-.13-.73-.37-1.39-.71-1.98-.22-.37-.48-.72-.75-1.05-.26-.32-.56-.6-.89-.86-.71-.54-1.48-.94-2.28-1.2-.83-.26-1.72-.39-2.64-.39ZM121.92,15.91s0,0,0,0c0,0,0,0,0,0h0Z"/>
        </g>
        <g>
          <path class="cls-1" d="M134.82,16.93h10.17v3.48h-14.31V1.57h14.1v3.48h-9.96v1.92h9.14v3.21h-9.14v1.61h9.14v3.21h-9.14v1.92Z"/>
          <path class="cls-2" d="M145.58,20.99h-15.47V.99h15.26v4.64h-9.96v.76h9.14v4.38h-9.14v.44h9.14v4.38h-9.14v.76h10.17v4.64ZM131.27,19.83h13.15v-2.32h-10.17v-3.09h9.14v-2.05h-9.14v-2.77h9.14v-2.05h-9.14v-3.09h9.96v-2.32h-12.93v17.68Z"/>
        </g>
        <g>
          <path class="cls-1" d="M151.9,16.93h10.17v3.48h-14.31V1.57h14.1v3.48h-9.96v1.92h9.14v3.21h-9.14v1.61h9.14v3.21h-9.14v1.92Z"/>
          <path class="cls-2" d="M162.65,20.99h-15.47V.99h15.26v4.64h-9.96v.76h9.14v4.38h-9.14v.44h9.14v4.38h-9.14v.76h10.17v4.64ZM148.34,19.83h13.15v-2.32h-10.17v-3.09h9.14v-2.05h-9.14v-2.77h9.14v-2.05h-9.14v-3.09h9.96v-2.32h-12.93v17.68Z"/>
        </g>
      </g>
    </g>
  </g>
</svg>