<?xml version="1.0" encoding="UTF-8"?>
<svg id="Layer_2" data-name="Layer 2" xmlns="http://www.w3.org/2000/svg" viewBox="0 0 161.27 22">
  <defs>
    <style>
      .cls-1 {
        fill: #de5463;
      }

      .cls-2 {
        fill: #fff;
      }

      .cls-3 {
        fill: #113350;
      }
    </style>
  </defs>
  <g id="Layer_1-2" data-name="Layer 1">
    <g>
      <rect class="cls-3" width="161.27" height="22"/>
      <g>
        <g>
          <path class="cls-1" d="M13.82,14.61c0,1.61-.48,2.88-1.45,3.8-.97.92-2.31,1.38-4.02,1.38s-3.15-.47-4.1-1.42c-.96-.94-1.44-2.3-1.44-4.06V2.27h3.74v11.45c0,.81.16,1.43.47,1.86.32.44.76.65,1.33.65.53,0,.95-.21,1.26-.63.31-.42.46-.99.46-1.7V2.27h3.75v12.33Z"/>
          <path class="cls-2" d="M8.35,20.38c-1.93,0-3.45-.53-4.52-1.58-1.07-1.05-1.61-2.56-1.61-4.47V1.69h4.91v12.04c0,.68.12,1.19.36,1.52.21.28.47.41.85.41.34,0,.59-.12.78-.39.23-.32.35-.77.35-1.36V1.69h4.93v12.92c0,1.77-.55,3.19-1.63,4.23-1.08,1.02-2.56,1.54-4.43,1.54ZM3.4,2.86v11.46c0,1.59.42,2.81,1.26,3.64.84.83,2.08,1.25,3.69,1.25s2.77-.41,3.62-1.22c.85-.81,1.27-1.92,1.27-3.38V2.86h-2.58v11.04c0,.84-.19,1.53-.57,2.05-.42.57-1.02.87-1.73.87-.75,0-1.38-.31-1.8-.89-.39-.54-.59-1.28-.59-2.21V2.86h-2.57Z"/>
        </g>
        <g>
          <path class="cls-1" d="M25.08,10.8c1,.46,1.7,1.02,2.1,1.69.4.67.6,1.54.6,2.63,0,1.22-.44,2.25-1.31,3.08-.88.83-1.95,1.25-3.22,1.25h-6.15V2.27h5.27c1.48,0,2.7.41,3.65,1.23.95.82,1.42,1.86,1.42,3.13,0,1.03-.19,1.86-.56,2.5-.38.64-.98,1.2-1.8,1.66ZM20.82,9.53h.76c.63,0,1.13-.2,1.5-.6s.56-.93.56-1.6c0-1.54-.78-2.31-2.33-2.31h-.48v4.51ZM20.82,16.65l1.08-.03c.64,0,1.13-.21,1.48-.59.35-.38.52-.93.52-1.64,0-1.51-.77-2.27-2.32-2.27h-.76v4.52Z"/>
          <path class="cls-2" d="M23.25,20.03h-6.73V1.69h5.85c1.62,0,2.98.46,4.03,1.37,1.08.93,1.63,2.13,1.63,3.57,0,1.13-.22,2.07-.64,2.8-.28.48-.68.92-1.17,1.31.65.41,1.14.9,1.47,1.44.46.76.69,1.74.69,2.93,0,1.38-.5,2.56-1.49,3.5-.98.94-2.2,1.41-3.63,1.41ZM17.69,18.86h5.56c1.13,0,2.05-.36,2.82-1.09.76-.73,1.13-1.59,1.13-2.65,0-.97-.18-1.75-.52-2.32-.34-.56-.96-1.05-1.85-1.46l-1.04-.48,1-.57c.73-.41,1.26-.9,1.58-1.45.32-.55.48-1.29.48-2.21,0-1.1-.4-1.97-1.22-2.68-.85-.73-1.91-1.09-3.27-1.09h-4.68v16ZM20.23,17.26v-5.71h1.35c1.87,0,2.91,1.01,2.91,2.86,0,.85-.23,1.54-.68,2.03-.46.51-1.1.77-1.9.78l-1.67.04ZM21.4,12.72v3.33h.48c.48-.02.82-.15,1.06-.41.25-.27.37-.69.37-1.24,0-1.19-.5-1.68-1.73-1.68h-.17ZM21.58,10.12h-1.35v-5.68h1.07c1.88,0,2.92,1.03,2.92,2.9,0,.82-.24,1.49-.72,2-.49.52-1.13.78-1.93.78ZM21.4,8.95h.17c.46,0,.81-.13,1.07-.41.27-.29.4-.68.4-1.2,0-1.17-.49-1.69-1.65-1.72v3.33Z"/>
        </g>
        <g>
          <path class="cls-1" d="M41.14,14.61c0,1.61-.48,2.88-1.45,3.8-.97.92-2.31,1.38-4.02,1.38s-3.15-.47-4.1-1.42c-.96-.94-1.44-2.3-1.44-4.06V2.27h3.74v11.45c0,.81.16,1.43.47,1.86.32.44.76.65,1.33.65.53,0,.95-.21,1.26-.63.31-.42.46-.99.46-1.7V2.27h3.75v12.33Z"/>
          <path class="cls-2" d="M35.67,20.38c-1.93,0-3.45-.53-4.52-1.58-1.07-1.05-1.61-2.56-1.61-4.47V1.69h4.91v12.04c0,.68.12,1.19.36,1.52.21.28.47.41.85.41.34,0,.59-.12.78-.39.23-.32.35-.77.35-1.36V1.69h4.93v12.92c0,1.77-.55,3.19-1.63,4.23-1.08,1.02-2.56,1.54-4.43,1.54ZM30.71,2.86v11.46c0,1.59.42,2.81,1.26,3.64.84.83,2.08,1.25,3.69,1.25s2.77-.41,3.62-1.22c.85-.81,1.27-1.92,1.27-3.38V2.86h-2.58v11.04c0,.84-.19,1.53-.57,2.05-.42.57-1.02.87-1.73.87-.75,0-1.38-.31-1.8-.89-.39-.54-.59-1.28-.59-2.21V2.86h-2.57Z"/>
        </g>
        <g>
          <path class="cls-1" d="M52.32,19.44h-8.03V2.27h3.68v13.79h4.34v3.38Z"/>
          <path class="cls-2" d="M52.9,20.03h-9.2V1.69h4.86v13.79h4.34v4.56ZM44.87,18.86h6.86v-2.21h-4.34V2.86h-2.51v16Z"/>
        </g>
        <g>
          <path class="cls-1" d="M65.02,14.61c0,1.61-.48,2.88-1.45,3.8-.97.92-2.31,1.38-4.02,1.38s-3.15-.47-4.1-1.42c-.96-.94-1.44-2.3-1.44-4.06V2.27h3.74v11.45c0,.81.16,1.43.47,1.86.32.44.76.65,1.33.65.53,0,.95-.21,1.26-.63.31-.42.46-.99.46-1.7V2.27h3.75v12.33Z"/>
          <path class="cls-2" d="M59.55,20.38c-1.93,0-3.45-.53-4.52-1.58-1.07-1.05-1.61-2.56-1.61-4.47V1.69h4.91v12.04c0,.68.12,1.19.36,1.52.21.28.47.41.85.41.34,0,.59-.12.78-.39.23-.32.35-.77.35-1.36V1.69h4.93v12.92c0,1.77-.55,3.19-1.63,4.23-1.08,1.02-2.56,1.54-4.43,1.54ZM54.59,2.86v11.46c0,1.59.42,2.81,1.26,3.64.84.83,2.08,1.25,3.69,1.25s2.77-.41,3.62-1.22c.85-.81,1.27-1.92,1.27-3.38V2.86h-2.58v11.04c0,.84-.19,1.53-.57,2.05-.42.57-1.02.87-1.73.87-.75,0-1.38-.31-1.8-.89-.39-.54-.59-1.28-.59-2.21V2.86h-2.57Z"/>
        </g>
        <g>
          <path class="cls-1" d="M75.69,7.11c-.98-1.15-1.92-1.72-2.82-1.72-.4,0-.76.13-1.08.4-.32.27-.47.56-.47.89,0,.6.5,1.3,1.5,2.12,1.04.83,1.79,1.49,2.23,1.97s.79,1.05,1.06,1.7c.27.65.4,1.36.4,2.13,0,1.51-.48,2.75-1.45,3.73-.97.97-2.21,1.46-3.73,1.46-1.25,0-2.47-.44-3.66-1.33v-4.06c1.15,1.25,2.29,1.87,3.44,1.87.51,0,.94-.14,1.29-.43.34-.28.52-.63.52-1.04,0-.61-.44-1.3-1.32-2.05-1.4-1.21-2.32-2.11-2.76-2.7-.44-.59-.76-1.19-.98-1.79-.22-.6-.32-1.21-.32-1.82,0-1.32.46-2.41,1.39-3.27.93-.86,2.1-1.29,3.53-1.29,1.08,0,2.16.31,3.24.93v4.3Z"/>
          <path class="cls-2" d="M71.31,20.38c-1.37,0-2.72-.49-4.01-1.45l-.24-.18v-5.85l1.02,1.11c1.02,1.11,2.04,1.68,3.01,1.68.38,0,.67-.1.91-.29.21-.17.3-.36.3-.59,0-.3-.19-.82-1.11-1.6-1.45-1.25-2.38-2.17-2.85-2.8-.47-.63-.82-1.29-1.06-1.94-.24-.66-.36-1.34-.36-2.02,0-1.48.53-2.73,1.58-3.7,1.03-.96,2.36-1.45,3.93-1.45,1.18,0,2.37.34,3.54,1.01l.29.17v6.23l-1.03-1.21c-.86-1-1.66-1.51-2.37-1.51-.27,0-.49.08-.7.26-.24.2-.27.35-.27.44,0,.19.13.72,1.28,1.66,1.07.86,1.82,1.52,2.29,2.03.48.53.88,1.16,1.17,1.87.29.72.44,1.51.44,2.35,0,1.67-.55,3.06-1.62,4.14-1.08,1.08-2.47,1.63-4.15,1.63ZM68.24,18.15c1.01.7,2.04,1.05,3.07,1.05,1.37,0,2.46-.42,3.32-1.28.86-.86,1.28-1.95,1.28-3.31,0-.69-.12-1.33-.36-1.91-.24-.58-.56-1.1-.95-1.52-.42-.46-1.14-1.1-2.16-1.91-1.16-.95-1.72-1.79-1.72-2.58,0-.35.12-.87.68-1.34.42-.36.91-.54,1.46-.54.74,0,1.48.3,2.23.91v-2.56c-.89-.46-1.78-.7-2.66-.7-1.29,0-2.31.37-3.13,1.14-.81.75-1.2,1.68-1.2,2.84,0,.54.1,1.09.29,1.62.19.54.5,1.09.9,1.64.41.55,1.3,1.43,2.67,2.61,1.02.87,1.52,1.69,1.52,2.49,0,.59-.25,1.1-.73,1.5-.45.37-1.01.56-1.66.56-.96,0-1.91-.37-2.85-1.11v2.41Z"/>
        </g>
        <g>
          <path class="cls-1" d="M100.97,19.44h-3.54l-.84-14.05h-.06l-2.61,14.05h-2.64l-2.5-14.13h-.06l-.95,14.13h-3.54l1.77-17.17h4.67l1.89,11.31h.05l2.05-11.31h4.61l1.66,17.17Z"/>
          <path class="cls-2" d="M101.62,20.03h-4.73l-.6-10.04-1.87,10.04h-3.62l-1.78-10.09-.68,10.09h-4.74l1.89-18.34h5.7l1.44,8.64,1.57-8.64h5.64l1.78,18.34ZM97.99,18.86h2.34l-1.55-16h-3.59l-2.05,11.31h-1.04l-1.89-11.31h-3.65l-1.65,16h2.34l.95-14.13h1.1l2.5,14.13h1.66l2.61-14.05h1.1l.84,14.05Z"/>
        </g>
        <g>
          <path class="cls-1" d="M114.29,14.61c0,1.61-.48,2.88-1.45,3.8-.97.92-2.31,1.38-4.02,1.38s-3.15-.47-4.1-1.42c-.96-.94-1.44-2.3-1.44-4.06V2.27h3.74v11.45c0,.81.16,1.43.47,1.86.32.44.76.65,1.33.65.53,0,.95-.21,1.26-.63.31-.42.46-.99.46-1.7V2.27h3.75v12.33Z"/>
          <path class="cls-2" d="M108.82,20.38c-1.93,0-3.45-.53-4.52-1.58-1.07-1.05-1.61-2.56-1.61-4.47V1.69h4.91v12.04c0,.68.12,1.19.36,1.52.21.28.47.41.85.41.34,0,.59-.12.78-.39.23-.32.35-.77.35-1.36V1.69h4.93v12.92c0,1.77-.55,3.19-1.63,4.23-1.08,1.02-2.56,1.54-4.43,1.54ZM103.87,2.86v11.46c0,1.59.42,2.81,1.26,3.64.84.83,2.08,1.25,3.69,1.25s2.77-.41,3.62-1.22c.85-.81,1.27-1.92,1.27-3.38V2.86h-2.58v11.04c0,.84-.19,1.53-.57,2.05-.42.57-1.02.87-1.73.87-.75,0-1.38-.31-1.8-.89-.39-.54-.59-1.28-.59-2.21V2.86h-2.57Z"/>
        </g>
        <g>
          <path class="cls-1" d="M124.96,7.11c-.98-1.15-1.92-1.72-2.82-1.72-.4,0-.76.13-1.08.4-.32.27-.47.56-.47.89,0,.6.5,1.3,1.5,2.12,1.04.83,1.79,1.49,2.23,1.97s.79,1.05,1.06,1.7c.27.65.4,1.36.4,2.13,0,1.51-.48,2.75-1.45,3.73-.97.97-2.21,1.46-3.73,1.46-1.25,0-2.47-.44-3.66-1.33v-4.06c1.15,1.25,2.29,1.87,3.44,1.87.51,0,.94-.14,1.29-.43.34-.28.52-.63.52-1.04,0-.61-.44-1.3-1.32-2.05-1.4-1.21-2.32-2.11-2.76-2.7-.44-.59-.76-1.19-.98-1.79-.22-.6-.32-1.21-.32-1.82,0-1.32.46-2.41,1.39-3.27.93-.86,2.1-1.29,3.53-1.29,1.08,0,2.16.31,3.24.93v4.3Z"/>
          <path class="cls-2" d="M120.59,20.38c-1.37,0-2.72-.49-4.01-1.45l-.24-.18v-5.85l1.02,1.11c1.02,1.11,2.04,1.68,3.01,1.68.38,0,.67-.1.91-.29.21-.17.3-.36.3-.59,0-.3-.19-.82-1.11-1.6-1.45-1.25-2.38-2.17-2.85-2.8-.47-.63-.82-1.29-1.06-1.94-.24-.66-.36-1.34-.36-2.02,0-1.48.53-2.73,1.58-3.7,1.03-.96,2.36-1.45,3.93-1.45,1.18,0,2.37.34,3.54,1.01l.29.17v6.23l-1.03-1.21c-.86-1-1.66-1.51-2.37-1.51-.27,0-.49.08-.7.26-.24.2-.27.35-.27.44,0,.19.13.72,1.28,1.66,1.07.86,1.82,1.52,2.29,2.03.48.53.88,1.16,1.17,1.87.29.72.44,1.51.44,2.35,0,1.67-.55,3.06-1.62,4.14-1.08,1.08-2.47,1.63-4.15,1.63ZM117.52,18.15c1.01.7,2.04,1.05,3.07,1.05,1.37,0,2.46-.42,3.32-1.28.86-.86,1.28-1.95,1.28-3.31,0-.69-.12-1.33-.36-1.91-.24-.58-.56-1.1-.95-1.52-.42-.46-1.14-1.1-2.16-1.91-1.16-.95-1.72-1.79-1.72-2.58,0-.35.12-.87.68-1.34.42-.36.91-.54,1.46-.54.74,0,1.48.3,2.23.91v-2.56c-.89-.46-1.78-.7-2.66-.7-1.29,0-2.31.37-3.13,1.14-.81.75-1.2,1.68-1.2,2.84,0,.54.1,1.09.29,1.62.19.54.5,1.09.9,1.64.41.55,1.3,1.43,2.67,2.61,1.02.87,1.52,1.69,1.52,2.49,0,.59-.25,1.1-.73,1.5-.45.37-1.01.56-1.66.56-.96,0-1.91-.37-2.85-1.11v2.41Z"/>
        </g>
        <g>
          <path class="cls-1" d="M138.19,19.17c-.94.41-1.99.62-3.15.62-2.07,0-3.8-.76-5.19-2.27s-2.08-3.72-2.08-6.61.69-5.24,2.06-6.74c1.37-1.51,2.98-2.26,4.81-2.26,1.1,0,2.27.29,3.52.86v3.6c-.97-.5-1.6-.78-1.89-.84-.29-.06-.6-.1-.93-.1-.97,0-1.82.4-2.56,1.21-.73.81-1.1,2.2-1.1,4.17s.36,3.49,1.07,4.28c.71.79,1.59,1.19,2.65,1.19.86,0,1.79-.34,2.79-1.02v3.92Z"/>
          <path class="cls-2" d="M135.04,20.38c-2.23,0-4.12-.83-5.62-2.46-1.48-1.62-2.24-3.98-2.24-7.01s.75-5.53,2.22-7.14c2.36-2.59,5.46-3.17,9.01-1.54l.34.16v4.94l-.85-.44c-1.26-.64-1.64-.77-1.75-.79-.25-.05-.51-.08-.8-.08-.81,0-1.5.33-2.12,1.02-.63.69-.95,1.96-.95,3.77,0,1.9.31,3.21.92,3.89.6.67,1.32.99,2.21.99.74,0,1.57-.31,2.46-.92l.92-.62v5.41l-.35.15c-1.01.45-2.15.67-3.38.67ZM134.64,2.49c-1.68,0-3.11.68-4.38,2.07-1.27,1.39-1.91,3.53-1.91,6.35s.65,4.82,1.93,6.22c1.28,1.4,2.84,2.08,4.76,2.08.93,0,1.79-.14,2.56-.43v-2.49c-.76.38-1.5.58-2.2.58-1.22,0-2.26-.47-3.08-1.38-.82-.91-1.22-2.44-1.22-4.67s.41-3.63,1.25-4.56c.85-.93,1.85-1.4,2.99-1.4.37,0,.73.04,1.06.11.16.04.46.13,1.18.47v-2.27c-1.04-.43-2.02-.65-2.93-.65Z"/>
        </g>
        <g>
          <path class="cls-1" d="M148.63,19.44h-8.03V2.27h3.68v13.79h4.34v3.38Z"/>
          <path class="cls-2" d="M149.22,20.03h-9.2V1.69h4.86v13.79h4.34v4.56ZM141.19,18.86h6.86v-2.21h-4.34V2.86h-2.51v16Z"/>
        </g>
        <g>
          <path class="cls-1" d="M159.43,19.44h-8.57V2.27h8.03v3.31h-4.34v3.49h3.73v3.19h-3.73v3.79h4.88v3.38Z"/>
          <path class="cls-2" d="M160.01,20.03h-9.74V1.69h9.2v4.49h-4.34v2.32h3.73v4.36h-3.73v2.62h4.88v4.56ZM151.45,18.86h7.39v-2.21h-4.88v-4.97h3.73v-2.02h-3.73v-4.67h4.34v-2.14h-6.86v16Z"/>
        </g>
      </g>
    </g>
  </g>
</svg>